G04 #@! TF.GenerationSoftware,KiCad,Pcbnew,(5.0.2)-1*
G04 #@! TF.CreationDate,2019-01-25T23:03:49-05:00*
G04 #@! TF.ProjectId,midimerger,6d696469-6d65-4726-9765-722e6b696361,rev?*
G04 #@! TF.SameCoordinates,PX60e4b00PY695f190*
G04 #@! TF.FileFunction,Copper,L2,Bot*
G04 #@! TF.FilePolarity,Positive*
%FSLAX46Y46*%
G04 Gerber Fmt 4.6, Leading zero omitted, Abs format (unit mm)*
G04 Created by KiCad (PCBNEW (5.0.2)-1) date 2019-01-25 11:03:49 PM*
%MOMM*%
%LPD*%
G01*
G04 APERTURE LIST*
G04 #@! TA.AperFunction,ComponentPad*
%ADD10C,1.800000*%
G04 #@! TD*
G04 #@! TA.AperFunction,ComponentPad*
%ADD11R,1.600000X1.600000*%
G04 #@! TD*
G04 #@! TA.AperFunction,ComponentPad*
%ADD12C,1.900000*%
G04 #@! TD*
G04 #@! TA.AperFunction,ComponentPad*
%ADD13C,3.300000*%
G04 #@! TD*
G04 #@! TA.AperFunction,ComponentPad*
%ADD14R,1.200000X1.200000*%
G04 #@! TD*
G04 #@! TA.AperFunction,ComponentPad*
%ADD15C,1.200000*%
G04 #@! TD*
G04 #@! TA.AperFunction,ComponentPad*
%ADD16O,1.600000X1.600000*%
G04 #@! TD*
G04 #@! TA.AperFunction,ComponentPad*
%ADD17C,2.499360*%
G04 #@! TD*
G04 #@! TA.AperFunction,WasherPad*
%ADD18C,2.499360*%
G04 #@! TD*
G04 #@! TA.AperFunction,ComponentPad*
%ADD19C,1.600000*%
G04 #@! TD*
G04 #@! TA.AperFunction,Conductor*
%ADD20C,0.635000*%
G04 #@! TD*
G04 #@! TA.AperFunction,Conductor*
%ADD21C,0.250000*%
G04 #@! TD*
G04 #@! TA.AperFunction,Conductor*
%ADD22C,0.100000*%
G04 #@! TD*
G04 APERTURE END LIST*
D10*
G04 #@! TO.P,U1,62*
G04 #@! TO.N,GND*
X17320000Y20320000D03*
G04 #@! TO.P,U1,61*
X17320000Y17780000D03*
G04 #@! TO.P,U1,60*
G04 #@! TO.N,/H_USB_D+*
X17320000Y15240000D03*
G04 #@! TO.P,U1,59*
G04 #@! TO.N,/H_USB_D-*
X17320000Y12700000D03*
G04 #@! TO.P,U1,58*
G04 #@! TO.N,/H_USB_5V*
X17320000Y10160000D03*
G04 #@! TO.P,U1,86*
G04 #@! TO.N,Net-(U1-Pad86)*
X10160000Y19050000D03*
G04 #@! TO.P,U1,85*
G04 #@! TO.N,Net-(U1-Pad85)*
X10160000Y21590000D03*
G04 #@! TO.P,U1,84*
G04 #@! TO.N,Net-(U1-Pad84)*
X10160000Y24130000D03*
G04 #@! TO.P,U1,83*
G04 #@! TO.N,Net-(U1-Pad83)*
X10160000Y26670000D03*
G04 #@! TO.P,U1,82*
G04 #@! TO.N,Net-(U1-Pad82)*
X10160000Y41910000D03*
G04 #@! TO.P,U1,81*
G04 #@! TO.N,Net-(U1-Pad81)*
X10160000Y44450000D03*
G04 #@! TO.P,U1,80*
G04 #@! TO.N,Net-(U1-Pad80)*
X10160000Y46990000D03*
G04 #@! TO.P,U1,79*
G04 #@! TO.N,Net-(U1-Pad79)*
X10160000Y52070000D03*
G04 #@! TO.P,U1,78*
G04 #@! TO.N,Net-(U1-Pad78)*
X10160000Y54610000D03*
G04 #@! TO.P,U1,77*
G04 #@! TO.N,Net-(U1-Pad77)*
X10160000Y57150000D03*
G04 #@! TO.P,U1,76*
G04 #@! TO.N,Net-(U1-Pad76)*
X10160000Y59690000D03*
G04 #@! TO.P,U1,75*
G04 #@! TO.N,Net-(U1-Pad75)*
X10160000Y62230000D03*
G04 #@! TO.P,U1,74*
G04 #@! TO.N,Net-(U1-Pad74)*
X12700000Y62230000D03*
G04 #@! TO.P,U1,73*
G04 #@! TO.N,Net-(U1-Pad73)*
X12700000Y59690000D03*
G04 #@! TO.P,U1,72*
G04 #@! TO.N,Net-(U1-Pad72)*
X12700000Y57150000D03*
G04 #@! TO.P,U1,71*
G04 #@! TO.N,Net-(U1-Pad71)*
X12700000Y54610000D03*
G04 #@! TO.P,U1,70*
G04 #@! TO.N,Net-(U1-Pad70)*
X12700000Y52070000D03*
G04 #@! TO.P,U1,69*
G04 #@! TO.N,Net-(U1-Pad69)*
X12700000Y46990000D03*
G04 #@! TO.P,U1,68*
G04 #@! TO.N,Net-(U1-Pad68)*
X12700000Y44450000D03*
G04 #@! TO.P,U1,67*
G04 #@! TO.N,Net-(U1-Pad67)*
X12700000Y41910000D03*
G04 #@! TO.P,U1,66*
G04 #@! TO.N,Net-(U1-Pad66)*
X12700000Y26670000D03*
G04 #@! TO.P,U1,65*
G04 #@! TO.N,Net-(U1-Pad65)*
X12700000Y24130000D03*
G04 #@! TO.P,U1,64*
G04 #@! TO.N,Net-(U1-Pad64)*
X12700000Y21590000D03*
G04 #@! TO.P,U1,63*
G04 #@! TO.N,Net-(U1-Pad63)*
X12700000Y19050000D03*
G04 #@! TO.P,U1,57*
G04 #@! TO.N,Net-(U1-Pad57)*
X7620000Y16510000D03*
G04 #@! TO.P,U1,56*
G04 #@! TO.N,Net-(U1-Pad56)*
X7620000Y13970000D03*
G04 #@! TO.P,U1,55*
G04 #@! TO.N,Net-(U1-Pad55)*
X7620000Y11430000D03*
G04 #@! TO.P,U1,54*
G04 #@! TO.N,Net-(U1-Pad54)*
X7620000Y6350000D03*
G04 #@! TO.P,U1,53*
G04 #@! TO.N,/5V*
X5080000Y3810000D03*
G04 #@! TO.P,U1,52*
G04 #@! TO.N,Net-(U1-Pad52)*
X5080000Y6350000D03*
G04 #@! TO.P,U1,51*
G04 #@! TO.N,Net-(U1-Pad51)*
X5080000Y8890000D03*
G04 #@! TO.P,U1,50*
G04 #@! TO.N,Net-(U1-Pad50)*
X5080000Y11430000D03*
G04 #@! TO.P,U1,49*
G04 #@! TO.N,Net-(U1-Pad49)*
X5080000Y13970000D03*
G04 #@! TO.P,U1,48*
G04 #@! TO.N,Net-(U1-Pad48)*
X5080000Y16510000D03*
G04 #@! TO.P,U1,47*
G04 #@! TO.N,Net-(U1-Pad47)*
X5080000Y19050000D03*
G04 #@! TO.P,U1,46*
G04 #@! TO.N,Net-(U1-Pad46)*
X5080000Y21590000D03*
G04 #@! TO.P,U1,45*
G04 #@! TO.N,Net-(U1-Pad45)*
X5080000Y24130000D03*
G04 #@! TO.P,U1,44*
G04 #@! TO.N,Net-(U1-Pad44)*
X5080000Y26670000D03*
G04 #@! TO.P,U1,43*
G04 #@! TO.N,Net-(U1-Pad43)*
X5080000Y29210000D03*
G04 #@! TO.P,U1,42*
G04 #@! TO.N,Net-(U1-Pad42)*
X5080000Y31750000D03*
G04 #@! TO.P,U1,41*
G04 #@! TO.N,Net-(U1-Pad41)*
X5080000Y34290000D03*
G04 #@! TO.P,U1,40*
G04 #@! TO.N,Net-(U1-Pad40)*
X5080000Y36830000D03*
G04 #@! TO.P,U1,39*
G04 #@! TO.N,Net-(U1-Pad39)*
X5080000Y39370000D03*
G04 #@! TO.P,U1,38*
G04 #@! TO.N,Net-(U1-Pad38)*
X5080000Y41910000D03*
D11*
G04 #@! TO.P,U1,1*
G04 #@! TO.N,GND*
X20320000Y3810000D03*
D10*
G04 #@! TO.P,U1,2*
G04 #@! TO.N,/MIDI_1_IN*
X20320000Y6350000D03*
G04 #@! TO.P,U1,3*
G04 #@! TO.N,/MIDI_1_OUT*
X20320000Y8890000D03*
G04 #@! TO.P,U1,4*
G04 #@! TO.N,Net-(U1-Pad4)*
X20320000Y11430000D03*
G04 #@! TO.P,U1,5*
G04 #@! TO.N,Net-(U1-Pad5)*
X20320000Y13970000D03*
G04 #@! TO.P,U1,6*
G04 #@! TO.N,Net-(U1-Pad6)*
X20320000Y16510000D03*
G04 #@! TO.P,U1,7*
G04 #@! TO.N,Net-(U1-Pad7)*
X20320000Y19050000D03*
G04 #@! TO.P,U1,8*
G04 #@! TO.N,Net-(U1-Pad8)*
X20320000Y21590000D03*
G04 #@! TO.P,U1,9*
G04 #@! TO.N,Net-(U1-Pad9)*
X20320000Y24130000D03*
G04 #@! TO.P,U1,10*
G04 #@! TO.N,Net-(U1-Pad10)*
X20320000Y26670000D03*
G04 #@! TO.P,U1,11*
G04 #@! TO.N,Net-(U1-Pad11)*
X20320000Y29210000D03*
G04 #@! TO.P,U1,12*
G04 #@! TO.N,Net-(U1-Pad12)*
X20320000Y31750000D03*
G04 #@! TO.P,U1,13*
G04 #@! TO.N,Net-(U1-Pad13)*
X20320000Y34290000D03*
G04 #@! TO.P,U1,37*
G04 #@! TO.N,Net-(U1-Pad37)*
X5080000Y44450000D03*
G04 #@! TO.P,U1,36*
G04 #@! TO.N,Net-(U1-Pad36)*
X5080000Y46990000D03*
G04 #@! TO.P,U1,35*
G04 #@! TO.N,Net-(U1-Pad35)*
X5080000Y49530000D03*
G04 #@! TO.P,U1,34*
G04 #@! TO.N,Net-(U1-Pad34)*
X5080000Y52070000D03*
G04 #@! TO.P,U1,33*
G04 #@! TO.N,Net-(U1-Pad33)*
X5080000Y54610000D03*
G04 #@! TO.P,U1,32*
G04 #@! TO.N,Net-(U1-Pad32)*
X5080000Y57150000D03*
G04 #@! TO.P,U1,31*
G04 #@! TO.N,Net-(U1-Pad31)*
X5080000Y59690000D03*
G04 #@! TO.P,U1,30*
G04 #@! TO.N,Net-(U1-Pad30)*
X5080000Y62230000D03*
G04 #@! TO.P,U1,29*
G04 #@! TO.N,Net-(U1-Pad29)*
X7620000Y49530000D03*
G04 #@! TO.P,U1,28*
G04 #@! TO.N,Net-(U1-Pad28)*
X10160000Y49530000D03*
G04 #@! TO.P,U1,27*
G04 #@! TO.N,GND*
X12700000Y49530000D03*
G04 #@! TO.P,U1,26*
G04 #@! TO.N,Net-(U1-Pad26)*
X15240000Y49530000D03*
G04 #@! TO.P,U1,25*
G04 #@! TO.N,Net-(U1-Pad25)*
X17780000Y49530000D03*
G04 #@! TO.P,U1,24*
G04 #@! TO.N,Net-(U1-Pad24)*
X20320000Y62230000D03*
G04 #@! TO.P,U1,23*
G04 #@! TO.N,Net-(U1-Pad23)*
X20320000Y59690000D03*
G04 #@! TO.P,U1,22*
G04 #@! TO.N,Net-(U1-Pad22)*
X20320000Y57150000D03*
G04 #@! TO.P,U1,21*
G04 #@! TO.N,Net-(U1-Pad21)*
X20320000Y54610000D03*
G04 #@! TO.P,U1,14*
G04 #@! TO.N,Net-(U1-Pad14)*
X20320000Y36830000D03*
G04 #@! TO.P,U1,15*
G04 #@! TO.N,Net-(U1-Pad15)*
X20320000Y39370000D03*
G04 #@! TO.P,U1,16*
G04 #@! TO.N,Net-(U1-Pad16)*
X20320000Y41910000D03*
G04 #@! TO.P,U1,20*
G04 #@! TO.N,Net-(U1-Pad20)*
X20320000Y52070000D03*
G04 #@! TO.P,U1,19*
G04 #@! TO.N,Net-(U1-Pad19)*
X20320000Y49530000D03*
G04 #@! TO.P,U1,18*
G04 #@! TO.N,Net-(U1-Pad18)*
X20320000Y46990000D03*
G04 #@! TO.P,U1,17*
G04 #@! TO.N,Net-(U1-Pad17)*
X20320000Y44450000D03*
G04 #@! TD*
D12*
G04 #@! TO.P,J1,4*
G04 #@! TO.N,GND*
X26500000Y17720000D03*
G04 #@! TO.P,J1,3*
G04 #@! TO.N,/H_USB_D+*
X26510000Y15220000D03*
G04 #@! TO.P,J1,2*
G04 #@! TO.N,/H_USB_D-*
X26485000Y12720000D03*
G04 #@! TO.P,J1,1*
G04 #@! TO.N,/H_USB_5V*
X26500000Y10220000D03*
D13*
G04 #@! TO.P,J1,SH*
G04 #@! TO.N,N/C*
X29210000Y20540000D03*
X29210000Y7400000D03*
G04 #@! TD*
D14*
G04 #@! TO.P,C1,1*
G04 #@! TO.N,/5V*
X24130000Y33020000D03*
D15*
G04 #@! TO.P,C1,2*
G04 #@! TO.N,GND*
X26130000Y33020000D03*
G04 #@! TD*
D11*
G04 #@! TO.P,D1,1*
G04 #@! TO.N,Net-(D1-Pad1)*
X38100000Y38100000D03*
D16*
G04 #@! TO.P,D1,2*
G04 #@! TO.N,Net-(D1-Pad2)*
X30480000Y38100000D03*
G04 #@! TD*
D17*
G04 #@! TO.P,J2,3*
G04 #@! TO.N,Net-(J2-Pad3)*
X43058080Y54612540D03*
G04 #@! TO.P,J2,4*
G04 #@! TO.N,Net-(J2-Pad4)*
X30563820Y52110640D03*
G04 #@! TO.P,J2,2*
G04 #@! TO.N,GND*
X35560000Y54610000D03*
G04 #@! TO.P,J2,1*
G04 #@! TO.N,Net-(J2-Pad1)*
X28061920Y54612540D03*
G04 #@! TO.P,J2,5*
G04 #@! TO.N,Net-(D1-Pad2)*
X40556180Y52110640D03*
D18*
G04 #@! TO.P,J2,*
G04 #@! TO.N,*
X30558740Y64607440D03*
X40561260Y64607440D03*
G04 #@! TD*
G04 #@! TO.P,J3,*
G04 #@! TO.N,*
X64691260Y64607440D03*
X54688740Y64607440D03*
D17*
G04 #@! TO.P,J3,5*
G04 #@! TO.N,Net-(J3-Pad5)*
X64686180Y52110640D03*
G04 #@! TO.P,J3,1*
G04 #@! TO.N,Net-(J3-Pad1)*
X52191920Y54612540D03*
G04 #@! TO.P,J3,2*
G04 #@! TO.N,GND*
X59690000Y54610000D03*
G04 #@! TO.P,J3,4*
G04 #@! TO.N,Net-(J3-Pad4)*
X54693820Y52110640D03*
G04 #@! TO.P,J3,3*
G04 #@! TO.N,Net-(J3-Pad3)*
X67188080Y54612540D03*
G04 #@! TD*
D11*
G04 #@! TO.P,U2,1*
G04 #@! TO.N,Net-(U2-Pad1)*
X30480000Y33020000D03*
D16*
G04 #@! TO.P,U2,5*
G04 #@! TO.N,GND*
X38100000Y25400000D03*
G04 #@! TO.P,U2,2*
G04 #@! TO.N,Net-(D1-Pad1)*
X30480000Y30480000D03*
G04 #@! TO.P,U2,6*
G04 #@! TO.N,/MIDI_1_IN*
X38100000Y27940000D03*
G04 #@! TO.P,U2,3*
G04 #@! TO.N,Net-(D1-Pad2)*
X30480000Y27940000D03*
G04 #@! TO.P,U2,7*
G04 #@! TO.N,Net-(U2-Pad7)*
X38100000Y30480000D03*
G04 #@! TO.P,U2,4*
G04 #@! TO.N,Net-(U2-Pad4)*
X30480000Y25400000D03*
G04 #@! TO.P,U2,8*
G04 #@! TO.N,/5V*
X38100000Y33020000D03*
G04 #@! TD*
G04 #@! TO.P,R1,2*
G04 #@! TO.N,Net-(D1-Pad1)*
X39370000Y43180000D03*
D19*
G04 #@! TO.P,R1,1*
G04 #@! TO.N,Net-(J2-Pad4)*
X26670000Y43180000D03*
G04 #@! TD*
G04 #@! TO.P,R2,1*
G04 #@! TO.N,Net-(J3-Pad5)*
X63500000Y40640000D03*
D16*
G04 #@! TO.P,R2,2*
G04 #@! TO.N,/MIDI_1_OUT*
X50800000Y40640000D03*
G04 #@! TD*
D19*
G04 #@! TO.P,R3,1*
G04 #@! TO.N,Net-(J3-Pad4)*
X50800000Y35560000D03*
D16*
G04 #@! TO.P,R3,2*
G04 #@! TO.N,/5V*
X63500000Y35560000D03*
G04 #@! TD*
G04 #@! TO.P,R4,2*
G04 #@! TO.N,/5V*
X63500000Y30480000D03*
D19*
G04 #@! TO.P,R4,1*
G04 #@! TO.N,/MIDI_1_IN*
X50800000Y30480000D03*
G04 #@! TD*
D20*
G04 #@! TO.N,/5V*
X20320000Y66040000D02*
X20366642Y66040000D01*
X20320000Y66040000D02*
X21590000Y66040000D01*
X24130000Y63500000D02*
X24130000Y33020000D01*
X21590000Y66040000D02*
X24130000Y63500000D01*
X3810000Y66040000D02*
X8890000Y66040000D01*
X2540000Y64770000D02*
X3810000Y66040000D01*
X2540000Y6350000D02*
X2540000Y64770000D01*
X5080000Y3810000D02*
X2540000Y6350000D01*
X6860178Y66040000D02*
X8890000Y66040000D01*
X8890000Y66040000D02*
X20320000Y66040000D01*
X47091501Y52923749D02*
X51317752Y57150000D01*
X38100000Y33020000D02*
X47091501Y42011501D01*
X47091501Y42011501D02*
X47091501Y52923749D01*
X67310000Y57150000D02*
X68062248Y57150000D01*
X51317752Y57150000D02*
X67310000Y57150000D01*
X69850000Y55880000D02*
X69850000Y39370000D01*
X67310000Y57150000D02*
X68580000Y57150000D01*
X68580000Y57150000D02*
X69850000Y55880000D01*
X36133490Y31053490D02*
X38100000Y33020000D01*
X24130000Y33020000D02*
X24130000Y26771501D01*
X28041501Y22860000D02*
X31750000Y22860000D01*
X31750000Y22860000D02*
X34290000Y25400000D01*
X24130000Y26771501D02*
X28041501Y22860000D01*
X34290000Y29210000D02*
X36133490Y31053490D01*
X34290000Y25400000D02*
X34290000Y29210000D01*
X66040000Y38100000D02*
X63500000Y35560000D01*
X69850000Y38100000D02*
X66040000Y38100000D01*
X69850000Y38100000D02*
X69850000Y34290000D01*
X69850000Y39370000D02*
X69850000Y38100000D01*
X67310000Y34290000D02*
X63500000Y30480000D01*
X69850000Y34290000D02*
X67310000Y34290000D01*
G04 #@! TO.N,Net-(D1-Pad1)*
X27940000Y31851501D02*
X27940000Y38758321D01*
X38100000Y38100000D02*
X38100000Y39535000D01*
X30480000Y30480000D02*
X29210000Y30480000D01*
X29210000Y30480000D02*
X27940000Y31750000D01*
X29821679Y40640000D02*
X36830000Y40640000D01*
X27940000Y38758321D02*
X29821679Y40640000D01*
X36830000Y40640000D02*
X38100000Y39370000D01*
X38100000Y41910000D02*
X39370000Y43180000D01*
X38100000Y39370000D02*
X38100000Y41910000D01*
G04 #@! TO.N,Net-(D1-Pad2)*
X31279999Y37300001D02*
X30480000Y38100000D01*
X41805859Y50860961D02*
X40556180Y52110640D01*
X43281501Y49385319D02*
X41805859Y50860961D01*
X43281501Y40652799D02*
X43281501Y49385319D01*
X39357201Y36728499D02*
X43281501Y40652799D01*
X33020000Y35560000D02*
X30480000Y38100000D01*
X34290000Y35560000D02*
X33020000Y35560000D01*
X33020000Y29210000D02*
X33020000Y35560000D01*
X34290000Y35560000D02*
X38100000Y35560000D01*
X38100000Y35560000D02*
X39370000Y36830000D01*
X30480000Y27940000D02*
X31750000Y27940000D01*
X31750000Y27940000D02*
X33020000Y29210000D01*
G04 #@! TO.N,/H_USB_5V*
X17320000Y10160000D02*
X19050000Y10160000D01*
X22920000Y10220000D02*
X22860000Y10160000D01*
X26500000Y10220000D02*
X22920000Y10220000D01*
X22860000Y10160000D02*
X21590000Y10160000D01*
D21*
X19050000Y10160000D02*
X21590000Y10160000D01*
D20*
G04 #@! TO.N,/H_USB_D-*
X17320000Y12700000D02*
X19050000Y12700000D01*
X21610000Y12720000D02*
X21590000Y12700000D01*
X26485000Y12720000D02*
X21610000Y12720000D01*
D21*
X17320000Y12700000D02*
X21590000Y12700000D01*
G04 #@! TO.N,/H_USB_D+*
X26490000Y15240000D02*
X26510000Y15220000D01*
X17320000Y15240000D02*
X26490000Y15240000D01*
D20*
X17320000Y15240000D02*
X19050000Y15240000D01*
X26510000Y15220000D02*
X21610000Y15220000D01*
G04 #@! TO.N,Net-(J2-Pad4)*
X26670000Y48216820D02*
X30563820Y52110640D01*
X26670000Y43180000D02*
X26670000Y48216820D01*
G04 #@! TO.N,Net-(J3-Pad5)*
X63500000Y50924460D02*
X64686180Y52110640D01*
X63500000Y40640000D02*
X63500000Y50924460D01*
G04 #@! TO.N,Net-(J3-Pad4)*
X54693820Y39453820D02*
X54693820Y52110640D01*
X50800000Y35560000D02*
X54693820Y39453820D01*
D21*
G04 #@! TO.N,/MIDI_1_OUT*
X20320000Y8890000D02*
X21119999Y8090001D01*
X36830000Y29210000D02*
X39370000Y29210000D01*
D20*
X39370000Y29210000D02*
X50800000Y40640000D01*
X35560000Y27940000D02*
X36830000Y29210000D01*
X23659999Y8090001D02*
X24130000Y7620000D01*
X21119999Y8090001D02*
X23659999Y8090001D01*
X24130000Y7620000D02*
X24130000Y5080000D01*
X24130000Y5080000D02*
X25400000Y3810000D01*
X25400000Y3810000D02*
X35560000Y3810000D01*
X35560000Y3810000D02*
X35560000Y27940000D01*
G04 #@! TO.N,/MIDI_1_IN*
X40640000Y25400000D02*
X38100000Y27940000D01*
X45720000Y25400000D02*
X50800000Y30480000D01*
X40640000Y25400000D02*
X45720000Y25400000D01*
X38100000Y20320000D02*
X40640000Y22860000D01*
X22860000Y6350000D02*
X22860000Y3810000D01*
X40640000Y22860000D02*
X40640000Y25400000D01*
X20320000Y6350000D02*
X22860000Y6350000D01*
X22860000Y3810000D02*
X24130000Y2540000D01*
X24130000Y2540000D02*
X36830000Y2540000D01*
X36830000Y2540000D02*
X38100000Y3810000D01*
X38100000Y3810000D02*
X38100000Y20320000D01*
G04 #@! TD*
D22*
G04 #@! TO.N,GND*
G36*
X71070000Y1320000D02*
X1320000Y1320000D01*
X1320000Y64770000D01*
X1906325Y64770000D01*
X1918501Y64708788D01*
X1918500Y6411207D01*
X1906325Y6350000D01*
X1918500Y6288794D01*
X1954561Y6107504D01*
X2091924Y5901924D01*
X2143819Y5867249D01*
X3901065Y4110002D01*
X3876000Y4049491D01*
X3876000Y3570509D01*
X4059298Y3127989D01*
X4397989Y2789298D01*
X4840509Y2606000D01*
X5319491Y2606000D01*
X5762011Y2789298D01*
X6100702Y3127989D01*
X6240918Y3466500D01*
X18962000Y3466500D01*
X18962000Y2899007D01*
X19046950Y2693918D01*
X19203918Y2536951D01*
X19409007Y2452000D01*
X19976500Y2452000D01*
X20116000Y2591500D01*
X20116000Y3606000D01*
X20524000Y3606000D01*
X20524000Y2591500D01*
X20663500Y2452000D01*
X21230993Y2452000D01*
X21436082Y2536951D01*
X21593050Y2693918D01*
X21678000Y2899007D01*
X21678000Y3466500D01*
X21538500Y3606000D01*
X20524000Y3606000D01*
X20116000Y3606000D01*
X19101500Y3606000D01*
X18962000Y3466500D01*
X6240918Y3466500D01*
X6284000Y3570509D01*
X6284000Y4049491D01*
X6100702Y4492011D01*
X5762011Y4830702D01*
X5319491Y5014000D01*
X4840509Y5014000D01*
X4779998Y4988935D01*
X4469084Y5299850D01*
X4840509Y5146000D01*
X5319491Y5146000D01*
X5762011Y5329298D01*
X6100702Y5667989D01*
X6284000Y6110509D01*
X6284000Y6589491D01*
X6416000Y6589491D01*
X6416000Y6110509D01*
X6599298Y5667989D01*
X6937989Y5329298D01*
X7380509Y5146000D01*
X7859491Y5146000D01*
X8302011Y5329298D01*
X8640702Y5667989D01*
X8824000Y6110509D01*
X8824000Y6589491D01*
X8640702Y7032011D01*
X8302011Y7370702D01*
X7859491Y7554000D01*
X7380509Y7554000D01*
X6937989Y7370702D01*
X6599298Y7032011D01*
X6416000Y6589491D01*
X6284000Y6589491D01*
X6100702Y7032011D01*
X5762011Y7370702D01*
X5319491Y7554000D01*
X4840509Y7554000D01*
X4397989Y7370702D01*
X4059298Y7032011D01*
X3876000Y6589491D01*
X3876000Y6110509D01*
X4029850Y5739083D01*
X3161500Y6607432D01*
X3161500Y9129491D01*
X3876000Y9129491D01*
X3876000Y8650509D01*
X4059298Y8207989D01*
X4397989Y7869298D01*
X4840509Y7686000D01*
X5319491Y7686000D01*
X5762011Y7869298D01*
X6100702Y8207989D01*
X6284000Y8650509D01*
X6284000Y9129491D01*
X6100702Y9572011D01*
X5762011Y9910702D01*
X5319491Y10094000D01*
X4840509Y10094000D01*
X4397989Y9910702D01*
X4059298Y9572011D01*
X3876000Y9129491D01*
X3161500Y9129491D01*
X3161500Y11669491D01*
X3876000Y11669491D01*
X3876000Y11190509D01*
X4059298Y10747989D01*
X4397989Y10409298D01*
X4840509Y10226000D01*
X5319491Y10226000D01*
X5762011Y10409298D01*
X6100702Y10747989D01*
X6284000Y11190509D01*
X6284000Y11669491D01*
X6416000Y11669491D01*
X6416000Y11190509D01*
X6599298Y10747989D01*
X6937989Y10409298D01*
X7380509Y10226000D01*
X7859491Y10226000D01*
X8302011Y10409298D01*
X8640702Y10747989D01*
X8824000Y11190509D01*
X8824000Y11669491D01*
X8640702Y12112011D01*
X8302011Y12450702D01*
X7859491Y12634000D01*
X7380509Y12634000D01*
X6937989Y12450702D01*
X6599298Y12112011D01*
X6416000Y11669491D01*
X6284000Y11669491D01*
X6100702Y12112011D01*
X5762011Y12450702D01*
X5319491Y12634000D01*
X4840509Y12634000D01*
X4397989Y12450702D01*
X4059298Y12112011D01*
X3876000Y11669491D01*
X3161500Y11669491D01*
X3161500Y14209491D01*
X3876000Y14209491D01*
X3876000Y13730509D01*
X4059298Y13287989D01*
X4397989Y12949298D01*
X4840509Y12766000D01*
X5319491Y12766000D01*
X5762011Y12949298D01*
X6100702Y13287989D01*
X6284000Y13730509D01*
X6284000Y14209491D01*
X6416000Y14209491D01*
X6416000Y13730509D01*
X6599298Y13287989D01*
X6937989Y12949298D01*
X7380509Y12766000D01*
X7859491Y12766000D01*
X8302011Y12949298D01*
X8640702Y13287989D01*
X8824000Y13730509D01*
X8824000Y14209491D01*
X8640702Y14652011D01*
X8302011Y14990702D01*
X7859491Y15174000D01*
X7380509Y15174000D01*
X6937989Y14990702D01*
X6599298Y14652011D01*
X6416000Y14209491D01*
X6284000Y14209491D01*
X6100702Y14652011D01*
X5762011Y14990702D01*
X5319491Y15174000D01*
X4840509Y15174000D01*
X4397989Y14990702D01*
X4059298Y14652011D01*
X3876000Y14209491D01*
X3161500Y14209491D01*
X3161500Y16749491D01*
X3876000Y16749491D01*
X3876000Y16270509D01*
X4059298Y15827989D01*
X4397989Y15489298D01*
X4840509Y15306000D01*
X5319491Y15306000D01*
X5762011Y15489298D01*
X6100702Y15827989D01*
X6284000Y16270509D01*
X6284000Y16749491D01*
X6416000Y16749491D01*
X6416000Y16270509D01*
X6599298Y15827989D01*
X6937989Y15489298D01*
X7380509Y15306000D01*
X7859491Y15306000D01*
X8278334Y15479491D01*
X16116000Y15479491D01*
X16116000Y15000509D01*
X16299298Y14557989D01*
X16637989Y14219298D01*
X17080509Y14036000D01*
X17559491Y14036000D01*
X18002011Y14219298D01*
X18340702Y14557989D01*
X18365767Y14618500D01*
X19111207Y14618500D01*
X19292497Y14654561D01*
X19320678Y14673391D01*
X19299298Y14652011D01*
X19116000Y14209491D01*
X19116000Y13730509D01*
X19299298Y13287989D01*
X19320678Y13266609D01*
X19292497Y13285439D01*
X19111207Y13321500D01*
X18365767Y13321500D01*
X18340702Y13382011D01*
X18002011Y13720702D01*
X17559491Y13904000D01*
X17080509Y13904000D01*
X16637989Y13720702D01*
X16299298Y13382011D01*
X16116000Y12939491D01*
X16116000Y12460509D01*
X16299298Y12017989D01*
X16637989Y11679298D01*
X17080509Y11496000D01*
X17559491Y11496000D01*
X18002011Y11679298D01*
X18340702Y12017989D01*
X18365767Y12078500D01*
X19111207Y12078500D01*
X19292497Y12114561D01*
X19320678Y12133391D01*
X19299298Y12112011D01*
X19116000Y11669491D01*
X19116000Y11190509D01*
X19299298Y10747989D01*
X19320678Y10726609D01*
X19292497Y10745439D01*
X19111207Y10781500D01*
X18365767Y10781500D01*
X18340702Y10842011D01*
X18002011Y11180702D01*
X17559491Y11364000D01*
X17080509Y11364000D01*
X16637989Y11180702D01*
X16299298Y10842011D01*
X16116000Y10399491D01*
X16116000Y9920509D01*
X16299298Y9477989D01*
X16637989Y9139298D01*
X17080509Y8956000D01*
X17559491Y8956000D01*
X18002011Y9139298D01*
X18340702Y9477989D01*
X18365767Y9538500D01*
X19111207Y9538500D01*
X19292497Y9574561D01*
X19320678Y9593391D01*
X19299298Y9572011D01*
X19116000Y9129491D01*
X19116000Y8650509D01*
X19299298Y8207989D01*
X19637989Y7869298D01*
X20080509Y7686000D01*
X20559491Y7686000D01*
X20624485Y7712921D01*
X20671923Y7641925D01*
X20877502Y7504562D01*
X21058792Y7468501D01*
X23402567Y7468501D01*
X23508500Y7362567D01*
X23508501Y5141212D01*
X23496325Y5080000D01*
X23544561Y4837504D01*
X23544562Y4837503D01*
X23681925Y4631924D01*
X23733817Y4597251D01*
X24917252Y3413814D01*
X24951924Y3361924D01*
X25157503Y3224561D01*
X25338793Y3188500D01*
X25338796Y3188500D01*
X25399999Y3176326D01*
X25461203Y3188500D01*
X35498793Y3188500D01*
X35560000Y3176325D01*
X35621207Y3188500D01*
X35802497Y3224561D01*
X36008076Y3361924D01*
X36145439Y3567503D01*
X36193675Y3810000D01*
X36181500Y3871207D01*
X36181500Y24988484D01*
X36805852Y24988484D01*
X36893900Y24775875D01*
X37224551Y24361829D01*
X37688482Y24105835D01*
X37896000Y24196893D01*
X37896000Y25196000D01*
X38304000Y25196000D01*
X38304000Y24196893D01*
X38511518Y24105835D01*
X38975449Y24361829D01*
X39306100Y24775875D01*
X39394148Y24988484D01*
X39301302Y25196000D01*
X38304000Y25196000D01*
X37896000Y25196000D01*
X36898698Y25196000D01*
X36805852Y24988484D01*
X36181500Y24988484D01*
X36181500Y25811516D01*
X36805852Y25811516D01*
X36898698Y25604000D01*
X37896000Y25604000D01*
X37896000Y26603107D01*
X37688482Y26694165D01*
X37224551Y26438171D01*
X36893900Y26024125D01*
X36805852Y25811516D01*
X36181500Y25811516D01*
X36181500Y27682568D01*
X37279934Y28781000D01*
X37371499Y28781000D01*
X37304061Y28735939D01*
X37060055Y28370759D01*
X36974372Y27940000D01*
X37060055Y27509241D01*
X37304061Y27144061D01*
X37669241Y26900055D01*
X37991268Y26836000D01*
X38208732Y26836000D01*
X38305766Y26855301D01*
X38480509Y26680558D01*
X38304000Y26603107D01*
X38304000Y25604000D01*
X39301302Y25604000D01*
X39380362Y25780704D01*
X40018501Y25142565D01*
X40018500Y23117434D01*
X37703817Y20802749D01*
X37651925Y20768076D01*
X37548770Y20613694D01*
X37514561Y20562496D01*
X37466325Y20320000D01*
X37478501Y20258788D01*
X37478500Y4067434D01*
X36572568Y3161500D01*
X24387434Y3161500D01*
X23481500Y4067432D01*
X23481500Y6288794D01*
X23493675Y6350000D01*
X23445439Y6592497D01*
X23308076Y6798076D01*
X23102497Y6935439D01*
X22921207Y6971500D01*
X22860000Y6983675D01*
X22798793Y6971500D01*
X21365767Y6971500D01*
X21340702Y7032011D01*
X21002011Y7370702D01*
X20559491Y7554000D01*
X20080509Y7554000D01*
X19637989Y7370702D01*
X19299298Y7032011D01*
X19116000Y6589491D01*
X19116000Y6110509D01*
X19299298Y5667989D01*
X19637989Y5329298D01*
X20080509Y5146000D01*
X20115998Y5146000D01*
X20115998Y5028502D01*
X19976500Y5168000D01*
X19409007Y5168000D01*
X19203918Y5083049D01*
X19046950Y4926082D01*
X18962000Y4720993D01*
X18962000Y4153500D01*
X19101500Y4014000D01*
X20116000Y4014000D01*
X20116000Y4034000D01*
X20524000Y4034000D01*
X20524000Y4014000D01*
X21538500Y4014000D01*
X21678000Y4153500D01*
X21678000Y4720993D01*
X21593050Y4926082D01*
X21436082Y5083049D01*
X21230993Y5168000D01*
X20663500Y5168000D01*
X20524002Y5028502D01*
X20524002Y5146000D01*
X20559491Y5146000D01*
X21002011Y5329298D01*
X21340702Y5667989D01*
X21365767Y5728500D01*
X22238500Y5728500D01*
X22238501Y3871212D01*
X22226325Y3810000D01*
X22274561Y3567504D01*
X22274562Y3567503D01*
X22411925Y3361924D01*
X22463817Y3327251D01*
X23647253Y2143813D01*
X23681924Y2091924D01*
X23887503Y1954561D01*
X24068793Y1918500D01*
X24068796Y1918500D01*
X24129999Y1906326D01*
X24191203Y1918500D01*
X36768793Y1918500D01*
X36830000Y1906325D01*
X36891207Y1918500D01*
X37072497Y1954561D01*
X37278076Y2091924D01*
X37312751Y2143819D01*
X38496188Y3327254D01*
X38548076Y3361924D01*
X38685439Y3567503D01*
X38721500Y3748793D01*
X38721500Y3748796D01*
X38733674Y3809999D01*
X38721500Y3871203D01*
X38721500Y6728729D01*
X62866000Y6728729D01*
X62866000Y5971271D01*
X63155866Y5271470D01*
X63691470Y4735866D01*
X64391271Y4446000D01*
X65148729Y4446000D01*
X65848530Y4735866D01*
X66384134Y5271470D01*
X66674000Y5971271D01*
X66674000Y6728729D01*
X66384134Y7428530D01*
X65848530Y7964134D01*
X65148729Y8254000D01*
X64391271Y8254000D01*
X63691470Y7964134D01*
X63155866Y7428530D01*
X62866000Y6728729D01*
X38721500Y6728729D01*
X38721500Y20062568D01*
X41036188Y22377254D01*
X41088076Y22411924D01*
X41225439Y22617503D01*
X41261500Y22798793D01*
X41261500Y22798797D01*
X41273674Y22859999D01*
X41261500Y22921201D01*
X41261500Y24778500D01*
X45658793Y24778500D01*
X45720000Y24766325D01*
X45781207Y24778500D01*
X45962497Y24814561D01*
X46168076Y24951924D01*
X46202751Y25003819D01*
X50576534Y29377602D01*
X50580401Y29376000D01*
X51019599Y29376000D01*
X51425366Y29544074D01*
X51735926Y29854634D01*
X51904000Y30260401D01*
X51904000Y30699599D01*
X51735926Y31105366D01*
X51425366Y31415926D01*
X51019599Y31584000D01*
X50580401Y31584000D01*
X50174634Y31415926D01*
X49864074Y31105366D01*
X49696000Y30699599D01*
X49696000Y30260401D01*
X49697602Y30256534D01*
X45462568Y26021500D01*
X40897434Y26021500D01*
X39184699Y27734234D01*
X39225628Y27940000D01*
X39139945Y28370759D01*
X38895939Y28735939D01*
X38828501Y28781000D01*
X38909179Y28781000D01*
X38921925Y28761925D01*
X39127504Y28624561D01*
X39370000Y28576325D01*
X39612496Y28624561D01*
X39766186Y28727254D01*
X46818531Y35779599D01*
X49696000Y35779599D01*
X49696000Y35340401D01*
X49864074Y34934634D01*
X50174634Y34624074D01*
X50580401Y34456000D01*
X51019599Y34456000D01*
X51425366Y34624074D01*
X51735926Y34934634D01*
X51904000Y35340401D01*
X51904000Y35779599D01*
X51902398Y35783466D01*
X55090007Y38971073D01*
X55141896Y39005744D01*
X55279259Y39211323D01*
X55298647Y39308794D01*
X55327495Y39453819D01*
X55315320Y39515026D01*
X55315320Y40859599D01*
X62396000Y40859599D01*
X62396000Y40420401D01*
X62564074Y40014634D01*
X62874634Y39704074D01*
X63280401Y39536000D01*
X63719599Y39536000D01*
X64125366Y39704074D01*
X64435926Y40014634D01*
X64604000Y40420401D01*
X64604000Y40859599D01*
X64435926Y41265366D01*
X64125366Y41575926D01*
X64121500Y41577527D01*
X64121500Y50662847D01*
X64377134Y50556960D01*
X64995226Y50556960D01*
X65566269Y50793494D01*
X66003326Y51230551D01*
X66239860Y51801594D01*
X66239860Y52419686D01*
X66003326Y52990729D01*
X65566269Y53427786D01*
X64995226Y53664320D01*
X64377134Y53664320D01*
X63806091Y53427786D01*
X63369034Y52990729D01*
X63132500Y52419686D01*
X63132500Y51801594D01*
X63239612Y51543004D01*
X63103817Y51407209D01*
X63051925Y51372536D01*
X62957054Y51230551D01*
X62914561Y51166956D01*
X62866325Y50924460D01*
X62878501Y50863248D01*
X62878500Y41577527D01*
X62874634Y41575926D01*
X62564074Y41265366D01*
X62396000Y40859599D01*
X55315320Y40859599D01*
X55315320Y50686383D01*
X55573909Y50793494D01*
X56010966Y51230551D01*
X56247500Y51801594D01*
X56247500Y52419686D01*
X56010966Y52990729D01*
X55731901Y53269794D01*
X58638294Y53269794D01*
X58778352Y53008158D01*
X59460746Y52781218D01*
X60178042Y52832695D01*
X60601648Y53008158D01*
X60741706Y53269794D01*
X59690000Y54321500D01*
X58638294Y53269794D01*
X55731901Y53269794D01*
X55573909Y53427786D01*
X55002866Y53664320D01*
X54384774Y53664320D01*
X53813731Y53427786D01*
X53376674Y52990729D01*
X53140140Y52419686D01*
X53140140Y51801594D01*
X53376674Y51230551D01*
X53813731Y50793494D01*
X54072321Y50686382D01*
X54072320Y39711254D01*
X51023466Y36662398D01*
X51019599Y36664000D01*
X50580401Y36664000D01*
X50174634Y36495926D01*
X49864074Y36185366D01*
X49696000Y35779599D01*
X46818531Y35779599D01*
X50594234Y39555301D01*
X50691268Y39536000D01*
X50908732Y39536000D01*
X51230759Y39600055D01*
X51595939Y39844061D01*
X51839945Y40209241D01*
X51925628Y40640000D01*
X51839945Y41070759D01*
X51595939Y41435939D01*
X51230759Y41679945D01*
X50908732Y41744000D01*
X50691268Y41744000D01*
X50369241Y41679945D01*
X50004061Y41435939D01*
X49760055Y41070759D01*
X49674372Y40640000D01*
X49715301Y40434234D01*
X38920068Y29639000D01*
X38828501Y29639000D01*
X38895939Y29684061D01*
X39139945Y30049241D01*
X39225628Y30480000D01*
X39139945Y30910759D01*
X38895939Y31275939D01*
X38530759Y31519945D01*
X38208732Y31584000D01*
X37991268Y31584000D01*
X37669241Y31519945D01*
X37304061Y31275939D01*
X37060055Y30910759D01*
X36974372Y30480000D01*
X37060055Y30049241D01*
X37304061Y29684061D01*
X37371499Y29639000D01*
X37290821Y29639000D01*
X37278075Y29658075D01*
X37072496Y29795439D01*
X36829999Y29843674D01*
X36587503Y29795439D01*
X36433812Y29692746D01*
X35163817Y28422749D01*
X35111925Y28388076D01*
X35008770Y28233694D01*
X34974561Y28182496D01*
X34926325Y27940000D01*
X34938501Y27878788D01*
X34938500Y4431500D01*
X25657434Y4431500D01*
X24751500Y5337432D01*
X24751500Y7558793D01*
X24763675Y7620000D01*
X24730124Y7788675D01*
X27256000Y7788675D01*
X27256000Y7011325D01*
X27553479Y6293148D01*
X28103148Y5743479D01*
X28821325Y5446000D01*
X29598675Y5446000D01*
X30316852Y5743479D01*
X30866521Y6293148D01*
X31164000Y7011325D01*
X31164000Y7788675D01*
X30866521Y8506852D01*
X30316852Y9056521D01*
X29598675Y9354000D01*
X28821325Y9354000D01*
X28103148Y9056521D01*
X27553479Y8506852D01*
X27256000Y7788675D01*
X24730124Y7788675D01*
X24715439Y7862497D01*
X24675270Y7922614D01*
X24578076Y8068076D01*
X24526184Y8102749D01*
X24142750Y8486182D01*
X24108075Y8538077D01*
X23902496Y8675440D01*
X23721206Y8711501D01*
X23659999Y8723676D01*
X23598792Y8711501D01*
X21524000Y8711501D01*
X21524000Y9129491D01*
X21340702Y9572011D01*
X21319322Y9593391D01*
X21347503Y9574561D01*
X21528793Y9538500D01*
X22798793Y9538500D01*
X22860000Y9526325D01*
X22921207Y9538500D01*
X23102497Y9574561D01*
X23138324Y9598500D01*
X25400114Y9598500D01*
X25436910Y9509666D01*
X25789666Y9156910D01*
X26250564Y8966000D01*
X26749436Y8966000D01*
X27210334Y9156910D01*
X27563090Y9509666D01*
X27754000Y9970564D01*
X27754000Y10469436D01*
X27563090Y10930334D01*
X27210334Y11283090D01*
X26751593Y11473107D01*
X27195334Y11656910D01*
X27548090Y12009666D01*
X27739000Y12470564D01*
X27739000Y12969436D01*
X27548090Y13430334D01*
X27195334Y13783090D01*
X26753750Y13966000D01*
X26759436Y13966000D01*
X27220334Y14156910D01*
X27573090Y14509666D01*
X27764000Y14970564D01*
X27764000Y15469436D01*
X27573090Y15930334D01*
X27220334Y16283090D01*
X27124007Y16322990D01*
X27230716Y16367190D01*
X27333735Y16597766D01*
X26500000Y17431500D01*
X25666265Y16597766D01*
X25769284Y16367190D01*
X25903133Y16325947D01*
X25799666Y16283090D01*
X25446910Y15930334D01*
X25410114Y15841500D01*
X21548793Y15841500D01*
X21367503Y15805439D01*
X21218776Y15706063D01*
X21340702Y15827989D01*
X21524000Y16270509D01*
X21524000Y16749491D01*
X21340702Y17192011D01*
X21002011Y17530702D01*
X20559491Y17714000D01*
X20080509Y17714000D01*
X19637989Y17530702D01*
X19299298Y17192011D01*
X19116000Y16749491D01*
X19116000Y16270509D01*
X19299298Y15827989D01*
X19320678Y15806609D01*
X19292497Y15825439D01*
X19111207Y15861500D01*
X18365767Y15861500D01*
X18340702Y15922011D01*
X18002011Y16260702D01*
X17760028Y16360935D01*
X18020474Y16468815D01*
X18117282Y16694218D01*
X17320000Y17491500D01*
X16522718Y16694218D01*
X16619526Y16468815D01*
X16920312Y16377644D01*
X16637989Y16260702D01*
X16299298Y15922011D01*
X16116000Y15479491D01*
X8278334Y15479491D01*
X8302011Y15489298D01*
X8640702Y15827989D01*
X8824000Y16270509D01*
X8824000Y16749491D01*
X8640702Y17192011D01*
X8302011Y17530702D01*
X7859491Y17714000D01*
X7380509Y17714000D01*
X6937989Y17530702D01*
X6599298Y17192011D01*
X6416000Y16749491D01*
X6284000Y16749491D01*
X6100702Y17192011D01*
X5762011Y17530702D01*
X5319491Y17714000D01*
X4840509Y17714000D01*
X4397989Y17530702D01*
X4059298Y17192011D01*
X3876000Y16749491D01*
X3161500Y16749491D01*
X3161500Y19289491D01*
X3876000Y19289491D01*
X3876000Y18810509D01*
X4059298Y18367989D01*
X4397989Y18029298D01*
X4840509Y17846000D01*
X5319491Y17846000D01*
X5762011Y18029298D01*
X6100702Y18367989D01*
X6284000Y18810509D01*
X6284000Y19289491D01*
X8956000Y19289491D01*
X8956000Y18810509D01*
X9139298Y18367989D01*
X9477989Y18029298D01*
X9920509Y17846000D01*
X10399491Y17846000D01*
X10842011Y18029298D01*
X11180702Y18367989D01*
X11364000Y18810509D01*
X11364000Y19289491D01*
X11496000Y19289491D01*
X11496000Y18810509D01*
X11679298Y18367989D01*
X12017989Y18029298D01*
X12460509Y17846000D01*
X12939491Y17846000D01*
X13131143Y17925385D01*
X15840563Y17925385D01*
X15897542Y17348163D01*
X16008815Y17079526D01*
X16234218Y16982718D01*
X17031500Y17780000D01*
X17608500Y17780000D01*
X18405782Y16982718D01*
X18631185Y17079526D01*
X18799437Y17634615D01*
X18742458Y18211837D01*
X18631185Y18480474D01*
X18405782Y18577282D01*
X17608500Y17780000D01*
X17031500Y17780000D01*
X16234218Y18577282D01*
X16008815Y18480474D01*
X15840563Y17925385D01*
X13131143Y17925385D01*
X13382011Y18029298D01*
X13720702Y18367989D01*
X13904000Y18810509D01*
X13904000Y19234218D01*
X16522718Y19234218D01*
X16601838Y19050000D01*
X16522718Y18865782D01*
X17320000Y18068500D01*
X18117282Y18865782D01*
X18038162Y19050000D01*
X18117282Y19234218D01*
X18062009Y19289491D01*
X19116000Y19289491D01*
X19116000Y18810509D01*
X19299298Y18367989D01*
X19637989Y18029298D01*
X20080509Y17846000D01*
X20559491Y17846000D01*
X20635285Y17877395D01*
X24970534Y17877395D01*
X25026725Y17280112D01*
X25147190Y16989284D01*
X25377766Y16886265D01*
X26211500Y17720000D01*
X26788500Y17720000D01*
X27622234Y16886265D01*
X27852810Y16989284D01*
X28029466Y17562605D01*
X27973275Y18159888D01*
X27852810Y18450716D01*
X27622234Y18553735D01*
X26788500Y17720000D01*
X26211500Y17720000D01*
X25377766Y18553735D01*
X25147190Y18450716D01*
X24970534Y17877395D01*
X20635285Y17877395D01*
X21002011Y18029298D01*
X21340702Y18367989D01*
X21524000Y18810509D01*
X21524000Y18842234D01*
X25666265Y18842234D01*
X26500000Y18008500D01*
X27333735Y18842234D01*
X27230716Y19072810D01*
X26657395Y19249466D01*
X26060112Y19193275D01*
X25769284Y19072810D01*
X25666265Y18842234D01*
X21524000Y18842234D01*
X21524000Y19289491D01*
X21340702Y19732011D01*
X21002011Y20070702D01*
X20559491Y20254000D01*
X20080509Y20254000D01*
X19637989Y20070702D01*
X19299298Y19732011D01*
X19116000Y19289491D01*
X18062009Y19289491D01*
X17320000Y20031500D01*
X16522718Y19234218D01*
X13904000Y19234218D01*
X13904000Y19289491D01*
X13720702Y19732011D01*
X13382011Y20070702D01*
X12939491Y20254000D01*
X12460509Y20254000D01*
X12017989Y20070702D01*
X11679298Y19732011D01*
X11496000Y19289491D01*
X11364000Y19289491D01*
X11180702Y19732011D01*
X10842011Y20070702D01*
X10399491Y20254000D01*
X9920509Y20254000D01*
X9477989Y20070702D01*
X9139298Y19732011D01*
X8956000Y19289491D01*
X6284000Y19289491D01*
X6100702Y19732011D01*
X5762011Y20070702D01*
X5319491Y20254000D01*
X4840509Y20254000D01*
X4397989Y20070702D01*
X4059298Y19732011D01*
X3876000Y19289491D01*
X3161500Y19289491D01*
X3161500Y21829491D01*
X3876000Y21829491D01*
X3876000Y21350509D01*
X4059298Y20907989D01*
X4397989Y20569298D01*
X4840509Y20386000D01*
X5319491Y20386000D01*
X5762011Y20569298D01*
X6100702Y20907989D01*
X6284000Y21350509D01*
X6284000Y21829491D01*
X8956000Y21829491D01*
X8956000Y21350509D01*
X9139298Y20907989D01*
X9477989Y20569298D01*
X9920509Y20386000D01*
X10399491Y20386000D01*
X10842011Y20569298D01*
X11180702Y20907989D01*
X11364000Y21350509D01*
X11364000Y21829491D01*
X11496000Y21829491D01*
X11496000Y21350509D01*
X11679298Y20907989D01*
X12017989Y20569298D01*
X12460509Y20386000D01*
X12939491Y20386000D01*
X13131143Y20465385D01*
X15840563Y20465385D01*
X15897542Y19888163D01*
X16008815Y19619526D01*
X16234218Y19522718D01*
X17031500Y20320000D01*
X17608500Y20320000D01*
X18405782Y19522718D01*
X18631185Y19619526D01*
X18799437Y20174615D01*
X18742458Y20751837D01*
X18631185Y21020474D01*
X18405782Y21117282D01*
X17608500Y20320000D01*
X17031500Y20320000D01*
X16234218Y21117282D01*
X16008815Y21020474D01*
X15840563Y20465385D01*
X13131143Y20465385D01*
X13382011Y20569298D01*
X13720702Y20907989D01*
X13904000Y21350509D01*
X13904000Y21405782D01*
X16522718Y21405782D01*
X17320000Y20608500D01*
X18117282Y21405782D01*
X18020474Y21631185D01*
X17465385Y21799437D01*
X16888163Y21742458D01*
X16619526Y21631185D01*
X16522718Y21405782D01*
X13904000Y21405782D01*
X13904000Y21829491D01*
X19116000Y21829491D01*
X19116000Y21350509D01*
X19299298Y20907989D01*
X19637989Y20569298D01*
X20080509Y20386000D01*
X20559491Y20386000D01*
X21002011Y20569298D01*
X21340702Y20907989D01*
X21524000Y21350509D01*
X21524000Y21829491D01*
X21340702Y22272011D01*
X21002011Y22610702D01*
X20559491Y22794000D01*
X20080509Y22794000D01*
X19637989Y22610702D01*
X19299298Y22272011D01*
X19116000Y21829491D01*
X13904000Y21829491D01*
X13720702Y22272011D01*
X13382011Y22610702D01*
X12939491Y22794000D01*
X12460509Y22794000D01*
X12017989Y22610702D01*
X11679298Y22272011D01*
X11496000Y21829491D01*
X11364000Y21829491D01*
X11180702Y22272011D01*
X10842011Y22610702D01*
X10399491Y22794000D01*
X9920509Y22794000D01*
X9477989Y22610702D01*
X9139298Y22272011D01*
X8956000Y21829491D01*
X6284000Y21829491D01*
X6100702Y22272011D01*
X5762011Y22610702D01*
X5319491Y22794000D01*
X4840509Y22794000D01*
X4397989Y22610702D01*
X4059298Y22272011D01*
X3876000Y21829491D01*
X3161500Y21829491D01*
X3161500Y24369491D01*
X3876000Y24369491D01*
X3876000Y23890509D01*
X4059298Y23447989D01*
X4397989Y23109298D01*
X4840509Y22926000D01*
X5319491Y22926000D01*
X5762011Y23109298D01*
X6100702Y23447989D01*
X6284000Y23890509D01*
X6284000Y24369491D01*
X8956000Y24369491D01*
X8956000Y23890509D01*
X9139298Y23447989D01*
X9477989Y23109298D01*
X9920509Y22926000D01*
X10399491Y22926000D01*
X10842011Y23109298D01*
X11180702Y23447989D01*
X11364000Y23890509D01*
X11364000Y24369491D01*
X11496000Y24369491D01*
X11496000Y23890509D01*
X11679298Y23447989D01*
X12017989Y23109298D01*
X12460509Y22926000D01*
X12939491Y22926000D01*
X13382011Y23109298D01*
X13720702Y23447989D01*
X13904000Y23890509D01*
X13904000Y24369491D01*
X19116000Y24369491D01*
X19116000Y23890509D01*
X19299298Y23447989D01*
X19637989Y23109298D01*
X20080509Y22926000D01*
X20559491Y22926000D01*
X21002011Y23109298D01*
X21340702Y23447989D01*
X21524000Y23890509D01*
X21524000Y24369491D01*
X21340702Y24812011D01*
X21002011Y25150702D01*
X20559491Y25334000D01*
X20080509Y25334000D01*
X19637989Y25150702D01*
X19299298Y24812011D01*
X19116000Y24369491D01*
X13904000Y24369491D01*
X13720702Y24812011D01*
X13382011Y25150702D01*
X12939491Y25334000D01*
X12460509Y25334000D01*
X12017989Y25150702D01*
X11679298Y24812011D01*
X11496000Y24369491D01*
X11364000Y24369491D01*
X11180702Y24812011D01*
X10842011Y25150702D01*
X10399491Y25334000D01*
X9920509Y25334000D01*
X9477989Y25150702D01*
X9139298Y24812011D01*
X8956000Y24369491D01*
X6284000Y24369491D01*
X6100702Y24812011D01*
X5762011Y25150702D01*
X5319491Y25334000D01*
X4840509Y25334000D01*
X4397989Y25150702D01*
X4059298Y24812011D01*
X3876000Y24369491D01*
X3161500Y24369491D01*
X3161500Y26909491D01*
X3876000Y26909491D01*
X3876000Y26430509D01*
X4059298Y25987989D01*
X4397989Y25649298D01*
X4840509Y25466000D01*
X5319491Y25466000D01*
X5762011Y25649298D01*
X6100702Y25987989D01*
X6284000Y26430509D01*
X6284000Y26909491D01*
X8956000Y26909491D01*
X8956000Y26430509D01*
X9139298Y25987989D01*
X9477989Y25649298D01*
X9920509Y25466000D01*
X10399491Y25466000D01*
X10842011Y25649298D01*
X11180702Y25987989D01*
X11364000Y26430509D01*
X11364000Y26909491D01*
X11496000Y26909491D01*
X11496000Y26430509D01*
X11679298Y25987989D01*
X12017989Y25649298D01*
X12460509Y25466000D01*
X12939491Y25466000D01*
X13382011Y25649298D01*
X13720702Y25987989D01*
X13904000Y26430509D01*
X13904000Y26909491D01*
X19116000Y26909491D01*
X19116000Y26430509D01*
X19299298Y25987989D01*
X19637989Y25649298D01*
X20080509Y25466000D01*
X20559491Y25466000D01*
X21002011Y25649298D01*
X21340702Y25987989D01*
X21524000Y26430509D01*
X21524000Y26909491D01*
X21340702Y27352011D01*
X21002011Y27690702D01*
X20559491Y27874000D01*
X20080509Y27874000D01*
X19637989Y27690702D01*
X19299298Y27352011D01*
X19116000Y26909491D01*
X13904000Y26909491D01*
X13720702Y27352011D01*
X13382011Y27690702D01*
X12939491Y27874000D01*
X12460509Y27874000D01*
X12017989Y27690702D01*
X11679298Y27352011D01*
X11496000Y26909491D01*
X11364000Y26909491D01*
X11180702Y27352011D01*
X10842011Y27690702D01*
X10399491Y27874000D01*
X9920509Y27874000D01*
X9477989Y27690702D01*
X9139298Y27352011D01*
X8956000Y26909491D01*
X6284000Y26909491D01*
X6100702Y27352011D01*
X5762011Y27690702D01*
X5319491Y27874000D01*
X4840509Y27874000D01*
X4397989Y27690702D01*
X4059298Y27352011D01*
X3876000Y26909491D01*
X3161500Y26909491D01*
X3161500Y29449491D01*
X3876000Y29449491D01*
X3876000Y28970509D01*
X4059298Y28527989D01*
X4397989Y28189298D01*
X4840509Y28006000D01*
X5319491Y28006000D01*
X5762011Y28189298D01*
X6100702Y28527989D01*
X6284000Y28970509D01*
X6284000Y29449491D01*
X19116000Y29449491D01*
X19116000Y28970509D01*
X19299298Y28527989D01*
X19637989Y28189298D01*
X20080509Y28006000D01*
X20559491Y28006000D01*
X21002011Y28189298D01*
X21340702Y28527989D01*
X21524000Y28970509D01*
X21524000Y29449491D01*
X21340702Y29892011D01*
X21002011Y30230702D01*
X20559491Y30414000D01*
X20080509Y30414000D01*
X19637989Y30230702D01*
X19299298Y29892011D01*
X19116000Y29449491D01*
X6284000Y29449491D01*
X6100702Y29892011D01*
X5762011Y30230702D01*
X5319491Y30414000D01*
X4840509Y30414000D01*
X4397989Y30230702D01*
X4059298Y29892011D01*
X3876000Y29449491D01*
X3161500Y29449491D01*
X3161500Y31989491D01*
X3876000Y31989491D01*
X3876000Y31510509D01*
X4059298Y31067989D01*
X4397989Y30729298D01*
X4840509Y30546000D01*
X5319491Y30546000D01*
X5762011Y30729298D01*
X6100702Y31067989D01*
X6284000Y31510509D01*
X6284000Y31989491D01*
X19116000Y31989491D01*
X19116000Y31510509D01*
X19299298Y31067989D01*
X19637989Y30729298D01*
X20080509Y30546000D01*
X20559491Y30546000D01*
X21002011Y30729298D01*
X21340702Y31067989D01*
X21524000Y31510509D01*
X21524000Y31989491D01*
X21340702Y32432011D01*
X21002011Y32770702D01*
X20559491Y32954000D01*
X20080509Y32954000D01*
X19637989Y32770702D01*
X19299298Y32432011D01*
X19116000Y31989491D01*
X6284000Y31989491D01*
X6100702Y32432011D01*
X5762011Y32770702D01*
X5319491Y32954000D01*
X4840509Y32954000D01*
X4397989Y32770702D01*
X4059298Y32432011D01*
X3876000Y31989491D01*
X3161500Y31989491D01*
X3161500Y34529491D01*
X3876000Y34529491D01*
X3876000Y34050509D01*
X4059298Y33607989D01*
X4397989Y33269298D01*
X4840509Y33086000D01*
X5319491Y33086000D01*
X5762011Y33269298D01*
X6100702Y33607989D01*
X6284000Y34050509D01*
X6284000Y34529491D01*
X6226326Y34668729D01*
X10796000Y34668729D01*
X10796000Y33911271D01*
X11085866Y33211470D01*
X11621470Y32675866D01*
X12321271Y32386000D01*
X13078729Y32386000D01*
X13778530Y32675866D01*
X14314134Y33211470D01*
X14604000Y33911271D01*
X14604000Y34529491D01*
X19116000Y34529491D01*
X19116000Y34050509D01*
X19299298Y33607989D01*
X19637989Y33269298D01*
X20080509Y33086000D01*
X20559491Y33086000D01*
X21002011Y33269298D01*
X21340702Y33607989D01*
X21524000Y34050509D01*
X21524000Y34529491D01*
X21340702Y34972011D01*
X21002011Y35310702D01*
X20559491Y35494000D01*
X20080509Y35494000D01*
X19637989Y35310702D01*
X19299298Y34972011D01*
X19116000Y34529491D01*
X14604000Y34529491D01*
X14604000Y34668729D01*
X14314134Y35368530D01*
X13778530Y35904134D01*
X13078729Y36194000D01*
X12321271Y36194000D01*
X11621470Y35904134D01*
X11085866Y35368530D01*
X10796000Y34668729D01*
X6226326Y34668729D01*
X6100702Y34972011D01*
X5762011Y35310702D01*
X5319491Y35494000D01*
X4840509Y35494000D01*
X4397989Y35310702D01*
X4059298Y34972011D01*
X3876000Y34529491D01*
X3161500Y34529491D01*
X3161500Y37069491D01*
X3876000Y37069491D01*
X3876000Y36590509D01*
X4059298Y36147989D01*
X4397989Y35809298D01*
X4840509Y35626000D01*
X5319491Y35626000D01*
X5762011Y35809298D01*
X6100702Y36147989D01*
X6284000Y36590509D01*
X6284000Y37069491D01*
X19116000Y37069491D01*
X19116000Y36590509D01*
X19299298Y36147989D01*
X19637989Y35809298D01*
X20080509Y35626000D01*
X20559491Y35626000D01*
X21002011Y35809298D01*
X21340702Y36147989D01*
X21524000Y36590509D01*
X21524000Y37069491D01*
X21340702Y37512011D01*
X21002011Y37850702D01*
X20559491Y38034000D01*
X20080509Y38034000D01*
X19637989Y37850702D01*
X19299298Y37512011D01*
X19116000Y37069491D01*
X6284000Y37069491D01*
X6100702Y37512011D01*
X5762011Y37850702D01*
X5319491Y38034000D01*
X4840509Y38034000D01*
X4397989Y37850702D01*
X4059298Y37512011D01*
X3876000Y37069491D01*
X3161500Y37069491D01*
X3161500Y39609491D01*
X3876000Y39609491D01*
X3876000Y39130509D01*
X4059298Y38687989D01*
X4397989Y38349298D01*
X4840509Y38166000D01*
X5319491Y38166000D01*
X5762011Y38349298D01*
X6100702Y38687989D01*
X6284000Y39130509D01*
X6284000Y39609491D01*
X19116000Y39609491D01*
X19116000Y39130509D01*
X19299298Y38687989D01*
X19637989Y38349298D01*
X20080509Y38166000D01*
X20559491Y38166000D01*
X21002011Y38349298D01*
X21340702Y38687989D01*
X21524000Y39130509D01*
X21524000Y39609491D01*
X21340702Y40052011D01*
X21002011Y40390702D01*
X20559491Y40574000D01*
X20080509Y40574000D01*
X19637989Y40390702D01*
X19299298Y40052011D01*
X19116000Y39609491D01*
X6284000Y39609491D01*
X6100702Y40052011D01*
X5762011Y40390702D01*
X5319491Y40574000D01*
X4840509Y40574000D01*
X4397989Y40390702D01*
X4059298Y40052011D01*
X3876000Y39609491D01*
X3161500Y39609491D01*
X3161500Y42149491D01*
X3876000Y42149491D01*
X3876000Y41670509D01*
X4059298Y41227989D01*
X4397989Y40889298D01*
X4840509Y40706000D01*
X5319491Y40706000D01*
X5762011Y40889298D01*
X6100702Y41227989D01*
X6284000Y41670509D01*
X6284000Y42149491D01*
X8956000Y42149491D01*
X8956000Y41670509D01*
X9139298Y41227989D01*
X9477989Y40889298D01*
X9920509Y40706000D01*
X10399491Y40706000D01*
X10842011Y40889298D01*
X11180702Y41227989D01*
X11364000Y41670509D01*
X11364000Y42149491D01*
X11496000Y42149491D01*
X11496000Y41670509D01*
X11679298Y41227989D01*
X12017989Y40889298D01*
X12460509Y40706000D01*
X12939491Y40706000D01*
X13382011Y40889298D01*
X13720702Y41227989D01*
X13904000Y41670509D01*
X13904000Y42149491D01*
X19116000Y42149491D01*
X19116000Y41670509D01*
X19299298Y41227989D01*
X19637989Y40889298D01*
X20080509Y40706000D01*
X20559491Y40706000D01*
X21002011Y40889298D01*
X21340702Y41227989D01*
X21524000Y41670509D01*
X21524000Y42149491D01*
X21340702Y42592011D01*
X21002011Y42930702D01*
X20559491Y43114000D01*
X20080509Y43114000D01*
X19637989Y42930702D01*
X19299298Y42592011D01*
X19116000Y42149491D01*
X13904000Y42149491D01*
X13720702Y42592011D01*
X13382011Y42930702D01*
X12939491Y43114000D01*
X12460509Y43114000D01*
X12017989Y42930702D01*
X11679298Y42592011D01*
X11496000Y42149491D01*
X11364000Y42149491D01*
X11180702Y42592011D01*
X10842011Y42930702D01*
X10399491Y43114000D01*
X9920509Y43114000D01*
X9477989Y42930702D01*
X9139298Y42592011D01*
X8956000Y42149491D01*
X6284000Y42149491D01*
X6100702Y42592011D01*
X5762011Y42930702D01*
X5319491Y43114000D01*
X4840509Y43114000D01*
X4397989Y42930702D01*
X4059298Y42592011D01*
X3876000Y42149491D01*
X3161500Y42149491D01*
X3161500Y44689491D01*
X3876000Y44689491D01*
X3876000Y44210509D01*
X4059298Y43767989D01*
X4397989Y43429298D01*
X4840509Y43246000D01*
X5319491Y43246000D01*
X5762011Y43429298D01*
X6100702Y43767989D01*
X6284000Y44210509D01*
X6284000Y44689491D01*
X8956000Y44689491D01*
X8956000Y44210509D01*
X9139298Y43767989D01*
X9477989Y43429298D01*
X9920509Y43246000D01*
X10399491Y43246000D01*
X10842011Y43429298D01*
X11180702Y43767989D01*
X11364000Y44210509D01*
X11364000Y44689491D01*
X11496000Y44689491D01*
X11496000Y44210509D01*
X11679298Y43767989D01*
X12017989Y43429298D01*
X12460509Y43246000D01*
X12939491Y43246000D01*
X13382011Y43429298D01*
X13720702Y43767989D01*
X13904000Y44210509D01*
X13904000Y44689491D01*
X19116000Y44689491D01*
X19116000Y44210509D01*
X19299298Y43767989D01*
X19637989Y43429298D01*
X20080509Y43246000D01*
X20559491Y43246000D01*
X21002011Y43429298D01*
X21340702Y43767989D01*
X21524000Y44210509D01*
X21524000Y44689491D01*
X21340702Y45132011D01*
X21002011Y45470702D01*
X20559491Y45654000D01*
X20080509Y45654000D01*
X19637989Y45470702D01*
X19299298Y45132011D01*
X19116000Y44689491D01*
X13904000Y44689491D01*
X13720702Y45132011D01*
X13382011Y45470702D01*
X12939491Y45654000D01*
X12460509Y45654000D01*
X12017989Y45470702D01*
X11679298Y45132011D01*
X11496000Y44689491D01*
X11364000Y44689491D01*
X11180702Y45132011D01*
X10842011Y45470702D01*
X10399491Y45654000D01*
X9920509Y45654000D01*
X9477989Y45470702D01*
X9139298Y45132011D01*
X8956000Y44689491D01*
X6284000Y44689491D01*
X6100702Y45132011D01*
X5762011Y45470702D01*
X5319491Y45654000D01*
X4840509Y45654000D01*
X4397989Y45470702D01*
X4059298Y45132011D01*
X3876000Y44689491D01*
X3161500Y44689491D01*
X3161500Y47229491D01*
X3876000Y47229491D01*
X3876000Y46750509D01*
X4059298Y46307989D01*
X4397989Y45969298D01*
X4840509Y45786000D01*
X5319491Y45786000D01*
X5762011Y45969298D01*
X6100702Y46307989D01*
X6284000Y46750509D01*
X6284000Y47229491D01*
X8956000Y47229491D01*
X8956000Y46750509D01*
X9139298Y46307989D01*
X9477989Y45969298D01*
X9920509Y45786000D01*
X10399491Y45786000D01*
X10842011Y45969298D01*
X11180702Y46307989D01*
X11364000Y46750509D01*
X11364000Y47229491D01*
X11496000Y47229491D01*
X11496000Y46750509D01*
X11679298Y46307989D01*
X12017989Y45969298D01*
X12460509Y45786000D01*
X12939491Y45786000D01*
X13382011Y45969298D01*
X13720702Y46307989D01*
X13904000Y46750509D01*
X13904000Y47229491D01*
X19116000Y47229491D01*
X19116000Y46750509D01*
X19299298Y46307989D01*
X19637989Y45969298D01*
X20080509Y45786000D01*
X20559491Y45786000D01*
X21002011Y45969298D01*
X21340702Y46307989D01*
X21524000Y46750509D01*
X21524000Y47229491D01*
X21340702Y47672011D01*
X21002011Y48010702D01*
X20559491Y48194000D01*
X20080509Y48194000D01*
X19637989Y48010702D01*
X19299298Y47672011D01*
X19116000Y47229491D01*
X13904000Y47229491D01*
X13720702Y47672011D01*
X13382011Y48010702D01*
X13140028Y48110935D01*
X13400474Y48218815D01*
X13497282Y48444218D01*
X12700000Y49241500D01*
X11902718Y48444218D01*
X11999526Y48218815D01*
X12300312Y48127644D01*
X12017989Y48010702D01*
X11679298Y47672011D01*
X11496000Y47229491D01*
X11364000Y47229491D01*
X11180702Y47672011D01*
X10842011Y48010702D01*
X10399491Y48194000D01*
X9920509Y48194000D01*
X9477989Y48010702D01*
X9139298Y47672011D01*
X8956000Y47229491D01*
X6284000Y47229491D01*
X6100702Y47672011D01*
X5762011Y48010702D01*
X5319491Y48194000D01*
X4840509Y48194000D01*
X4397989Y48010702D01*
X4059298Y47672011D01*
X3876000Y47229491D01*
X3161500Y47229491D01*
X3161500Y49769491D01*
X3876000Y49769491D01*
X3876000Y49290509D01*
X4059298Y48847989D01*
X4397989Y48509298D01*
X4840509Y48326000D01*
X5319491Y48326000D01*
X5762011Y48509298D01*
X6100702Y48847989D01*
X6284000Y49290509D01*
X6284000Y49769491D01*
X6416000Y49769491D01*
X6416000Y49290509D01*
X6599298Y48847989D01*
X6937989Y48509298D01*
X7380509Y48326000D01*
X7859491Y48326000D01*
X8302011Y48509298D01*
X8640702Y48847989D01*
X8824000Y49290509D01*
X8824000Y49769491D01*
X8956000Y49769491D01*
X8956000Y49290509D01*
X9139298Y48847989D01*
X9477989Y48509298D01*
X9920509Y48326000D01*
X10399491Y48326000D01*
X10842011Y48509298D01*
X11180702Y48847989D01*
X11280935Y49089972D01*
X11388815Y48829526D01*
X11614218Y48732718D01*
X12411500Y49530000D01*
X12988500Y49530000D01*
X13785782Y48732718D01*
X14011185Y48829526D01*
X14102356Y49130312D01*
X14219298Y48847989D01*
X14557989Y48509298D01*
X15000509Y48326000D01*
X15479491Y48326000D01*
X15922011Y48509298D01*
X16260702Y48847989D01*
X16444000Y49290509D01*
X16444000Y49769491D01*
X16576000Y49769491D01*
X16576000Y49290509D01*
X16759298Y48847989D01*
X17097989Y48509298D01*
X17540509Y48326000D01*
X18019491Y48326000D01*
X18462011Y48509298D01*
X18800702Y48847989D01*
X18984000Y49290509D01*
X18984000Y49769491D01*
X19116000Y49769491D01*
X19116000Y49290509D01*
X19299298Y48847989D01*
X19637989Y48509298D01*
X20080509Y48326000D01*
X20559491Y48326000D01*
X21002011Y48509298D01*
X21340702Y48847989D01*
X21524000Y49290509D01*
X21524000Y49769491D01*
X21340702Y50212011D01*
X21002011Y50550702D01*
X20559491Y50734000D01*
X20080509Y50734000D01*
X19637989Y50550702D01*
X19299298Y50212011D01*
X19116000Y49769491D01*
X18984000Y49769491D01*
X18800702Y50212011D01*
X18462011Y50550702D01*
X18019491Y50734000D01*
X17540509Y50734000D01*
X17097989Y50550702D01*
X16759298Y50212011D01*
X16576000Y49769491D01*
X16444000Y49769491D01*
X16260702Y50212011D01*
X15922011Y50550702D01*
X15479491Y50734000D01*
X15000509Y50734000D01*
X14557989Y50550702D01*
X14219298Y50212011D01*
X14119065Y49970028D01*
X14011185Y50230474D01*
X13785782Y50327282D01*
X12988500Y49530000D01*
X12411500Y49530000D01*
X11614218Y50327282D01*
X11388815Y50230474D01*
X11297644Y49929688D01*
X11180702Y50212011D01*
X10842011Y50550702D01*
X10399491Y50734000D01*
X9920509Y50734000D01*
X9477989Y50550702D01*
X9139298Y50212011D01*
X8956000Y49769491D01*
X8824000Y49769491D01*
X8640702Y50212011D01*
X8302011Y50550702D01*
X7859491Y50734000D01*
X7380509Y50734000D01*
X6937989Y50550702D01*
X6599298Y50212011D01*
X6416000Y49769491D01*
X6284000Y49769491D01*
X6100702Y50212011D01*
X5762011Y50550702D01*
X5319491Y50734000D01*
X4840509Y50734000D01*
X4397989Y50550702D01*
X4059298Y50212011D01*
X3876000Y49769491D01*
X3161500Y49769491D01*
X3161500Y52309491D01*
X3876000Y52309491D01*
X3876000Y51830509D01*
X4059298Y51387989D01*
X4397989Y51049298D01*
X4840509Y50866000D01*
X5319491Y50866000D01*
X5762011Y51049298D01*
X6100702Y51387989D01*
X6284000Y51830509D01*
X6284000Y52309491D01*
X8956000Y52309491D01*
X8956000Y51830509D01*
X9139298Y51387989D01*
X9477989Y51049298D01*
X9920509Y50866000D01*
X10399491Y50866000D01*
X10842011Y51049298D01*
X11180702Y51387989D01*
X11364000Y51830509D01*
X11364000Y52309491D01*
X11496000Y52309491D01*
X11496000Y51830509D01*
X11679298Y51387989D01*
X12017989Y51049298D01*
X12259972Y50949065D01*
X11999526Y50841185D01*
X11902718Y50615782D01*
X12700000Y49818500D01*
X13497282Y50615782D01*
X13400474Y50841185D01*
X13099688Y50932356D01*
X13382011Y51049298D01*
X13720702Y51387989D01*
X13904000Y51830509D01*
X13904000Y52309491D01*
X19116000Y52309491D01*
X19116000Y51830509D01*
X19299298Y51387989D01*
X19637989Y51049298D01*
X20080509Y50866000D01*
X20559491Y50866000D01*
X21002011Y51049298D01*
X21340702Y51387989D01*
X21524000Y51830509D01*
X21524000Y52309491D01*
X21340702Y52752011D01*
X21002011Y53090702D01*
X20559491Y53274000D01*
X20080509Y53274000D01*
X19637989Y53090702D01*
X19299298Y52752011D01*
X19116000Y52309491D01*
X13904000Y52309491D01*
X13720702Y52752011D01*
X13382011Y53090702D01*
X12939491Y53274000D01*
X12460509Y53274000D01*
X12017989Y53090702D01*
X11679298Y52752011D01*
X11496000Y52309491D01*
X11364000Y52309491D01*
X11180702Y52752011D01*
X10842011Y53090702D01*
X10399491Y53274000D01*
X9920509Y53274000D01*
X9477989Y53090702D01*
X9139298Y52752011D01*
X8956000Y52309491D01*
X6284000Y52309491D01*
X6100702Y52752011D01*
X5762011Y53090702D01*
X5319491Y53274000D01*
X4840509Y53274000D01*
X4397989Y53090702D01*
X4059298Y52752011D01*
X3876000Y52309491D01*
X3161500Y52309491D01*
X3161500Y54849491D01*
X3876000Y54849491D01*
X3876000Y54370509D01*
X4059298Y53927989D01*
X4397989Y53589298D01*
X4840509Y53406000D01*
X5319491Y53406000D01*
X5762011Y53589298D01*
X6100702Y53927989D01*
X6284000Y54370509D01*
X6284000Y54849491D01*
X8956000Y54849491D01*
X8956000Y54370509D01*
X9139298Y53927989D01*
X9477989Y53589298D01*
X9920509Y53406000D01*
X10399491Y53406000D01*
X10842011Y53589298D01*
X11180702Y53927989D01*
X11364000Y54370509D01*
X11364000Y54849491D01*
X11496000Y54849491D01*
X11496000Y54370509D01*
X11679298Y53927989D01*
X12017989Y53589298D01*
X12460509Y53406000D01*
X12939491Y53406000D01*
X13382011Y53589298D01*
X13720702Y53927989D01*
X13904000Y54370509D01*
X13904000Y54849491D01*
X19116000Y54849491D01*
X19116000Y54370509D01*
X19299298Y53927989D01*
X19637989Y53589298D01*
X20080509Y53406000D01*
X20559491Y53406000D01*
X21002011Y53589298D01*
X21340702Y53927989D01*
X21524000Y54370509D01*
X21524000Y54849491D01*
X21340702Y55292011D01*
X21002011Y55630702D01*
X20559491Y55814000D01*
X20080509Y55814000D01*
X19637989Y55630702D01*
X19299298Y55292011D01*
X19116000Y54849491D01*
X13904000Y54849491D01*
X13720702Y55292011D01*
X13382011Y55630702D01*
X12939491Y55814000D01*
X12460509Y55814000D01*
X12017989Y55630702D01*
X11679298Y55292011D01*
X11496000Y54849491D01*
X11364000Y54849491D01*
X11180702Y55292011D01*
X10842011Y55630702D01*
X10399491Y55814000D01*
X9920509Y55814000D01*
X9477989Y55630702D01*
X9139298Y55292011D01*
X8956000Y54849491D01*
X6284000Y54849491D01*
X6100702Y55292011D01*
X5762011Y55630702D01*
X5319491Y55814000D01*
X4840509Y55814000D01*
X4397989Y55630702D01*
X4059298Y55292011D01*
X3876000Y54849491D01*
X3161500Y54849491D01*
X3161500Y57389491D01*
X3876000Y57389491D01*
X3876000Y56910509D01*
X4059298Y56467989D01*
X4397989Y56129298D01*
X4840509Y55946000D01*
X5319491Y55946000D01*
X5762011Y56129298D01*
X6100702Y56467989D01*
X6284000Y56910509D01*
X6284000Y57389491D01*
X8956000Y57389491D01*
X8956000Y56910509D01*
X9139298Y56467989D01*
X9477989Y56129298D01*
X9920509Y55946000D01*
X10399491Y55946000D01*
X10842011Y56129298D01*
X11180702Y56467989D01*
X11364000Y56910509D01*
X11364000Y57389491D01*
X11496000Y57389491D01*
X11496000Y56910509D01*
X11679298Y56467989D01*
X12017989Y56129298D01*
X12460509Y55946000D01*
X12939491Y55946000D01*
X13382011Y56129298D01*
X13720702Y56467989D01*
X13904000Y56910509D01*
X13904000Y57389491D01*
X19116000Y57389491D01*
X19116000Y56910509D01*
X19299298Y56467989D01*
X19637989Y56129298D01*
X20080509Y55946000D01*
X20559491Y55946000D01*
X21002011Y56129298D01*
X21340702Y56467989D01*
X21524000Y56910509D01*
X21524000Y57389491D01*
X21340702Y57832011D01*
X21002011Y58170702D01*
X20559491Y58354000D01*
X20080509Y58354000D01*
X19637989Y58170702D01*
X19299298Y57832011D01*
X19116000Y57389491D01*
X13904000Y57389491D01*
X13720702Y57832011D01*
X13382011Y58170702D01*
X12939491Y58354000D01*
X12460509Y58354000D01*
X12017989Y58170702D01*
X11679298Y57832011D01*
X11496000Y57389491D01*
X11364000Y57389491D01*
X11180702Y57832011D01*
X10842011Y58170702D01*
X10399491Y58354000D01*
X9920509Y58354000D01*
X9477989Y58170702D01*
X9139298Y57832011D01*
X8956000Y57389491D01*
X6284000Y57389491D01*
X6100702Y57832011D01*
X5762011Y58170702D01*
X5319491Y58354000D01*
X4840509Y58354000D01*
X4397989Y58170702D01*
X4059298Y57832011D01*
X3876000Y57389491D01*
X3161500Y57389491D01*
X3161500Y59929491D01*
X3876000Y59929491D01*
X3876000Y59450509D01*
X4059298Y59007989D01*
X4397989Y58669298D01*
X4840509Y58486000D01*
X5319491Y58486000D01*
X5762011Y58669298D01*
X6100702Y59007989D01*
X6284000Y59450509D01*
X6284000Y59929491D01*
X8956000Y59929491D01*
X8956000Y59450509D01*
X9139298Y59007989D01*
X9477989Y58669298D01*
X9920509Y58486000D01*
X10399491Y58486000D01*
X10842011Y58669298D01*
X11180702Y59007989D01*
X11364000Y59450509D01*
X11364000Y59929491D01*
X11496000Y59929491D01*
X11496000Y59450509D01*
X11679298Y59007989D01*
X12017989Y58669298D01*
X12460509Y58486000D01*
X12939491Y58486000D01*
X13382011Y58669298D01*
X13720702Y59007989D01*
X13904000Y59450509D01*
X13904000Y59929491D01*
X19116000Y59929491D01*
X19116000Y59450509D01*
X19299298Y59007989D01*
X19637989Y58669298D01*
X20080509Y58486000D01*
X20559491Y58486000D01*
X21002011Y58669298D01*
X21340702Y59007989D01*
X21524000Y59450509D01*
X21524000Y59929491D01*
X21340702Y60372011D01*
X21002011Y60710702D01*
X20559491Y60894000D01*
X20080509Y60894000D01*
X19637989Y60710702D01*
X19299298Y60372011D01*
X19116000Y59929491D01*
X13904000Y59929491D01*
X13720702Y60372011D01*
X13382011Y60710702D01*
X12939491Y60894000D01*
X12460509Y60894000D01*
X12017989Y60710702D01*
X11679298Y60372011D01*
X11496000Y59929491D01*
X11364000Y59929491D01*
X11180702Y60372011D01*
X10842011Y60710702D01*
X10399491Y60894000D01*
X9920509Y60894000D01*
X9477989Y60710702D01*
X9139298Y60372011D01*
X8956000Y59929491D01*
X6284000Y59929491D01*
X6100702Y60372011D01*
X5762011Y60710702D01*
X5319491Y60894000D01*
X4840509Y60894000D01*
X4397989Y60710702D01*
X4059298Y60372011D01*
X3876000Y59929491D01*
X3161500Y59929491D01*
X3161500Y62469491D01*
X3876000Y62469491D01*
X3876000Y61990509D01*
X4059298Y61547989D01*
X4397989Y61209298D01*
X4840509Y61026000D01*
X5319491Y61026000D01*
X5762011Y61209298D01*
X6100702Y61547989D01*
X6284000Y61990509D01*
X6284000Y62469491D01*
X8956000Y62469491D01*
X8956000Y61990509D01*
X9139298Y61547989D01*
X9477989Y61209298D01*
X9920509Y61026000D01*
X10399491Y61026000D01*
X10842011Y61209298D01*
X11180702Y61547989D01*
X11364000Y61990509D01*
X11364000Y62469491D01*
X11496000Y62469491D01*
X11496000Y61990509D01*
X11679298Y61547989D01*
X12017989Y61209298D01*
X12460509Y61026000D01*
X12939491Y61026000D01*
X13382011Y61209298D01*
X13720702Y61547989D01*
X13904000Y61990509D01*
X13904000Y62469491D01*
X19116000Y62469491D01*
X19116000Y61990509D01*
X19299298Y61547989D01*
X19637989Y61209298D01*
X20080509Y61026000D01*
X20559491Y61026000D01*
X21002011Y61209298D01*
X21340702Y61547989D01*
X21524000Y61990509D01*
X21524000Y62469491D01*
X21340702Y62912011D01*
X21002011Y63250702D01*
X20559491Y63434000D01*
X20080509Y63434000D01*
X19637989Y63250702D01*
X19299298Y62912011D01*
X19116000Y62469491D01*
X13904000Y62469491D01*
X13720702Y62912011D01*
X13382011Y63250702D01*
X12939491Y63434000D01*
X12460509Y63434000D01*
X12017989Y63250702D01*
X11679298Y62912011D01*
X11496000Y62469491D01*
X11364000Y62469491D01*
X11180702Y62912011D01*
X10842011Y63250702D01*
X10399491Y63434000D01*
X9920509Y63434000D01*
X9477989Y63250702D01*
X9139298Y62912011D01*
X8956000Y62469491D01*
X6284000Y62469491D01*
X6100702Y62912011D01*
X5762011Y63250702D01*
X5319491Y63434000D01*
X4840509Y63434000D01*
X4397989Y63250702D01*
X4059298Y62912011D01*
X3876000Y62469491D01*
X3161500Y62469491D01*
X3161500Y64512568D01*
X4067434Y65418500D01*
X21332568Y65418500D01*
X23508500Y63242566D01*
X23508501Y33925679D01*
X23411385Y33906361D01*
X23310829Y33839171D01*
X23243639Y33738615D01*
X23220045Y33620000D01*
X23220045Y32420000D01*
X23243639Y32301385D01*
X23310829Y32200829D01*
X23411385Y32133639D01*
X23508500Y32114322D01*
X23508501Y26832713D01*
X23496325Y26771501D01*
X23544561Y26529005D01*
X23544562Y26529004D01*
X23681925Y26323425D01*
X23733817Y26288752D01*
X27558752Y22463816D01*
X27593425Y22411924D01*
X27799004Y22274561D01*
X28041501Y22226325D01*
X28102708Y22238500D01*
X28204494Y22238500D01*
X28103148Y22196521D01*
X27553479Y21646852D01*
X27256000Y20928675D01*
X27256000Y20151325D01*
X27553479Y19433148D01*
X28103148Y18883479D01*
X28821325Y18586000D01*
X29598675Y18586000D01*
X30316852Y18883479D01*
X30866521Y19433148D01*
X31164000Y20151325D01*
X31164000Y20928675D01*
X30866521Y21646852D01*
X30316852Y22196521D01*
X30215506Y22238500D01*
X31688793Y22238500D01*
X31750000Y22226325D01*
X31811207Y22238500D01*
X31992497Y22274561D01*
X32198076Y22411924D01*
X32232751Y22463819D01*
X34686188Y24917254D01*
X34738076Y24951924D01*
X34875439Y25157503D01*
X34911500Y25338793D01*
X34911500Y25338797D01*
X34923674Y25399999D01*
X34911500Y25461201D01*
X34911500Y28952568D01*
X36616237Y30657303D01*
X36616241Y30657309D01*
X37894234Y31935301D01*
X37991268Y31916000D01*
X38208732Y31916000D01*
X38530759Y31980055D01*
X38895939Y32224061D01*
X39139945Y32589241D01*
X39225628Y33020000D01*
X39184699Y33225767D01*
X47487685Y41528752D01*
X47539577Y41563425D01*
X47676940Y41769004D01*
X47713001Y41950294D01*
X47713001Y41950295D01*
X47725176Y42011501D01*
X47713001Y42072708D01*
X47713001Y52666317D01*
X49968271Y54921586D01*
X50638240Y54921586D01*
X50638240Y54303494D01*
X50874774Y53732451D01*
X51311831Y53295394D01*
X51882874Y53058860D01*
X52500966Y53058860D01*
X53072009Y53295394D01*
X53509066Y53732451D01*
X53745600Y54303494D01*
X53745600Y54839254D01*
X57861218Y54839254D01*
X57912695Y54121958D01*
X58088158Y53698352D01*
X58349794Y53558294D01*
X59401500Y54610000D01*
X59978500Y54610000D01*
X61030206Y53558294D01*
X61291842Y53698352D01*
X61518782Y54380746D01*
X61479969Y54921586D01*
X65634400Y54921586D01*
X65634400Y54303494D01*
X65870934Y53732451D01*
X66307991Y53295394D01*
X66879034Y53058860D01*
X67497126Y53058860D01*
X68068169Y53295394D01*
X68505226Y53732451D01*
X68741760Y54303494D01*
X68741760Y54921586D01*
X68505226Y55492629D01*
X68068169Y55929686D01*
X67497126Y56166220D01*
X66879034Y56166220D01*
X66307991Y55929686D01*
X65870934Y55492629D01*
X65634400Y54921586D01*
X61479969Y54921586D01*
X61467305Y55098042D01*
X61291842Y55521648D01*
X61030206Y55661706D01*
X59978500Y54610000D01*
X59401500Y54610000D01*
X58349794Y55661706D01*
X58088158Y55521648D01*
X57861218Y54839254D01*
X53745600Y54839254D01*
X53745600Y54921586D01*
X53509066Y55492629D01*
X53072009Y55929686D01*
X53022470Y55950206D01*
X58638294Y55950206D01*
X59690000Y54898500D01*
X60741706Y55950206D01*
X60601648Y56211842D01*
X59919254Y56438782D01*
X59201958Y56387305D01*
X58778352Y56211842D01*
X58638294Y55950206D01*
X53022470Y55950206D01*
X52500966Y56166220D01*
X51882874Y56166220D01*
X51311831Y55929686D01*
X50874774Y55492629D01*
X50638240Y54921586D01*
X49968271Y54921586D01*
X51575186Y56528500D01*
X68322568Y56528500D01*
X69228500Y55622566D01*
X69228501Y39431211D01*
X69228500Y39431206D01*
X69228501Y38721500D01*
X66101201Y38721500D01*
X66039999Y38733674D01*
X65978797Y38721500D01*
X65978793Y38721500D01*
X65797503Y38685439D01*
X65591924Y38548076D01*
X65557253Y38496187D01*
X63705766Y36644699D01*
X63608732Y36664000D01*
X63391268Y36664000D01*
X63069241Y36599945D01*
X62704061Y36355939D01*
X62460055Y35990759D01*
X62374372Y35560000D01*
X62460055Y35129241D01*
X62704061Y34764061D01*
X63069241Y34520055D01*
X63391268Y34456000D01*
X63608732Y34456000D01*
X63930759Y34520055D01*
X64295939Y34764061D01*
X64539945Y35129241D01*
X64625628Y35560000D01*
X64584699Y35765766D01*
X66297434Y37478500D01*
X69228500Y37478500D01*
X69228501Y34911500D01*
X67371207Y34911500D01*
X67310000Y34923675D01*
X67248793Y34911500D01*
X67067503Y34875439D01*
X66861924Y34738076D01*
X66827251Y34686184D01*
X63705767Y31564699D01*
X63608732Y31584000D01*
X63391268Y31584000D01*
X63069241Y31519945D01*
X62704061Y31275939D01*
X62460055Y30910759D01*
X62374372Y30480000D01*
X62460055Y30049241D01*
X62704061Y29684061D01*
X63069241Y29440055D01*
X63391268Y29376000D01*
X63608732Y29376000D01*
X63930759Y29440055D01*
X64295939Y29684061D01*
X64539945Y30049241D01*
X64625628Y30480000D01*
X64584699Y30685766D01*
X67567433Y33668500D01*
X69788793Y33668500D01*
X69850000Y33656325D01*
X69911207Y33668500D01*
X70092497Y33704561D01*
X70298076Y33841924D01*
X70435439Y34047503D01*
X70483675Y34290000D01*
X70471500Y34351207D01*
X70471500Y38038794D01*
X70483675Y38100000D01*
X70471500Y38161207D01*
X70471500Y55818797D01*
X70483674Y55880001D01*
X70471500Y55941206D01*
X70471500Y55941207D01*
X70435439Y56122497D01*
X70298076Y56328076D01*
X70246187Y56362747D01*
X69062751Y57546181D01*
X69028076Y57598076D01*
X68822497Y57735439D01*
X68641207Y57771500D01*
X68580000Y57783675D01*
X68518793Y57771500D01*
X51378953Y57771500D01*
X51317751Y57783674D01*
X51256549Y57771500D01*
X51256545Y57771500D01*
X51075255Y57735439D01*
X50869676Y57598076D01*
X50835005Y57546187D01*
X46695318Y53406498D01*
X46643426Y53371825D01*
X46540271Y53217443D01*
X46506062Y53166245D01*
X46457826Y52923749D01*
X46470002Y52862537D01*
X46470001Y42268934D01*
X38305767Y34104699D01*
X38208732Y34124000D01*
X37991268Y34124000D01*
X37669241Y34059945D01*
X37304061Y33815939D01*
X37060055Y33450759D01*
X36974372Y33020000D01*
X37015301Y32814234D01*
X35737309Y31536241D01*
X35737303Y31536237D01*
X33893817Y29692749D01*
X33841925Y29658076D01*
X33765752Y29544074D01*
X33704561Y29452496D01*
X33656325Y29210000D01*
X33668501Y29148788D01*
X33668500Y25657434D01*
X31492568Y23481500D01*
X28298934Y23481500D01*
X26380434Y25400000D01*
X29354372Y25400000D01*
X29440055Y24969241D01*
X29684061Y24604061D01*
X30049241Y24360055D01*
X30371268Y24296000D01*
X30588732Y24296000D01*
X30910759Y24360055D01*
X31275939Y24604061D01*
X31519945Y24969241D01*
X31605628Y25400000D01*
X31519945Y25830759D01*
X31275939Y26195939D01*
X30910759Y26439945D01*
X30588732Y26504000D01*
X30371268Y26504000D01*
X30049241Y26439945D01*
X29684061Y26195939D01*
X29440055Y25830759D01*
X29354372Y25400000D01*
X26380434Y25400000D01*
X24751500Y27028933D01*
X24751500Y32114322D01*
X24848615Y32133639D01*
X24878771Y32153789D01*
X25552289Y32153789D01*
X25611486Y31959261D01*
X26056883Y31841579D01*
X26513411Y31903301D01*
X26648514Y31959261D01*
X26707711Y32153789D01*
X26130000Y32731500D01*
X25552289Y32153789D01*
X24878771Y32153789D01*
X24949171Y32200829D01*
X25016361Y32301385D01*
X25039955Y32420000D01*
X25039955Y32572239D01*
X25069261Y32501486D01*
X25263789Y32442289D01*
X25841500Y33020000D01*
X26418500Y33020000D01*
X26996211Y32442289D01*
X27190739Y32501486D01*
X27308421Y32946883D01*
X27246699Y33403411D01*
X27190739Y33538514D01*
X26996211Y33597711D01*
X26418500Y33020000D01*
X25841500Y33020000D01*
X25263789Y33597711D01*
X25069261Y33538514D01*
X25039955Y33427598D01*
X25039955Y33620000D01*
X25016361Y33738615D01*
X24949171Y33839171D01*
X24878772Y33886211D01*
X25552289Y33886211D01*
X26130000Y33308500D01*
X26707711Y33886211D01*
X26648514Y34080739D01*
X26203117Y34198421D01*
X25746589Y34136699D01*
X25611486Y34080739D01*
X25552289Y33886211D01*
X24878772Y33886211D01*
X24848615Y33906361D01*
X24751500Y33925678D01*
X24751500Y38758321D01*
X27306325Y38758321D01*
X27318501Y38697109D01*
X27318500Y31811207D01*
X27306325Y31750000D01*
X27354561Y31507504D01*
X27457254Y31353814D01*
X28727253Y30083813D01*
X28761924Y30031924D01*
X28967503Y29894561D01*
X29148793Y29858500D01*
X29148796Y29858500D01*
X29209999Y29846326D01*
X29271203Y29858500D01*
X29567504Y29858500D01*
X29684061Y29684061D01*
X30049241Y29440055D01*
X30371268Y29376000D01*
X30588732Y29376000D01*
X30910759Y29440055D01*
X31275939Y29684061D01*
X31519945Y30049241D01*
X31605628Y30480000D01*
X31519945Y30910759D01*
X31275939Y31275939D01*
X30910759Y31519945D01*
X30588732Y31584000D01*
X30371268Y31584000D01*
X30049241Y31519945D01*
X29684061Y31275939D01*
X29567504Y31101500D01*
X29467434Y31101500D01*
X28561500Y32007432D01*
X28561500Y33820000D01*
X29370045Y33820000D01*
X29370045Y32220000D01*
X29393639Y32101385D01*
X29460829Y32000829D01*
X29561385Y31933639D01*
X29680000Y31910045D01*
X31280000Y31910045D01*
X31398615Y31933639D01*
X31499171Y32000829D01*
X31566361Y32101385D01*
X31589955Y32220000D01*
X31589955Y33820000D01*
X31566361Y33938615D01*
X31499171Y34039171D01*
X31398615Y34106361D01*
X31280000Y34129955D01*
X29680000Y34129955D01*
X29561385Y34106361D01*
X29460829Y34039171D01*
X29393639Y33938615D01*
X29370045Y33820000D01*
X28561500Y33820000D01*
X28561500Y38500889D01*
X30079112Y40018500D01*
X36572568Y40018500D01*
X37381111Y39209955D01*
X37300000Y39209955D01*
X37181385Y39186361D01*
X37080829Y39119171D01*
X37013639Y39018615D01*
X36990045Y38900000D01*
X36990045Y37300000D01*
X37013639Y37181385D01*
X37080829Y37080829D01*
X37181385Y37013639D01*
X37300000Y36990045D01*
X38651111Y36990045D01*
X37842568Y36181500D01*
X33277434Y36181500D01*
X31762748Y37696185D01*
X31762745Y37696189D01*
X31564699Y37894235D01*
X31605628Y38100000D01*
X31519945Y38530759D01*
X31275939Y38895939D01*
X30910759Y39139945D01*
X30588732Y39204000D01*
X30371268Y39204000D01*
X30049241Y39139945D01*
X29684061Y38895939D01*
X29440055Y38530759D01*
X29354372Y38100000D01*
X29440055Y37669241D01*
X29684061Y37304061D01*
X30049241Y37060055D01*
X30371268Y36996000D01*
X30588732Y36996000D01*
X30685765Y37015301D01*
X30883811Y36817255D01*
X30883815Y36817252D01*
X32398501Y35302565D01*
X32398500Y29467434D01*
X31492568Y28561500D01*
X31392496Y28561500D01*
X31275939Y28735939D01*
X30910759Y28979945D01*
X30588732Y29044000D01*
X30371268Y29044000D01*
X30049241Y28979945D01*
X29684061Y28735939D01*
X29440055Y28370759D01*
X29354372Y27940000D01*
X29440055Y27509241D01*
X29684061Y27144061D01*
X30049241Y26900055D01*
X30371268Y26836000D01*
X30588732Y26836000D01*
X30910759Y26900055D01*
X31275939Y27144061D01*
X31392496Y27318500D01*
X31688793Y27318500D01*
X31750000Y27306325D01*
X31811207Y27318500D01*
X31992497Y27354561D01*
X32198076Y27491924D01*
X32232751Y27543819D01*
X33416188Y28727254D01*
X33468076Y28761924D01*
X33605439Y28967503D01*
X33641500Y29148793D01*
X33641500Y29148796D01*
X33653674Y29209999D01*
X33641500Y29271203D01*
X33641500Y34938500D01*
X38038793Y34938500D01*
X38100000Y34926325D01*
X38161207Y34938500D01*
X38342497Y34974561D01*
X38548076Y35111924D01*
X38582751Y35163819D01*
X39552632Y36133698D01*
X39599697Y36143060D01*
X39753387Y36245753D01*
X43677688Y40170052D01*
X43729577Y40204723D01*
X43866940Y40410302D01*
X43903001Y40591592D01*
X43903001Y40591596D01*
X43915175Y40652798D01*
X43903001Y40714000D01*
X43903001Y49324112D01*
X43915176Y49385319D01*
X43866940Y49627816D01*
X43729577Y49833395D01*
X43677685Y49868068D01*
X42288607Y51257145D01*
X42288605Y51257148D01*
X42002749Y51543004D01*
X42109860Y51801594D01*
X42109860Y52419686D01*
X41873326Y52990729D01*
X41436269Y53427786D01*
X40865226Y53664320D01*
X40247134Y53664320D01*
X39676091Y53427786D01*
X39239034Y52990729D01*
X39002500Y52419686D01*
X39002500Y51801594D01*
X39239034Y51230551D01*
X39676091Y50793494D01*
X40247134Y50556960D01*
X40865226Y50556960D01*
X41123816Y50664071D01*
X41409672Y50378215D01*
X41409675Y50378213D01*
X42660002Y49127885D01*
X42660001Y40910233D01*
X39209955Y37460185D01*
X39209955Y38900000D01*
X39186361Y39018615D01*
X39119171Y39119171D01*
X39018615Y39186361D01*
X38900000Y39209955D01*
X38721500Y39209955D01*
X38721500Y39308797D01*
X38733674Y39370001D01*
X38721500Y39431206D01*
X38721500Y41652568D01*
X39164234Y42095301D01*
X39261268Y42076000D01*
X39478732Y42076000D01*
X39800759Y42140055D01*
X40165939Y42384061D01*
X40409945Y42749241D01*
X40495628Y43180000D01*
X40409945Y43610759D01*
X40165939Y43975939D01*
X39800759Y44219945D01*
X39478732Y44284000D01*
X39261268Y44284000D01*
X38939241Y44219945D01*
X38574061Y43975939D01*
X38330055Y43610759D01*
X38244372Y43180000D01*
X38285301Y42974234D01*
X37703817Y42392749D01*
X37651925Y42358076D01*
X37582382Y42253997D01*
X37514561Y42152496D01*
X37466325Y41910000D01*
X37478501Y41848788D01*
X37478501Y40870432D01*
X37312751Y41036181D01*
X37278076Y41088076D01*
X37072497Y41225439D01*
X36891207Y41261500D01*
X36830000Y41273675D01*
X36768793Y41261500D01*
X29882886Y41261500D01*
X29821679Y41273675D01*
X29592002Y41227989D01*
X29579182Y41225439D01*
X29373603Y41088076D01*
X29338930Y41036184D01*
X27543817Y39241070D01*
X27491925Y39206397D01*
X27439211Y39127504D01*
X27354561Y39000817D01*
X27306325Y38758321D01*
X24751500Y38758321D01*
X24751500Y43399599D01*
X25566000Y43399599D01*
X25566000Y42960401D01*
X25734074Y42554634D01*
X26044634Y42244074D01*
X26450401Y42076000D01*
X26889599Y42076000D01*
X27295366Y42244074D01*
X27605926Y42554634D01*
X27774000Y42960401D01*
X27774000Y43399599D01*
X27605926Y43805366D01*
X27295366Y44115926D01*
X27291500Y44117527D01*
X27291500Y47959388D01*
X29996185Y50664071D01*
X30254774Y50556960D01*
X30872866Y50556960D01*
X31443909Y50793494D01*
X31880966Y51230551D01*
X32117500Y51801594D01*
X32117500Y52419686D01*
X31880966Y52990729D01*
X31601901Y53269794D01*
X34508294Y53269794D01*
X34648352Y53008158D01*
X35330746Y52781218D01*
X36048042Y52832695D01*
X36471648Y53008158D01*
X36611706Y53269794D01*
X35560000Y54321500D01*
X34508294Y53269794D01*
X31601901Y53269794D01*
X31443909Y53427786D01*
X30872866Y53664320D01*
X30254774Y53664320D01*
X29683731Y53427786D01*
X29246674Y52990729D01*
X29010140Y52419686D01*
X29010140Y51801594D01*
X29117251Y51543005D01*
X26273817Y48699569D01*
X26221925Y48664896D01*
X26118770Y48510514D01*
X26084561Y48459316D01*
X26036325Y48216820D01*
X26048501Y48155608D01*
X26048500Y44117527D01*
X26044634Y44115926D01*
X25734074Y43805366D01*
X25566000Y43399599D01*
X24751500Y43399599D01*
X24751500Y54921586D01*
X26508240Y54921586D01*
X26508240Y54303494D01*
X26744774Y53732451D01*
X27181831Y53295394D01*
X27752874Y53058860D01*
X28370966Y53058860D01*
X28942009Y53295394D01*
X29379066Y53732451D01*
X29615600Y54303494D01*
X29615600Y54839254D01*
X33731218Y54839254D01*
X33782695Y54121958D01*
X33958158Y53698352D01*
X34219794Y53558294D01*
X35271500Y54610000D01*
X35848500Y54610000D01*
X36900206Y53558294D01*
X37161842Y53698352D01*
X37388782Y54380746D01*
X37349969Y54921586D01*
X41504400Y54921586D01*
X41504400Y54303494D01*
X41740934Y53732451D01*
X42177991Y53295394D01*
X42749034Y53058860D01*
X43367126Y53058860D01*
X43938169Y53295394D01*
X44375226Y53732451D01*
X44611760Y54303494D01*
X44611760Y54921586D01*
X44375226Y55492629D01*
X43938169Y55929686D01*
X43367126Y56166220D01*
X42749034Y56166220D01*
X42177991Y55929686D01*
X41740934Y55492629D01*
X41504400Y54921586D01*
X37349969Y54921586D01*
X37337305Y55098042D01*
X37161842Y55521648D01*
X36900206Y55661706D01*
X35848500Y54610000D01*
X35271500Y54610000D01*
X34219794Y55661706D01*
X33958158Y55521648D01*
X33731218Y54839254D01*
X29615600Y54839254D01*
X29615600Y54921586D01*
X29379066Y55492629D01*
X28942009Y55929686D01*
X28892470Y55950206D01*
X34508294Y55950206D01*
X35560000Y54898500D01*
X36611706Y55950206D01*
X36471648Y56211842D01*
X35789254Y56438782D01*
X35071958Y56387305D01*
X34648352Y56211842D01*
X34508294Y55950206D01*
X28892470Y55950206D01*
X28370966Y56166220D01*
X27752874Y56166220D01*
X27181831Y55929686D01*
X26744774Y55492629D01*
X26508240Y54921586D01*
X24751500Y54921586D01*
X24751500Y63438799D01*
X24763674Y63500001D01*
X24751500Y63561203D01*
X24751500Y63561207D01*
X24715439Y63742497D01*
X24578076Y63948076D01*
X24526187Y63982747D01*
X23592448Y64916486D01*
X29005060Y64916486D01*
X29005060Y64298394D01*
X29241594Y63727351D01*
X29678651Y63290294D01*
X30249694Y63053760D01*
X30867786Y63053760D01*
X31438829Y63290294D01*
X31875886Y63727351D01*
X32112420Y64298394D01*
X32112420Y64916486D01*
X39007580Y64916486D01*
X39007580Y64298394D01*
X39244114Y63727351D01*
X39681171Y63290294D01*
X40252214Y63053760D01*
X40870306Y63053760D01*
X41441349Y63290294D01*
X41878406Y63727351D01*
X42114940Y64298394D01*
X42114940Y64916486D01*
X53135060Y64916486D01*
X53135060Y64298394D01*
X53371594Y63727351D01*
X53808651Y63290294D01*
X54379694Y63053760D01*
X54997786Y63053760D01*
X55568829Y63290294D01*
X56005886Y63727351D01*
X56242420Y64298394D01*
X56242420Y64916486D01*
X63137580Y64916486D01*
X63137580Y64298394D01*
X63374114Y63727351D01*
X63811171Y63290294D01*
X64382214Y63053760D01*
X65000306Y63053760D01*
X65571349Y63290294D01*
X66008406Y63727351D01*
X66244940Y64298394D01*
X66244940Y64916486D01*
X66008406Y65487529D01*
X65571349Y65924586D01*
X65000306Y66161120D01*
X64382214Y66161120D01*
X63811171Y65924586D01*
X63374114Y65487529D01*
X63137580Y64916486D01*
X56242420Y64916486D01*
X56005886Y65487529D01*
X55568829Y65924586D01*
X54997786Y66161120D01*
X54379694Y66161120D01*
X53808651Y65924586D01*
X53371594Y65487529D01*
X53135060Y64916486D01*
X42114940Y64916486D01*
X41878406Y65487529D01*
X41441349Y65924586D01*
X40870306Y66161120D01*
X40252214Y66161120D01*
X39681171Y65924586D01*
X39244114Y65487529D01*
X39007580Y64916486D01*
X32112420Y64916486D01*
X31875886Y65487529D01*
X31438829Y65924586D01*
X30867786Y66161120D01*
X30249694Y66161120D01*
X29678651Y65924586D01*
X29241594Y65487529D01*
X29005060Y64916486D01*
X23592448Y64916486D01*
X22072751Y66436181D01*
X22038076Y66488076D01*
X21832497Y66625439D01*
X21651207Y66661500D01*
X21590000Y66673675D01*
X21528793Y66661500D01*
X3871203Y66661500D01*
X3809999Y66673674D01*
X3748796Y66661500D01*
X3748793Y66661500D01*
X3567503Y66625439D01*
X3361924Y66488076D01*
X3327253Y66436187D01*
X2143817Y65252749D01*
X2091925Y65218076D01*
X1988770Y65063694D01*
X1954561Y65012496D01*
X1906325Y64770000D01*
X1320000Y64770000D01*
X1320000Y68530000D01*
X71070000Y68530000D01*
X71070000Y1320000D01*
X71070000Y1320000D01*
G37*
X71070000Y1320000D02*
X1320000Y1320000D01*
X1320000Y64770000D01*
X1906325Y64770000D01*
X1918501Y64708788D01*
X1918500Y6411207D01*
X1906325Y6350000D01*
X1918500Y6288794D01*
X1954561Y6107504D01*
X2091924Y5901924D01*
X2143819Y5867249D01*
X3901065Y4110002D01*
X3876000Y4049491D01*
X3876000Y3570509D01*
X4059298Y3127989D01*
X4397989Y2789298D01*
X4840509Y2606000D01*
X5319491Y2606000D01*
X5762011Y2789298D01*
X6100702Y3127989D01*
X6240918Y3466500D01*
X18962000Y3466500D01*
X18962000Y2899007D01*
X19046950Y2693918D01*
X19203918Y2536951D01*
X19409007Y2452000D01*
X19976500Y2452000D01*
X20116000Y2591500D01*
X20116000Y3606000D01*
X20524000Y3606000D01*
X20524000Y2591500D01*
X20663500Y2452000D01*
X21230993Y2452000D01*
X21436082Y2536951D01*
X21593050Y2693918D01*
X21678000Y2899007D01*
X21678000Y3466500D01*
X21538500Y3606000D01*
X20524000Y3606000D01*
X20116000Y3606000D01*
X19101500Y3606000D01*
X18962000Y3466500D01*
X6240918Y3466500D01*
X6284000Y3570509D01*
X6284000Y4049491D01*
X6100702Y4492011D01*
X5762011Y4830702D01*
X5319491Y5014000D01*
X4840509Y5014000D01*
X4779998Y4988935D01*
X4469084Y5299850D01*
X4840509Y5146000D01*
X5319491Y5146000D01*
X5762011Y5329298D01*
X6100702Y5667989D01*
X6284000Y6110509D01*
X6284000Y6589491D01*
X6416000Y6589491D01*
X6416000Y6110509D01*
X6599298Y5667989D01*
X6937989Y5329298D01*
X7380509Y5146000D01*
X7859491Y5146000D01*
X8302011Y5329298D01*
X8640702Y5667989D01*
X8824000Y6110509D01*
X8824000Y6589491D01*
X8640702Y7032011D01*
X8302011Y7370702D01*
X7859491Y7554000D01*
X7380509Y7554000D01*
X6937989Y7370702D01*
X6599298Y7032011D01*
X6416000Y6589491D01*
X6284000Y6589491D01*
X6100702Y7032011D01*
X5762011Y7370702D01*
X5319491Y7554000D01*
X4840509Y7554000D01*
X4397989Y7370702D01*
X4059298Y7032011D01*
X3876000Y6589491D01*
X3876000Y6110509D01*
X4029850Y5739083D01*
X3161500Y6607432D01*
X3161500Y9129491D01*
X3876000Y9129491D01*
X3876000Y8650509D01*
X4059298Y8207989D01*
X4397989Y7869298D01*
X4840509Y7686000D01*
X5319491Y7686000D01*
X5762011Y7869298D01*
X6100702Y8207989D01*
X6284000Y8650509D01*
X6284000Y9129491D01*
X6100702Y9572011D01*
X5762011Y9910702D01*
X5319491Y10094000D01*
X4840509Y10094000D01*
X4397989Y9910702D01*
X4059298Y9572011D01*
X3876000Y9129491D01*
X3161500Y9129491D01*
X3161500Y11669491D01*
X3876000Y11669491D01*
X3876000Y11190509D01*
X4059298Y10747989D01*
X4397989Y10409298D01*
X4840509Y10226000D01*
X5319491Y10226000D01*
X5762011Y10409298D01*
X6100702Y10747989D01*
X6284000Y11190509D01*
X6284000Y11669491D01*
X6416000Y11669491D01*
X6416000Y11190509D01*
X6599298Y10747989D01*
X6937989Y10409298D01*
X7380509Y10226000D01*
X7859491Y10226000D01*
X8302011Y10409298D01*
X8640702Y10747989D01*
X8824000Y11190509D01*
X8824000Y11669491D01*
X8640702Y12112011D01*
X8302011Y12450702D01*
X7859491Y12634000D01*
X7380509Y12634000D01*
X6937989Y12450702D01*
X6599298Y12112011D01*
X6416000Y11669491D01*
X6284000Y11669491D01*
X6100702Y12112011D01*
X5762011Y12450702D01*
X5319491Y12634000D01*
X4840509Y12634000D01*
X4397989Y12450702D01*
X4059298Y12112011D01*
X3876000Y11669491D01*
X3161500Y11669491D01*
X3161500Y14209491D01*
X3876000Y14209491D01*
X3876000Y13730509D01*
X4059298Y13287989D01*
X4397989Y12949298D01*
X4840509Y12766000D01*
X5319491Y12766000D01*
X5762011Y12949298D01*
X6100702Y13287989D01*
X6284000Y13730509D01*
X6284000Y14209491D01*
X6416000Y14209491D01*
X6416000Y13730509D01*
X6599298Y13287989D01*
X6937989Y12949298D01*
X7380509Y12766000D01*
X7859491Y12766000D01*
X8302011Y12949298D01*
X8640702Y13287989D01*
X8824000Y13730509D01*
X8824000Y14209491D01*
X8640702Y14652011D01*
X8302011Y14990702D01*
X7859491Y15174000D01*
X7380509Y15174000D01*
X6937989Y14990702D01*
X6599298Y14652011D01*
X6416000Y14209491D01*
X6284000Y14209491D01*
X6100702Y14652011D01*
X5762011Y14990702D01*
X5319491Y15174000D01*
X4840509Y15174000D01*
X4397989Y14990702D01*
X4059298Y14652011D01*
X3876000Y14209491D01*
X3161500Y14209491D01*
X3161500Y16749491D01*
X3876000Y16749491D01*
X3876000Y16270509D01*
X4059298Y15827989D01*
X4397989Y15489298D01*
X4840509Y15306000D01*
X5319491Y15306000D01*
X5762011Y15489298D01*
X6100702Y15827989D01*
X6284000Y16270509D01*
X6284000Y16749491D01*
X6416000Y16749491D01*
X6416000Y16270509D01*
X6599298Y15827989D01*
X6937989Y15489298D01*
X7380509Y15306000D01*
X7859491Y15306000D01*
X8278334Y15479491D01*
X16116000Y15479491D01*
X16116000Y15000509D01*
X16299298Y14557989D01*
X16637989Y14219298D01*
X17080509Y14036000D01*
X17559491Y14036000D01*
X18002011Y14219298D01*
X18340702Y14557989D01*
X18365767Y14618500D01*
X19111207Y14618500D01*
X19292497Y14654561D01*
X19320678Y14673391D01*
X19299298Y14652011D01*
X19116000Y14209491D01*
X19116000Y13730509D01*
X19299298Y13287989D01*
X19320678Y13266609D01*
X19292497Y13285439D01*
X19111207Y13321500D01*
X18365767Y13321500D01*
X18340702Y13382011D01*
X18002011Y13720702D01*
X17559491Y13904000D01*
X17080509Y13904000D01*
X16637989Y13720702D01*
X16299298Y13382011D01*
X16116000Y12939491D01*
X16116000Y12460509D01*
X16299298Y12017989D01*
X16637989Y11679298D01*
X17080509Y11496000D01*
X17559491Y11496000D01*
X18002011Y11679298D01*
X18340702Y12017989D01*
X18365767Y12078500D01*
X19111207Y12078500D01*
X19292497Y12114561D01*
X19320678Y12133391D01*
X19299298Y12112011D01*
X19116000Y11669491D01*
X19116000Y11190509D01*
X19299298Y10747989D01*
X19320678Y10726609D01*
X19292497Y10745439D01*
X19111207Y10781500D01*
X18365767Y10781500D01*
X18340702Y10842011D01*
X18002011Y11180702D01*
X17559491Y11364000D01*
X17080509Y11364000D01*
X16637989Y11180702D01*
X16299298Y10842011D01*
X16116000Y10399491D01*
X16116000Y9920509D01*
X16299298Y9477989D01*
X16637989Y9139298D01*
X17080509Y8956000D01*
X17559491Y8956000D01*
X18002011Y9139298D01*
X18340702Y9477989D01*
X18365767Y9538500D01*
X19111207Y9538500D01*
X19292497Y9574561D01*
X19320678Y9593391D01*
X19299298Y9572011D01*
X19116000Y9129491D01*
X19116000Y8650509D01*
X19299298Y8207989D01*
X19637989Y7869298D01*
X20080509Y7686000D01*
X20559491Y7686000D01*
X20624485Y7712921D01*
X20671923Y7641925D01*
X20877502Y7504562D01*
X21058792Y7468501D01*
X23402567Y7468501D01*
X23508500Y7362567D01*
X23508501Y5141212D01*
X23496325Y5080000D01*
X23544561Y4837504D01*
X23544562Y4837503D01*
X23681925Y4631924D01*
X23733817Y4597251D01*
X24917252Y3413814D01*
X24951924Y3361924D01*
X25157503Y3224561D01*
X25338793Y3188500D01*
X25338796Y3188500D01*
X25399999Y3176326D01*
X25461203Y3188500D01*
X35498793Y3188500D01*
X35560000Y3176325D01*
X35621207Y3188500D01*
X35802497Y3224561D01*
X36008076Y3361924D01*
X36145439Y3567503D01*
X36193675Y3810000D01*
X36181500Y3871207D01*
X36181500Y24988484D01*
X36805852Y24988484D01*
X36893900Y24775875D01*
X37224551Y24361829D01*
X37688482Y24105835D01*
X37896000Y24196893D01*
X37896000Y25196000D01*
X38304000Y25196000D01*
X38304000Y24196893D01*
X38511518Y24105835D01*
X38975449Y24361829D01*
X39306100Y24775875D01*
X39394148Y24988484D01*
X39301302Y25196000D01*
X38304000Y25196000D01*
X37896000Y25196000D01*
X36898698Y25196000D01*
X36805852Y24988484D01*
X36181500Y24988484D01*
X36181500Y25811516D01*
X36805852Y25811516D01*
X36898698Y25604000D01*
X37896000Y25604000D01*
X37896000Y26603107D01*
X37688482Y26694165D01*
X37224551Y26438171D01*
X36893900Y26024125D01*
X36805852Y25811516D01*
X36181500Y25811516D01*
X36181500Y27682568D01*
X37279934Y28781000D01*
X37371499Y28781000D01*
X37304061Y28735939D01*
X37060055Y28370759D01*
X36974372Y27940000D01*
X37060055Y27509241D01*
X37304061Y27144061D01*
X37669241Y26900055D01*
X37991268Y26836000D01*
X38208732Y26836000D01*
X38305766Y26855301D01*
X38480509Y26680558D01*
X38304000Y26603107D01*
X38304000Y25604000D01*
X39301302Y25604000D01*
X39380362Y25780704D01*
X40018501Y25142565D01*
X40018500Y23117434D01*
X37703817Y20802749D01*
X37651925Y20768076D01*
X37548770Y20613694D01*
X37514561Y20562496D01*
X37466325Y20320000D01*
X37478501Y20258788D01*
X37478500Y4067434D01*
X36572568Y3161500D01*
X24387434Y3161500D01*
X23481500Y4067432D01*
X23481500Y6288794D01*
X23493675Y6350000D01*
X23445439Y6592497D01*
X23308076Y6798076D01*
X23102497Y6935439D01*
X22921207Y6971500D01*
X22860000Y6983675D01*
X22798793Y6971500D01*
X21365767Y6971500D01*
X21340702Y7032011D01*
X21002011Y7370702D01*
X20559491Y7554000D01*
X20080509Y7554000D01*
X19637989Y7370702D01*
X19299298Y7032011D01*
X19116000Y6589491D01*
X19116000Y6110509D01*
X19299298Y5667989D01*
X19637989Y5329298D01*
X20080509Y5146000D01*
X20115998Y5146000D01*
X20115998Y5028502D01*
X19976500Y5168000D01*
X19409007Y5168000D01*
X19203918Y5083049D01*
X19046950Y4926082D01*
X18962000Y4720993D01*
X18962000Y4153500D01*
X19101500Y4014000D01*
X20116000Y4014000D01*
X20116000Y4034000D01*
X20524000Y4034000D01*
X20524000Y4014000D01*
X21538500Y4014000D01*
X21678000Y4153500D01*
X21678000Y4720993D01*
X21593050Y4926082D01*
X21436082Y5083049D01*
X21230993Y5168000D01*
X20663500Y5168000D01*
X20524002Y5028502D01*
X20524002Y5146000D01*
X20559491Y5146000D01*
X21002011Y5329298D01*
X21340702Y5667989D01*
X21365767Y5728500D01*
X22238500Y5728500D01*
X22238501Y3871212D01*
X22226325Y3810000D01*
X22274561Y3567504D01*
X22274562Y3567503D01*
X22411925Y3361924D01*
X22463817Y3327251D01*
X23647253Y2143813D01*
X23681924Y2091924D01*
X23887503Y1954561D01*
X24068793Y1918500D01*
X24068796Y1918500D01*
X24129999Y1906326D01*
X24191203Y1918500D01*
X36768793Y1918500D01*
X36830000Y1906325D01*
X36891207Y1918500D01*
X37072497Y1954561D01*
X37278076Y2091924D01*
X37312751Y2143819D01*
X38496188Y3327254D01*
X38548076Y3361924D01*
X38685439Y3567503D01*
X38721500Y3748793D01*
X38721500Y3748796D01*
X38733674Y3809999D01*
X38721500Y3871203D01*
X38721500Y6728729D01*
X62866000Y6728729D01*
X62866000Y5971271D01*
X63155866Y5271470D01*
X63691470Y4735866D01*
X64391271Y4446000D01*
X65148729Y4446000D01*
X65848530Y4735866D01*
X66384134Y5271470D01*
X66674000Y5971271D01*
X66674000Y6728729D01*
X66384134Y7428530D01*
X65848530Y7964134D01*
X65148729Y8254000D01*
X64391271Y8254000D01*
X63691470Y7964134D01*
X63155866Y7428530D01*
X62866000Y6728729D01*
X38721500Y6728729D01*
X38721500Y20062568D01*
X41036188Y22377254D01*
X41088076Y22411924D01*
X41225439Y22617503D01*
X41261500Y22798793D01*
X41261500Y22798797D01*
X41273674Y22859999D01*
X41261500Y22921201D01*
X41261500Y24778500D01*
X45658793Y24778500D01*
X45720000Y24766325D01*
X45781207Y24778500D01*
X45962497Y24814561D01*
X46168076Y24951924D01*
X46202751Y25003819D01*
X50576534Y29377602D01*
X50580401Y29376000D01*
X51019599Y29376000D01*
X51425366Y29544074D01*
X51735926Y29854634D01*
X51904000Y30260401D01*
X51904000Y30699599D01*
X51735926Y31105366D01*
X51425366Y31415926D01*
X51019599Y31584000D01*
X50580401Y31584000D01*
X50174634Y31415926D01*
X49864074Y31105366D01*
X49696000Y30699599D01*
X49696000Y30260401D01*
X49697602Y30256534D01*
X45462568Y26021500D01*
X40897434Y26021500D01*
X39184699Y27734234D01*
X39225628Y27940000D01*
X39139945Y28370759D01*
X38895939Y28735939D01*
X38828501Y28781000D01*
X38909179Y28781000D01*
X38921925Y28761925D01*
X39127504Y28624561D01*
X39370000Y28576325D01*
X39612496Y28624561D01*
X39766186Y28727254D01*
X46818531Y35779599D01*
X49696000Y35779599D01*
X49696000Y35340401D01*
X49864074Y34934634D01*
X50174634Y34624074D01*
X50580401Y34456000D01*
X51019599Y34456000D01*
X51425366Y34624074D01*
X51735926Y34934634D01*
X51904000Y35340401D01*
X51904000Y35779599D01*
X51902398Y35783466D01*
X55090007Y38971073D01*
X55141896Y39005744D01*
X55279259Y39211323D01*
X55298647Y39308794D01*
X55327495Y39453819D01*
X55315320Y39515026D01*
X55315320Y40859599D01*
X62396000Y40859599D01*
X62396000Y40420401D01*
X62564074Y40014634D01*
X62874634Y39704074D01*
X63280401Y39536000D01*
X63719599Y39536000D01*
X64125366Y39704074D01*
X64435926Y40014634D01*
X64604000Y40420401D01*
X64604000Y40859599D01*
X64435926Y41265366D01*
X64125366Y41575926D01*
X64121500Y41577527D01*
X64121500Y50662847D01*
X64377134Y50556960D01*
X64995226Y50556960D01*
X65566269Y50793494D01*
X66003326Y51230551D01*
X66239860Y51801594D01*
X66239860Y52419686D01*
X66003326Y52990729D01*
X65566269Y53427786D01*
X64995226Y53664320D01*
X64377134Y53664320D01*
X63806091Y53427786D01*
X63369034Y52990729D01*
X63132500Y52419686D01*
X63132500Y51801594D01*
X63239612Y51543004D01*
X63103817Y51407209D01*
X63051925Y51372536D01*
X62957054Y51230551D01*
X62914561Y51166956D01*
X62866325Y50924460D01*
X62878501Y50863248D01*
X62878500Y41577527D01*
X62874634Y41575926D01*
X62564074Y41265366D01*
X62396000Y40859599D01*
X55315320Y40859599D01*
X55315320Y50686383D01*
X55573909Y50793494D01*
X56010966Y51230551D01*
X56247500Y51801594D01*
X56247500Y52419686D01*
X56010966Y52990729D01*
X55731901Y53269794D01*
X58638294Y53269794D01*
X58778352Y53008158D01*
X59460746Y52781218D01*
X60178042Y52832695D01*
X60601648Y53008158D01*
X60741706Y53269794D01*
X59690000Y54321500D01*
X58638294Y53269794D01*
X55731901Y53269794D01*
X55573909Y53427786D01*
X55002866Y53664320D01*
X54384774Y53664320D01*
X53813731Y53427786D01*
X53376674Y52990729D01*
X53140140Y52419686D01*
X53140140Y51801594D01*
X53376674Y51230551D01*
X53813731Y50793494D01*
X54072321Y50686382D01*
X54072320Y39711254D01*
X51023466Y36662398D01*
X51019599Y36664000D01*
X50580401Y36664000D01*
X50174634Y36495926D01*
X49864074Y36185366D01*
X49696000Y35779599D01*
X46818531Y35779599D01*
X50594234Y39555301D01*
X50691268Y39536000D01*
X50908732Y39536000D01*
X51230759Y39600055D01*
X51595939Y39844061D01*
X51839945Y40209241D01*
X51925628Y40640000D01*
X51839945Y41070759D01*
X51595939Y41435939D01*
X51230759Y41679945D01*
X50908732Y41744000D01*
X50691268Y41744000D01*
X50369241Y41679945D01*
X50004061Y41435939D01*
X49760055Y41070759D01*
X49674372Y40640000D01*
X49715301Y40434234D01*
X38920068Y29639000D01*
X38828501Y29639000D01*
X38895939Y29684061D01*
X39139945Y30049241D01*
X39225628Y30480000D01*
X39139945Y30910759D01*
X38895939Y31275939D01*
X38530759Y31519945D01*
X38208732Y31584000D01*
X37991268Y31584000D01*
X37669241Y31519945D01*
X37304061Y31275939D01*
X37060055Y30910759D01*
X36974372Y30480000D01*
X37060055Y30049241D01*
X37304061Y29684061D01*
X37371499Y29639000D01*
X37290821Y29639000D01*
X37278075Y29658075D01*
X37072496Y29795439D01*
X36829999Y29843674D01*
X36587503Y29795439D01*
X36433812Y29692746D01*
X35163817Y28422749D01*
X35111925Y28388076D01*
X35008770Y28233694D01*
X34974561Y28182496D01*
X34926325Y27940000D01*
X34938501Y27878788D01*
X34938500Y4431500D01*
X25657434Y4431500D01*
X24751500Y5337432D01*
X24751500Y7558793D01*
X24763675Y7620000D01*
X24730124Y7788675D01*
X27256000Y7788675D01*
X27256000Y7011325D01*
X27553479Y6293148D01*
X28103148Y5743479D01*
X28821325Y5446000D01*
X29598675Y5446000D01*
X30316852Y5743479D01*
X30866521Y6293148D01*
X31164000Y7011325D01*
X31164000Y7788675D01*
X30866521Y8506852D01*
X30316852Y9056521D01*
X29598675Y9354000D01*
X28821325Y9354000D01*
X28103148Y9056521D01*
X27553479Y8506852D01*
X27256000Y7788675D01*
X24730124Y7788675D01*
X24715439Y7862497D01*
X24675270Y7922614D01*
X24578076Y8068076D01*
X24526184Y8102749D01*
X24142750Y8486182D01*
X24108075Y8538077D01*
X23902496Y8675440D01*
X23721206Y8711501D01*
X23659999Y8723676D01*
X23598792Y8711501D01*
X21524000Y8711501D01*
X21524000Y9129491D01*
X21340702Y9572011D01*
X21319322Y9593391D01*
X21347503Y9574561D01*
X21528793Y9538500D01*
X22798793Y9538500D01*
X22860000Y9526325D01*
X22921207Y9538500D01*
X23102497Y9574561D01*
X23138324Y9598500D01*
X25400114Y9598500D01*
X25436910Y9509666D01*
X25789666Y9156910D01*
X26250564Y8966000D01*
X26749436Y8966000D01*
X27210334Y9156910D01*
X27563090Y9509666D01*
X27754000Y9970564D01*
X27754000Y10469436D01*
X27563090Y10930334D01*
X27210334Y11283090D01*
X26751593Y11473107D01*
X27195334Y11656910D01*
X27548090Y12009666D01*
X27739000Y12470564D01*
X27739000Y12969436D01*
X27548090Y13430334D01*
X27195334Y13783090D01*
X26753750Y13966000D01*
X26759436Y13966000D01*
X27220334Y14156910D01*
X27573090Y14509666D01*
X27764000Y14970564D01*
X27764000Y15469436D01*
X27573090Y15930334D01*
X27220334Y16283090D01*
X27124007Y16322990D01*
X27230716Y16367190D01*
X27333735Y16597766D01*
X26500000Y17431500D01*
X25666265Y16597766D01*
X25769284Y16367190D01*
X25903133Y16325947D01*
X25799666Y16283090D01*
X25446910Y15930334D01*
X25410114Y15841500D01*
X21548793Y15841500D01*
X21367503Y15805439D01*
X21218776Y15706063D01*
X21340702Y15827989D01*
X21524000Y16270509D01*
X21524000Y16749491D01*
X21340702Y17192011D01*
X21002011Y17530702D01*
X20559491Y17714000D01*
X20080509Y17714000D01*
X19637989Y17530702D01*
X19299298Y17192011D01*
X19116000Y16749491D01*
X19116000Y16270509D01*
X19299298Y15827989D01*
X19320678Y15806609D01*
X19292497Y15825439D01*
X19111207Y15861500D01*
X18365767Y15861500D01*
X18340702Y15922011D01*
X18002011Y16260702D01*
X17760028Y16360935D01*
X18020474Y16468815D01*
X18117282Y16694218D01*
X17320000Y17491500D01*
X16522718Y16694218D01*
X16619526Y16468815D01*
X16920312Y16377644D01*
X16637989Y16260702D01*
X16299298Y15922011D01*
X16116000Y15479491D01*
X8278334Y15479491D01*
X8302011Y15489298D01*
X8640702Y15827989D01*
X8824000Y16270509D01*
X8824000Y16749491D01*
X8640702Y17192011D01*
X8302011Y17530702D01*
X7859491Y17714000D01*
X7380509Y17714000D01*
X6937989Y17530702D01*
X6599298Y17192011D01*
X6416000Y16749491D01*
X6284000Y16749491D01*
X6100702Y17192011D01*
X5762011Y17530702D01*
X5319491Y17714000D01*
X4840509Y17714000D01*
X4397989Y17530702D01*
X4059298Y17192011D01*
X3876000Y16749491D01*
X3161500Y16749491D01*
X3161500Y19289491D01*
X3876000Y19289491D01*
X3876000Y18810509D01*
X4059298Y18367989D01*
X4397989Y18029298D01*
X4840509Y17846000D01*
X5319491Y17846000D01*
X5762011Y18029298D01*
X6100702Y18367989D01*
X6284000Y18810509D01*
X6284000Y19289491D01*
X8956000Y19289491D01*
X8956000Y18810509D01*
X9139298Y18367989D01*
X9477989Y18029298D01*
X9920509Y17846000D01*
X10399491Y17846000D01*
X10842011Y18029298D01*
X11180702Y18367989D01*
X11364000Y18810509D01*
X11364000Y19289491D01*
X11496000Y19289491D01*
X11496000Y18810509D01*
X11679298Y18367989D01*
X12017989Y18029298D01*
X12460509Y17846000D01*
X12939491Y17846000D01*
X13131143Y17925385D01*
X15840563Y17925385D01*
X15897542Y17348163D01*
X16008815Y17079526D01*
X16234218Y16982718D01*
X17031500Y17780000D01*
X17608500Y17780000D01*
X18405782Y16982718D01*
X18631185Y17079526D01*
X18799437Y17634615D01*
X18742458Y18211837D01*
X18631185Y18480474D01*
X18405782Y18577282D01*
X17608500Y17780000D01*
X17031500Y17780000D01*
X16234218Y18577282D01*
X16008815Y18480474D01*
X15840563Y17925385D01*
X13131143Y17925385D01*
X13382011Y18029298D01*
X13720702Y18367989D01*
X13904000Y18810509D01*
X13904000Y19234218D01*
X16522718Y19234218D01*
X16601838Y19050000D01*
X16522718Y18865782D01*
X17320000Y18068500D01*
X18117282Y18865782D01*
X18038162Y19050000D01*
X18117282Y19234218D01*
X18062009Y19289491D01*
X19116000Y19289491D01*
X19116000Y18810509D01*
X19299298Y18367989D01*
X19637989Y18029298D01*
X20080509Y17846000D01*
X20559491Y17846000D01*
X20635285Y17877395D01*
X24970534Y17877395D01*
X25026725Y17280112D01*
X25147190Y16989284D01*
X25377766Y16886265D01*
X26211500Y17720000D01*
X26788500Y17720000D01*
X27622234Y16886265D01*
X27852810Y16989284D01*
X28029466Y17562605D01*
X27973275Y18159888D01*
X27852810Y18450716D01*
X27622234Y18553735D01*
X26788500Y17720000D01*
X26211500Y17720000D01*
X25377766Y18553735D01*
X25147190Y18450716D01*
X24970534Y17877395D01*
X20635285Y17877395D01*
X21002011Y18029298D01*
X21340702Y18367989D01*
X21524000Y18810509D01*
X21524000Y18842234D01*
X25666265Y18842234D01*
X26500000Y18008500D01*
X27333735Y18842234D01*
X27230716Y19072810D01*
X26657395Y19249466D01*
X26060112Y19193275D01*
X25769284Y19072810D01*
X25666265Y18842234D01*
X21524000Y18842234D01*
X21524000Y19289491D01*
X21340702Y19732011D01*
X21002011Y20070702D01*
X20559491Y20254000D01*
X20080509Y20254000D01*
X19637989Y20070702D01*
X19299298Y19732011D01*
X19116000Y19289491D01*
X18062009Y19289491D01*
X17320000Y20031500D01*
X16522718Y19234218D01*
X13904000Y19234218D01*
X13904000Y19289491D01*
X13720702Y19732011D01*
X13382011Y20070702D01*
X12939491Y20254000D01*
X12460509Y20254000D01*
X12017989Y20070702D01*
X11679298Y19732011D01*
X11496000Y19289491D01*
X11364000Y19289491D01*
X11180702Y19732011D01*
X10842011Y20070702D01*
X10399491Y20254000D01*
X9920509Y20254000D01*
X9477989Y20070702D01*
X9139298Y19732011D01*
X8956000Y19289491D01*
X6284000Y19289491D01*
X6100702Y19732011D01*
X5762011Y20070702D01*
X5319491Y20254000D01*
X4840509Y20254000D01*
X4397989Y20070702D01*
X4059298Y19732011D01*
X3876000Y19289491D01*
X3161500Y19289491D01*
X3161500Y21829491D01*
X3876000Y21829491D01*
X3876000Y21350509D01*
X4059298Y20907989D01*
X4397989Y20569298D01*
X4840509Y20386000D01*
X5319491Y20386000D01*
X5762011Y20569298D01*
X6100702Y20907989D01*
X6284000Y21350509D01*
X6284000Y21829491D01*
X8956000Y21829491D01*
X8956000Y21350509D01*
X9139298Y20907989D01*
X9477989Y20569298D01*
X9920509Y20386000D01*
X10399491Y20386000D01*
X10842011Y20569298D01*
X11180702Y20907989D01*
X11364000Y21350509D01*
X11364000Y21829491D01*
X11496000Y21829491D01*
X11496000Y21350509D01*
X11679298Y20907989D01*
X12017989Y20569298D01*
X12460509Y20386000D01*
X12939491Y20386000D01*
X13131143Y20465385D01*
X15840563Y20465385D01*
X15897542Y19888163D01*
X16008815Y19619526D01*
X16234218Y19522718D01*
X17031500Y20320000D01*
X17608500Y20320000D01*
X18405782Y19522718D01*
X18631185Y19619526D01*
X18799437Y20174615D01*
X18742458Y20751837D01*
X18631185Y21020474D01*
X18405782Y21117282D01*
X17608500Y20320000D01*
X17031500Y20320000D01*
X16234218Y21117282D01*
X16008815Y21020474D01*
X15840563Y20465385D01*
X13131143Y20465385D01*
X13382011Y20569298D01*
X13720702Y20907989D01*
X13904000Y21350509D01*
X13904000Y21405782D01*
X16522718Y21405782D01*
X17320000Y20608500D01*
X18117282Y21405782D01*
X18020474Y21631185D01*
X17465385Y21799437D01*
X16888163Y21742458D01*
X16619526Y21631185D01*
X16522718Y21405782D01*
X13904000Y21405782D01*
X13904000Y21829491D01*
X19116000Y21829491D01*
X19116000Y21350509D01*
X19299298Y20907989D01*
X19637989Y20569298D01*
X20080509Y20386000D01*
X20559491Y20386000D01*
X21002011Y20569298D01*
X21340702Y20907989D01*
X21524000Y21350509D01*
X21524000Y21829491D01*
X21340702Y22272011D01*
X21002011Y22610702D01*
X20559491Y22794000D01*
X20080509Y22794000D01*
X19637989Y22610702D01*
X19299298Y22272011D01*
X19116000Y21829491D01*
X13904000Y21829491D01*
X13720702Y22272011D01*
X13382011Y22610702D01*
X12939491Y22794000D01*
X12460509Y22794000D01*
X12017989Y22610702D01*
X11679298Y22272011D01*
X11496000Y21829491D01*
X11364000Y21829491D01*
X11180702Y22272011D01*
X10842011Y22610702D01*
X10399491Y22794000D01*
X9920509Y22794000D01*
X9477989Y22610702D01*
X9139298Y22272011D01*
X8956000Y21829491D01*
X6284000Y21829491D01*
X6100702Y22272011D01*
X5762011Y22610702D01*
X5319491Y22794000D01*
X4840509Y22794000D01*
X4397989Y22610702D01*
X4059298Y22272011D01*
X3876000Y21829491D01*
X3161500Y21829491D01*
X3161500Y24369491D01*
X3876000Y24369491D01*
X3876000Y23890509D01*
X4059298Y23447989D01*
X4397989Y23109298D01*
X4840509Y22926000D01*
X5319491Y22926000D01*
X5762011Y23109298D01*
X6100702Y23447989D01*
X6284000Y23890509D01*
X6284000Y24369491D01*
X8956000Y24369491D01*
X8956000Y23890509D01*
X9139298Y23447989D01*
X9477989Y23109298D01*
X9920509Y22926000D01*
X10399491Y22926000D01*
X10842011Y23109298D01*
X11180702Y23447989D01*
X11364000Y23890509D01*
X11364000Y24369491D01*
X11496000Y24369491D01*
X11496000Y23890509D01*
X11679298Y23447989D01*
X12017989Y23109298D01*
X12460509Y22926000D01*
X12939491Y22926000D01*
X13382011Y23109298D01*
X13720702Y23447989D01*
X13904000Y23890509D01*
X13904000Y24369491D01*
X19116000Y24369491D01*
X19116000Y23890509D01*
X19299298Y23447989D01*
X19637989Y23109298D01*
X20080509Y22926000D01*
X20559491Y22926000D01*
X21002011Y23109298D01*
X21340702Y23447989D01*
X21524000Y23890509D01*
X21524000Y24369491D01*
X21340702Y24812011D01*
X21002011Y25150702D01*
X20559491Y25334000D01*
X20080509Y25334000D01*
X19637989Y25150702D01*
X19299298Y24812011D01*
X19116000Y24369491D01*
X13904000Y24369491D01*
X13720702Y24812011D01*
X13382011Y25150702D01*
X12939491Y25334000D01*
X12460509Y25334000D01*
X12017989Y25150702D01*
X11679298Y24812011D01*
X11496000Y24369491D01*
X11364000Y24369491D01*
X11180702Y24812011D01*
X10842011Y25150702D01*
X10399491Y25334000D01*
X9920509Y25334000D01*
X9477989Y25150702D01*
X9139298Y24812011D01*
X8956000Y24369491D01*
X6284000Y24369491D01*
X6100702Y24812011D01*
X5762011Y25150702D01*
X5319491Y25334000D01*
X4840509Y25334000D01*
X4397989Y25150702D01*
X4059298Y24812011D01*
X3876000Y24369491D01*
X3161500Y24369491D01*
X3161500Y26909491D01*
X3876000Y26909491D01*
X3876000Y26430509D01*
X4059298Y25987989D01*
X4397989Y25649298D01*
X4840509Y25466000D01*
X5319491Y25466000D01*
X5762011Y25649298D01*
X6100702Y25987989D01*
X6284000Y26430509D01*
X6284000Y26909491D01*
X8956000Y26909491D01*
X8956000Y26430509D01*
X9139298Y25987989D01*
X9477989Y25649298D01*
X9920509Y25466000D01*
X10399491Y25466000D01*
X10842011Y25649298D01*
X11180702Y25987989D01*
X11364000Y26430509D01*
X11364000Y26909491D01*
X11496000Y26909491D01*
X11496000Y26430509D01*
X11679298Y25987989D01*
X12017989Y25649298D01*
X12460509Y25466000D01*
X12939491Y25466000D01*
X13382011Y25649298D01*
X13720702Y25987989D01*
X13904000Y26430509D01*
X13904000Y26909491D01*
X19116000Y26909491D01*
X19116000Y26430509D01*
X19299298Y25987989D01*
X19637989Y25649298D01*
X20080509Y25466000D01*
X20559491Y25466000D01*
X21002011Y25649298D01*
X21340702Y25987989D01*
X21524000Y26430509D01*
X21524000Y26909491D01*
X21340702Y27352011D01*
X21002011Y27690702D01*
X20559491Y27874000D01*
X20080509Y27874000D01*
X19637989Y27690702D01*
X19299298Y27352011D01*
X19116000Y26909491D01*
X13904000Y26909491D01*
X13720702Y27352011D01*
X13382011Y27690702D01*
X12939491Y27874000D01*
X12460509Y27874000D01*
X12017989Y27690702D01*
X11679298Y27352011D01*
X11496000Y26909491D01*
X11364000Y26909491D01*
X11180702Y27352011D01*
X10842011Y27690702D01*
X10399491Y27874000D01*
X9920509Y27874000D01*
X9477989Y27690702D01*
X9139298Y27352011D01*
X8956000Y26909491D01*
X6284000Y26909491D01*
X6100702Y27352011D01*
X5762011Y27690702D01*
X5319491Y27874000D01*
X4840509Y27874000D01*
X4397989Y27690702D01*
X4059298Y27352011D01*
X3876000Y26909491D01*
X3161500Y26909491D01*
X3161500Y29449491D01*
X3876000Y29449491D01*
X3876000Y28970509D01*
X4059298Y28527989D01*
X4397989Y28189298D01*
X4840509Y28006000D01*
X5319491Y28006000D01*
X5762011Y28189298D01*
X6100702Y28527989D01*
X6284000Y28970509D01*
X6284000Y29449491D01*
X19116000Y29449491D01*
X19116000Y28970509D01*
X19299298Y28527989D01*
X19637989Y28189298D01*
X20080509Y28006000D01*
X20559491Y28006000D01*
X21002011Y28189298D01*
X21340702Y28527989D01*
X21524000Y28970509D01*
X21524000Y29449491D01*
X21340702Y29892011D01*
X21002011Y30230702D01*
X20559491Y30414000D01*
X20080509Y30414000D01*
X19637989Y30230702D01*
X19299298Y29892011D01*
X19116000Y29449491D01*
X6284000Y29449491D01*
X6100702Y29892011D01*
X5762011Y30230702D01*
X5319491Y30414000D01*
X4840509Y30414000D01*
X4397989Y30230702D01*
X4059298Y29892011D01*
X3876000Y29449491D01*
X3161500Y29449491D01*
X3161500Y31989491D01*
X3876000Y31989491D01*
X3876000Y31510509D01*
X4059298Y31067989D01*
X4397989Y30729298D01*
X4840509Y30546000D01*
X5319491Y30546000D01*
X5762011Y30729298D01*
X6100702Y31067989D01*
X6284000Y31510509D01*
X6284000Y31989491D01*
X19116000Y31989491D01*
X19116000Y31510509D01*
X19299298Y31067989D01*
X19637989Y30729298D01*
X20080509Y30546000D01*
X20559491Y30546000D01*
X21002011Y30729298D01*
X21340702Y31067989D01*
X21524000Y31510509D01*
X21524000Y31989491D01*
X21340702Y32432011D01*
X21002011Y32770702D01*
X20559491Y32954000D01*
X20080509Y32954000D01*
X19637989Y32770702D01*
X19299298Y32432011D01*
X19116000Y31989491D01*
X6284000Y31989491D01*
X6100702Y32432011D01*
X5762011Y32770702D01*
X5319491Y32954000D01*
X4840509Y32954000D01*
X4397989Y32770702D01*
X4059298Y32432011D01*
X3876000Y31989491D01*
X3161500Y31989491D01*
X3161500Y34529491D01*
X3876000Y34529491D01*
X3876000Y34050509D01*
X4059298Y33607989D01*
X4397989Y33269298D01*
X4840509Y33086000D01*
X5319491Y33086000D01*
X5762011Y33269298D01*
X6100702Y33607989D01*
X6284000Y34050509D01*
X6284000Y34529491D01*
X6226326Y34668729D01*
X10796000Y34668729D01*
X10796000Y33911271D01*
X11085866Y33211470D01*
X11621470Y32675866D01*
X12321271Y32386000D01*
X13078729Y32386000D01*
X13778530Y32675866D01*
X14314134Y33211470D01*
X14604000Y33911271D01*
X14604000Y34529491D01*
X19116000Y34529491D01*
X19116000Y34050509D01*
X19299298Y33607989D01*
X19637989Y33269298D01*
X20080509Y33086000D01*
X20559491Y33086000D01*
X21002011Y33269298D01*
X21340702Y33607989D01*
X21524000Y34050509D01*
X21524000Y34529491D01*
X21340702Y34972011D01*
X21002011Y35310702D01*
X20559491Y35494000D01*
X20080509Y35494000D01*
X19637989Y35310702D01*
X19299298Y34972011D01*
X19116000Y34529491D01*
X14604000Y34529491D01*
X14604000Y34668729D01*
X14314134Y35368530D01*
X13778530Y35904134D01*
X13078729Y36194000D01*
X12321271Y36194000D01*
X11621470Y35904134D01*
X11085866Y35368530D01*
X10796000Y34668729D01*
X6226326Y34668729D01*
X6100702Y34972011D01*
X5762011Y35310702D01*
X5319491Y35494000D01*
X4840509Y35494000D01*
X4397989Y35310702D01*
X4059298Y34972011D01*
X3876000Y34529491D01*
X3161500Y34529491D01*
X3161500Y37069491D01*
X3876000Y37069491D01*
X3876000Y36590509D01*
X4059298Y36147989D01*
X4397989Y35809298D01*
X4840509Y35626000D01*
X5319491Y35626000D01*
X5762011Y35809298D01*
X6100702Y36147989D01*
X6284000Y36590509D01*
X6284000Y37069491D01*
X19116000Y37069491D01*
X19116000Y36590509D01*
X19299298Y36147989D01*
X19637989Y35809298D01*
X20080509Y35626000D01*
X20559491Y35626000D01*
X21002011Y35809298D01*
X21340702Y36147989D01*
X21524000Y36590509D01*
X21524000Y37069491D01*
X21340702Y37512011D01*
X21002011Y37850702D01*
X20559491Y38034000D01*
X20080509Y38034000D01*
X19637989Y37850702D01*
X19299298Y37512011D01*
X19116000Y37069491D01*
X6284000Y37069491D01*
X6100702Y37512011D01*
X5762011Y37850702D01*
X5319491Y38034000D01*
X4840509Y38034000D01*
X4397989Y37850702D01*
X4059298Y37512011D01*
X3876000Y37069491D01*
X3161500Y37069491D01*
X3161500Y39609491D01*
X3876000Y39609491D01*
X3876000Y39130509D01*
X4059298Y38687989D01*
X4397989Y38349298D01*
X4840509Y38166000D01*
X5319491Y38166000D01*
X5762011Y38349298D01*
X6100702Y38687989D01*
X6284000Y39130509D01*
X6284000Y39609491D01*
X19116000Y39609491D01*
X19116000Y39130509D01*
X19299298Y38687989D01*
X19637989Y38349298D01*
X20080509Y38166000D01*
X20559491Y38166000D01*
X21002011Y38349298D01*
X21340702Y38687989D01*
X21524000Y39130509D01*
X21524000Y39609491D01*
X21340702Y40052011D01*
X21002011Y40390702D01*
X20559491Y40574000D01*
X20080509Y40574000D01*
X19637989Y40390702D01*
X19299298Y40052011D01*
X19116000Y39609491D01*
X6284000Y39609491D01*
X6100702Y40052011D01*
X5762011Y40390702D01*
X5319491Y40574000D01*
X4840509Y40574000D01*
X4397989Y40390702D01*
X4059298Y40052011D01*
X3876000Y39609491D01*
X3161500Y39609491D01*
X3161500Y42149491D01*
X3876000Y42149491D01*
X3876000Y41670509D01*
X4059298Y41227989D01*
X4397989Y40889298D01*
X4840509Y40706000D01*
X5319491Y40706000D01*
X5762011Y40889298D01*
X6100702Y41227989D01*
X6284000Y41670509D01*
X6284000Y42149491D01*
X8956000Y42149491D01*
X8956000Y41670509D01*
X9139298Y41227989D01*
X9477989Y40889298D01*
X9920509Y40706000D01*
X10399491Y40706000D01*
X10842011Y40889298D01*
X11180702Y41227989D01*
X11364000Y41670509D01*
X11364000Y42149491D01*
X11496000Y42149491D01*
X11496000Y41670509D01*
X11679298Y41227989D01*
X12017989Y40889298D01*
X12460509Y40706000D01*
X12939491Y40706000D01*
X13382011Y40889298D01*
X13720702Y41227989D01*
X13904000Y41670509D01*
X13904000Y42149491D01*
X19116000Y42149491D01*
X19116000Y41670509D01*
X19299298Y41227989D01*
X19637989Y40889298D01*
X20080509Y40706000D01*
X20559491Y40706000D01*
X21002011Y40889298D01*
X21340702Y41227989D01*
X21524000Y41670509D01*
X21524000Y42149491D01*
X21340702Y42592011D01*
X21002011Y42930702D01*
X20559491Y43114000D01*
X20080509Y43114000D01*
X19637989Y42930702D01*
X19299298Y42592011D01*
X19116000Y42149491D01*
X13904000Y42149491D01*
X13720702Y42592011D01*
X13382011Y42930702D01*
X12939491Y43114000D01*
X12460509Y43114000D01*
X12017989Y42930702D01*
X11679298Y42592011D01*
X11496000Y42149491D01*
X11364000Y42149491D01*
X11180702Y42592011D01*
X10842011Y42930702D01*
X10399491Y43114000D01*
X9920509Y43114000D01*
X9477989Y42930702D01*
X9139298Y42592011D01*
X8956000Y42149491D01*
X6284000Y42149491D01*
X6100702Y42592011D01*
X5762011Y42930702D01*
X5319491Y43114000D01*
X4840509Y43114000D01*
X4397989Y42930702D01*
X4059298Y42592011D01*
X3876000Y42149491D01*
X3161500Y42149491D01*
X3161500Y44689491D01*
X3876000Y44689491D01*
X3876000Y44210509D01*
X4059298Y43767989D01*
X4397989Y43429298D01*
X4840509Y43246000D01*
X5319491Y43246000D01*
X5762011Y43429298D01*
X6100702Y43767989D01*
X6284000Y44210509D01*
X6284000Y44689491D01*
X8956000Y44689491D01*
X8956000Y44210509D01*
X9139298Y43767989D01*
X9477989Y43429298D01*
X9920509Y43246000D01*
X10399491Y43246000D01*
X10842011Y43429298D01*
X11180702Y43767989D01*
X11364000Y44210509D01*
X11364000Y44689491D01*
X11496000Y44689491D01*
X11496000Y44210509D01*
X11679298Y43767989D01*
X12017989Y43429298D01*
X12460509Y43246000D01*
X12939491Y43246000D01*
X13382011Y43429298D01*
X13720702Y43767989D01*
X13904000Y44210509D01*
X13904000Y44689491D01*
X19116000Y44689491D01*
X19116000Y44210509D01*
X19299298Y43767989D01*
X19637989Y43429298D01*
X20080509Y43246000D01*
X20559491Y43246000D01*
X21002011Y43429298D01*
X21340702Y43767989D01*
X21524000Y44210509D01*
X21524000Y44689491D01*
X21340702Y45132011D01*
X21002011Y45470702D01*
X20559491Y45654000D01*
X20080509Y45654000D01*
X19637989Y45470702D01*
X19299298Y45132011D01*
X19116000Y44689491D01*
X13904000Y44689491D01*
X13720702Y45132011D01*
X13382011Y45470702D01*
X12939491Y45654000D01*
X12460509Y45654000D01*
X12017989Y45470702D01*
X11679298Y45132011D01*
X11496000Y44689491D01*
X11364000Y44689491D01*
X11180702Y45132011D01*
X10842011Y45470702D01*
X10399491Y45654000D01*
X9920509Y45654000D01*
X9477989Y45470702D01*
X9139298Y45132011D01*
X8956000Y44689491D01*
X6284000Y44689491D01*
X6100702Y45132011D01*
X5762011Y45470702D01*
X5319491Y45654000D01*
X4840509Y45654000D01*
X4397989Y45470702D01*
X4059298Y45132011D01*
X3876000Y44689491D01*
X3161500Y44689491D01*
X3161500Y47229491D01*
X3876000Y47229491D01*
X3876000Y46750509D01*
X4059298Y46307989D01*
X4397989Y45969298D01*
X4840509Y45786000D01*
X5319491Y45786000D01*
X5762011Y45969298D01*
X6100702Y46307989D01*
X6284000Y46750509D01*
X6284000Y47229491D01*
X8956000Y47229491D01*
X8956000Y46750509D01*
X9139298Y46307989D01*
X9477989Y45969298D01*
X9920509Y45786000D01*
X10399491Y45786000D01*
X10842011Y45969298D01*
X11180702Y46307989D01*
X11364000Y46750509D01*
X11364000Y47229491D01*
X11496000Y47229491D01*
X11496000Y46750509D01*
X11679298Y46307989D01*
X12017989Y45969298D01*
X12460509Y45786000D01*
X12939491Y45786000D01*
X13382011Y45969298D01*
X13720702Y46307989D01*
X13904000Y46750509D01*
X13904000Y47229491D01*
X19116000Y47229491D01*
X19116000Y46750509D01*
X19299298Y46307989D01*
X19637989Y45969298D01*
X20080509Y45786000D01*
X20559491Y45786000D01*
X21002011Y45969298D01*
X21340702Y46307989D01*
X21524000Y46750509D01*
X21524000Y47229491D01*
X21340702Y47672011D01*
X21002011Y48010702D01*
X20559491Y48194000D01*
X20080509Y48194000D01*
X19637989Y48010702D01*
X19299298Y47672011D01*
X19116000Y47229491D01*
X13904000Y47229491D01*
X13720702Y47672011D01*
X13382011Y48010702D01*
X13140028Y48110935D01*
X13400474Y48218815D01*
X13497282Y48444218D01*
X12700000Y49241500D01*
X11902718Y48444218D01*
X11999526Y48218815D01*
X12300312Y48127644D01*
X12017989Y48010702D01*
X11679298Y47672011D01*
X11496000Y47229491D01*
X11364000Y47229491D01*
X11180702Y47672011D01*
X10842011Y48010702D01*
X10399491Y48194000D01*
X9920509Y48194000D01*
X9477989Y48010702D01*
X9139298Y47672011D01*
X8956000Y47229491D01*
X6284000Y47229491D01*
X6100702Y47672011D01*
X5762011Y48010702D01*
X5319491Y48194000D01*
X4840509Y48194000D01*
X4397989Y48010702D01*
X4059298Y47672011D01*
X3876000Y47229491D01*
X3161500Y47229491D01*
X3161500Y49769491D01*
X3876000Y49769491D01*
X3876000Y49290509D01*
X4059298Y48847989D01*
X4397989Y48509298D01*
X4840509Y48326000D01*
X5319491Y48326000D01*
X5762011Y48509298D01*
X6100702Y48847989D01*
X6284000Y49290509D01*
X6284000Y49769491D01*
X6416000Y49769491D01*
X6416000Y49290509D01*
X6599298Y48847989D01*
X6937989Y48509298D01*
X7380509Y48326000D01*
X7859491Y48326000D01*
X8302011Y48509298D01*
X8640702Y48847989D01*
X8824000Y49290509D01*
X8824000Y49769491D01*
X8956000Y49769491D01*
X8956000Y49290509D01*
X9139298Y48847989D01*
X9477989Y48509298D01*
X9920509Y48326000D01*
X10399491Y48326000D01*
X10842011Y48509298D01*
X11180702Y48847989D01*
X11280935Y49089972D01*
X11388815Y48829526D01*
X11614218Y48732718D01*
X12411500Y49530000D01*
X12988500Y49530000D01*
X13785782Y48732718D01*
X14011185Y48829526D01*
X14102356Y49130312D01*
X14219298Y48847989D01*
X14557989Y48509298D01*
X15000509Y48326000D01*
X15479491Y48326000D01*
X15922011Y48509298D01*
X16260702Y48847989D01*
X16444000Y49290509D01*
X16444000Y49769491D01*
X16576000Y49769491D01*
X16576000Y49290509D01*
X16759298Y48847989D01*
X17097989Y48509298D01*
X17540509Y48326000D01*
X18019491Y48326000D01*
X18462011Y48509298D01*
X18800702Y48847989D01*
X18984000Y49290509D01*
X18984000Y49769491D01*
X19116000Y49769491D01*
X19116000Y49290509D01*
X19299298Y48847989D01*
X19637989Y48509298D01*
X20080509Y48326000D01*
X20559491Y48326000D01*
X21002011Y48509298D01*
X21340702Y48847989D01*
X21524000Y49290509D01*
X21524000Y49769491D01*
X21340702Y50212011D01*
X21002011Y50550702D01*
X20559491Y50734000D01*
X20080509Y50734000D01*
X19637989Y50550702D01*
X19299298Y50212011D01*
X19116000Y49769491D01*
X18984000Y49769491D01*
X18800702Y50212011D01*
X18462011Y50550702D01*
X18019491Y50734000D01*
X17540509Y50734000D01*
X17097989Y50550702D01*
X16759298Y50212011D01*
X16576000Y49769491D01*
X16444000Y49769491D01*
X16260702Y50212011D01*
X15922011Y50550702D01*
X15479491Y50734000D01*
X15000509Y50734000D01*
X14557989Y50550702D01*
X14219298Y50212011D01*
X14119065Y49970028D01*
X14011185Y50230474D01*
X13785782Y50327282D01*
X12988500Y49530000D01*
X12411500Y49530000D01*
X11614218Y50327282D01*
X11388815Y50230474D01*
X11297644Y49929688D01*
X11180702Y50212011D01*
X10842011Y50550702D01*
X10399491Y50734000D01*
X9920509Y50734000D01*
X9477989Y50550702D01*
X9139298Y50212011D01*
X8956000Y49769491D01*
X8824000Y49769491D01*
X8640702Y50212011D01*
X8302011Y50550702D01*
X7859491Y50734000D01*
X7380509Y50734000D01*
X6937989Y50550702D01*
X6599298Y50212011D01*
X6416000Y49769491D01*
X6284000Y49769491D01*
X6100702Y50212011D01*
X5762011Y50550702D01*
X5319491Y50734000D01*
X4840509Y50734000D01*
X4397989Y50550702D01*
X4059298Y50212011D01*
X3876000Y49769491D01*
X3161500Y49769491D01*
X3161500Y52309491D01*
X3876000Y52309491D01*
X3876000Y51830509D01*
X4059298Y51387989D01*
X4397989Y51049298D01*
X4840509Y50866000D01*
X5319491Y50866000D01*
X5762011Y51049298D01*
X6100702Y51387989D01*
X6284000Y51830509D01*
X6284000Y52309491D01*
X8956000Y52309491D01*
X8956000Y51830509D01*
X9139298Y51387989D01*
X9477989Y51049298D01*
X9920509Y50866000D01*
X10399491Y50866000D01*
X10842011Y51049298D01*
X11180702Y51387989D01*
X11364000Y51830509D01*
X11364000Y52309491D01*
X11496000Y52309491D01*
X11496000Y51830509D01*
X11679298Y51387989D01*
X12017989Y51049298D01*
X12259972Y50949065D01*
X11999526Y50841185D01*
X11902718Y50615782D01*
X12700000Y49818500D01*
X13497282Y50615782D01*
X13400474Y50841185D01*
X13099688Y50932356D01*
X13382011Y51049298D01*
X13720702Y51387989D01*
X13904000Y51830509D01*
X13904000Y52309491D01*
X19116000Y52309491D01*
X19116000Y51830509D01*
X19299298Y51387989D01*
X19637989Y51049298D01*
X20080509Y50866000D01*
X20559491Y50866000D01*
X21002011Y51049298D01*
X21340702Y51387989D01*
X21524000Y51830509D01*
X21524000Y52309491D01*
X21340702Y52752011D01*
X21002011Y53090702D01*
X20559491Y53274000D01*
X20080509Y53274000D01*
X19637989Y53090702D01*
X19299298Y52752011D01*
X19116000Y52309491D01*
X13904000Y52309491D01*
X13720702Y52752011D01*
X13382011Y53090702D01*
X12939491Y53274000D01*
X12460509Y53274000D01*
X12017989Y53090702D01*
X11679298Y52752011D01*
X11496000Y52309491D01*
X11364000Y52309491D01*
X11180702Y52752011D01*
X10842011Y53090702D01*
X10399491Y53274000D01*
X9920509Y53274000D01*
X9477989Y53090702D01*
X9139298Y52752011D01*
X8956000Y52309491D01*
X6284000Y52309491D01*
X6100702Y52752011D01*
X5762011Y53090702D01*
X5319491Y53274000D01*
X4840509Y53274000D01*
X4397989Y53090702D01*
X4059298Y52752011D01*
X3876000Y52309491D01*
X3161500Y52309491D01*
X3161500Y54849491D01*
X3876000Y54849491D01*
X3876000Y54370509D01*
X4059298Y53927989D01*
X4397989Y53589298D01*
X4840509Y53406000D01*
X5319491Y53406000D01*
X5762011Y53589298D01*
X6100702Y53927989D01*
X6284000Y54370509D01*
X6284000Y54849491D01*
X8956000Y54849491D01*
X8956000Y54370509D01*
X9139298Y53927989D01*
X9477989Y53589298D01*
X9920509Y53406000D01*
X10399491Y53406000D01*
X10842011Y53589298D01*
X11180702Y53927989D01*
X11364000Y54370509D01*
X11364000Y54849491D01*
X11496000Y54849491D01*
X11496000Y54370509D01*
X11679298Y53927989D01*
X12017989Y53589298D01*
X12460509Y53406000D01*
X12939491Y53406000D01*
X13382011Y53589298D01*
X13720702Y53927989D01*
X13904000Y54370509D01*
X13904000Y54849491D01*
X19116000Y54849491D01*
X19116000Y54370509D01*
X19299298Y53927989D01*
X19637989Y53589298D01*
X20080509Y53406000D01*
X20559491Y53406000D01*
X21002011Y53589298D01*
X21340702Y53927989D01*
X21524000Y54370509D01*
X21524000Y54849491D01*
X21340702Y55292011D01*
X21002011Y55630702D01*
X20559491Y55814000D01*
X20080509Y55814000D01*
X19637989Y55630702D01*
X19299298Y55292011D01*
X19116000Y54849491D01*
X13904000Y54849491D01*
X13720702Y55292011D01*
X13382011Y55630702D01*
X12939491Y55814000D01*
X12460509Y55814000D01*
X12017989Y55630702D01*
X11679298Y55292011D01*
X11496000Y54849491D01*
X11364000Y54849491D01*
X11180702Y55292011D01*
X10842011Y55630702D01*
X10399491Y55814000D01*
X9920509Y55814000D01*
X9477989Y55630702D01*
X9139298Y55292011D01*
X8956000Y54849491D01*
X6284000Y54849491D01*
X6100702Y55292011D01*
X5762011Y55630702D01*
X5319491Y55814000D01*
X4840509Y55814000D01*
X4397989Y55630702D01*
X4059298Y55292011D01*
X3876000Y54849491D01*
X3161500Y54849491D01*
X3161500Y57389491D01*
X3876000Y57389491D01*
X3876000Y56910509D01*
X4059298Y56467989D01*
X4397989Y56129298D01*
X4840509Y55946000D01*
X5319491Y55946000D01*
X5762011Y56129298D01*
X6100702Y56467989D01*
X6284000Y56910509D01*
X6284000Y57389491D01*
X8956000Y57389491D01*
X8956000Y56910509D01*
X9139298Y56467989D01*
X9477989Y56129298D01*
X9920509Y55946000D01*
X10399491Y55946000D01*
X10842011Y56129298D01*
X11180702Y56467989D01*
X11364000Y56910509D01*
X11364000Y57389491D01*
X11496000Y57389491D01*
X11496000Y56910509D01*
X11679298Y56467989D01*
X12017989Y56129298D01*
X12460509Y55946000D01*
X12939491Y55946000D01*
X13382011Y56129298D01*
X13720702Y56467989D01*
X13904000Y56910509D01*
X13904000Y57389491D01*
X19116000Y57389491D01*
X19116000Y56910509D01*
X19299298Y56467989D01*
X19637989Y56129298D01*
X20080509Y55946000D01*
X20559491Y55946000D01*
X21002011Y56129298D01*
X21340702Y56467989D01*
X21524000Y56910509D01*
X21524000Y57389491D01*
X21340702Y57832011D01*
X21002011Y58170702D01*
X20559491Y58354000D01*
X20080509Y58354000D01*
X19637989Y58170702D01*
X19299298Y57832011D01*
X19116000Y57389491D01*
X13904000Y57389491D01*
X13720702Y57832011D01*
X13382011Y58170702D01*
X12939491Y58354000D01*
X12460509Y58354000D01*
X12017989Y58170702D01*
X11679298Y57832011D01*
X11496000Y57389491D01*
X11364000Y57389491D01*
X11180702Y57832011D01*
X10842011Y58170702D01*
X10399491Y58354000D01*
X9920509Y58354000D01*
X9477989Y58170702D01*
X9139298Y57832011D01*
X8956000Y57389491D01*
X6284000Y57389491D01*
X6100702Y57832011D01*
X5762011Y58170702D01*
X5319491Y58354000D01*
X4840509Y58354000D01*
X4397989Y58170702D01*
X4059298Y57832011D01*
X3876000Y57389491D01*
X3161500Y57389491D01*
X3161500Y59929491D01*
X3876000Y59929491D01*
X3876000Y59450509D01*
X4059298Y59007989D01*
X4397989Y58669298D01*
X4840509Y58486000D01*
X5319491Y58486000D01*
X5762011Y58669298D01*
X6100702Y59007989D01*
X6284000Y59450509D01*
X6284000Y59929491D01*
X8956000Y59929491D01*
X8956000Y59450509D01*
X9139298Y59007989D01*
X9477989Y58669298D01*
X9920509Y58486000D01*
X10399491Y58486000D01*
X10842011Y58669298D01*
X11180702Y59007989D01*
X11364000Y59450509D01*
X11364000Y59929491D01*
X11496000Y59929491D01*
X11496000Y59450509D01*
X11679298Y59007989D01*
X12017989Y58669298D01*
X12460509Y58486000D01*
X12939491Y58486000D01*
X13382011Y58669298D01*
X13720702Y59007989D01*
X13904000Y59450509D01*
X13904000Y59929491D01*
X19116000Y59929491D01*
X19116000Y59450509D01*
X19299298Y59007989D01*
X19637989Y58669298D01*
X20080509Y58486000D01*
X20559491Y58486000D01*
X21002011Y58669298D01*
X21340702Y59007989D01*
X21524000Y59450509D01*
X21524000Y59929491D01*
X21340702Y60372011D01*
X21002011Y60710702D01*
X20559491Y60894000D01*
X20080509Y60894000D01*
X19637989Y60710702D01*
X19299298Y60372011D01*
X19116000Y59929491D01*
X13904000Y59929491D01*
X13720702Y60372011D01*
X13382011Y60710702D01*
X12939491Y60894000D01*
X12460509Y60894000D01*
X12017989Y60710702D01*
X11679298Y60372011D01*
X11496000Y59929491D01*
X11364000Y59929491D01*
X11180702Y60372011D01*
X10842011Y60710702D01*
X10399491Y60894000D01*
X9920509Y60894000D01*
X9477989Y60710702D01*
X9139298Y60372011D01*
X8956000Y59929491D01*
X6284000Y59929491D01*
X6100702Y60372011D01*
X5762011Y60710702D01*
X5319491Y60894000D01*
X4840509Y60894000D01*
X4397989Y60710702D01*
X4059298Y60372011D01*
X3876000Y59929491D01*
X3161500Y59929491D01*
X3161500Y62469491D01*
X3876000Y62469491D01*
X3876000Y61990509D01*
X4059298Y61547989D01*
X4397989Y61209298D01*
X4840509Y61026000D01*
X5319491Y61026000D01*
X5762011Y61209298D01*
X6100702Y61547989D01*
X6284000Y61990509D01*
X6284000Y62469491D01*
X8956000Y62469491D01*
X8956000Y61990509D01*
X9139298Y61547989D01*
X9477989Y61209298D01*
X9920509Y61026000D01*
X10399491Y61026000D01*
X10842011Y61209298D01*
X11180702Y61547989D01*
X11364000Y61990509D01*
X11364000Y62469491D01*
X11496000Y62469491D01*
X11496000Y61990509D01*
X11679298Y61547989D01*
X12017989Y61209298D01*
X12460509Y61026000D01*
X12939491Y61026000D01*
X13382011Y61209298D01*
X13720702Y61547989D01*
X13904000Y61990509D01*
X13904000Y62469491D01*
X19116000Y62469491D01*
X19116000Y61990509D01*
X19299298Y61547989D01*
X19637989Y61209298D01*
X20080509Y61026000D01*
X20559491Y61026000D01*
X21002011Y61209298D01*
X21340702Y61547989D01*
X21524000Y61990509D01*
X21524000Y62469491D01*
X21340702Y62912011D01*
X21002011Y63250702D01*
X20559491Y63434000D01*
X20080509Y63434000D01*
X19637989Y63250702D01*
X19299298Y62912011D01*
X19116000Y62469491D01*
X13904000Y62469491D01*
X13720702Y62912011D01*
X13382011Y63250702D01*
X12939491Y63434000D01*
X12460509Y63434000D01*
X12017989Y63250702D01*
X11679298Y62912011D01*
X11496000Y62469491D01*
X11364000Y62469491D01*
X11180702Y62912011D01*
X10842011Y63250702D01*
X10399491Y63434000D01*
X9920509Y63434000D01*
X9477989Y63250702D01*
X9139298Y62912011D01*
X8956000Y62469491D01*
X6284000Y62469491D01*
X6100702Y62912011D01*
X5762011Y63250702D01*
X5319491Y63434000D01*
X4840509Y63434000D01*
X4397989Y63250702D01*
X4059298Y62912011D01*
X3876000Y62469491D01*
X3161500Y62469491D01*
X3161500Y64512568D01*
X4067434Y65418500D01*
X21332568Y65418500D01*
X23508500Y63242566D01*
X23508501Y33925679D01*
X23411385Y33906361D01*
X23310829Y33839171D01*
X23243639Y33738615D01*
X23220045Y33620000D01*
X23220045Y32420000D01*
X23243639Y32301385D01*
X23310829Y32200829D01*
X23411385Y32133639D01*
X23508500Y32114322D01*
X23508501Y26832713D01*
X23496325Y26771501D01*
X23544561Y26529005D01*
X23544562Y26529004D01*
X23681925Y26323425D01*
X23733817Y26288752D01*
X27558752Y22463816D01*
X27593425Y22411924D01*
X27799004Y22274561D01*
X28041501Y22226325D01*
X28102708Y22238500D01*
X28204494Y22238500D01*
X28103148Y22196521D01*
X27553479Y21646852D01*
X27256000Y20928675D01*
X27256000Y20151325D01*
X27553479Y19433148D01*
X28103148Y18883479D01*
X28821325Y18586000D01*
X29598675Y18586000D01*
X30316852Y18883479D01*
X30866521Y19433148D01*
X31164000Y20151325D01*
X31164000Y20928675D01*
X30866521Y21646852D01*
X30316852Y22196521D01*
X30215506Y22238500D01*
X31688793Y22238500D01*
X31750000Y22226325D01*
X31811207Y22238500D01*
X31992497Y22274561D01*
X32198076Y22411924D01*
X32232751Y22463819D01*
X34686188Y24917254D01*
X34738076Y24951924D01*
X34875439Y25157503D01*
X34911500Y25338793D01*
X34911500Y25338797D01*
X34923674Y25399999D01*
X34911500Y25461201D01*
X34911500Y28952568D01*
X36616237Y30657303D01*
X36616241Y30657309D01*
X37894234Y31935301D01*
X37991268Y31916000D01*
X38208732Y31916000D01*
X38530759Y31980055D01*
X38895939Y32224061D01*
X39139945Y32589241D01*
X39225628Y33020000D01*
X39184699Y33225767D01*
X47487685Y41528752D01*
X47539577Y41563425D01*
X47676940Y41769004D01*
X47713001Y41950294D01*
X47713001Y41950295D01*
X47725176Y42011501D01*
X47713001Y42072708D01*
X47713001Y52666317D01*
X49968271Y54921586D01*
X50638240Y54921586D01*
X50638240Y54303494D01*
X50874774Y53732451D01*
X51311831Y53295394D01*
X51882874Y53058860D01*
X52500966Y53058860D01*
X53072009Y53295394D01*
X53509066Y53732451D01*
X53745600Y54303494D01*
X53745600Y54839254D01*
X57861218Y54839254D01*
X57912695Y54121958D01*
X58088158Y53698352D01*
X58349794Y53558294D01*
X59401500Y54610000D01*
X59978500Y54610000D01*
X61030206Y53558294D01*
X61291842Y53698352D01*
X61518782Y54380746D01*
X61479969Y54921586D01*
X65634400Y54921586D01*
X65634400Y54303494D01*
X65870934Y53732451D01*
X66307991Y53295394D01*
X66879034Y53058860D01*
X67497126Y53058860D01*
X68068169Y53295394D01*
X68505226Y53732451D01*
X68741760Y54303494D01*
X68741760Y54921586D01*
X68505226Y55492629D01*
X68068169Y55929686D01*
X67497126Y56166220D01*
X66879034Y56166220D01*
X66307991Y55929686D01*
X65870934Y55492629D01*
X65634400Y54921586D01*
X61479969Y54921586D01*
X61467305Y55098042D01*
X61291842Y55521648D01*
X61030206Y55661706D01*
X59978500Y54610000D01*
X59401500Y54610000D01*
X58349794Y55661706D01*
X58088158Y55521648D01*
X57861218Y54839254D01*
X53745600Y54839254D01*
X53745600Y54921586D01*
X53509066Y55492629D01*
X53072009Y55929686D01*
X53022470Y55950206D01*
X58638294Y55950206D01*
X59690000Y54898500D01*
X60741706Y55950206D01*
X60601648Y56211842D01*
X59919254Y56438782D01*
X59201958Y56387305D01*
X58778352Y56211842D01*
X58638294Y55950206D01*
X53022470Y55950206D01*
X52500966Y56166220D01*
X51882874Y56166220D01*
X51311831Y55929686D01*
X50874774Y55492629D01*
X50638240Y54921586D01*
X49968271Y54921586D01*
X51575186Y56528500D01*
X68322568Y56528500D01*
X69228500Y55622566D01*
X69228501Y39431211D01*
X69228500Y39431206D01*
X69228501Y38721500D01*
X66101201Y38721500D01*
X66039999Y38733674D01*
X65978797Y38721500D01*
X65978793Y38721500D01*
X65797503Y38685439D01*
X65591924Y38548076D01*
X65557253Y38496187D01*
X63705766Y36644699D01*
X63608732Y36664000D01*
X63391268Y36664000D01*
X63069241Y36599945D01*
X62704061Y36355939D01*
X62460055Y35990759D01*
X62374372Y35560000D01*
X62460055Y35129241D01*
X62704061Y34764061D01*
X63069241Y34520055D01*
X63391268Y34456000D01*
X63608732Y34456000D01*
X63930759Y34520055D01*
X64295939Y34764061D01*
X64539945Y35129241D01*
X64625628Y35560000D01*
X64584699Y35765766D01*
X66297434Y37478500D01*
X69228500Y37478500D01*
X69228501Y34911500D01*
X67371207Y34911500D01*
X67310000Y34923675D01*
X67248793Y34911500D01*
X67067503Y34875439D01*
X66861924Y34738076D01*
X66827251Y34686184D01*
X63705767Y31564699D01*
X63608732Y31584000D01*
X63391268Y31584000D01*
X63069241Y31519945D01*
X62704061Y31275939D01*
X62460055Y30910759D01*
X62374372Y30480000D01*
X62460055Y30049241D01*
X62704061Y29684061D01*
X63069241Y29440055D01*
X63391268Y29376000D01*
X63608732Y29376000D01*
X63930759Y29440055D01*
X64295939Y29684061D01*
X64539945Y30049241D01*
X64625628Y30480000D01*
X64584699Y30685766D01*
X67567433Y33668500D01*
X69788793Y33668500D01*
X69850000Y33656325D01*
X69911207Y33668500D01*
X70092497Y33704561D01*
X70298076Y33841924D01*
X70435439Y34047503D01*
X70483675Y34290000D01*
X70471500Y34351207D01*
X70471500Y38038794D01*
X70483675Y38100000D01*
X70471500Y38161207D01*
X70471500Y55818797D01*
X70483674Y55880001D01*
X70471500Y55941206D01*
X70471500Y55941207D01*
X70435439Y56122497D01*
X70298076Y56328076D01*
X70246187Y56362747D01*
X69062751Y57546181D01*
X69028076Y57598076D01*
X68822497Y57735439D01*
X68641207Y57771500D01*
X68580000Y57783675D01*
X68518793Y57771500D01*
X51378953Y57771500D01*
X51317751Y57783674D01*
X51256549Y57771500D01*
X51256545Y57771500D01*
X51075255Y57735439D01*
X50869676Y57598076D01*
X50835005Y57546187D01*
X46695318Y53406498D01*
X46643426Y53371825D01*
X46540271Y53217443D01*
X46506062Y53166245D01*
X46457826Y52923749D01*
X46470002Y52862537D01*
X46470001Y42268934D01*
X38305767Y34104699D01*
X38208732Y34124000D01*
X37991268Y34124000D01*
X37669241Y34059945D01*
X37304061Y33815939D01*
X37060055Y33450759D01*
X36974372Y33020000D01*
X37015301Y32814234D01*
X35737309Y31536241D01*
X35737303Y31536237D01*
X33893817Y29692749D01*
X33841925Y29658076D01*
X33765752Y29544074D01*
X33704561Y29452496D01*
X33656325Y29210000D01*
X33668501Y29148788D01*
X33668500Y25657434D01*
X31492568Y23481500D01*
X28298934Y23481500D01*
X26380434Y25400000D01*
X29354372Y25400000D01*
X29440055Y24969241D01*
X29684061Y24604061D01*
X30049241Y24360055D01*
X30371268Y24296000D01*
X30588732Y24296000D01*
X30910759Y24360055D01*
X31275939Y24604061D01*
X31519945Y24969241D01*
X31605628Y25400000D01*
X31519945Y25830759D01*
X31275939Y26195939D01*
X30910759Y26439945D01*
X30588732Y26504000D01*
X30371268Y26504000D01*
X30049241Y26439945D01*
X29684061Y26195939D01*
X29440055Y25830759D01*
X29354372Y25400000D01*
X26380434Y25400000D01*
X24751500Y27028933D01*
X24751500Y32114322D01*
X24848615Y32133639D01*
X24878771Y32153789D01*
X25552289Y32153789D01*
X25611486Y31959261D01*
X26056883Y31841579D01*
X26513411Y31903301D01*
X26648514Y31959261D01*
X26707711Y32153789D01*
X26130000Y32731500D01*
X25552289Y32153789D01*
X24878771Y32153789D01*
X24949171Y32200829D01*
X25016361Y32301385D01*
X25039955Y32420000D01*
X25039955Y32572239D01*
X25069261Y32501486D01*
X25263789Y32442289D01*
X25841500Y33020000D01*
X26418500Y33020000D01*
X26996211Y32442289D01*
X27190739Y32501486D01*
X27308421Y32946883D01*
X27246699Y33403411D01*
X27190739Y33538514D01*
X26996211Y33597711D01*
X26418500Y33020000D01*
X25841500Y33020000D01*
X25263789Y33597711D01*
X25069261Y33538514D01*
X25039955Y33427598D01*
X25039955Y33620000D01*
X25016361Y33738615D01*
X24949171Y33839171D01*
X24878772Y33886211D01*
X25552289Y33886211D01*
X26130000Y33308500D01*
X26707711Y33886211D01*
X26648514Y34080739D01*
X26203117Y34198421D01*
X25746589Y34136699D01*
X25611486Y34080739D01*
X25552289Y33886211D01*
X24878772Y33886211D01*
X24848615Y33906361D01*
X24751500Y33925678D01*
X24751500Y38758321D01*
X27306325Y38758321D01*
X27318501Y38697109D01*
X27318500Y31811207D01*
X27306325Y31750000D01*
X27354561Y31507504D01*
X27457254Y31353814D01*
X28727253Y30083813D01*
X28761924Y30031924D01*
X28967503Y29894561D01*
X29148793Y29858500D01*
X29148796Y29858500D01*
X29209999Y29846326D01*
X29271203Y29858500D01*
X29567504Y29858500D01*
X29684061Y29684061D01*
X30049241Y29440055D01*
X30371268Y29376000D01*
X30588732Y29376000D01*
X30910759Y29440055D01*
X31275939Y29684061D01*
X31519945Y30049241D01*
X31605628Y30480000D01*
X31519945Y30910759D01*
X31275939Y31275939D01*
X30910759Y31519945D01*
X30588732Y31584000D01*
X30371268Y31584000D01*
X30049241Y31519945D01*
X29684061Y31275939D01*
X29567504Y31101500D01*
X29467434Y31101500D01*
X28561500Y32007432D01*
X28561500Y33820000D01*
X29370045Y33820000D01*
X29370045Y32220000D01*
X29393639Y32101385D01*
X29460829Y32000829D01*
X29561385Y31933639D01*
X29680000Y31910045D01*
X31280000Y31910045D01*
X31398615Y31933639D01*
X31499171Y32000829D01*
X31566361Y32101385D01*
X31589955Y32220000D01*
X31589955Y33820000D01*
X31566361Y33938615D01*
X31499171Y34039171D01*
X31398615Y34106361D01*
X31280000Y34129955D01*
X29680000Y34129955D01*
X29561385Y34106361D01*
X29460829Y34039171D01*
X29393639Y33938615D01*
X29370045Y33820000D01*
X28561500Y33820000D01*
X28561500Y38500889D01*
X30079112Y40018500D01*
X36572568Y40018500D01*
X37381111Y39209955D01*
X37300000Y39209955D01*
X37181385Y39186361D01*
X37080829Y39119171D01*
X37013639Y39018615D01*
X36990045Y38900000D01*
X36990045Y37300000D01*
X37013639Y37181385D01*
X37080829Y37080829D01*
X37181385Y37013639D01*
X37300000Y36990045D01*
X38651111Y36990045D01*
X37842568Y36181500D01*
X33277434Y36181500D01*
X31762748Y37696185D01*
X31762745Y37696189D01*
X31564699Y37894235D01*
X31605628Y38100000D01*
X31519945Y38530759D01*
X31275939Y38895939D01*
X30910759Y39139945D01*
X30588732Y39204000D01*
X30371268Y39204000D01*
X30049241Y39139945D01*
X29684061Y38895939D01*
X29440055Y38530759D01*
X29354372Y38100000D01*
X29440055Y37669241D01*
X29684061Y37304061D01*
X30049241Y37060055D01*
X30371268Y36996000D01*
X30588732Y36996000D01*
X30685765Y37015301D01*
X30883811Y36817255D01*
X30883815Y36817252D01*
X32398501Y35302565D01*
X32398500Y29467434D01*
X31492568Y28561500D01*
X31392496Y28561500D01*
X31275939Y28735939D01*
X30910759Y28979945D01*
X30588732Y29044000D01*
X30371268Y29044000D01*
X30049241Y28979945D01*
X29684061Y28735939D01*
X29440055Y28370759D01*
X29354372Y27940000D01*
X29440055Y27509241D01*
X29684061Y27144061D01*
X30049241Y26900055D01*
X30371268Y26836000D01*
X30588732Y26836000D01*
X30910759Y26900055D01*
X31275939Y27144061D01*
X31392496Y27318500D01*
X31688793Y27318500D01*
X31750000Y27306325D01*
X31811207Y27318500D01*
X31992497Y27354561D01*
X32198076Y27491924D01*
X32232751Y27543819D01*
X33416188Y28727254D01*
X33468076Y28761924D01*
X33605439Y28967503D01*
X33641500Y29148793D01*
X33641500Y29148796D01*
X33653674Y29209999D01*
X33641500Y29271203D01*
X33641500Y34938500D01*
X38038793Y34938500D01*
X38100000Y34926325D01*
X38161207Y34938500D01*
X38342497Y34974561D01*
X38548076Y35111924D01*
X38582751Y35163819D01*
X39552632Y36133698D01*
X39599697Y36143060D01*
X39753387Y36245753D01*
X43677688Y40170052D01*
X43729577Y40204723D01*
X43866940Y40410302D01*
X43903001Y40591592D01*
X43903001Y40591596D01*
X43915175Y40652798D01*
X43903001Y40714000D01*
X43903001Y49324112D01*
X43915176Y49385319D01*
X43866940Y49627816D01*
X43729577Y49833395D01*
X43677685Y49868068D01*
X42288607Y51257145D01*
X42288605Y51257148D01*
X42002749Y51543004D01*
X42109860Y51801594D01*
X42109860Y52419686D01*
X41873326Y52990729D01*
X41436269Y53427786D01*
X40865226Y53664320D01*
X40247134Y53664320D01*
X39676091Y53427786D01*
X39239034Y52990729D01*
X39002500Y52419686D01*
X39002500Y51801594D01*
X39239034Y51230551D01*
X39676091Y50793494D01*
X40247134Y50556960D01*
X40865226Y50556960D01*
X41123816Y50664071D01*
X41409672Y50378215D01*
X41409675Y50378213D01*
X42660002Y49127885D01*
X42660001Y40910233D01*
X39209955Y37460185D01*
X39209955Y38900000D01*
X39186361Y39018615D01*
X39119171Y39119171D01*
X39018615Y39186361D01*
X38900000Y39209955D01*
X38721500Y39209955D01*
X38721500Y39308797D01*
X38733674Y39370001D01*
X38721500Y39431206D01*
X38721500Y41652568D01*
X39164234Y42095301D01*
X39261268Y42076000D01*
X39478732Y42076000D01*
X39800759Y42140055D01*
X40165939Y42384061D01*
X40409945Y42749241D01*
X40495628Y43180000D01*
X40409945Y43610759D01*
X40165939Y43975939D01*
X39800759Y44219945D01*
X39478732Y44284000D01*
X39261268Y44284000D01*
X38939241Y44219945D01*
X38574061Y43975939D01*
X38330055Y43610759D01*
X38244372Y43180000D01*
X38285301Y42974234D01*
X37703817Y42392749D01*
X37651925Y42358076D01*
X37582382Y42253997D01*
X37514561Y42152496D01*
X37466325Y41910000D01*
X37478501Y41848788D01*
X37478501Y40870432D01*
X37312751Y41036181D01*
X37278076Y41088076D01*
X37072497Y41225439D01*
X36891207Y41261500D01*
X36830000Y41273675D01*
X36768793Y41261500D01*
X29882886Y41261500D01*
X29821679Y41273675D01*
X29592002Y41227989D01*
X29579182Y41225439D01*
X29373603Y41088076D01*
X29338930Y41036184D01*
X27543817Y39241070D01*
X27491925Y39206397D01*
X27439211Y39127504D01*
X27354561Y39000817D01*
X27306325Y38758321D01*
X24751500Y38758321D01*
X24751500Y43399599D01*
X25566000Y43399599D01*
X25566000Y42960401D01*
X25734074Y42554634D01*
X26044634Y42244074D01*
X26450401Y42076000D01*
X26889599Y42076000D01*
X27295366Y42244074D01*
X27605926Y42554634D01*
X27774000Y42960401D01*
X27774000Y43399599D01*
X27605926Y43805366D01*
X27295366Y44115926D01*
X27291500Y44117527D01*
X27291500Y47959388D01*
X29996185Y50664071D01*
X30254774Y50556960D01*
X30872866Y50556960D01*
X31443909Y50793494D01*
X31880966Y51230551D01*
X32117500Y51801594D01*
X32117500Y52419686D01*
X31880966Y52990729D01*
X31601901Y53269794D01*
X34508294Y53269794D01*
X34648352Y53008158D01*
X35330746Y52781218D01*
X36048042Y52832695D01*
X36471648Y53008158D01*
X36611706Y53269794D01*
X35560000Y54321500D01*
X34508294Y53269794D01*
X31601901Y53269794D01*
X31443909Y53427786D01*
X30872866Y53664320D01*
X30254774Y53664320D01*
X29683731Y53427786D01*
X29246674Y52990729D01*
X29010140Y52419686D01*
X29010140Y51801594D01*
X29117251Y51543005D01*
X26273817Y48699569D01*
X26221925Y48664896D01*
X26118770Y48510514D01*
X26084561Y48459316D01*
X26036325Y48216820D01*
X26048501Y48155608D01*
X26048500Y44117527D01*
X26044634Y44115926D01*
X25734074Y43805366D01*
X25566000Y43399599D01*
X24751500Y43399599D01*
X24751500Y54921586D01*
X26508240Y54921586D01*
X26508240Y54303494D01*
X26744774Y53732451D01*
X27181831Y53295394D01*
X27752874Y53058860D01*
X28370966Y53058860D01*
X28942009Y53295394D01*
X29379066Y53732451D01*
X29615600Y54303494D01*
X29615600Y54839254D01*
X33731218Y54839254D01*
X33782695Y54121958D01*
X33958158Y53698352D01*
X34219794Y53558294D01*
X35271500Y54610000D01*
X35848500Y54610000D01*
X36900206Y53558294D01*
X37161842Y53698352D01*
X37388782Y54380746D01*
X37349969Y54921586D01*
X41504400Y54921586D01*
X41504400Y54303494D01*
X41740934Y53732451D01*
X42177991Y53295394D01*
X42749034Y53058860D01*
X43367126Y53058860D01*
X43938169Y53295394D01*
X44375226Y53732451D01*
X44611760Y54303494D01*
X44611760Y54921586D01*
X44375226Y55492629D01*
X43938169Y55929686D01*
X43367126Y56166220D01*
X42749034Y56166220D01*
X42177991Y55929686D01*
X41740934Y55492629D01*
X41504400Y54921586D01*
X37349969Y54921586D01*
X37337305Y55098042D01*
X37161842Y55521648D01*
X36900206Y55661706D01*
X35848500Y54610000D01*
X35271500Y54610000D01*
X34219794Y55661706D01*
X33958158Y55521648D01*
X33731218Y54839254D01*
X29615600Y54839254D01*
X29615600Y54921586D01*
X29379066Y55492629D01*
X28942009Y55929686D01*
X28892470Y55950206D01*
X34508294Y55950206D01*
X35560000Y54898500D01*
X36611706Y55950206D01*
X36471648Y56211842D01*
X35789254Y56438782D01*
X35071958Y56387305D01*
X34648352Y56211842D01*
X34508294Y55950206D01*
X28892470Y55950206D01*
X28370966Y56166220D01*
X27752874Y56166220D01*
X27181831Y55929686D01*
X26744774Y55492629D01*
X26508240Y54921586D01*
X24751500Y54921586D01*
X24751500Y63438799D01*
X24763674Y63500001D01*
X24751500Y63561203D01*
X24751500Y63561207D01*
X24715439Y63742497D01*
X24578076Y63948076D01*
X24526187Y63982747D01*
X23592448Y64916486D01*
X29005060Y64916486D01*
X29005060Y64298394D01*
X29241594Y63727351D01*
X29678651Y63290294D01*
X30249694Y63053760D01*
X30867786Y63053760D01*
X31438829Y63290294D01*
X31875886Y63727351D01*
X32112420Y64298394D01*
X32112420Y64916486D01*
X39007580Y64916486D01*
X39007580Y64298394D01*
X39244114Y63727351D01*
X39681171Y63290294D01*
X40252214Y63053760D01*
X40870306Y63053760D01*
X41441349Y63290294D01*
X41878406Y63727351D01*
X42114940Y64298394D01*
X42114940Y64916486D01*
X53135060Y64916486D01*
X53135060Y64298394D01*
X53371594Y63727351D01*
X53808651Y63290294D01*
X54379694Y63053760D01*
X54997786Y63053760D01*
X55568829Y63290294D01*
X56005886Y63727351D01*
X56242420Y64298394D01*
X56242420Y64916486D01*
X63137580Y64916486D01*
X63137580Y64298394D01*
X63374114Y63727351D01*
X63811171Y63290294D01*
X64382214Y63053760D01*
X65000306Y63053760D01*
X65571349Y63290294D01*
X66008406Y63727351D01*
X66244940Y64298394D01*
X66244940Y64916486D01*
X66008406Y65487529D01*
X65571349Y65924586D01*
X65000306Y66161120D01*
X64382214Y66161120D01*
X63811171Y65924586D01*
X63374114Y65487529D01*
X63137580Y64916486D01*
X56242420Y64916486D01*
X56005886Y65487529D01*
X55568829Y65924586D01*
X54997786Y66161120D01*
X54379694Y66161120D01*
X53808651Y65924586D01*
X53371594Y65487529D01*
X53135060Y64916486D01*
X42114940Y64916486D01*
X41878406Y65487529D01*
X41441349Y65924586D01*
X40870306Y66161120D01*
X40252214Y66161120D01*
X39681171Y65924586D01*
X39244114Y65487529D01*
X39007580Y64916486D01*
X32112420Y64916486D01*
X31875886Y65487529D01*
X31438829Y65924586D01*
X30867786Y66161120D01*
X30249694Y66161120D01*
X29678651Y65924586D01*
X29241594Y65487529D01*
X29005060Y64916486D01*
X23592448Y64916486D01*
X22072751Y66436181D01*
X22038076Y66488076D01*
X21832497Y66625439D01*
X21651207Y66661500D01*
X21590000Y66673675D01*
X21528793Y66661500D01*
X3871203Y66661500D01*
X3809999Y66673674D01*
X3748796Y66661500D01*
X3748793Y66661500D01*
X3567503Y66625439D01*
X3361924Y66488076D01*
X3327253Y66436187D01*
X2143817Y65252749D01*
X2091925Y65218076D01*
X1988770Y65063694D01*
X1954561Y65012496D01*
X1906325Y64770000D01*
X1320000Y64770000D01*
X1320000Y68530000D01*
X71070000Y68530000D01*
X71070000Y1320000D01*
G04 #@! TD*
M02*
