M48
;DRILL file {KiCad (5.0.2)-1} date 2019-01-25 11:54:29 AM
;FORMAT={-:-/ absolute / inch / decimal}
FMAT,2
INCH,TZ
T1C0.0236
T2C0.0315
T3C0.0354
T4C0.0433
T5C0.0550
T6C0.0906
T7C0.0550
T8C0.1260
%
G90
G05
T1
X0.95Y1.3
X1.0287Y1.3
T2
X1.2Y1.3
X1.2Y1.2
X1.2Y1.1
X1.2Y1.
X1.5Y1.3
X1.5Y1.2
X1.5Y1.1
X1.5Y1.
X1.05Y1.7
X1.55Y1.7
X1.2Y1.5
X1.5Y1.5
X2.Y1.2
X2.5Y1.2
X2.Y1.4
X2.5Y1.4
X2.Y1.6
X2.5Y1.6
T3
X1.0427Y0.5008
X1.0433Y0.6976
X1.0433Y0.4024
X1.0437Y0.5992
T4
X0.2Y2.45
X0.2Y2.35
X0.2Y2.25
X0.2Y2.15
X0.2Y2.05
X0.2Y1.95
X0.2Y1.85
X0.2Y1.75
X0.2Y1.65
X0.2Y1.55
X0.2Y1.45
X0.2Y1.35
X0.2Y1.25
X0.2Y1.15
X0.2Y1.05
X0.2Y0.95
X0.2Y0.85
X0.2Y0.75
X0.2Y0.65
X0.2Y0.55
X0.2Y0.45
X0.2Y0.35
X0.2Y0.25
X0.2Y0.15
X0.3Y1.95
X0.3Y0.65
X0.3Y0.55
X0.3Y0.45
X0.3Y0.25
X0.4Y2.45
X0.4Y2.35
X0.4Y2.25
X0.4Y2.15
X0.4Y2.05
X0.4Y1.95
X0.4Y1.85
X0.4Y1.75
X0.4Y1.65
X0.4Y1.05
X0.4Y0.95
X0.4Y0.85
X0.4Y0.75
X0.5Y2.45
X0.5Y2.35
X0.5Y2.25
X0.5Y2.15
X0.5Y2.05
X0.5Y1.95
X0.5Y1.85
X0.5Y1.75
X0.5Y1.65
X0.5Y1.05
X0.5Y0.95
X0.5Y0.85
X0.5Y0.75
X0.6Y1.95
X0.6819Y0.8
X0.6819Y0.7
X0.6819Y0.6
X0.6819Y0.5
X0.6819Y0.4
X0.7Y1.95
X0.8Y2.45
X0.8Y2.35
X0.8Y2.25
X0.8Y2.15
X0.8Y2.05
X0.8Y1.95
X0.8Y1.85
X0.8Y1.75
X0.8Y1.65
X0.8Y1.55
X0.8Y1.45
X0.8Y1.35
X0.8Y1.25
X0.8Y1.15
X0.8Y1.05
X0.8Y0.95
X0.8Y0.85
X0.8Y0.75
X0.8Y0.65
X0.8Y0.55
X0.8Y0.45
X0.8Y0.35
X0.8Y0.25
X0.8Y0.15
T5
X2.0548Y2.1501
X2.1533Y2.0516
X2.35Y2.15
X2.5467Y2.0516
X2.6452Y2.1501
X1.1048Y2.1501
X1.2033Y2.0516
X1.4Y2.15
X1.5967Y2.0516
X1.6952Y2.1501
T6
X1.15Y0.8087
X1.15Y0.2913
T7
X2.1531Y2.5436
X2.5469Y2.5436
X1.2031Y2.5436
X1.5969Y2.5436
T8
X0.5Y1.35
X2.55Y0.25
T0
M30
