G04 #@! TF.GenerationSoftware,KiCad,Pcbnew,(5.0.2)-1*
G04 #@! TF.CreationDate,2019-02-01T02:25:23-05:00*
G04 #@! TF.ProjectId,midimerger,6d696469-6d65-4726-9765-722e6b696361,rev?*
G04 #@! TF.SameCoordinates,PX60e4b00PY695f190*
G04 #@! TF.FileFunction,Other,User*
%FSLAX46Y46*%
G04 Gerber Fmt 4.6, Leading zero omitted, Abs format (unit mm)*
G04 Created by KiCad (PCBNEW (5.0.2)-1) date 2/1/2019 2:25:23 AM*
%MOMM*%
%LPD*%
G01*
G04 APERTURE LIST*
%ADD10C,0.050000*%
G04 APERTURE END LIST*
D10*
G04 #@! TO.C,J1*
X25270000Y5520000D02*
X25270000Y22420000D01*
X25270000Y22420000D02*
X46160000Y22420000D01*
X25270000Y5520000D02*
X46160000Y5520000D01*
X46160000Y5520000D02*
X46160000Y22420000D01*
G04 #@! TO.C,REF\002A\002A*
X16150000Y34290000D02*
G75*
G03X16150000Y34290000I-3450000J0D01*
G01*
G04 #@! TO.C,C1*
X27380000Y33020000D02*
G75*
G03X27380000Y33020000I-2250000J0D01*
G01*
G04 #@! TO.C,D1*
X39150000Y36850000D02*
X39150000Y39350000D01*
X39150000Y39350000D02*
X29430000Y39350000D01*
X29430000Y39350000D02*
X29430000Y36850000D01*
X29430000Y36850000D02*
X39150000Y36850000D01*
G04 #@! TO.C,U2*
X28930000Y34620000D02*
X28930000Y23820000D01*
X28930000Y23820000D02*
X39630000Y23820000D01*
X39630000Y23820000D02*
X39630000Y34620000D01*
X39630000Y34620000D02*
X28930000Y34620000D01*
G04 #@! TO.C,REF\002A\002A*
X68220000Y6350000D02*
G75*
G03X68220000Y6350000I-3450000J0D01*
G01*
G04 #@! TO.C,R1*
X40420000Y45030000D02*
X25620000Y45030000D01*
X40420000Y41330000D02*
X40420000Y45030000D01*
X25620000Y41330000D02*
X40420000Y41330000D01*
X25620000Y45030000D02*
X25620000Y41330000D01*
G04 #@! TO.C,R2*
X64550000Y38790000D02*
X64550000Y42490000D01*
X64550000Y42490000D02*
X49750000Y42490000D01*
X49750000Y42490000D02*
X49750000Y38790000D01*
X49750000Y38790000D02*
X64550000Y38790000D01*
G04 #@! TO.C,R3*
X49750000Y37410000D02*
X49750000Y33710000D01*
X49750000Y33710000D02*
X64550000Y33710000D01*
X64550000Y33710000D02*
X64550000Y37410000D01*
X64550000Y37410000D02*
X49750000Y37410000D01*
G04 #@! TO.C,R4*
X64550000Y32330000D02*
X49750000Y32330000D01*
X64550000Y28630000D02*
X64550000Y32330000D01*
X49750000Y28630000D02*
X64550000Y28630000D01*
X49750000Y32330000D02*
X49750000Y28630000D01*
G04 #@! TD*
M02*
