G04 #@! TF.GenerationSoftware,KiCad,Pcbnew,(5.0.2)-1*
G04 #@! TF.CreationDate,2019-01-27T02:55:33-05:00*
G04 #@! TF.ProjectId,midimerger,6d696469-6d65-4726-9765-722e6b696361,rev?*
G04 #@! TF.SameCoordinates,PX60e4b00PY695f190*
G04 #@! TF.FileFunction,Copper,L1,Top*
G04 #@! TF.FilePolarity,Positive*
%FSLAX46Y46*%
G04 Gerber Fmt 4.6, Leading zero omitted, Abs format (unit mm)*
G04 Created by KiCad (PCBNEW (5.0.2)-1) date 2019-01-27 2:55:33 AM*
%MOMM*%
%LPD*%
G01*
G04 APERTURE LIST*
G04 #@! TA.AperFunction,ComponentPad*
%ADD10C,1.650000*%
G04 #@! TD*
G04 #@! TA.AperFunction,ComponentPad*
%ADD11R,1.600000X1.600000*%
G04 #@! TD*
G04 #@! TA.AperFunction,ComponentPad*
%ADD12C,1.900000*%
G04 #@! TD*
G04 #@! TA.AperFunction,ComponentPad*
%ADD13C,3.300000*%
G04 #@! TD*
G04 #@! TA.AperFunction,ComponentPad*
%ADD14R,1.200000X1.200000*%
G04 #@! TD*
G04 #@! TA.AperFunction,ComponentPad*
%ADD15C,1.200000*%
G04 #@! TD*
G04 #@! TA.AperFunction,ComponentPad*
%ADD16O,1.600000X1.600000*%
G04 #@! TD*
G04 #@! TA.AperFunction,ComponentPad*
%ADD17C,2.499360*%
G04 #@! TD*
G04 #@! TA.AperFunction,WasherPad*
%ADD18C,2.499360*%
G04 #@! TD*
G04 #@! TA.AperFunction,ComponentPad*
%ADD19C,1.600000*%
G04 #@! TD*
G04 #@! TA.AperFunction,Conductor*
%ADD20C,0.508000*%
G04 #@! TD*
G04 APERTURE END LIST*
D10*
G04 #@! TO.P,U1,62*
G04 #@! TO.N,GND*
X17320000Y20320000D03*
G04 #@! TO.P,U1,61*
X17320000Y17780000D03*
G04 #@! TO.P,U1,60*
G04 #@! TO.N,/H_USB_D+*
X17320000Y15240000D03*
G04 #@! TO.P,U1,59*
G04 #@! TO.N,/H_USB_D-*
X17320000Y12700000D03*
G04 #@! TO.P,U1,58*
G04 #@! TO.N,/H_USB_5V*
X17320000Y10160000D03*
G04 #@! TO.P,U1,86*
G04 #@! TO.N,Net-(U1-Pad86)*
X10160000Y19050000D03*
G04 #@! TO.P,U1,85*
G04 #@! TO.N,Net-(U1-Pad85)*
X10160000Y21590000D03*
G04 #@! TO.P,U1,84*
G04 #@! TO.N,Net-(U1-Pad84)*
X10160000Y24130000D03*
G04 #@! TO.P,U1,83*
G04 #@! TO.N,Net-(U1-Pad83)*
X10160000Y26670000D03*
G04 #@! TO.P,U1,82*
G04 #@! TO.N,Net-(U1-Pad82)*
X10160000Y41910000D03*
G04 #@! TO.P,U1,81*
G04 #@! TO.N,Net-(U1-Pad81)*
X10160000Y44450000D03*
G04 #@! TO.P,U1,80*
G04 #@! TO.N,Net-(U1-Pad80)*
X10160000Y46990000D03*
G04 #@! TO.P,U1,79*
G04 #@! TO.N,Net-(U1-Pad79)*
X10160000Y52070000D03*
G04 #@! TO.P,U1,78*
G04 #@! TO.N,Net-(U1-Pad78)*
X10160000Y54610000D03*
G04 #@! TO.P,U1,77*
G04 #@! TO.N,Net-(U1-Pad77)*
X10160000Y57150000D03*
G04 #@! TO.P,U1,76*
G04 #@! TO.N,Net-(U1-Pad76)*
X10160000Y59690000D03*
G04 #@! TO.P,U1,75*
G04 #@! TO.N,Net-(U1-Pad75)*
X10160000Y62230000D03*
G04 #@! TO.P,U1,74*
G04 #@! TO.N,Net-(U1-Pad74)*
X12700000Y62230000D03*
G04 #@! TO.P,U1,73*
G04 #@! TO.N,Net-(U1-Pad73)*
X12700000Y59690000D03*
G04 #@! TO.P,U1,72*
G04 #@! TO.N,Net-(U1-Pad72)*
X12700000Y57150000D03*
G04 #@! TO.P,U1,71*
G04 #@! TO.N,Net-(U1-Pad71)*
X12700000Y54610000D03*
G04 #@! TO.P,U1,70*
G04 #@! TO.N,Net-(U1-Pad70)*
X12700000Y52070000D03*
G04 #@! TO.P,U1,69*
G04 #@! TO.N,Net-(U1-Pad69)*
X12700000Y46990000D03*
G04 #@! TO.P,U1,68*
G04 #@! TO.N,Net-(U1-Pad68)*
X12700000Y44450000D03*
G04 #@! TO.P,U1,67*
G04 #@! TO.N,Net-(U1-Pad67)*
X12700000Y41910000D03*
G04 #@! TO.P,U1,66*
G04 #@! TO.N,Net-(U1-Pad66)*
X12700000Y26670000D03*
G04 #@! TO.P,U1,65*
G04 #@! TO.N,Net-(U1-Pad65)*
X12700000Y24130000D03*
G04 #@! TO.P,U1,64*
G04 #@! TO.N,Net-(U1-Pad64)*
X12700000Y21590000D03*
G04 #@! TO.P,U1,63*
G04 #@! TO.N,Net-(U1-Pad63)*
X12700000Y19050000D03*
G04 #@! TO.P,U1,57*
G04 #@! TO.N,Net-(U1-Pad57)*
X7620000Y16510000D03*
G04 #@! TO.P,U1,56*
G04 #@! TO.N,Net-(U1-Pad56)*
X7620000Y13970000D03*
G04 #@! TO.P,U1,55*
G04 #@! TO.N,Net-(U1-Pad55)*
X7620000Y11430000D03*
G04 #@! TO.P,U1,54*
G04 #@! TO.N,Net-(U1-Pad54)*
X7620000Y6350000D03*
G04 #@! TO.P,U1,53*
G04 #@! TO.N,/5V*
X5080000Y3810000D03*
G04 #@! TO.P,U1,52*
G04 #@! TO.N,Net-(U1-Pad52)*
X5080000Y6350000D03*
G04 #@! TO.P,U1,51*
G04 #@! TO.N,/3.3V*
X5080000Y8890000D03*
G04 #@! TO.P,U1,50*
G04 #@! TO.N,Net-(U1-Pad50)*
X5080000Y11430000D03*
G04 #@! TO.P,U1,49*
G04 #@! TO.N,Net-(U1-Pad49)*
X5080000Y13970000D03*
G04 #@! TO.P,U1,48*
G04 #@! TO.N,Net-(U1-Pad48)*
X5080000Y16510000D03*
G04 #@! TO.P,U1,47*
G04 #@! TO.N,Net-(U1-Pad47)*
X5080000Y19050000D03*
G04 #@! TO.P,U1,46*
G04 #@! TO.N,Net-(U1-Pad46)*
X5080000Y21590000D03*
G04 #@! TO.P,U1,45*
G04 #@! TO.N,Net-(U1-Pad45)*
X5080000Y24130000D03*
G04 #@! TO.P,U1,44*
G04 #@! TO.N,Net-(U1-Pad44)*
X5080000Y26670000D03*
G04 #@! TO.P,U1,43*
G04 #@! TO.N,Net-(U1-Pad43)*
X5080000Y29210000D03*
G04 #@! TO.P,U1,42*
G04 #@! TO.N,Net-(U1-Pad42)*
X5080000Y31750000D03*
G04 #@! TO.P,U1,41*
G04 #@! TO.N,Net-(U1-Pad41)*
X5080000Y34290000D03*
G04 #@! TO.P,U1,40*
G04 #@! TO.N,Net-(U1-Pad40)*
X5080000Y36830000D03*
G04 #@! TO.P,U1,39*
G04 #@! TO.N,Net-(U1-Pad39)*
X5080000Y39370000D03*
G04 #@! TO.P,U1,38*
G04 #@! TO.N,Net-(U1-Pad38)*
X5080000Y41910000D03*
D11*
G04 #@! TO.P,U1,1*
G04 #@! TO.N,GND*
X20320000Y3810000D03*
D10*
G04 #@! TO.P,U1,2*
G04 #@! TO.N,/MIDI_1_IN*
X20320000Y6350000D03*
G04 #@! TO.P,U1,3*
G04 #@! TO.N,/MIDI_1_OUT*
X20320000Y8890000D03*
G04 #@! TO.P,U1,4*
G04 #@! TO.N,Net-(U1-Pad4)*
X20320000Y11430000D03*
G04 #@! TO.P,U1,5*
G04 #@! TO.N,Net-(U1-Pad5)*
X20320000Y13970000D03*
G04 #@! TO.P,U1,6*
G04 #@! TO.N,Net-(U1-Pad6)*
X20320000Y16510000D03*
G04 #@! TO.P,U1,7*
G04 #@! TO.N,Net-(U1-Pad7)*
X20320000Y19050000D03*
G04 #@! TO.P,U1,8*
G04 #@! TO.N,Net-(U1-Pad8)*
X20320000Y21590000D03*
G04 #@! TO.P,U1,9*
G04 #@! TO.N,Net-(U1-Pad9)*
X20320000Y24130000D03*
G04 #@! TO.P,U1,10*
G04 #@! TO.N,Net-(U1-Pad10)*
X20320000Y26670000D03*
G04 #@! TO.P,U1,11*
G04 #@! TO.N,Net-(U1-Pad11)*
X20320000Y29210000D03*
G04 #@! TO.P,U1,12*
G04 #@! TO.N,Net-(U1-Pad12)*
X20320000Y31750000D03*
G04 #@! TO.P,U1,13*
G04 #@! TO.N,Net-(U1-Pad13)*
X20320000Y34290000D03*
G04 #@! TO.P,U1,37*
G04 #@! TO.N,Net-(U1-Pad37)*
X5080000Y44450000D03*
G04 #@! TO.P,U1,36*
G04 #@! TO.N,Net-(U1-Pad36)*
X5080000Y46990000D03*
G04 #@! TO.P,U1,35*
G04 #@! TO.N,Net-(U1-Pad35)*
X5080000Y49530000D03*
G04 #@! TO.P,U1,34*
G04 #@! TO.N,Net-(U1-Pad34)*
X5080000Y52070000D03*
G04 #@! TO.P,U1,33*
G04 #@! TO.N,Net-(U1-Pad33)*
X5080000Y54610000D03*
G04 #@! TO.P,U1,32*
G04 #@! TO.N,Net-(U1-Pad32)*
X5080000Y57150000D03*
G04 #@! TO.P,U1,31*
G04 #@! TO.N,Net-(U1-Pad31)*
X5080000Y59690000D03*
G04 #@! TO.P,U1,30*
G04 #@! TO.N,Net-(U1-Pad30)*
X5080000Y62230000D03*
G04 #@! TO.P,U1,29*
G04 #@! TO.N,Net-(U1-Pad29)*
X7620000Y49530000D03*
G04 #@! TO.P,U1,28*
G04 #@! TO.N,Net-(U1-Pad28)*
X10160000Y49530000D03*
G04 #@! TO.P,U1,27*
G04 #@! TO.N,GND*
X12700000Y49530000D03*
G04 #@! TO.P,U1,26*
G04 #@! TO.N,Net-(U1-Pad26)*
X15240000Y49530000D03*
G04 #@! TO.P,U1,25*
G04 #@! TO.N,Net-(U1-Pad25)*
X17780000Y49530000D03*
G04 #@! TO.P,U1,24*
G04 #@! TO.N,Net-(U1-Pad24)*
X20320000Y62230000D03*
G04 #@! TO.P,U1,23*
G04 #@! TO.N,Net-(U1-Pad23)*
X20320000Y59690000D03*
G04 #@! TO.P,U1,22*
G04 #@! TO.N,Net-(U1-Pad22)*
X20320000Y57150000D03*
G04 #@! TO.P,U1,21*
G04 #@! TO.N,Net-(U1-Pad21)*
X20320000Y54610000D03*
G04 #@! TO.P,U1,14*
G04 #@! TO.N,Net-(U1-Pad14)*
X20320000Y36830000D03*
G04 #@! TO.P,U1,15*
G04 #@! TO.N,Net-(U1-Pad15)*
X20320000Y39370000D03*
G04 #@! TO.P,U1,16*
G04 #@! TO.N,Net-(U1-Pad16)*
X20320000Y41910000D03*
G04 #@! TO.P,U1,20*
G04 #@! TO.N,Net-(U1-Pad20)*
X20320000Y52070000D03*
G04 #@! TO.P,U1,19*
G04 #@! TO.N,Net-(U1-Pad19)*
X20320000Y49530000D03*
G04 #@! TO.P,U1,18*
G04 #@! TO.N,Net-(U1-Pad18)*
X20320000Y46990000D03*
G04 #@! TO.P,U1,17*
G04 #@! TO.N,Net-(U1-Pad17)*
X20320000Y44450000D03*
G04 #@! TD*
D12*
G04 #@! TO.P,J1,4*
G04 #@! TO.N,GND*
X26500000Y17720000D03*
G04 #@! TO.P,J1,3*
G04 #@! TO.N,/H_USB_D+*
X26510000Y15220000D03*
G04 #@! TO.P,J1,2*
G04 #@! TO.N,/H_USB_D-*
X26485000Y12720000D03*
G04 #@! TO.P,J1,1*
G04 #@! TO.N,/H_USB_5V*
X26500000Y10220000D03*
D13*
G04 #@! TO.P,J1,SH*
G04 #@! TO.N,N/C*
X29210000Y20540000D03*
X29210000Y7400000D03*
G04 #@! TD*
D14*
G04 #@! TO.P,C1,1*
G04 #@! TO.N,Net-(C1-Pad1)*
X24130000Y33020000D03*
D15*
G04 #@! TO.P,C1,2*
G04 #@! TO.N,GND*
X26130000Y33020000D03*
G04 #@! TD*
D11*
G04 #@! TO.P,D1,1*
G04 #@! TO.N,Net-(D1-Pad1)*
X38100000Y38100000D03*
D16*
G04 #@! TO.P,D1,2*
G04 #@! TO.N,Net-(D1-Pad2)*
X30480000Y38100000D03*
G04 #@! TD*
D17*
G04 #@! TO.P,J2,3*
G04 #@! TO.N,Net-(J2-Pad3)*
X43058080Y54612540D03*
G04 #@! TO.P,J2,4*
G04 #@! TO.N,Net-(J2-Pad4)*
X30563820Y52110640D03*
G04 #@! TO.P,J2,2*
G04 #@! TO.N,GND*
X35560000Y54610000D03*
G04 #@! TO.P,J2,1*
G04 #@! TO.N,Net-(J2-Pad1)*
X28061920Y54612540D03*
G04 #@! TO.P,J2,5*
G04 #@! TO.N,Net-(D1-Pad2)*
X40556180Y52110640D03*
D18*
G04 #@! TO.P,J2,*
G04 #@! TO.N,*
X30558740Y64607440D03*
X40561260Y64607440D03*
G04 #@! TD*
G04 #@! TO.P,J3,*
G04 #@! TO.N,*
X64691260Y64607440D03*
X54688740Y64607440D03*
D17*
G04 #@! TO.P,J3,5*
G04 #@! TO.N,Net-(J3-Pad5)*
X64686180Y52110640D03*
G04 #@! TO.P,J3,1*
G04 #@! TO.N,Net-(J3-Pad1)*
X52191920Y54612540D03*
G04 #@! TO.P,J3,2*
G04 #@! TO.N,GND*
X59690000Y54610000D03*
G04 #@! TO.P,J3,4*
G04 #@! TO.N,Net-(J3-Pad4)*
X54693820Y52110640D03*
G04 #@! TO.P,J3,3*
G04 #@! TO.N,Net-(J3-Pad3)*
X67188080Y54612540D03*
G04 #@! TD*
D11*
G04 #@! TO.P,U2,1*
G04 #@! TO.N,Net-(U2-Pad1)*
X30480000Y33020000D03*
D16*
G04 #@! TO.P,U2,5*
G04 #@! TO.N,GND*
X38100000Y25400000D03*
G04 #@! TO.P,U2,2*
G04 #@! TO.N,Net-(D1-Pad1)*
X30480000Y30480000D03*
G04 #@! TO.P,U2,6*
G04 #@! TO.N,/MIDI_1_IN*
X38100000Y27940000D03*
G04 #@! TO.P,U2,3*
G04 #@! TO.N,Net-(D1-Pad2)*
X30480000Y27940000D03*
G04 #@! TO.P,U2,7*
G04 #@! TO.N,Net-(U2-Pad7)*
X38100000Y30480000D03*
G04 #@! TO.P,U2,4*
G04 #@! TO.N,Net-(U2-Pad4)*
X30480000Y25400000D03*
G04 #@! TO.P,U2,8*
G04 #@! TO.N,Net-(C1-Pad1)*
X38100000Y33020000D03*
G04 #@! TD*
G04 #@! TO.P,R1,2*
G04 #@! TO.N,Net-(D1-Pad1)*
X39370000Y43180000D03*
D19*
G04 #@! TO.P,R1,1*
G04 #@! TO.N,Net-(J2-Pad4)*
X26670000Y43180000D03*
G04 #@! TD*
G04 #@! TO.P,R2,1*
G04 #@! TO.N,Net-(J3-Pad5)*
X63500000Y40640000D03*
D16*
G04 #@! TO.P,R2,2*
G04 #@! TO.N,/MIDI_1_OUT*
X50800000Y40640000D03*
G04 #@! TD*
D19*
G04 #@! TO.P,R3,1*
G04 #@! TO.N,Net-(J3-Pad4)*
X50800000Y35560000D03*
D16*
G04 #@! TO.P,R3,2*
G04 #@! TO.N,/5V*
X63500000Y35560000D03*
G04 #@! TD*
G04 #@! TO.P,R4,2*
G04 #@! TO.N,/3.3V*
X63500000Y30480000D03*
D19*
G04 #@! TO.P,R4,1*
G04 #@! TO.N,/MIDI_1_IN*
X50800000Y30480000D03*
G04 #@! TD*
D20*
G04 #@! TO.N,/H_USB_D+*
X26490000Y15240000D02*
X26510000Y15220000D01*
G04 #@! TD*
M02*
