%FSLAX45Y45*%
G04 Gerber Fmt 4.5, Leading zero omitted, Abs format (unit mm)*
G04 Created by KiCad (PCBNEW (5.0.2)-1) date 2019-01-27 2:32:37 AM*
%MOMM*%
%LPD*%
G01*
G04 APERTURE LIST*
%ADD10C,0.150000*%
%ADD11C,0.200000*%
%ADD12C,0.300000*%
G04 APERTURE END LIST*
D10*
X0Y6985000D02*
X0Y-381000D01*
X0Y6985000D02*
X7239000Y6985000D01*
X7239000Y-381000D02*
X7239000Y6985000D01*
X0Y-381000D02*
X7239000Y-381000D01*
D11*
X2383000Y3332000D02*
X2443000Y3272000D01*
X2443000Y3332000D02*
X2383000Y3272000D01*
X2583000Y3332000D02*
X2643000Y3272000D01*
X2643000Y3332000D02*
X2583000Y3272000D01*
X3088000Y3810000D02*
G75*
G03X3088000Y3810000I-40000J0D01*
G01*
X3850000Y3810000D02*
G75*
G03X3850000Y3810000I-40000J0D01*
G01*
X5120000Y3556000D02*
G75*
G03X5120000Y3556000I-40000J0D01*
G01*
X6390000Y3556000D02*
G75*
G03X6390000Y3556000I-40000J0D01*
G01*
X5120000Y4064000D02*
G75*
G03X5120000Y4064000I-40000J0D01*
G01*
X6390000Y4064000D02*
G75*
G03X6390000Y4064000I-40000J0D01*
G01*
X5120000Y3048000D02*
G75*
G03X5120000Y3048000I-40000J0D01*
G01*
X6390000Y3048000D02*
G75*
G03X6390000Y3048000I-40000J0D01*
G01*
X3088000Y3302000D02*
G75*
G03X3088000Y3302000I-40000J0D01*
G01*
X3088000Y3048000D02*
G75*
G03X3088000Y3048000I-40000J0D01*
G01*
X3088000Y2794000D02*
G75*
G03X3088000Y2794000I-40000J0D01*
G01*
X3088000Y2540000D02*
G75*
G03X3088000Y2540000I-40000J0D01*
G01*
X3850000Y3302000D02*
G75*
G03X3850000Y3302000I-40000J0D01*
G01*
X3850000Y3048000D02*
G75*
G03X3850000Y3048000I-40000J0D01*
G01*
X3850000Y2794000D02*
G75*
G03X3850000Y2794000I-40000J0D01*
G01*
X3850000Y2540000D02*
G75*
G03X3850000Y2540000I-40000J0D01*
G01*
X2707000Y4318000D02*
G75*
G03X2707000Y4318000I-40000J0D01*
G01*
X3977000Y4318000D02*
G75*
G03X3977000Y4318000I-40000J0D01*
G01*
X2648500Y1317000D02*
X2648500Y1227000D01*
X2603500Y1272000D02*
X2693500Y1272000D01*
X2650000Y1817000D02*
X2650000Y1727000D01*
X2605000Y1772000D02*
X2695000Y1772000D01*
X2650000Y1067000D02*
X2650000Y977000D01*
X2605000Y1022000D02*
X2695000Y1022000D01*
X2651000Y1567000D02*
X2651000Y1477000D01*
X2606000Y1522000D02*
X2696000Y1522000D01*
X543356Y6187644D02*
X543356Y6258356D01*
X472644Y6258356D01*
X472644Y6187644D01*
X543356Y6187644D01*
X543356Y5933644D02*
X543356Y6004356D01*
X472644Y6004356D01*
X472644Y5933644D01*
X543356Y5933644D01*
X543356Y5679644D02*
X543356Y5750356D01*
X472644Y5750356D01*
X472644Y5679644D01*
X543356Y5679644D01*
X543356Y5425644D02*
X543356Y5496356D01*
X472644Y5496356D01*
X472644Y5425644D01*
X543356Y5425644D01*
X543356Y5171644D02*
X543356Y5242356D01*
X472644Y5242356D01*
X472644Y5171644D01*
X543356Y5171644D01*
X543356Y4917644D02*
X543356Y4988356D01*
X472644Y4988356D01*
X472644Y4917644D01*
X543356Y4917644D01*
X543356Y4663644D02*
X543356Y4734356D01*
X472644Y4734356D01*
X472644Y4663644D01*
X543356Y4663644D01*
X543356Y4409644D02*
X543356Y4480356D01*
X472644Y4480356D01*
X472644Y4409644D01*
X543356Y4409644D01*
X543356Y4155644D02*
X543356Y4226356D01*
X472644Y4226356D01*
X472644Y4155644D01*
X543356Y4155644D01*
X543356Y3901644D02*
X543356Y3972356D01*
X472644Y3972356D01*
X472644Y3901644D01*
X543356Y3901644D01*
X543356Y3647644D02*
X543356Y3718356D01*
X472644Y3718356D01*
X472644Y3647644D01*
X543356Y3647644D01*
X543356Y3393644D02*
X543356Y3464356D01*
X472644Y3464356D01*
X472644Y3393644D01*
X543356Y3393644D01*
X543356Y3139644D02*
X543356Y3210356D01*
X472644Y3210356D01*
X472644Y3139644D01*
X543356Y3139644D01*
X543356Y2885644D02*
X543356Y2956356D01*
X472644Y2956356D01*
X472644Y2885644D01*
X543356Y2885644D01*
X543356Y2631644D02*
X543356Y2702356D01*
X472644Y2702356D01*
X472644Y2631644D01*
X543356Y2631644D01*
X543356Y2377644D02*
X543356Y2448356D01*
X472644Y2448356D01*
X472644Y2377644D01*
X543356Y2377644D01*
X543356Y2123644D02*
X543356Y2194356D01*
X472644Y2194356D01*
X472644Y2123644D01*
X543356Y2123644D01*
X543356Y1869644D02*
X543356Y1940356D01*
X472644Y1940356D01*
X472644Y1869644D01*
X543356Y1869644D01*
X543356Y1615644D02*
X543356Y1686356D01*
X472644Y1686356D01*
X472644Y1615644D01*
X543356Y1615644D01*
X543356Y1361644D02*
X543356Y1432356D01*
X472644Y1432356D01*
X472644Y1361644D01*
X543356Y1361644D01*
X543356Y1107644D02*
X543356Y1178356D01*
X472644Y1178356D01*
X472644Y1107644D01*
X543356Y1107644D01*
X543356Y853644D02*
X543356Y924356D01*
X472644Y924356D01*
X472644Y853644D01*
X543356Y853644D01*
X543356Y599644D02*
X543356Y670356D01*
X472644Y670356D01*
X472644Y599644D01*
X543356Y599644D01*
X543356Y345644D02*
X543356Y416356D01*
X472644Y416356D01*
X472644Y345644D01*
X543356Y345644D01*
X797356Y4917644D02*
X797356Y4988356D01*
X726644Y4988356D01*
X726644Y4917644D01*
X797356Y4917644D01*
X797356Y1615644D02*
X797356Y1686356D01*
X726644Y1686356D01*
X726644Y1615644D01*
X797356Y1615644D01*
X797356Y1361644D02*
X797356Y1432356D01*
X726644Y1432356D01*
X726644Y1361644D01*
X797356Y1361644D01*
X797356Y1107644D02*
X797356Y1178356D01*
X726644Y1178356D01*
X726644Y1107644D01*
X797356Y1107644D01*
X797356Y599644D02*
X797356Y670356D01*
X726644Y670356D01*
X726644Y599644D01*
X797356Y599644D01*
X1051356Y6187644D02*
X1051356Y6258356D01*
X980644Y6258356D01*
X980644Y6187644D01*
X1051356Y6187644D01*
X1051356Y5933644D02*
X1051356Y6004356D01*
X980644Y6004356D01*
X980644Y5933644D01*
X1051356Y5933644D01*
X1051356Y5679644D02*
X1051356Y5750356D01*
X980644Y5750356D01*
X980644Y5679644D01*
X1051356Y5679644D01*
X1051356Y5425644D02*
X1051356Y5496356D01*
X980644Y5496356D01*
X980644Y5425644D01*
X1051356Y5425644D01*
X1051356Y5171644D02*
X1051356Y5242356D01*
X980644Y5242356D01*
X980644Y5171644D01*
X1051356Y5171644D01*
X1051356Y4917644D02*
X1051356Y4988356D01*
X980644Y4988356D01*
X980644Y4917644D01*
X1051356Y4917644D01*
X1051356Y4663644D02*
X1051356Y4734356D01*
X980644Y4734356D01*
X980644Y4663644D01*
X1051356Y4663644D01*
X1051356Y4409644D02*
X1051356Y4480356D01*
X980644Y4480356D01*
X980644Y4409644D01*
X1051356Y4409644D01*
X1051356Y4155644D02*
X1051356Y4226356D01*
X980644Y4226356D01*
X980644Y4155644D01*
X1051356Y4155644D01*
X1051356Y2631644D02*
X1051356Y2702356D01*
X980644Y2702356D01*
X980644Y2631644D01*
X1051356Y2631644D01*
X1051356Y2377644D02*
X1051356Y2448356D01*
X980644Y2448356D01*
X980644Y2377644D01*
X1051356Y2377644D01*
X1051356Y2123644D02*
X1051356Y2194356D01*
X980644Y2194356D01*
X980644Y2123644D01*
X1051356Y2123644D01*
X1051356Y1869644D02*
X1051356Y1940356D01*
X980644Y1940356D01*
X980644Y1869644D01*
X1051356Y1869644D01*
X1305356Y6187644D02*
X1305356Y6258356D01*
X1234644Y6258356D01*
X1234644Y6187644D01*
X1305356Y6187644D01*
X1305356Y5933644D02*
X1305356Y6004356D01*
X1234644Y6004356D01*
X1234644Y5933644D01*
X1305356Y5933644D01*
X1305356Y5679644D02*
X1305356Y5750356D01*
X1234644Y5750356D01*
X1234644Y5679644D01*
X1305356Y5679644D01*
X1305356Y5425644D02*
X1305356Y5496356D01*
X1234644Y5496356D01*
X1234644Y5425644D01*
X1305356Y5425644D01*
X1305356Y5171644D02*
X1305356Y5242356D01*
X1234644Y5242356D01*
X1234644Y5171644D01*
X1305356Y5171644D01*
X1305356Y4917644D02*
X1305356Y4988356D01*
X1234644Y4988356D01*
X1234644Y4917644D01*
X1305356Y4917644D01*
X1305356Y4663644D02*
X1305356Y4734356D01*
X1234644Y4734356D01*
X1234644Y4663644D01*
X1305356Y4663644D01*
X1305356Y4409644D02*
X1305356Y4480356D01*
X1234644Y4480356D01*
X1234644Y4409644D01*
X1305356Y4409644D01*
X1305356Y4155644D02*
X1305356Y4226356D01*
X1234644Y4226356D01*
X1234644Y4155644D01*
X1305356Y4155644D01*
X1305356Y2631644D02*
X1305356Y2702356D01*
X1234644Y2702356D01*
X1234644Y2631644D01*
X1305356Y2631644D01*
X1305356Y2377644D02*
X1305356Y2448356D01*
X1234644Y2448356D01*
X1234644Y2377644D01*
X1305356Y2377644D01*
X1305356Y2123644D02*
X1305356Y2194356D01*
X1234644Y2194356D01*
X1234644Y2123644D01*
X1305356Y2123644D01*
X1305356Y1869644D02*
X1305356Y1940356D01*
X1234644Y1940356D01*
X1234644Y1869644D01*
X1305356Y1869644D01*
X1559356Y4917644D02*
X1559356Y4988356D01*
X1488644Y4988356D01*
X1488644Y4917644D01*
X1559356Y4917644D01*
X1767356Y1996644D02*
X1767356Y2067356D01*
X1696644Y2067356D01*
X1696644Y1996644D01*
X1767356Y1996644D01*
X1767356Y1742644D02*
X1767356Y1813356D01*
X1696644Y1813356D01*
X1696644Y1742644D01*
X1767356Y1742644D01*
X1767356Y1488644D02*
X1767356Y1559356D01*
X1696644Y1559356D01*
X1696644Y1488644D01*
X1767356Y1488644D01*
X1767356Y1234644D02*
X1767356Y1305356D01*
X1696644Y1305356D01*
X1696644Y1234644D01*
X1767356Y1234644D01*
X1767356Y980644D02*
X1767356Y1051356D01*
X1696644Y1051356D01*
X1696644Y980644D01*
X1767356Y980644D01*
X1813356Y4917644D02*
X1813356Y4988356D01*
X1742644Y4988356D01*
X1742644Y4917644D01*
X1813356Y4917644D01*
X2067356Y6187644D02*
X2067356Y6258356D01*
X1996644Y6258356D01*
X1996644Y6187644D01*
X2067356Y6187644D01*
X2067356Y5933644D02*
X2067356Y6004356D01*
X1996644Y6004356D01*
X1996644Y5933644D01*
X2067356Y5933644D01*
X2067356Y5679644D02*
X2067356Y5750356D01*
X1996644Y5750356D01*
X1996644Y5679644D01*
X2067356Y5679644D01*
X2067356Y5425644D02*
X2067356Y5496356D01*
X1996644Y5496356D01*
X1996644Y5425644D01*
X2067356Y5425644D01*
X2067356Y5171644D02*
X2067356Y5242356D01*
X1996644Y5242356D01*
X1996644Y5171644D01*
X2067356Y5171644D01*
X2067356Y4917644D02*
X2067356Y4988356D01*
X1996644Y4988356D01*
X1996644Y4917644D01*
X2067356Y4917644D01*
X2067356Y4663644D02*
X2067356Y4734356D01*
X1996644Y4734356D01*
X1996644Y4663644D01*
X2067356Y4663644D01*
X2067356Y4409644D02*
X2067356Y4480356D01*
X1996644Y4480356D01*
X1996644Y4409644D01*
X2067356Y4409644D01*
X2067356Y4155644D02*
X2067356Y4226356D01*
X1996644Y4226356D01*
X1996644Y4155644D01*
X2067356Y4155644D01*
X2067356Y3901644D02*
X2067356Y3972356D01*
X1996644Y3972356D01*
X1996644Y3901644D01*
X2067356Y3901644D01*
X2067356Y3647644D02*
X2067356Y3718356D01*
X1996644Y3718356D01*
X1996644Y3647644D01*
X2067356Y3647644D01*
X2067356Y3393644D02*
X2067356Y3464356D01*
X1996644Y3464356D01*
X1996644Y3393644D01*
X2067356Y3393644D01*
X2067356Y3139644D02*
X2067356Y3210356D01*
X1996644Y3210356D01*
X1996644Y3139644D01*
X2067356Y3139644D01*
X2067356Y2885644D02*
X2067356Y2956356D01*
X1996644Y2956356D01*
X1996644Y2885644D01*
X2067356Y2885644D01*
X2067356Y2631644D02*
X2067356Y2702356D01*
X1996644Y2702356D01*
X1996644Y2631644D01*
X2067356Y2631644D01*
X2067356Y2377644D02*
X2067356Y2448356D01*
X1996644Y2448356D01*
X1996644Y2377644D01*
X2067356Y2377644D01*
X2067356Y2123644D02*
X2067356Y2194356D01*
X1996644Y2194356D01*
X1996644Y2123644D01*
X2067356Y2123644D01*
X2067356Y1869644D02*
X2067356Y1940356D01*
X1996644Y1940356D01*
X1996644Y1869644D01*
X2067356Y1869644D01*
X2067356Y1615644D02*
X2067356Y1686356D01*
X1996644Y1686356D01*
X1996644Y1615644D01*
X2067356Y1615644D01*
X2067356Y1361644D02*
X2067356Y1432356D01*
X1996644Y1432356D01*
X1996644Y1361644D01*
X2067356Y1361644D01*
X2067356Y1107644D02*
X2067356Y1178356D01*
X1996644Y1178356D01*
X1996644Y1107644D01*
X2067356Y1107644D01*
X2067356Y853644D02*
X2067356Y924356D01*
X1996644Y924356D01*
X1996644Y853644D01*
X2067356Y853644D01*
X2067356Y599644D02*
X2067356Y670356D01*
X1996644Y670356D01*
X1996644Y599644D01*
X2067356Y599644D01*
X2032000Y326000D02*
X2087000Y381000D01*
X2032000Y436000D01*
X1977000Y381000D01*
X2032000Y326000D01*
X2736342Y5531104D02*
X2876042Y5391404D01*
X2876042Y5531104D02*
X2736342Y5391404D01*
X2876042Y5461254D02*
G75*
G03X2876042Y5461254I-69850J0D01*
G01*
X2986532Y5280914D02*
X3126232Y5141214D01*
X3126232Y5280914D02*
X2986532Y5141214D01*
X3126232Y5211064D02*
G75*
G03X3126232Y5211064I-69850J0D01*
G01*
X3486150Y5530850D02*
X3625850Y5391150D01*
X3625850Y5530850D02*
X3486150Y5391150D01*
X3625850Y5461000D02*
G75*
G03X3625850Y5461000I-69850J0D01*
G01*
X3985768Y5280914D02*
X4125468Y5141214D01*
X4125468Y5280914D02*
X3985768Y5141214D01*
X4125468Y5211064D02*
G75*
G03X4125468Y5211064I-69850J0D01*
G01*
X4235958Y5531104D02*
X4375658Y5391404D01*
X4375658Y5531104D02*
X4235958Y5391404D01*
X4375658Y5461254D02*
G75*
G03X4375658Y5461254I-69850J0D01*
G01*
X5149342Y5531104D02*
X5289042Y5391404D01*
X5289042Y5531104D02*
X5149342Y5391404D01*
X5289042Y5461254D02*
G75*
G03X5289042Y5461254I-69850J0D01*
G01*
X5399532Y5280914D02*
X5539232Y5141214D01*
X5539232Y5280914D02*
X5399532Y5141214D01*
X5539232Y5211064D02*
G75*
G03X5539232Y5211064I-69850J0D01*
G01*
X5899150Y5530850D02*
X6038850Y5391150D01*
X6038850Y5530850D02*
X5899150Y5391150D01*
X6038850Y5461000D02*
G75*
G03X6038850Y5461000I-69850J0D01*
G01*
X6398768Y5280914D02*
X6538468Y5141214D01*
X6538468Y5280914D02*
X6398768Y5141214D01*
X6538468Y5211064D02*
G75*
G03X6538468Y5211064I-69850J0D01*
G01*
X6648958Y5531104D02*
X6788658Y5391404D01*
X6788658Y5531104D02*
X6648958Y5391404D01*
X6788658Y5461254D02*
G75*
G03X6788658Y5461254I-69850J0D01*
G01*
X2806000Y2169000D02*
X3036000Y1939000D01*
X3036000Y2169000D02*
X2806000Y1939000D01*
X2921000Y2169000D02*
X2921000Y1939000D01*
X2806000Y2054000D02*
X3036000Y2054000D01*
X2806000Y855000D02*
X3036000Y625000D01*
X3036000Y855000D02*
X2806000Y625000D01*
X2921000Y855000D02*
X2921000Y625000D01*
X2806000Y740000D02*
X3036000Y740000D01*
X2986024Y6530594D02*
X3125724Y6390894D01*
X3125724Y6530594D02*
X2986024Y6390894D01*
X3105266Y6411352D02*
X3105266Y6510136D01*
X3006482Y6510136D01*
X3006482Y6411352D01*
X3105266Y6411352D01*
X3986276Y6530594D02*
X4125976Y6390894D01*
X4125976Y6530594D02*
X3986276Y6390894D01*
X4105518Y6411352D02*
X4105518Y6510136D01*
X4006734Y6510136D01*
X4006734Y6411352D01*
X4105518Y6411352D01*
X5399024Y6530594D02*
X5538724Y6390894D01*
X5538724Y6530594D02*
X5399024Y6390894D01*
X5518266Y6411352D02*
X5518266Y6510136D01*
X5419482Y6510136D01*
X5419482Y6411352D01*
X5518266Y6411352D01*
X6399276Y6530594D02*
X6538976Y6390894D01*
X6538976Y6530594D02*
X6399276Y6390894D01*
X6518518Y6411352D02*
X6518518Y6510136D01*
X6419734Y6510136D01*
X6419734Y6411352D01*
X6518518Y6411352D01*
X1110000Y3589000D02*
X1430000Y3269000D01*
X1430000Y3589000D02*
X1110000Y3269000D01*
X1270000Y3269000D02*
X1430000Y3429000D01*
X1270000Y3589000D01*
X1110000Y3429000D01*
X1270000Y3269000D01*
X6317000Y795000D02*
X6637000Y475000D01*
X6637000Y795000D02*
X6317000Y475000D01*
X6477000Y475000D02*
X6637000Y635000D01*
X6477000Y795000D01*
X6317000Y635000D01*
X6477000Y475000D01*
D12*
X278928Y-854214D02*
X278928Y-554214D01*
X350357Y-554214D01*
X393214Y-568500D01*
X421786Y-597072D01*
X436071Y-625643D01*
X450357Y-682786D01*
X450357Y-725643D01*
X436071Y-782786D01*
X421786Y-811357D01*
X393214Y-839929D01*
X350357Y-854214D01*
X278928Y-854214D01*
X578928Y-854214D02*
X578928Y-654214D01*
X578928Y-711357D02*
X593214Y-682786D01*
X607500Y-668500D01*
X636071Y-654214D01*
X664643Y-654214D01*
X764643Y-854214D02*
X764643Y-654214D01*
X764643Y-554214D02*
X750357Y-568500D01*
X764643Y-582786D01*
X778928Y-568500D01*
X764643Y-554214D01*
X764643Y-582786D01*
X950357Y-854214D02*
X921786Y-839929D01*
X907500Y-811357D01*
X907500Y-554214D01*
X1107500Y-854214D02*
X1078928Y-839929D01*
X1064643Y-811357D01*
X1064643Y-554214D01*
X1450357Y-854214D02*
X1450357Y-554214D01*
X1550357Y-768500D01*
X1650357Y-554214D01*
X1650357Y-854214D01*
X1921786Y-854214D02*
X1921786Y-697072D01*
X1907500Y-668500D01*
X1878928Y-654214D01*
X1821786Y-654214D01*
X1793214Y-668500D01*
X1921786Y-839929D02*
X1893214Y-854214D01*
X1821786Y-854214D01*
X1793214Y-839929D01*
X1778928Y-811357D01*
X1778928Y-782786D01*
X1793214Y-754214D01*
X1821786Y-739929D01*
X1893214Y-739929D01*
X1921786Y-725643D01*
X2064643Y-654214D02*
X2064643Y-954214D01*
X2064643Y-668500D02*
X2093214Y-654214D01*
X2150357Y-654214D01*
X2178928Y-668500D01*
X2193214Y-682786D01*
X2207500Y-711357D01*
X2207500Y-797071D01*
X2193214Y-825643D01*
X2178928Y-839929D01*
X2150357Y-854214D01*
X2093214Y-854214D01*
X2064643Y-839929D01*
X2336071Y-825643D02*
X2350357Y-839929D01*
X2336071Y-854214D01*
X2321786Y-839929D01*
X2336071Y-825643D01*
X2336071Y-854214D01*
X2336071Y-668500D02*
X2350357Y-682786D01*
X2336071Y-697072D01*
X2321786Y-682786D01*
X2336071Y-668500D01*
X2336071Y-697072D01*
X-67500Y-1318500D02*
X-7500Y-1378500D01*
X-7500Y-1318500D02*
X-67500Y-1378500D01*
X336071Y-1184214D02*
X364643Y-1184214D01*
X393214Y-1198500D01*
X407500Y-1212786D01*
X421786Y-1241357D01*
X436071Y-1298500D01*
X436071Y-1369929D01*
X421786Y-1427071D01*
X407500Y-1455643D01*
X393214Y-1469929D01*
X364643Y-1484214D01*
X336071Y-1484214D01*
X307500Y-1469929D01*
X293214Y-1455643D01*
X278928Y-1427071D01*
X264643Y-1369929D01*
X264643Y-1298500D01*
X278928Y-1241357D01*
X293214Y-1212786D01*
X307500Y-1198500D01*
X336071Y-1184214D01*
X564643Y-1455643D02*
X578928Y-1469929D01*
X564643Y-1484214D01*
X550357Y-1469929D01*
X564643Y-1455643D01*
X564643Y-1484214D01*
X836071Y-1184214D02*
X778928Y-1184214D01*
X750357Y-1198500D01*
X736071Y-1212786D01*
X707500Y-1255643D01*
X693214Y-1312786D01*
X693214Y-1427071D01*
X707500Y-1455643D01*
X721786Y-1469929D01*
X750357Y-1484214D01*
X807500Y-1484214D01*
X836071Y-1469929D01*
X850357Y-1455643D01*
X864643Y-1427071D01*
X864643Y-1355643D01*
X850357Y-1327072D01*
X836071Y-1312786D01*
X807500Y-1298500D01*
X750357Y-1298500D01*
X721786Y-1312786D01*
X707500Y-1327072D01*
X693214Y-1355643D01*
X1050357Y-1184214D02*
X1078928Y-1184214D01*
X1107500Y-1198500D01*
X1121786Y-1212786D01*
X1136071Y-1241357D01*
X1150357Y-1298500D01*
X1150357Y-1369929D01*
X1136071Y-1427071D01*
X1121786Y-1455643D01*
X1107500Y-1469929D01*
X1078928Y-1484214D01*
X1050357Y-1484214D01*
X1021786Y-1469929D01*
X1007500Y-1455643D01*
X993214Y-1427071D01*
X978928Y-1369929D01*
X978928Y-1298500D01*
X993214Y-1241357D01*
X1007500Y-1212786D01*
X1021786Y-1198500D01*
X1050357Y-1184214D01*
X1278928Y-1484214D02*
X1278928Y-1284214D01*
X1278928Y-1312786D02*
X1293214Y-1298500D01*
X1321786Y-1284214D01*
X1364643Y-1284214D01*
X1393214Y-1298500D01*
X1407500Y-1327072D01*
X1407500Y-1484214D01*
X1407500Y-1327072D02*
X1421786Y-1298500D01*
X1450357Y-1284214D01*
X1493214Y-1284214D01*
X1521786Y-1298500D01*
X1536071Y-1327072D01*
X1536071Y-1484214D01*
X1678928Y-1484214D02*
X1678928Y-1284214D01*
X1678928Y-1312786D02*
X1693214Y-1298500D01*
X1721786Y-1284214D01*
X1764643Y-1284214D01*
X1793214Y-1298500D01*
X1807500Y-1327072D01*
X1807500Y-1484214D01*
X1807500Y-1327072D02*
X1821786Y-1298500D01*
X1850357Y-1284214D01*
X1893214Y-1284214D01*
X1921786Y-1298500D01*
X1936071Y-1327072D01*
X1936071Y-1484214D01*
X2521786Y-1169929D02*
X2264643Y-1555643D01*
X2907500Y-1184214D02*
X2936071Y-1184214D01*
X2964643Y-1198500D01*
X2978928Y-1212786D01*
X2993214Y-1241357D01*
X3007500Y-1298500D01*
X3007500Y-1369929D01*
X2993214Y-1427071D01*
X2978928Y-1455643D01*
X2964643Y-1469929D01*
X2936071Y-1484214D01*
X2907500Y-1484214D01*
X2878928Y-1469929D01*
X2864643Y-1455643D01*
X2850357Y-1427071D01*
X2836071Y-1369929D01*
X2836071Y-1298500D01*
X2850357Y-1241357D01*
X2864643Y-1212786D01*
X2878928Y-1198500D01*
X2907500Y-1184214D01*
X3136071Y-1455643D02*
X3150357Y-1469929D01*
X3136071Y-1484214D01*
X3121786Y-1469929D01*
X3136071Y-1455643D01*
X3136071Y-1484214D01*
X3336071Y-1184214D02*
X3364643Y-1184214D01*
X3393214Y-1198500D01*
X3407500Y-1212786D01*
X3421786Y-1241357D01*
X3436071Y-1298500D01*
X3436071Y-1369929D01*
X3421786Y-1427071D01*
X3407500Y-1455643D01*
X3393214Y-1469929D01*
X3364643Y-1484214D01*
X3336071Y-1484214D01*
X3307500Y-1469929D01*
X3293214Y-1455643D01*
X3278928Y-1427071D01*
X3264643Y-1369929D01*
X3264643Y-1298500D01*
X3278928Y-1241357D01*
X3293214Y-1212786D01*
X3307500Y-1198500D01*
X3336071Y-1184214D01*
X3550357Y-1212786D02*
X3564643Y-1198500D01*
X3593214Y-1184214D01*
X3664643Y-1184214D01*
X3693214Y-1198500D01*
X3707500Y-1212786D01*
X3721786Y-1241357D01*
X3721786Y-1269929D01*
X3707500Y-1312786D01*
X3536071Y-1484214D01*
X3721786Y-1484214D01*
X3978928Y-1284214D02*
X3978928Y-1484214D01*
X3907500Y-1169929D02*
X3836071Y-1384214D01*
X4021786Y-1384214D01*
X4121786Y-1184214D02*
X4121786Y-1241357D01*
X4236071Y-1184214D02*
X4236071Y-1241357D01*
X4678928Y-1598500D02*
X4664643Y-1584214D01*
X4636071Y-1541357D01*
X4621786Y-1512786D01*
X4607500Y-1469929D01*
X4593214Y-1398500D01*
X4593214Y-1341357D01*
X4607500Y-1269929D01*
X4621786Y-1227072D01*
X4636071Y-1198500D01*
X4664643Y-1155643D01*
X4678928Y-1141357D01*
X4778928Y-1212786D02*
X4793214Y-1198500D01*
X4821786Y-1184214D01*
X4893214Y-1184214D01*
X4921786Y-1198500D01*
X4936071Y-1212786D01*
X4950357Y-1241357D01*
X4950357Y-1269929D01*
X4936071Y-1312786D01*
X4764643Y-1484214D01*
X4950357Y-1484214D01*
X5307500Y-1484214D02*
X5307500Y-1184214D01*
X5436071Y-1484214D02*
X5436071Y-1327072D01*
X5421786Y-1298500D01*
X5393214Y-1284214D01*
X5350357Y-1284214D01*
X5321786Y-1298500D01*
X5307500Y-1312786D01*
X5621786Y-1484214D02*
X5593214Y-1469929D01*
X5578928Y-1455643D01*
X5564643Y-1427071D01*
X5564643Y-1341357D01*
X5578928Y-1312786D01*
X5593214Y-1298500D01*
X5621786Y-1284214D01*
X5664643Y-1284214D01*
X5693214Y-1298500D01*
X5707500Y-1312786D01*
X5721786Y-1341357D01*
X5721786Y-1427071D01*
X5707500Y-1455643D01*
X5693214Y-1469929D01*
X5664643Y-1484214D01*
X5621786Y-1484214D01*
X5893214Y-1484214D02*
X5864643Y-1469929D01*
X5850357Y-1441357D01*
X5850357Y-1184214D01*
X6121786Y-1469929D02*
X6093214Y-1484214D01*
X6036071Y-1484214D01*
X6007500Y-1469929D01*
X5993214Y-1441357D01*
X5993214Y-1327072D01*
X6007500Y-1298500D01*
X6036071Y-1284214D01*
X6093214Y-1284214D01*
X6121786Y-1298500D01*
X6136071Y-1327072D01*
X6136071Y-1355643D01*
X5993214Y-1384214D01*
X6250357Y-1469929D02*
X6278928Y-1484214D01*
X6336071Y-1484214D01*
X6364643Y-1469929D01*
X6378928Y-1441357D01*
X6378928Y-1427071D01*
X6364643Y-1398500D01*
X6336071Y-1384214D01*
X6293214Y-1384214D01*
X6264643Y-1369929D01*
X6250357Y-1341357D01*
X6250357Y-1327072D01*
X6264643Y-1298500D01*
X6293214Y-1284214D01*
X6336071Y-1284214D01*
X6364643Y-1298500D01*
X6478928Y-1598500D02*
X6493214Y-1584214D01*
X6521786Y-1541357D01*
X6536071Y-1512786D01*
X6550357Y-1469929D01*
X6564643Y-1398500D01*
X6564643Y-1341357D01*
X6550357Y-1269929D01*
X6536071Y-1227072D01*
X6521786Y-1198500D01*
X6493214Y-1155643D01*
X6478928Y-1141357D01*
X-7500Y-1744500D02*
G75*
G03X-7500Y-1744500I-40000J0D01*
G01*
X336071Y-1580214D02*
X364643Y-1580214D01*
X393214Y-1594500D01*
X407500Y-1608786D01*
X421786Y-1637357D01*
X436071Y-1694500D01*
X436071Y-1765929D01*
X421786Y-1823071D01*
X407500Y-1851643D01*
X393214Y-1865929D01*
X364643Y-1880214D01*
X336071Y-1880214D01*
X307500Y-1865929D01*
X293214Y-1851643D01*
X278928Y-1823071D01*
X264643Y-1765929D01*
X264643Y-1694500D01*
X278928Y-1637357D01*
X293214Y-1608786D01*
X307500Y-1594500D01*
X336071Y-1580214D01*
X564643Y-1851643D02*
X578928Y-1865929D01*
X564643Y-1880214D01*
X550357Y-1865929D01*
X564643Y-1851643D01*
X564643Y-1880214D01*
X750357Y-1708786D02*
X721786Y-1694500D01*
X707500Y-1680214D01*
X693214Y-1651643D01*
X693214Y-1637357D01*
X707500Y-1608786D01*
X721786Y-1594500D01*
X750357Y-1580214D01*
X807500Y-1580214D01*
X836071Y-1594500D01*
X850357Y-1608786D01*
X864643Y-1637357D01*
X864643Y-1651643D01*
X850357Y-1680214D01*
X836071Y-1694500D01*
X807500Y-1708786D01*
X750357Y-1708786D01*
X721786Y-1723071D01*
X707500Y-1737357D01*
X693214Y-1765929D01*
X693214Y-1823071D01*
X707500Y-1851643D01*
X721786Y-1865929D01*
X750357Y-1880214D01*
X807500Y-1880214D01*
X836071Y-1865929D01*
X850357Y-1851643D01*
X864643Y-1823071D01*
X864643Y-1765929D01*
X850357Y-1737357D01*
X836071Y-1723071D01*
X807500Y-1708786D01*
X1050357Y-1580214D02*
X1078928Y-1580214D01*
X1107500Y-1594500D01*
X1121786Y-1608786D01*
X1136071Y-1637357D01*
X1150357Y-1694500D01*
X1150357Y-1765929D01*
X1136071Y-1823071D01*
X1121786Y-1851643D01*
X1107500Y-1865929D01*
X1078928Y-1880214D01*
X1050357Y-1880214D01*
X1021786Y-1865929D01*
X1007500Y-1851643D01*
X993214Y-1823071D01*
X978928Y-1765929D01*
X978928Y-1694500D01*
X993214Y-1637357D01*
X1007500Y-1608786D01*
X1021786Y-1594500D01*
X1050357Y-1580214D01*
X1278928Y-1880214D02*
X1278928Y-1680214D01*
X1278928Y-1708786D02*
X1293214Y-1694500D01*
X1321786Y-1680214D01*
X1364643Y-1680214D01*
X1393214Y-1694500D01*
X1407500Y-1723071D01*
X1407500Y-1880214D01*
X1407500Y-1723071D02*
X1421786Y-1694500D01*
X1450357Y-1680214D01*
X1493214Y-1680214D01*
X1521786Y-1694500D01*
X1536071Y-1723071D01*
X1536071Y-1880214D01*
X1678928Y-1880214D02*
X1678928Y-1680214D01*
X1678928Y-1708786D02*
X1693214Y-1694500D01*
X1721786Y-1680214D01*
X1764643Y-1680214D01*
X1793214Y-1694500D01*
X1807500Y-1723071D01*
X1807500Y-1880214D01*
X1807500Y-1723071D02*
X1821786Y-1694500D01*
X1850357Y-1680214D01*
X1893214Y-1680214D01*
X1921786Y-1694500D01*
X1936071Y-1723071D01*
X1936071Y-1880214D01*
X2521786Y-1565929D02*
X2264643Y-1951643D01*
X2907500Y-1580214D02*
X2936071Y-1580214D01*
X2964643Y-1594500D01*
X2978928Y-1608786D01*
X2993214Y-1637357D01*
X3007500Y-1694500D01*
X3007500Y-1765929D01*
X2993214Y-1823071D01*
X2978928Y-1851643D01*
X2964643Y-1865929D01*
X2936071Y-1880214D01*
X2907500Y-1880214D01*
X2878928Y-1865929D01*
X2864643Y-1851643D01*
X2850357Y-1823071D01*
X2836071Y-1765929D01*
X2836071Y-1694500D01*
X2850357Y-1637357D01*
X2864643Y-1608786D01*
X2878928Y-1594500D01*
X2907500Y-1580214D01*
X3136071Y-1851643D02*
X3150357Y-1865929D01*
X3136071Y-1880214D01*
X3121786Y-1865929D01*
X3136071Y-1851643D01*
X3136071Y-1880214D01*
X3336071Y-1580214D02*
X3364643Y-1580214D01*
X3393214Y-1594500D01*
X3407500Y-1608786D01*
X3421786Y-1637357D01*
X3436071Y-1694500D01*
X3436071Y-1765929D01*
X3421786Y-1823071D01*
X3407500Y-1851643D01*
X3393214Y-1865929D01*
X3364643Y-1880214D01*
X3336071Y-1880214D01*
X3307500Y-1865929D01*
X3293214Y-1851643D01*
X3278928Y-1823071D01*
X3264643Y-1765929D01*
X3264643Y-1694500D01*
X3278928Y-1637357D01*
X3293214Y-1608786D01*
X3307500Y-1594500D01*
X3336071Y-1580214D01*
X3536071Y-1580214D02*
X3721786Y-1580214D01*
X3621786Y-1694500D01*
X3664643Y-1694500D01*
X3693214Y-1708786D01*
X3707500Y-1723071D01*
X3721786Y-1751643D01*
X3721786Y-1823071D01*
X3707500Y-1851643D01*
X3693214Y-1865929D01*
X3664643Y-1880214D01*
X3578928Y-1880214D01*
X3550357Y-1865929D01*
X3536071Y-1851643D01*
X4007500Y-1880214D02*
X3836071Y-1880214D01*
X3921786Y-1880214D02*
X3921786Y-1580214D01*
X3893214Y-1623071D01*
X3864643Y-1651643D01*
X3836071Y-1665929D01*
X4121786Y-1580214D02*
X4121786Y-1637357D01*
X4236071Y-1580214D02*
X4236071Y-1637357D01*
X4678928Y-1994500D02*
X4664643Y-1980214D01*
X4636071Y-1937357D01*
X4621786Y-1908786D01*
X4607500Y-1865929D01*
X4593214Y-1794500D01*
X4593214Y-1737357D01*
X4607500Y-1665929D01*
X4621786Y-1623071D01*
X4636071Y-1594500D01*
X4664643Y-1551643D01*
X4678928Y-1537357D01*
X4950357Y-1880214D02*
X4778928Y-1880214D01*
X4864643Y-1880214D02*
X4864643Y-1580214D01*
X4836071Y-1623071D01*
X4807500Y-1651643D01*
X4778928Y-1665929D01*
X5121786Y-1708786D02*
X5093214Y-1694500D01*
X5078928Y-1680214D01*
X5064643Y-1651643D01*
X5064643Y-1637357D01*
X5078928Y-1608786D01*
X5093214Y-1594500D01*
X5121786Y-1580214D01*
X5178928Y-1580214D01*
X5207500Y-1594500D01*
X5221786Y-1608786D01*
X5236071Y-1637357D01*
X5236071Y-1651643D01*
X5221786Y-1680214D01*
X5207500Y-1694500D01*
X5178928Y-1708786D01*
X5121786Y-1708786D01*
X5093214Y-1723071D01*
X5078928Y-1737357D01*
X5064643Y-1765929D01*
X5064643Y-1823071D01*
X5078928Y-1851643D01*
X5093214Y-1865929D01*
X5121786Y-1880214D01*
X5178928Y-1880214D01*
X5207500Y-1865929D01*
X5221786Y-1851643D01*
X5236071Y-1823071D01*
X5236071Y-1765929D01*
X5221786Y-1737357D01*
X5207500Y-1723071D01*
X5178928Y-1708786D01*
X5593214Y-1880214D02*
X5593214Y-1580214D01*
X5721786Y-1880214D02*
X5721786Y-1723071D01*
X5707500Y-1694500D01*
X5678928Y-1680214D01*
X5636071Y-1680214D01*
X5607500Y-1694500D01*
X5593214Y-1708786D01*
X5907500Y-1880214D02*
X5878928Y-1865929D01*
X5864643Y-1851643D01*
X5850357Y-1823071D01*
X5850357Y-1737357D01*
X5864643Y-1708786D01*
X5878928Y-1694500D01*
X5907500Y-1680214D01*
X5950357Y-1680214D01*
X5978928Y-1694500D01*
X5993214Y-1708786D01*
X6007500Y-1737357D01*
X6007500Y-1823071D01*
X5993214Y-1851643D01*
X5978928Y-1865929D01*
X5950357Y-1880214D01*
X5907500Y-1880214D01*
X6178928Y-1880214D02*
X6150357Y-1865929D01*
X6136071Y-1837357D01*
X6136071Y-1580214D01*
X6407500Y-1865929D02*
X6378928Y-1880214D01*
X6321786Y-1880214D01*
X6293214Y-1865929D01*
X6278928Y-1837357D01*
X6278928Y-1723071D01*
X6293214Y-1694500D01*
X6321786Y-1680214D01*
X6378928Y-1680214D01*
X6407500Y-1694500D01*
X6421786Y-1723071D01*
X6421786Y-1751643D01*
X6278928Y-1780214D01*
X6536071Y-1865929D02*
X6564643Y-1880214D01*
X6621786Y-1880214D01*
X6650357Y-1865929D01*
X6664643Y-1837357D01*
X6664643Y-1823071D01*
X6650357Y-1794500D01*
X6621786Y-1780214D01*
X6578928Y-1780214D01*
X6550357Y-1765929D01*
X6536071Y-1737357D01*
X6536071Y-1723071D01*
X6550357Y-1694500D01*
X6578928Y-1680214D01*
X6621786Y-1680214D01*
X6650357Y-1694500D01*
X6764643Y-1994500D02*
X6778928Y-1980214D01*
X6807500Y-1937357D01*
X6821786Y-1908786D01*
X6836071Y-1865929D01*
X6850357Y-1794500D01*
X6850357Y-1737357D01*
X6836071Y-1665929D01*
X6821786Y-1623071D01*
X6807500Y-1594500D01*
X6778928Y-1551643D01*
X6764643Y-1537357D01*
X-52500Y-2095500D02*
X-52500Y-2185500D01*
X-97500Y-2140500D02*
X-7500Y-2140500D01*
X336071Y-1976214D02*
X364643Y-1976214D01*
X393214Y-1990500D01*
X407500Y-2004786D01*
X421786Y-2033357D01*
X436071Y-2090500D01*
X436071Y-2161929D01*
X421786Y-2219072D01*
X407500Y-2247643D01*
X393214Y-2261929D01*
X364643Y-2276214D01*
X336071Y-2276214D01*
X307500Y-2261929D01*
X293214Y-2247643D01*
X278928Y-2219072D01*
X264643Y-2161929D01*
X264643Y-2090500D01*
X278928Y-2033357D01*
X293214Y-2004786D01*
X307500Y-1990500D01*
X336071Y-1976214D01*
X564643Y-2247643D02*
X578928Y-2261929D01*
X564643Y-2276214D01*
X550357Y-2261929D01*
X564643Y-2247643D01*
X564643Y-2276214D01*
X721786Y-2276214D02*
X778928Y-2276214D01*
X807500Y-2261929D01*
X821786Y-2247643D01*
X850357Y-2204786D01*
X864643Y-2147643D01*
X864643Y-2033357D01*
X850357Y-2004786D01*
X836071Y-1990500D01*
X807500Y-1976214D01*
X750357Y-1976214D01*
X721786Y-1990500D01*
X707500Y-2004786D01*
X693214Y-2033357D01*
X693214Y-2104786D01*
X707500Y-2133357D01*
X721786Y-2147643D01*
X750357Y-2161929D01*
X807500Y-2161929D01*
X836071Y-2147643D01*
X850357Y-2133357D01*
X864643Y-2104786D01*
X1050357Y-1976214D02*
X1078928Y-1976214D01*
X1107500Y-1990500D01*
X1121786Y-2004786D01*
X1136071Y-2033357D01*
X1150357Y-2090500D01*
X1150357Y-2161929D01*
X1136071Y-2219072D01*
X1121786Y-2247643D01*
X1107500Y-2261929D01*
X1078928Y-2276214D01*
X1050357Y-2276214D01*
X1021786Y-2261929D01*
X1007500Y-2247643D01*
X993214Y-2219072D01*
X978928Y-2161929D01*
X978928Y-2090500D01*
X993214Y-2033357D01*
X1007500Y-2004786D01*
X1021786Y-1990500D01*
X1050357Y-1976214D01*
X1278928Y-2276214D02*
X1278928Y-2076214D01*
X1278928Y-2104786D02*
X1293214Y-2090500D01*
X1321786Y-2076214D01*
X1364643Y-2076214D01*
X1393214Y-2090500D01*
X1407500Y-2119072D01*
X1407500Y-2276214D01*
X1407500Y-2119072D02*
X1421786Y-2090500D01*
X1450357Y-2076214D01*
X1493214Y-2076214D01*
X1521786Y-2090500D01*
X1536071Y-2119072D01*
X1536071Y-2276214D01*
X1678928Y-2276214D02*
X1678928Y-2076214D01*
X1678928Y-2104786D02*
X1693214Y-2090500D01*
X1721786Y-2076214D01*
X1764643Y-2076214D01*
X1793214Y-2090500D01*
X1807500Y-2119072D01*
X1807500Y-2276214D01*
X1807500Y-2119072D02*
X1821786Y-2090500D01*
X1850357Y-2076214D01*
X1893214Y-2076214D01*
X1921786Y-2090500D01*
X1936071Y-2119072D01*
X1936071Y-2276214D01*
X2521786Y-1961929D02*
X2264643Y-2347643D01*
X2907500Y-1976214D02*
X2936071Y-1976214D01*
X2964643Y-1990500D01*
X2978928Y-2004786D01*
X2993214Y-2033357D01*
X3007500Y-2090500D01*
X3007500Y-2161929D01*
X2993214Y-2219072D01*
X2978928Y-2247643D01*
X2964643Y-2261929D01*
X2936071Y-2276214D01*
X2907500Y-2276214D01*
X2878928Y-2261929D01*
X2864643Y-2247643D01*
X2850357Y-2219072D01*
X2836071Y-2161929D01*
X2836071Y-2090500D01*
X2850357Y-2033357D01*
X2864643Y-2004786D01*
X2878928Y-1990500D01*
X2907500Y-1976214D01*
X3136071Y-2247643D02*
X3150357Y-2261929D01*
X3136071Y-2276214D01*
X3121786Y-2261929D01*
X3136071Y-2247643D01*
X3136071Y-2276214D01*
X3336071Y-1976214D02*
X3364643Y-1976214D01*
X3393214Y-1990500D01*
X3407500Y-2004786D01*
X3421786Y-2033357D01*
X3436071Y-2090500D01*
X3436071Y-2161929D01*
X3421786Y-2219072D01*
X3407500Y-2247643D01*
X3393214Y-2261929D01*
X3364643Y-2276214D01*
X3336071Y-2276214D01*
X3307500Y-2261929D01*
X3293214Y-2247643D01*
X3278928Y-2219072D01*
X3264643Y-2161929D01*
X3264643Y-2090500D01*
X3278928Y-2033357D01*
X3293214Y-2004786D01*
X3307500Y-1990500D01*
X3336071Y-1976214D01*
X3536071Y-1976214D02*
X3721786Y-1976214D01*
X3621786Y-2090500D01*
X3664643Y-2090500D01*
X3693214Y-2104786D01*
X3707500Y-2119072D01*
X3721786Y-2147643D01*
X3721786Y-2219072D01*
X3707500Y-2247643D01*
X3693214Y-2261929D01*
X3664643Y-2276214D01*
X3578928Y-2276214D01*
X3550357Y-2261929D01*
X3536071Y-2247643D01*
X3993214Y-1976214D02*
X3850357Y-1976214D01*
X3836071Y-2119072D01*
X3850357Y-2104786D01*
X3878928Y-2090500D01*
X3950357Y-2090500D01*
X3978928Y-2104786D01*
X3993214Y-2119072D01*
X4007500Y-2147643D01*
X4007500Y-2219072D01*
X3993214Y-2247643D01*
X3978928Y-2261929D01*
X3950357Y-2276214D01*
X3878928Y-2276214D01*
X3850357Y-2261929D01*
X3836071Y-2247643D01*
X4121786Y-1976214D02*
X4121786Y-2033357D01*
X4236071Y-1976214D02*
X4236071Y-2033357D01*
X4678928Y-2390500D02*
X4664643Y-2376214D01*
X4636071Y-2333357D01*
X4621786Y-2304786D01*
X4607500Y-2261929D01*
X4593214Y-2190500D01*
X4593214Y-2133357D01*
X4607500Y-2061929D01*
X4621786Y-2019071D01*
X4636071Y-1990500D01*
X4664643Y-1947643D01*
X4678928Y-1933357D01*
X4921786Y-2076214D02*
X4921786Y-2276214D01*
X4850357Y-1961929D02*
X4778928Y-2176214D01*
X4964643Y-2176214D01*
X5307500Y-2276214D02*
X5307500Y-1976214D01*
X5436071Y-2276214D02*
X5436071Y-2119072D01*
X5421786Y-2090500D01*
X5393214Y-2076214D01*
X5350357Y-2076214D01*
X5321786Y-2090500D01*
X5307500Y-2104786D01*
X5621786Y-2276214D02*
X5593214Y-2261929D01*
X5578928Y-2247643D01*
X5564643Y-2219072D01*
X5564643Y-2133357D01*
X5578928Y-2104786D01*
X5593214Y-2090500D01*
X5621786Y-2076214D01*
X5664643Y-2076214D01*
X5693214Y-2090500D01*
X5707500Y-2104786D01*
X5721786Y-2133357D01*
X5721786Y-2219072D01*
X5707500Y-2247643D01*
X5693214Y-2261929D01*
X5664643Y-2276214D01*
X5621786Y-2276214D01*
X5893214Y-2276214D02*
X5864643Y-2261929D01*
X5850357Y-2233357D01*
X5850357Y-1976214D01*
X6121786Y-2261929D02*
X6093214Y-2276214D01*
X6036071Y-2276214D01*
X6007500Y-2261929D01*
X5993214Y-2233357D01*
X5993214Y-2119072D01*
X6007500Y-2090500D01*
X6036071Y-2076214D01*
X6093214Y-2076214D01*
X6121786Y-2090500D01*
X6136071Y-2119072D01*
X6136071Y-2147643D01*
X5993214Y-2176214D01*
X6250357Y-2261929D02*
X6278928Y-2276214D01*
X6336071Y-2276214D01*
X6364643Y-2261929D01*
X6378928Y-2233357D01*
X6378928Y-2219072D01*
X6364643Y-2190500D01*
X6336071Y-2176214D01*
X6293214Y-2176214D01*
X6264643Y-2161929D01*
X6250357Y-2133357D01*
X6250357Y-2119072D01*
X6264643Y-2090500D01*
X6293214Y-2076214D01*
X6336071Y-2076214D01*
X6364643Y-2090500D01*
X6478928Y-2390500D02*
X6493214Y-2376214D01*
X6521786Y-2333357D01*
X6536071Y-2304786D01*
X6550357Y-2261929D01*
X6564643Y-2190500D01*
X6564643Y-2133357D01*
X6550357Y-2061929D01*
X6536071Y-2019071D01*
X6521786Y-1990500D01*
X6493214Y-1947643D01*
X6478928Y-1933357D01*
X-22144Y-2571856D02*
X-22144Y-2501144D01*
X-92856Y-2501144D01*
X-92856Y-2571856D01*
X-22144Y-2571856D01*
X436071Y-2672214D02*
X264643Y-2672214D01*
X350357Y-2672214D02*
X350357Y-2372214D01*
X321786Y-2415072D01*
X293214Y-2443643D01*
X264643Y-2457929D01*
X564643Y-2643643D02*
X578928Y-2657929D01*
X564643Y-2672214D01*
X550357Y-2657929D01*
X564643Y-2643643D01*
X564643Y-2672214D01*
X764643Y-2372214D02*
X793214Y-2372214D01*
X821786Y-2386500D01*
X836071Y-2400786D01*
X850357Y-2429357D01*
X864643Y-2486500D01*
X864643Y-2557929D01*
X850357Y-2615072D01*
X836071Y-2643643D01*
X821786Y-2657929D01*
X793214Y-2672214D01*
X764643Y-2672214D01*
X736071Y-2657929D01*
X721786Y-2643643D01*
X707500Y-2615072D01*
X693214Y-2557929D01*
X693214Y-2486500D01*
X707500Y-2429357D01*
X721786Y-2400786D01*
X736071Y-2386500D01*
X764643Y-2372214D01*
X1050357Y-2372214D02*
X1078928Y-2372214D01*
X1107500Y-2386500D01*
X1121786Y-2400786D01*
X1136071Y-2429357D01*
X1150357Y-2486500D01*
X1150357Y-2557929D01*
X1136071Y-2615072D01*
X1121786Y-2643643D01*
X1107500Y-2657929D01*
X1078928Y-2672214D01*
X1050357Y-2672214D01*
X1021786Y-2657929D01*
X1007500Y-2643643D01*
X993214Y-2615072D01*
X978928Y-2557929D01*
X978928Y-2486500D01*
X993214Y-2429357D01*
X1007500Y-2400786D01*
X1021786Y-2386500D01*
X1050357Y-2372214D01*
X1278928Y-2672214D02*
X1278928Y-2472214D01*
X1278928Y-2500786D02*
X1293214Y-2486500D01*
X1321786Y-2472214D01*
X1364643Y-2472214D01*
X1393214Y-2486500D01*
X1407500Y-2515072D01*
X1407500Y-2672214D01*
X1407500Y-2515072D02*
X1421786Y-2486500D01*
X1450357Y-2472214D01*
X1493214Y-2472214D01*
X1521786Y-2486500D01*
X1536071Y-2515072D01*
X1536071Y-2672214D01*
X1678928Y-2672214D02*
X1678928Y-2472214D01*
X1678928Y-2500786D02*
X1693214Y-2486500D01*
X1721786Y-2472214D01*
X1764643Y-2472214D01*
X1793214Y-2486500D01*
X1807500Y-2515072D01*
X1807500Y-2672214D01*
X1807500Y-2515072D02*
X1821786Y-2486500D01*
X1850357Y-2472214D01*
X1893214Y-2472214D01*
X1921786Y-2486500D01*
X1936071Y-2515072D01*
X1936071Y-2672214D01*
X2521786Y-2357929D02*
X2264643Y-2743643D01*
X2907500Y-2372214D02*
X2936071Y-2372214D01*
X2964643Y-2386500D01*
X2978928Y-2400786D01*
X2993214Y-2429357D01*
X3007500Y-2486500D01*
X3007500Y-2557929D01*
X2993214Y-2615072D01*
X2978928Y-2643643D01*
X2964643Y-2657929D01*
X2936071Y-2672214D01*
X2907500Y-2672214D01*
X2878928Y-2657929D01*
X2864643Y-2643643D01*
X2850357Y-2615072D01*
X2836071Y-2557929D01*
X2836071Y-2486500D01*
X2850357Y-2429357D01*
X2864643Y-2400786D01*
X2878928Y-2386500D01*
X2907500Y-2372214D01*
X3136071Y-2643643D02*
X3150357Y-2657929D01*
X3136071Y-2672214D01*
X3121786Y-2657929D01*
X3136071Y-2643643D01*
X3136071Y-2672214D01*
X3336071Y-2372214D02*
X3364643Y-2372214D01*
X3393214Y-2386500D01*
X3407500Y-2400786D01*
X3421786Y-2429357D01*
X3436071Y-2486500D01*
X3436071Y-2557929D01*
X3421786Y-2615072D01*
X3407500Y-2643643D01*
X3393214Y-2657929D01*
X3364643Y-2672214D01*
X3336071Y-2672214D01*
X3307500Y-2657929D01*
X3293214Y-2643643D01*
X3278928Y-2615072D01*
X3264643Y-2557929D01*
X3264643Y-2486500D01*
X3278928Y-2429357D01*
X3293214Y-2400786D01*
X3307500Y-2386500D01*
X3336071Y-2372214D01*
X3536071Y-2372214D02*
X3721786Y-2372214D01*
X3621786Y-2486500D01*
X3664643Y-2486500D01*
X3693214Y-2500786D01*
X3707500Y-2515072D01*
X3721786Y-2543643D01*
X3721786Y-2615072D01*
X3707500Y-2643643D01*
X3693214Y-2657929D01*
X3664643Y-2672214D01*
X3578928Y-2672214D01*
X3550357Y-2657929D01*
X3536071Y-2643643D01*
X3864643Y-2672214D02*
X3921786Y-2672214D01*
X3950357Y-2657929D01*
X3964643Y-2643643D01*
X3993214Y-2600786D01*
X4007500Y-2543643D01*
X4007500Y-2429357D01*
X3993214Y-2400786D01*
X3978928Y-2386500D01*
X3950357Y-2372214D01*
X3893214Y-2372214D01*
X3864643Y-2386500D01*
X3850357Y-2400786D01*
X3836071Y-2429357D01*
X3836071Y-2500786D01*
X3850357Y-2529357D01*
X3864643Y-2543643D01*
X3893214Y-2557929D01*
X3950357Y-2557929D01*
X3978928Y-2543643D01*
X3993214Y-2529357D01*
X4007500Y-2500786D01*
X4121786Y-2372214D02*
X4121786Y-2429357D01*
X4236071Y-2372214D02*
X4236071Y-2429357D01*
X4678928Y-2786500D02*
X4664643Y-2772214D01*
X4636071Y-2729357D01*
X4621786Y-2700786D01*
X4607500Y-2657929D01*
X4593214Y-2586500D01*
X4593214Y-2529357D01*
X4607500Y-2457929D01*
X4621786Y-2415072D01*
X4636071Y-2386500D01*
X4664643Y-2343643D01*
X4678928Y-2329357D01*
X4836071Y-2500786D02*
X4807500Y-2486500D01*
X4793214Y-2472214D01*
X4778928Y-2443643D01*
X4778928Y-2429357D01*
X4793214Y-2400786D01*
X4807500Y-2386500D01*
X4836071Y-2372214D01*
X4893214Y-2372214D01*
X4921786Y-2386500D01*
X4936071Y-2400786D01*
X4950357Y-2429357D01*
X4950357Y-2443643D01*
X4936071Y-2472214D01*
X4921786Y-2486500D01*
X4893214Y-2500786D01*
X4836071Y-2500786D01*
X4807500Y-2515072D01*
X4793214Y-2529357D01*
X4778928Y-2557929D01*
X4778928Y-2615072D01*
X4793214Y-2643643D01*
X4807500Y-2657929D01*
X4836071Y-2672214D01*
X4893214Y-2672214D01*
X4921786Y-2657929D01*
X4936071Y-2643643D01*
X4950357Y-2615072D01*
X4950357Y-2557929D01*
X4936071Y-2529357D01*
X4921786Y-2515072D01*
X4893214Y-2500786D01*
X5221786Y-2372214D02*
X5078928Y-2372214D01*
X5064643Y-2515072D01*
X5078928Y-2500786D01*
X5107500Y-2486500D01*
X5178928Y-2486500D01*
X5207500Y-2500786D01*
X5221786Y-2515072D01*
X5236071Y-2543643D01*
X5236071Y-2615072D01*
X5221786Y-2643643D01*
X5207500Y-2657929D01*
X5178928Y-2672214D01*
X5107500Y-2672214D01*
X5078928Y-2657929D01*
X5064643Y-2643643D01*
X5593214Y-2672214D02*
X5593214Y-2372214D01*
X5721786Y-2672214D02*
X5721786Y-2515072D01*
X5707500Y-2486500D01*
X5678928Y-2472214D01*
X5636071Y-2472214D01*
X5607500Y-2486500D01*
X5593214Y-2500786D01*
X5907500Y-2672214D02*
X5878928Y-2657929D01*
X5864643Y-2643643D01*
X5850357Y-2615072D01*
X5850357Y-2529357D01*
X5864643Y-2500786D01*
X5878928Y-2486500D01*
X5907500Y-2472214D01*
X5950357Y-2472214D01*
X5978928Y-2486500D01*
X5993214Y-2500786D01*
X6007500Y-2529357D01*
X6007500Y-2615072D01*
X5993214Y-2643643D01*
X5978928Y-2657929D01*
X5950357Y-2672214D01*
X5907500Y-2672214D01*
X6178928Y-2672214D02*
X6150357Y-2657929D01*
X6136071Y-2629357D01*
X6136071Y-2372214D01*
X6407500Y-2657929D02*
X6378928Y-2672214D01*
X6321786Y-2672214D01*
X6293214Y-2657929D01*
X6278928Y-2629357D01*
X6278928Y-2515072D01*
X6293214Y-2486500D01*
X6321786Y-2472214D01*
X6378928Y-2472214D01*
X6407500Y-2486500D01*
X6421786Y-2515072D01*
X6421786Y-2543643D01*
X6278928Y-2572214D01*
X6536071Y-2657929D02*
X6564643Y-2672214D01*
X6621786Y-2672214D01*
X6650357Y-2657929D01*
X6664643Y-2629357D01*
X6664643Y-2615072D01*
X6650357Y-2586500D01*
X6621786Y-2572214D01*
X6578928Y-2572214D01*
X6550357Y-2557929D01*
X6536071Y-2529357D01*
X6536071Y-2515072D01*
X6550357Y-2486500D01*
X6578928Y-2472214D01*
X6621786Y-2472214D01*
X6650357Y-2486500D01*
X6764643Y-2786500D02*
X6778928Y-2772214D01*
X6807500Y-2729357D01*
X6821786Y-2700786D01*
X6836071Y-2657929D01*
X6850357Y-2586500D01*
X6850357Y-2529357D01*
X6836071Y-2457929D01*
X6821786Y-2415072D01*
X6807500Y-2386500D01*
X6778928Y-2343643D01*
X6764643Y-2329357D01*
X-62500Y-2987500D02*
X-7500Y-2932500D01*
X-62500Y-2877500D01*
X-117500Y-2932500D01*
X-62500Y-2987500D01*
X436071Y-3068214D02*
X264643Y-3068214D01*
X350357Y-3068214D02*
X350357Y-2768214D01*
X321786Y-2811071D01*
X293214Y-2839643D01*
X264643Y-2853929D01*
X564643Y-3039643D02*
X578928Y-3053929D01*
X564643Y-3068214D01*
X550357Y-3053929D01*
X564643Y-3039643D01*
X564643Y-3068214D01*
X864643Y-3068214D02*
X693214Y-3068214D01*
X778928Y-3068214D02*
X778928Y-2768214D01*
X750357Y-2811071D01*
X721786Y-2839643D01*
X693214Y-2853929D01*
X1050357Y-2768214D02*
X1078928Y-2768214D01*
X1107500Y-2782500D01*
X1121786Y-2796786D01*
X1136071Y-2825357D01*
X1150357Y-2882500D01*
X1150357Y-2953929D01*
X1136071Y-3011071D01*
X1121786Y-3039643D01*
X1107500Y-3053929D01*
X1078928Y-3068214D01*
X1050357Y-3068214D01*
X1021786Y-3053929D01*
X1007500Y-3039643D01*
X993214Y-3011071D01*
X978928Y-2953929D01*
X978928Y-2882500D01*
X993214Y-2825357D01*
X1007500Y-2796786D01*
X1021786Y-2782500D01*
X1050357Y-2768214D01*
X1278928Y-3068214D02*
X1278928Y-2868214D01*
X1278928Y-2896786D02*
X1293214Y-2882500D01*
X1321786Y-2868214D01*
X1364643Y-2868214D01*
X1393214Y-2882500D01*
X1407500Y-2911071D01*
X1407500Y-3068214D01*
X1407500Y-2911071D02*
X1421786Y-2882500D01*
X1450357Y-2868214D01*
X1493214Y-2868214D01*
X1521786Y-2882500D01*
X1536071Y-2911071D01*
X1536071Y-3068214D01*
X1678928Y-3068214D02*
X1678928Y-2868214D01*
X1678928Y-2896786D02*
X1693214Y-2882500D01*
X1721786Y-2868214D01*
X1764643Y-2868214D01*
X1793214Y-2882500D01*
X1807500Y-2911071D01*
X1807500Y-3068214D01*
X1807500Y-2911071D02*
X1821786Y-2882500D01*
X1850357Y-2868214D01*
X1893214Y-2868214D01*
X1921786Y-2882500D01*
X1936071Y-2911071D01*
X1936071Y-3068214D01*
X2521786Y-2753929D02*
X2264643Y-3139643D01*
X2907500Y-2768214D02*
X2936071Y-2768214D01*
X2964643Y-2782500D01*
X2978928Y-2796786D01*
X2993214Y-2825357D01*
X3007500Y-2882500D01*
X3007500Y-2953929D01*
X2993214Y-3011071D01*
X2978928Y-3039643D01*
X2964643Y-3053929D01*
X2936071Y-3068214D01*
X2907500Y-3068214D01*
X2878928Y-3053929D01*
X2864643Y-3039643D01*
X2850357Y-3011071D01*
X2836071Y-2953929D01*
X2836071Y-2882500D01*
X2850357Y-2825357D01*
X2864643Y-2796786D01*
X2878928Y-2782500D01*
X2907500Y-2768214D01*
X3136071Y-3039643D02*
X3150357Y-3053929D01*
X3136071Y-3068214D01*
X3121786Y-3053929D01*
X3136071Y-3039643D01*
X3136071Y-3068214D01*
X3336071Y-2768214D02*
X3364643Y-2768214D01*
X3393214Y-2782500D01*
X3407500Y-2796786D01*
X3421786Y-2825357D01*
X3436071Y-2882500D01*
X3436071Y-2953929D01*
X3421786Y-3011071D01*
X3407500Y-3039643D01*
X3393214Y-3053929D01*
X3364643Y-3068214D01*
X3336071Y-3068214D01*
X3307500Y-3053929D01*
X3293214Y-3039643D01*
X3278928Y-3011071D01*
X3264643Y-2953929D01*
X3264643Y-2882500D01*
X3278928Y-2825357D01*
X3293214Y-2796786D01*
X3307500Y-2782500D01*
X3336071Y-2768214D01*
X3693214Y-2868214D02*
X3693214Y-3068214D01*
X3621786Y-2753929D02*
X3550357Y-2968214D01*
X3736071Y-2968214D01*
X3821786Y-2768214D02*
X4007500Y-2768214D01*
X3907500Y-2882500D01*
X3950357Y-2882500D01*
X3978928Y-2896786D01*
X3993214Y-2911071D01*
X4007500Y-2939643D01*
X4007500Y-3011071D01*
X3993214Y-3039643D01*
X3978928Y-3053929D01*
X3950357Y-3068214D01*
X3864643Y-3068214D01*
X3836071Y-3053929D01*
X3821786Y-3039643D01*
X4121786Y-2768214D02*
X4121786Y-2825357D01*
X4236071Y-2768214D02*
X4236071Y-2825357D01*
X4678928Y-3182500D02*
X4664643Y-3168214D01*
X4636071Y-3125357D01*
X4621786Y-3096786D01*
X4607500Y-3053929D01*
X4593214Y-2982500D01*
X4593214Y-2925357D01*
X4607500Y-2853929D01*
X4621786Y-2811071D01*
X4636071Y-2782500D01*
X4664643Y-2739643D01*
X4678928Y-2725357D01*
X4950357Y-3068214D02*
X4778928Y-3068214D01*
X4864643Y-3068214D02*
X4864643Y-2768214D01*
X4836071Y-2811071D01*
X4807500Y-2839643D01*
X4778928Y-2853929D01*
X5307500Y-3068214D02*
X5307500Y-2768214D01*
X5436071Y-3068214D02*
X5436071Y-2911071D01*
X5421786Y-2882500D01*
X5393214Y-2868214D01*
X5350357Y-2868214D01*
X5321786Y-2882500D01*
X5307500Y-2896786D01*
X5621786Y-3068214D02*
X5593214Y-3053929D01*
X5578928Y-3039643D01*
X5564643Y-3011071D01*
X5564643Y-2925357D01*
X5578928Y-2896786D01*
X5593214Y-2882500D01*
X5621786Y-2868214D01*
X5664643Y-2868214D01*
X5693214Y-2882500D01*
X5707500Y-2896786D01*
X5721786Y-2925357D01*
X5721786Y-3011071D01*
X5707500Y-3039643D01*
X5693214Y-3053929D01*
X5664643Y-3068214D01*
X5621786Y-3068214D01*
X5893214Y-3068214D02*
X5864643Y-3053929D01*
X5850357Y-3025357D01*
X5850357Y-2768214D01*
X6121786Y-3053929D02*
X6093214Y-3068214D01*
X6036071Y-3068214D01*
X6007500Y-3053929D01*
X5993214Y-3025357D01*
X5993214Y-2911071D01*
X6007500Y-2882500D01*
X6036071Y-2868214D01*
X6093214Y-2868214D01*
X6121786Y-2882500D01*
X6136071Y-2911071D01*
X6136071Y-2939643D01*
X5993214Y-2968214D01*
X6236071Y-3182500D02*
X6250357Y-3168214D01*
X6278928Y-3125357D01*
X6293214Y-3096786D01*
X6307500Y-3053929D01*
X6321786Y-2982500D01*
X6321786Y-2925357D01*
X6307500Y-2853929D01*
X6293214Y-2811071D01*
X6278928Y-2782500D01*
X6250357Y-2739643D01*
X6236071Y-2725357D01*
X-147200Y-3258650D02*
X-7500Y-3398350D01*
X-7500Y-3258650D02*
X-147200Y-3398350D01*
X-7500Y-3328500D02*
G75*
G03X-7500Y-3328500I-69850J0D01*
G01*
X436071Y-3464214D02*
X264643Y-3464214D01*
X350357Y-3464214D02*
X350357Y-3164214D01*
X321786Y-3207071D01*
X293214Y-3235643D01*
X264643Y-3249929D01*
X564643Y-3435643D02*
X578928Y-3449929D01*
X564643Y-3464214D01*
X550357Y-3449929D01*
X564643Y-3435643D01*
X564643Y-3464214D01*
X836071Y-3264214D02*
X836071Y-3464214D01*
X764643Y-3149929D02*
X693214Y-3364214D01*
X878928Y-3364214D01*
X1050357Y-3164214D02*
X1078928Y-3164214D01*
X1107500Y-3178500D01*
X1121786Y-3192786D01*
X1136071Y-3221357D01*
X1150357Y-3278500D01*
X1150357Y-3349929D01*
X1136071Y-3407071D01*
X1121786Y-3435643D01*
X1107500Y-3449929D01*
X1078928Y-3464214D01*
X1050357Y-3464214D01*
X1021786Y-3449929D01*
X1007500Y-3435643D01*
X993214Y-3407071D01*
X978928Y-3349929D01*
X978928Y-3278500D01*
X993214Y-3221357D01*
X1007500Y-3192786D01*
X1021786Y-3178500D01*
X1050357Y-3164214D01*
X1278928Y-3464214D02*
X1278928Y-3264214D01*
X1278928Y-3292786D02*
X1293214Y-3278500D01*
X1321786Y-3264214D01*
X1364643Y-3264214D01*
X1393214Y-3278500D01*
X1407500Y-3307071D01*
X1407500Y-3464214D01*
X1407500Y-3307071D02*
X1421786Y-3278500D01*
X1450357Y-3264214D01*
X1493214Y-3264214D01*
X1521786Y-3278500D01*
X1536071Y-3307071D01*
X1536071Y-3464214D01*
X1678928Y-3464214D02*
X1678928Y-3264214D01*
X1678928Y-3292786D02*
X1693214Y-3278500D01*
X1721786Y-3264214D01*
X1764643Y-3264214D01*
X1793214Y-3278500D01*
X1807500Y-3307071D01*
X1807500Y-3464214D01*
X1807500Y-3307071D02*
X1821786Y-3278500D01*
X1850357Y-3264214D01*
X1893214Y-3264214D01*
X1921786Y-3278500D01*
X1936071Y-3307071D01*
X1936071Y-3464214D01*
X2521786Y-3149929D02*
X2264643Y-3535643D01*
X2907500Y-3164214D02*
X2936071Y-3164214D01*
X2964643Y-3178500D01*
X2978928Y-3192786D01*
X2993214Y-3221357D01*
X3007500Y-3278500D01*
X3007500Y-3349929D01*
X2993214Y-3407071D01*
X2978928Y-3435643D01*
X2964643Y-3449929D01*
X2936071Y-3464214D01*
X2907500Y-3464214D01*
X2878928Y-3449929D01*
X2864643Y-3435643D01*
X2850357Y-3407071D01*
X2836071Y-3349929D01*
X2836071Y-3278500D01*
X2850357Y-3221357D01*
X2864643Y-3192786D01*
X2878928Y-3178500D01*
X2907500Y-3164214D01*
X3136071Y-3435643D02*
X3150357Y-3449929D01*
X3136071Y-3464214D01*
X3121786Y-3449929D01*
X3136071Y-3435643D01*
X3136071Y-3464214D01*
X3336071Y-3164214D02*
X3364643Y-3164214D01*
X3393214Y-3178500D01*
X3407500Y-3192786D01*
X3421786Y-3221357D01*
X3436071Y-3278500D01*
X3436071Y-3349929D01*
X3421786Y-3407071D01*
X3407500Y-3435643D01*
X3393214Y-3449929D01*
X3364643Y-3464214D01*
X3336071Y-3464214D01*
X3307500Y-3449929D01*
X3293214Y-3435643D01*
X3278928Y-3407071D01*
X3264643Y-3349929D01*
X3264643Y-3278500D01*
X3278928Y-3221357D01*
X3293214Y-3192786D01*
X3307500Y-3178500D01*
X3336071Y-3164214D01*
X3707500Y-3164214D02*
X3564643Y-3164214D01*
X3550357Y-3307071D01*
X3564643Y-3292786D01*
X3593214Y-3278500D01*
X3664643Y-3278500D01*
X3693214Y-3292786D01*
X3707500Y-3307071D01*
X3721786Y-3335643D01*
X3721786Y-3407071D01*
X3707500Y-3435643D01*
X3693214Y-3449929D01*
X3664643Y-3464214D01*
X3593214Y-3464214D01*
X3564643Y-3449929D01*
X3550357Y-3435643D01*
X3993214Y-3164214D02*
X3850357Y-3164214D01*
X3836071Y-3307071D01*
X3850357Y-3292786D01*
X3878928Y-3278500D01*
X3950357Y-3278500D01*
X3978928Y-3292786D01*
X3993214Y-3307071D01*
X4007500Y-3335643D01*
X4007500Y-3407071D01*
X3993214Y-3435643D01*
X3978928Y-3449929D01*
X3950357Y-3464214D01*
X3878928Y-3464214D01*
X3850357Y-3449929D01*
X3836071Y-3435643D01*
X4121786Y-3164214D02*
X4121786Y-3221357D01*
X4236071Y-3164214D02*
X4236071Y-3221357D01*
X4678928Y-3578500D02*
X4664643Y-3564214D01*
X4636071Y-3521357D01*
X4621786Y-3492786D01*
X4607500Y-3449929D01*
X4593214Y-3378500D01*
X4593214Y-3321357D01*
X4607500Y-3249929D01*
X4621786Y-3207071D01*
X4636071Y-3178500D01*
X4664643Y-3135643D01*
X4678928Y-3121357D01*
X4950357Y-3464214D02*
X4778928Y-3464214D01*
X4864643Y-3464214D02*
X4864643Y-3164214D01*
X4836071Y-3207071D01*
X4807500Y-3235643D01*
X4778928Y-3249929D01*
X5136071Y-3164214D02*
X5164643Y-3164214D01*
X5193214Y-3178500D01*
X5207500Y-3192786D01*
X5221786Y-3221357D01*
X5236071Y-3278500D01*
X5236071Y-3349929D01*
X5221786Y-3407071D01*
X5207500Y-3435643D01*
X5193214Y-3449929D01*
X5164643Y-3464214D01*
X5136071Y-3464214D01*
X5107500Y-3449929D01*
X5093214Y-3435643D01*
X5078928Y-3407071D01*
X5064643Y-3349929D01*
X5064643Y-3278500D01*
X5078928Y-3221357D01*
X5093214Y-3192786D01*
X5107500Y-3178500D01*
X5136071Y-3164214D01*
X5593214Y-3464214D02*
X5593214Y-3164214D01*
X5721786Y-3464214D02*
X5721786Y-3307071D01*
X5707500Y-3278500D01*
X5678928Y-3264214D01*
X5636071Y-3264214D01*
X5607500Y-3278500D01*
X5593214Y-3292786D01*
X5907500Y-3464214D02*
X5878928Y-3449929D01*
X5864643Y-3435643D01*
X5850357Y-3407071D01*
X5850357Y-3321357D01*
X5864643Y-3292786D01*
X5878928Y-3278500D01*
X5907500Y-3264214D01*
X5950357Y-3264214D01*
X5978928Y-3278500D01*
X5993214Y-3292786D01*
X6007500Y-3321357D01*
X6007500Y-3407071D01*
X5993214Y-3435643D01*
X5978928Y-3449929D01*
X5950357Y-3464214D01*
X5907500Y-3464214D01*
X6178928Y-3464214D02*
X6150357Y-3449929D01*
X6136071Y-3421357D01*
X6136071Y-3164214D01*
X6407500Y-3449929D02*
X6378928Y-3464214D01*
X6321786Y-3464214D01*
X6293214Y-3449929D01*
X6278928Y-3421357D01*
X6278928Y-3307071D01*
X6293214Y-3278500D01*
X6321786Y-3264214D01*
X6378928Y-3264214D01*
X6407500Y-3278500D01*
X6421786Y-3307071D01*
X6421786Y-3335643D01*
X6278928Y-3364214D01*
X6536071Y-3449929D02*
X6564643Y-3464214D01*
X6621786Y-3464214D01*
X6650357Y-3449929D01*
X6664643Y-3421357D01*
X6664643Y-3407071D01*
X6650357Y-3378500D01*
X6621786Y-3364214D01*
X6578928Y-3364214D01*
X6550357Y-3349929D01*
X6536071Y-3321357D01*
X6536071Y-3307071D01*
X6550357Y-3278500D01*
X6578928Y-3264214D01*
X6621786Y-3264214D01*
X6650357Y-3278500D01*
X6764643Y-3578500D02*
X6778928Y-3564214D01*
X6807500Y-3521357D01*
X6821786Y-3492786D01*
X6836071Y-3449929D01*
X6850357Y-3378500D01*
X6850357Y-3321357D01*
X6836071Y-3249929D01*
X6821786Y-3207071D01*
X6807500Y-3178500D01*
X6778928Y-3135643D01*
X6764643Y-3121357D01*
X-237500Y-3609500D02*
X-7500Y-3839500D01*
X-7500Y-3609500D02*
X-237500Y-3839500D01*
X-122500Y-3609500D02*
X-122500Y-3839500D01*
X-237500Y-3724500D02*
X-7500Y-3724500D01*
X264643Y-3588786D02*
X278928Y-3574500D01*
X307500Y-3560214D01*
X378928Y-3560214D01*
X407500Y-3574500D01*
X421786Y-3588786D01*
X436071Y-3617357D01*
X436071Y-3645929D01*
X421786Y-3688786D01*
X250357Y-3860214D01*
X436071Y-3860214D01*
X564643Y-3831643D02*
X578928Y-3845929D01*
X564643Y-3860214D01*
X550357Y-3845929D01*
X564643Y-3831643D01*
X564643Y-3860214D01*
X678928Y-3560214D02*
X864643Y-3560214D01*
X764643Y-3674500D01*
X807500Y-3674500D01*
X836071Y-3688786D01*
X850357Y-3703071D01*
X864643Y-3731643D01*
X864643Y-3803071D01*
X850357Y-3831643D01*
X836071Y-3845929D01*
X807500Y-3860214D01*
X721786Y-3860214D01*
X693214Y-3845929D01*
X678928Y-3831643D01*
X1050357Y-3560214D02*
X1078928Y-3560214D01*
X1107500Y-3574500D01*
X1121786Y-3588786D01*
X1136071Y-3617357D01*
X1150357Y-3674500D01*
X1150357Y-3745929D01*
X1136071Y-3803071D01*
X1121786Y-3831643D01*
X1107500Y-3845929D01*
X1078928Y-3860214D01*
X1050357Y-3860214D01*
X1021786Y-3845929D01*
X1007500Y-3831643D01*
X993214Y-3803071D01*
X978928Y-3745929D01*
X978928Y-3674500D01*
X993214Y-3617357D01*
X1007500Y-3588786D01*
X1021786Y-3574500D01*
X1050357Y-3560214D01*
X1278928Y-3860214D02*
X1278928Y-3660214D01*
X1278928Y-3688786D02*
X1293214Y-3674500D01*
X1321786Y-3660214D01*
X1364643Y-3660214D01*
X1393214Y-3674500D01*
X1407500Y-3703071D01*
X1407500Y-3860214D01*
X1407500Y-3703071D02*
X1421786Y-3674500D01*
X1450357Y-3660214D01*
X1493214Y-3660214D01*
X1521786Y-3674500D01*
X1536071Y-3703071D01*
X1536071Y-3860214D01*
X1678928Y-3860214D02*
X1678928Y-3660214D01*
X1678928Y-3688786D02*
X1693214Y-3674500D01*
X1721786Y-3660214D01*
X1764643Y-3660214D01*
X1793214Y-3674500D01*
X1807500Y-3703071D01*
X1807500Y-3860214D01*
X1807500Y-3703071D02*
X1821786Y-3674500D01*
X1850357Y-3660214D01*
X1893214Y-3660214D01*
X1921786Y-3674500D01*
X1936071Y-3703071D01*
X1936071Y-3860214D01*
X2521786Y-3545929D02*
X2264643Y-3931643D01*
X2907500Y-3560214D02*
X2936071Y-3560214D01*
X2964643Y-3574500D01*
X2978928Y-3588786D01*
X2993214Y-3617357D01*
X3007500Y-3674500D01*
X3007500Y-3745929D01*
X2993214Y-3803071D01*
X2978928Y-3831643D01*
X2964643Y-3845929D01*
X2936071Y-3860214D01*
X2907500Y-3860214D01*
X2878928Y-3845929D01*
X2864643Y-3831643D01*
X2850357Y-3803071D01*
X2836071Y-3745929D01*
X2836071Y-3674500D01*
X2850357Y-3617357D01*
X2864643Y-3588786D01*
X2878928Y-3574500D01*
X2907500Y-3560214D01*
X3136071Y-3831643D02*
X3150357Y-3845929D01*
X3136071Y-3860214D01*
X3121786Y-3845929D01*
X3136071Y-3831643D01*
X3136071Y-3860214D01*
X3336071Y-3560214D02*
X3364643Y-3560214D01*
X3393214Y-3574500D01*
X3407500Y-3588786D01*
X3421786Y-3617357D01*
X3436071Y-3674500D01*
X3436071Y-3745929D01*
X3421786Y-3803071D01*
X3407500Y-3831643D01*
X3393214Y-3845929D01*
X3364643Y-3860214D01*
X3336071Y-3860214D01*
X3307500Y-3845929D01*
X3293214Y-3831643D01*
X3278928Y-3803071D01*
X3264643Y-3745929D01*
X3264643Y-3674500D01*
X3278928Y-3617357D01*
X3293214Y-3588786D01*
X3307500Y-3574500D01*
X3336071Y-3560214D01*
X3578928Y-3860214D02*
X3636071Y-3860214D01*
X3664643Y-3845929D01*
X3678928Y-3831643D01*
X3707500Y-3788786D01*
X3721786Y-3731643D01*
X3721786Y-3617357D01*
X3707500Y-3588786D01*
X3693214Y-3574500D01*
X3664643Y-3560214D01*
X3607500Y-3560214D01*
X3578928Y-3574500D01*
X3564643Y-3588786D01*
X3550357Y-3617357D01*
X3550357Y-3688786D01*
X3564643Y-3717357D01*
X3578928Y-3731643D01*
X3607500Y-3745929D01*
X3664643Y-3745929D01*
X3693214Y-3731643D01*
X3707500Y-3717357D01*
X3721786Y-3688786D01*
X4007500Y-3860214D02*
X3836071Y-3860214D01*
X3921786Y-3860214D02*
X3921786Y-3560214D01*
X3893214Y-3603071D01*
X3864643Y-3631643D01*
X3836071Y-3645929D01*
X4121786Y-3560214D02*
X4121786Y-3617357D01*
X4236071Y-3560214D02*
X4236071Y-3617357D01*
X4678928Y-3974500D02*
X4664643Y-3960214D01*
X4636071Y-3917357D01*
X4621786Y-3888786D01*
X4607500Y-3845929D01*
X4593214Y-3774500D01*
X4593214Y-3717357D01*
X4607500Y-3645929D01*
X4621786Y-3603071D01*
X4636071Y-3574500D01*
X4664643Y-3531643D01*
X4678928Y-3517357D01*
X4778928Y-3588786D02*
X4793214Y-3574500D01*
X4821786Y-3560214D01*
X4893214Y-3560214D01*
X4921786Y-3574500D01*
X4936071Y-3588786D01*
X4950357Y-3617357D01*
X4950357Y-3645929D01*
X4936071Y-3688786D01*
X4764643Y-3860214D01*
X4950357Y-3860214D01*
X5307500Y-3860214D02*
X5307500Y-3560214D01*
X5436071Y-3860214D02*
X5436071Y-3703071D01*
X5421786Y-3674500D01*
X5393214Y-3660214D01*
X5350357Y-3660214D01*
X5321786Y-3674500D01*
X5307500Y-3688786D01*
X5621786Y-3860214D02*
X5593214Y-3845929D01*
X5578928Y-3831643D01*
X5564643Y-3803071D01*
X5564643Y-3717357D01*
X5578928Y-3688786D01*
X5593214Y-3674500D01*
X5621786Y-3660214D01*
X5664643Y-3660214D01*
X5693214Y-3674500D01*
X5707500Y-3688786D01*
X5721786Y-3717357D01*
X5721786Y-3803071D01*
X5707500Y-3831643D01*
X5693214Y-3845929D01*
X5664643Y-3860214D01*
X5621786Y-3860214D01*
X5893214Y-3860214D02*
X5864643Y-3845929D01*
X5850357Y-3817357D01*
X5850357Y-3560214D01*
X6121786Y-3845929D02*
X6093214Y-3860214D01*
X6036071Y-3860214D01*
X6007500Y-3845929D01*
X5993214Y-3817357D01*
X5993214Y-3703071D01*
X6007500Y-3674500D01*
X6036071Y-3660214D01*
X6093214Y-3660214D01*
X6121786Y-3674500D01*
X6136071Y-3703071D01*
X6136071Y-3731643D01*
X5993214Y-3760214D01*
X6250357Y-3845929D02*
X6278928Y-3860214D01*
X6336071Y-3860214D01*
X6364643Y-3845929D01*
X6378928Y-3817357D01*
X6378928Y-3803071D01*
X6364643Y-3774500D01*
X6336071Y-3760214D01*
X6293214Y-3760214D01*
X6264643Y-3745929D01*
X6250357Y-3717357D01*
X6250357Y-3703071D01*
X6264643Y-3674500D01*
X6293214Y-3660214D01*
X6336071Y-3660214D01*
X6364643Y-3674500D01*
X6478928Y-3974500D02*
X6493214Y-3960214D01*
X6521786Y-3917357D01*
X6536071Y-3888786D01*
X6550357Y-3845929D01*
X6564643Y-3774500D01*
X6564643Y-3717357D01*
X6550357Y-3645929D01*
X6536071Y-3603071D01*
X6521786Y-3574500D01*
X6493214Y-3531643D01*
X6478928Y-3517357D01*
X-147200Y-4050650D02*
X-7500Y-4190350D01*
X-7500Y-4050650D02*
X-147200Y-4190350D01*
X-27958Y-4169892D02*
X-27958Y-4071108D01*
X-126742Y-4071108D01*
X-126742Y-4169892D01*
X-27958Y-4169892D01*
X436071Y-4256214D02*
X264643Y-4256214D01*
X350357Y-4256214D02*
X350357Y-3956214D01*
X321786Y-3999071D01*
X293214Y-4027643D01*
X264643Y-4041929D01*
X564643Y-4227643D02*
X578928Y-4241929D01*
X564643Y-4256214D01*
X550357Y-4241929D01*
X564643Y-4227643D01*
X564643Y-4256214D01*
X836071Y-4056214D02*
X836071Y-4256214D01*
X764643Y-3941929D02*
X693214Y-4156214D01*
X878928Y-4156214D01*
X1050357Y-3956214D02*
X1078928Y-3956214D01*
X1107500Y-3970500D01*
X1121786Y-3984786D01*
X1136071Y-4013357D01*
X1150357Y-4070500D01*
X1150357Y-4141929D01*
X1136071Y-4199072D01*
X1121786Y-4227643D01*
X1107500Y-4241929D01*
X1078928Y-4256214D01*
X1050357Y-4256214D01*
X1021786Y-4241929D01*
X1007500Y-4227643D01*
X993214Y-4199072D01*
X978928Y-4141929D01*
X978928Y-4070500D01*
X993214Y-4013357D01*
X1007500Y-3984786D01*
X1021786Y-3970500D01*
X1050357Y-3956214D01*
X1278928Y-4256214D02*
X1278928Y-4056214D01*
X1278928Y-4084786D02*
X1293214Y-4070500D01*
X1321786Y-4056214D01*
X1364643Y-4056214D01*
X1393214Y-4070500D01*
X1407500Y-4099071D01*
X1407500Y-4256214D01*
X1407500Y-4099071D02*
X1421786Y-4070500D01*
X1450357Y-4056214D01*
X1493214Y-4056214D01*
X1521786Y-4070500D01*
X1536071Y-4099071D01*
X1536071Y-4256214D01*
X1678928Y-4256214D02*
X1678928Y-4056214D01*
X1678928Y-4084786D02*
X1693214Y-4070500D01*
X1721786Y-4056214D01*
X1764643Y-4056214D01*
X1793214Y-4070500D01*
X1807500Y-4099071D01*
X1807500Y-4256214D01*
X1807500Y-4099071D02*
X1821786Y-4070500D01*
X1850357Y-4056214D01*
X1893214Y-4056214D01*
X1921786Y-4070500D01*
X1936071Y-4099071D01*
X1936071Y-4256214D01*
X2521786Y-3941929D02*
X2264643Y-4327643D01*
X2907500Y-3956214D02*
X2936071Y-3956214D01*
X2964643Y-3970500D01*
X2978928Y-3984786D01*
X2993214Y-4013357D01*
X3007500Y-4070500D01*
X3007500Y-4141929D01*
X2993214Y-4199072D01*
X2978928Y-4227643D01*
X2964643Y-4241929D01*
X2936071Y-4256214D01*
X2907500Y-4256214D01*
X2878928Y-4241929D01*
X2864643Y-4227643D01*
X2850357Y-4199072D01*
X2836071Y-4141929D01*
X2836071Y-4070500D01*
X2850357Y-4013357D01*
X2864643Y-3984786D01*
X2878928Y-3970500D01*
X2907500Y-3956214D01*
X3136071Y-4227643D02*
X3150357Y-4241929D01*
X3136071Y-4256214D01*
X3121786Y-4241929D01*
X3136071Y-4227643D01*
X3136071Y-4256214D01*
X3336071Y-3956214D02*
X3364643Y-3956214D01*
X3393214Y-3970500D01*
X3407500Y-3984786D01*
X3421786Y-4013357D01*
X3436071Y-4070500D01*
X3436071Y-4141929D01*
X3421786Y-4199072D01*
X3407500Y-4227643D01*
X3393214Y-4241929D01*
X3364643Y-4256214D01*
X3336071Y-4256214D01*
X3307500Y-4241929D01*
X3293214Y-4227643D01*
X3278928Y-4199072D01*
X3264643Y-4141929D01*
X3264643Y-4070500D01*
X3278928Y-4013357D01*
X3293214Y-3984786D01*
X3307500Y-3970500D01*
X3336071Y-3956214D01*
X3707500Y-3956214D02*
X3564643Y-3956214D01*
X3550357Y-4099071D01*
X3564643Y-4084786D01*
X3593214Y-4070500D01*
X3664643Y-4070500D01*
X3693214Y-4084786D01*
X3707500Y-4099071D01*
X3721786Y-4127643D01*
X3721786Y-4199072D01*
X3707500Y-4227643D01*
X3693214Y-4241929D01*
X3664643Y-4256214D01*
X3593214Y-4256214D01*
X3564643Y-4241929D01*
X3550357Y-4227643D01*
X3993214Y-3956214D02*
X3850357Y-3956214D01*
X3836071Y-4099071D01*
X3850357Y-4084786D01*
X3878928Y-4070500D01*
X3950357Y-4070500D01*
X3978928Y-4084786D01*
X3993214Y-4099071D01*
X4007500Y-4127643D01*
X4007500Y-4199072D01*
X3993214Y-4227643D01*
X3978928Y-4241929D01*
X3950357Y-4256214D01*
X3878928Y-4256214D01*
X3850357Y-4241929D01*
X3836071Y-4227643D01*
X4121786Y-3956214D02*
X4121786Y-4013357D01*
X4236071Y-3956214D02*
X4236071Y-4013357D01*
X4678928Y-4370500D02*
X4664643Y-4356214D01*
X4636071Y-4313357D01*
X4621786Y-4284786D01*
X4607500Y-4241929D01*
X4593214Y-4170500D01*
X4593214Y-4113357D01*
X4607500Y-4041929D01*
X4621786Y-3999071D01*
X4636071Y-3970500D01*
X4664643Y-3927643D01*
X4678928Y-3913357D01*
X4921786Y-4056214D02*
X4921786Y-4256214D01*
X4850357Y-3941929D02*
X4778928Y-4156214D01*
X4964643Y-4156214D01*
X5307500Y-4256214D02*
X5307500Y-3956214D01*
X5436071Y-4256214D02*
X5436071Y-4099071D01*
X5421786Y-4070500D01*
X5393214Y-4056214D01*
X5350357Y-4056214D01*
X5321786Y-4070500D01*
X5307500Y-4084786D01*
X5621786Y-4256214D02*
X5593214Y-4241929D01*
X5578928Y-4227643D01*
X5564643Y-4199072D01*
X5564643Y-4113357D01*
X5578928Y-4084786D01*
X5593214Y-4070500D01*
X5621786Y-4056214D01*
X5664643Y-4056214D01*
X5693214Y-4070500D01*
X5707500Y-4084786D01*
X5721786Y-4113357D01*
X5721786Y-4199072D01*
X5707500Y-4227643D01*
X5693214Y-4241929D01*
X5664643Y-4256214D01*
X5621786Y-4256214D01*
X5893214Y-4256214D02*
X5864643Y-4241929D01*
X5850357Y-4213357D01*
X5850357Y-3956214D01*
X6121786Y-4241929D02*
X6093214Y-4256214D01*
X6036071Y-4256214D01*
X6007500Y-4241929D01*
X5993214Y-4213357D01*
X5993214Y-4099071D01*
X6007500Y-4070500D01*
X6036071Y-4056214D01*
X6093214Y-4056214D01*
X6121786Y-4070500D01*
X6136071Y-4099071D01*
X6136071Y-4127643D01*
X5993214Y-4156214D01*
X6250357Y-4241929D02*
X6278928Y-4256214D01*
X6336071Y-4256214D01*
X6364643Y-4241929D01*
X6378928Y-4213357D01*
X6378928Y-4199072D01*
X6364643Y-4170500D01*
X6336071Y-4156214D01*
X6293214Y-4156214D01*
X6264643Y-4141929D01*
X6250357Y-4113357D01*
X6250357Y-4099071D01*
X6264643Y-4070500D01*
X6293214Y-4056214D01*
X6336071Y-4056214D01*
X6364643Y-4070500D01*
X6478928Y-4370500D02*
X6493214Y-4356214D01*
X6521786Y-4313357D01*
X6536071Y-4284786D01*
X6550357Y-4241929D01*
X6564643Y-4170500D01*
X6564643Y-4113357D01*
X6550357Y-4041929D01*
X6536071Y-3999071D01*
X6521786Y-3970500D01*
X6493214Y-3927643D01*
X6478928Y-3913357D01*
X7021786Y-4370500D02*
X7007500Y-4356214D01*
X6978928Y-4313357D01*
X6964643Y-4284786D01*
X6950357Y-4241929D01*
X6936071Y-4170500D01*
X6936071Y-4113357D01*
X6950357Y-4041929D01*
X6964643Y-3999071D01*
X6978928Y-3970500D01*
X7007500Y-3927643D01*
X7021786Y-3913357D01*
X7136071Y-4056214D02*
X7136071Y-4256214D01*
X7136071Y-4084786D02*
X7150357Y-4070500D01*
X7178928Y-4056214D01*
X7221786Y-4056214D01*
X7250357Y-4070500D01*
X7264643Y-4099071D01*
X7264643Y-4256214D01*
X7450357Y-4256214D02*
X7421786Y-4241929D01*
X7407500Y-4227643D01*
X7393214Y-4199072D01*
X7393214Y-4113357D01*
X7407500Y-4084786D01*
X7421786Y-4070500D01*
X7450357Y-4056214D01*
X7493214Y-4056214D01*
X7521786Y-4070500D01*
X7536071Y-4084786D01*
X7550357Y-4113357D01*
X7550357Y-4199072D01*
X7536071Y-4227643D01*
X7521786Y-4241929D01*
X7493214Y-4256214D01*
X7450357Y-4256214D01*
X7636071Y-4056214D02*
X7750357Y-4056214D01*
X7678928Y-3956214D02*
X7678928Y-4213357D01*
X7693214Y-4241929D01*
X7721786Y-4256214D01*
X7750357Y-4256214D01*
X8078928Y-4056214D02*
X8078928Y-4356214D01*
X8078928Y-4070500D02*
X8107500Y-4056214D01*
X8164643Y-4056214D01*
X8193214Y-4070500D01*
X8207500Y-4084786D01*
X8221786Y-4113357D01*
X8221786Y-4199072D01*
X8207500Y-4227643D01*
X8193214Y-4241929D01*
X8164643Y-4256214D01*
X8107500Y-4256214D01*
X8078928Y-4241929D01*
X8393214Y-4256214D02*
X8364643Y-4241929D01*
X8350357Y-4213357D01*
X8350357Y-3956214D01*
X8636071Y-4256214D02*
X8636071Y-4099071D01*
X8621786Y-4070500D01*
X8593214Y-4056214D01*
X8536071Y-4056214D01*
X8507500Y-4070500D01*
X8636071Y-4241929D02*
X8607500Y-4256214D01*
X8536071Y-4256214D01*
X8507500Y-4241929D01*
X8493214Y-4213357D01*
X8493214Y-4184786D01*
X8507500Y-4156214D01*
X8536071Y-4141929D01*
X8607500Y-4141929D01*
X8636071Y-4127643D01*
X8736071Y-4056214D02*
X8850357Y-4056214D01*
X8778928Y-3956214D02*
X8778928Y-4213357D01*
X8793214Y-4241929D01*
X8821786Y-4256214D01*
X8850357Y-4256214D01*
X9064643Y-4241929D02*
X9036071Y-4256214D01*
X8978928Y-4256214D01*
X8950357Y-4241929D01*
X8936071Y-4213357D01*
X8936071Y-4099071D01*
X8950357Y-4070500D01*
X8978928Y-4056214D01*
X9036071Y-4056214D01*
X9064643Y-4070500D01*
X9078928Y-4099071D01*
X9078928Y-4127643D01*
X8936071Y-4156214D01*
X9336071Y-4256214D02*
X9336071Y-3956214D01*
X9336071Y-4241929D02*
X9307500Y-4256214D01*
X9250357Y-4256214D01*
X9221786Y-4241929D01*
X9207500Y-4227643D01*
X9193214Y-4199072D01*
X9193214Y-4113357D01*
X9207500Y-4084786D01*
X9221786Y-4070500D01*
X9250357Y-4056214D01*
X9307500Y-4056214D01*
X9336071Y-4070500D01*
X9450357Y-4370500D02*
X9464643Y-4356214D01*
X9493214Y-4313357D01*
X9507500Y-4284786D01*
X9521786Y-4241929D01*
X9536071Y-4170500D01*
X9536071Y-4113357D01*
X9521786Y-4041929D01*
X9507500Y-3999071D01*
X9493214Y-3970500D01*
X9464643Y-3927643D01*
X9450357Y-3913357D01*
X-327500Y-4356500D02*
X-7500Y-4676500D01*
X-7500Y-4356500D02*
X-327500Y-4676500D01*
X-167500Y-4676500D02*
X-7500Y-4516500D01*
X-167500Y-4356500D01*
X-327500Y-4516500D01*
X-167500Y-4676500D01*
X250357Y-4352214D02*
X436071Y-4352214D01*
X336071Y-4466500D01*
X378928Y-4466500D01*
X407500Y-4480786D01*
X421786Y-4495072D01*
X436071Y-4523643D01*
X436071Y-4595072D01*
X421786Y-4623643D01*
X407500Y-4637929D01*
X378928Y-4652214D01*
X293214Y-4652214D01*
X264643Y-4637929D01*
X250357Y-4623643D01*
X564643Y-4623643D02*
X578928Y-4637929D01*
X564643Y-4652214D01*
X550357Y-4637929D01*
X564643Y-4623643D01*
X564643Y-4652214D01*
X693214Y-4380786D02*
X707500Y-4366500D01*
X736071Y-4352214D01*
X807500Y-4352214D01*
X836071Y-4366500D01*
X850357Y-4380786D01*
X864643Y-4409357D01*
X864643Y-4437929D01*
X850357Y-4480786D01*
X678928Y-4652214D01*
X864643Y-4652214D01*
X1050357Y-4352214D02*
X1078928Y-4352214D01*
X1107500Y-4366500D01*
X1121786Y-4380786D01*
X1136071Y-4409357D01*
X1150357Y-4466500D01*
X1150357Y-4537929D01*
X1136071Y-4595072D01*
X1121786Y-4623643D01*
X1107500Y-4637929D01*
X1078928Y-4652214D01*
X1050357Y-4652214D01*
X1021786Y-4637929D01*
X1007500Y-4623643D01*
X993214Y-4595072D01*
X978928Y-4537929D01*
X978928Y-4466500D01*
X993214Y-4409357D01*
X1007500Y-4380786D01*
X1021786Y-4366500D01*
X1050357Y-4352214D01*
X1278928Y-4652214D02*
X1278928Y-4452214D01*
X1278928Y-4480786D02*
X1293214Y-4466500D01*
X1321786Y-4452214D01*
X1364643Y-4452214D01*
X1393214Y-4466500D01*
X1407500Y-4495072D01*
X1407500Y-4652214D01*
X1407500Y-4495072D02*
X1421786Y-4466500D01*
X1450357Y-4452214D01*
X1493214Y-4452214D01*
X1521786Y-4466500D01*
X1536071Y-4495072D01*
X1536071Y-4652214D01*
X1678928Y-4652214D02*
X1678928Y-4452214D01*
X1678928Y-4480786D02*
X1693214Y-4466500D01*
X1721786Y-4452214D01*
X1764643Y-4452214D01*
X1793214Y-4466500D01*
X1807500Y-4495072D01*
X1807500Y-4652214D01*
X1807500Y-4495072D02*
X1821786Y-4466500D01*
X1850357Y-4452214D01*
X1893214Y-4452214D01*
X1921786Y-4466500D01*
X1936071Y-4495072D01*
X1936071Y-4652214D01*
X2521786Y-4337929D02*
X2264643Y-4723643D01*
X2907500Y-4352214D02*
X2936071Y-4352214D01*
X2964643Y-4366500D01*
X2978928Y-4380786D01*
X2993214Y-4409357D01*
X3007500Y-4466500D01*
X3007500Y-4537929D01*
X2993214Y-4595072D01*
X2978928Y-4623643D01*
X2964643Y-4637929D01*
X2936071Y-4652214D01*
X2907500Y-4652214D01*
X2878928Y-4637929D01*
X2864643Y-4623643D01*
X2850357Y-4595072D01*
X2836071Y-4537929D01*
X2836071Y-4466500D01*
X2850357Y-4409357D01*
X2864643Y-4380786D01*
X2878928Y-4366500D01*
X2907500Y-4352214D01*
X3136071Y-4623643D02*
X3150357Y-4637929D01*
X3136071Y-4652214D01*
X3121786Y-4637929D01*
X3136071Y-4623643D01*
X3136071Y-4652214D01*
X3436071Y-4652214D02*
X3264643Y-4652214D01*
X3350357Y-4652214D02*
X3350357Y-4352214D01*
X3321786Y-4395072D01*
X3293214Y-4423643D01*
X3264643Y-4437929D01*
X3550357Y-4380786D02*
X3564643Y-4366500D01*
X3593214Y-4352214D01*
X3664643Y-4352214D01*
X3693214Y-4366500D01*
X3707500Y-4380786D01*
X3721786Y-4409357D01*
X3721786Y-4437929D01*
X3707500Y-4480786D01*
X3536071Y-4652214D01*
X3721786Y-4652214D01*
X3978928Y-4352214D02*
X3921786Y-4352214D01*
X3893214Y-4366500D01*
X3878928Y-4380786D01*
X3850357Y-4423643D01*
X3836071Y-4480786D01*
X3836071Y-4595072D01*
X3850357Y-4623643D01*
X3864643Y-4637929D01*
X3893214Y-4652214D01*
X3950357Y-4652214D01*
X3978928Y-4637929D01*
X3993214Y-4623643D01*
X4007500Y-4595072D01*
X4007500Y-4523643D01*
X3993214Y-4495072D01*
X3978928Y-4480786D01*
X3950357Y-4466500D01*
X3893214Y-4466500D01*
X3864643Y-4480786D01*
X3850357Y-4495072D01*
X3836071Y-4523643D01*
X4121786Y-4352214D02*
X4121786Y-4409357D01*
X4236071Y-4352214D02*
X4236071Y-4409357D01*
X4678928Y-4766500D02*
X4664643Y-4752214D01*
X4636071Y-4709357D01*
X4621786Y-4680786D01*
X4607500Y-4637929D01*
X4593214Y-4566500D01*
X4593214Y-4509357D01*
X4607500Y-4437929D01*
X4621786Y-4395072D01*
X4636071Y-4366500D01*
X4664643Y-4323643D01*
X4678928Y-4309357D01*
X4778928Y-4380786D02*
X4793214Y-4366500D01*
X4821786Y-4352214D01*
X4893214Y-4352214D01*
X4921786Y-4366500D01*
X4936071Y-4380786D01*
X4950357Y-4409357D01*
X4950357Y-4437929D01*
X4936071Y-4480786D01*
X4764643Y-4652214D01*
X4950357Y-4652214D01*
X5307500Y-4652214D02*
X5307500Y-4352214D01*
X5436071Y-4652214D02*
X5436071Y-4495072D01*
X5421786Y-4466500D01*
X5393214Y-4452214D01*
X5350357Y-4452214D01*
X5321786Y-4466500D01*
X5307500Y-4480786D01*
X5621786Y-4652214D02*
X5593214Y-4637929D01*
X5578928Y-4623643D01*
X5564643Y-4595072D01*
X5564643Y-4509357D01*
X5578928Y-4480786D01*
X5593214Y-4466500D01*
X5621786Y-4452214D01*
X5664643Y-4452214D01*
X5693214Y-4466500D01*
X5707500Y-4480786D01*
X5721786Y-4509357D01*
X5721786Y-4595072D01*
X5707500Y-4623643D01*
X5693214Y-4637929D01*
X5664643Y-4652214D01*
X5621786Y-4652214D01*
X5893214Y-4652214D02*
X5864643Y-4637929D01*
X5850357Y-4609357D01*
X5850357Y-4352214D01*
X6121786Y-4637929D02*
X6093214Y-4652214D01*
X6036071Y-4652214D01*
X6007500Y-4637929D01*
X5993214Y-4609357D01*
X5993214Y-4495072D01*
X6007500Y-4466500D01*
X6036071Y-4452214D01*
X6093214Y-4452214D01*
X6121786Y-4466500D01*
X6136071Y-4495072D01*
X6136071Y-4523643D01*
X5993214Y-4552214D01*
X6250357Y-4637929D02*
X6278928Y-4652214D01*
X6336071Y-4652214D01*
X6364643Y-4637929D01*
X6378928Y-4609357D01*
X6378928Y-4595072D01*
X6364643Y-4566500D01*
X6336071Y-4552214D01*
X6293214Y-4552214D01*
X6264643Y-4537929D01*
X6250357Y-4509357D01*
X6250357Y-4495072D01*
X6264643Y-4466500D01*
X6293214Y-4452214D01*
X6336071Y-4452214D01*
X6364643Y-4466500D01*
X6478928Y-4766500D02*
X6493214Y-4752214D01*
X6521786Y-4709357D01*
X6536071Y-4680786D01*
X6550357Y-4637929D01*
X6564643Y-4566500D01*
X6564643Y-4509357D01*
X6550357Y-4437929D01*
X6536071Y-4395072D01*
X6521786Y-4366500D01*
X6493214Y-4323643D01*
X6478928Y-4309357D01*
X7021786Y-4766500D02*
X7007500Y-4752214D01*
X6978928Y-4709357D01*
X6964643Y-4680786D01*
X6950357Y-4637929D01*
X6936071Y-4566500D01*
X6936071Y-4509357D01*
X6950357Y-4437929D01*
X6964643Y-4395072D01*
X6978928Y-4366500D01*
X7007500Y-4323643D01*
X7021786Y-4309357D01*
X7136071Y-4452214D02*
X7136071Y-4652214D01*
X7136071Y-4480786D02*
X7150357Y-4466500D01*
X7178928Y-4452214D01*
X7221786Y-4452214D01*
X7250357Y-4466500D01*
X7264643Y-4495072D01*
X7264643Y-4652214D01*
X7450357Y-4652214D02*
X7421786Y-4637929D01*
X7407500Y-4623643D01*
X7393214Y-4595072D01*
X7393214Y-4509357D01*
X7407500Y-4480786D01*
X7421786Y-4466500D01*
X7450357Y-4452214D01*
X7493214Y-4452214D01*
X7521786Y-4466500D01*
X7536071Y-4480786D01*
X7550357Y-4509357D01*
X7550357Y-4595072D01*
X7536071Y-4623643D01*
X7521786Y-4637929D01*
X7493214Y-4652214D01*
X7450357Y-4652214D01*
X7636071Y-4452214D02*
X7750357Y-4452214D01*
X7678928Y-4352214D02*
X7678928Y-4609357D01*
X7693214Y-4637929D01*
X7721786Y-4652214D01*
X7750357Y-4652214D01*
X8078928Y-4452214D02*
X8078928Y-4752214D01*
X8078928Y-4466500D02*
X8107500Y-4452214D01*
X8164643Y-4452214D01*
X8193214Y-4466500D01*
X8207500Y-4480786D01*
X8221786Y-4509357D01*
X8221786Y-4595072D01*
X8207500Y-4623643D01*
X8193214Y-4637929D01*
X8164643Y-4652214D01*
X8107500Y-4652214D01*
X8078928Y-4637929D01*
X8393214Y-4652214D02*
X8364643Y-4637929D01*
X8350357Y-4609357D01*
X8350357Y-4352214D01*
X8636071Y-4652214D02*
X8636071Y-4495072D01*
X8621786Y-4466500D01*
X8593214Y-4452214D01*
X8536071Y-4452214D01*
X8507500Y-4466500D01*
X8636071Y-4637929D02*
X8607500Y-4652214D01*
X8536071Y-4652214D01*
X8507500Y-4637929D01*
X8493214Y-4609357D01*
X8493214Y-4580786D01*
X8507500Y-4552214D01*
X8536071Y-4537929D01*
X8607500Y-4537929D01*
X8636071Y-4523643D01*
X8736071Y-4452214D02*
X8850357Y-4452214D01*
X8778928Y-4352214D02*
X8778928Y-4609357D01*
X8793214Y-4637929D01*
X8821786Y-4652214D01*
X8850357Y-4652214D01*
X9064643Y-4637929D02*
X9036071Y-4652214D01*
X8978928Y-4652214D01*
X8950357Y-4637929D01*
X8936071Y-4609357D01*
X8936071Y-4495072D01*
X8950357Y-4466500D01*
X8978928Y-4452214D01*
X9036071Y-4452214D01*
X9064643Y-4466500D01*
X9078928Y-4495072D01*
X9078928Y-4523643D01*
X8936071Y-4552214D01*
X9336071Y-4652214D02*
X9336071Y-4352214D01*
X9336071Y-4637929D02*
X9307500Y-4652214D01*
X9250357Y-4652214D01*
X9221786Y-4637929D01*
X9207500Y-4623643D01*
X9193214Y-4595072D01*
X9193214Y-4509357D01*
X9207500Y-4480786D01*
X9221786Y-4466500D01*
X9250357Y-4452214D01*
X9307500Y-4452214D01*
X9336071Y-4466500D01*
X9450357Y-4766500D02*
X9464643Y-4752214D01*
X9493214Y-4709357D01*
X9507500Y-4680786D01*
X9521786Y-4637929D01*
X9536071Y-4566500D01*
X9536071Y-4509357D01*
X9521786Y-4437929D01*
X9507500Y-4395072D01*
X9493214Y-4366500D01*
X9464643Y-4323643D01*
X9450357Y-4309357D01*
M02*
