%FSLAX45Y45*%
G04 Gerber Fmt 4.5, Leading zero omitted, Abs format (unit mm)*
G04 Created by KiCad (PCBNEW (5.0.2)-1) date 2019-01-25 11:54:29 AM*
%MOMM*%
%LPD*%
G01*
G04 APERTURE LIST*
%ADD10C,0.150000*%
%ADD11C,0.200000*%
%ADD12C,0.300000*%
G04 APERTURE END LIST*
D10*
X0Y6985000D02*
X0Y0D01*
X0Y6985000D02*
X7239000Y6985000D01*
X7239000Y0D02*
X7239000Y6985000D01*
X0Y0D02*
X7239000Y0D01*
D11*
X2383000Y3332000D02*
X2443000Y3272000D01*
X2443000Y3332000D02*
X2383000Y3272000D01*
X2583000Y3332000D02*
X2643000Y3272000D01*
X2643000Y3332000D02*
X2583000Y3272000D01*
X3088000Y3302000D02*
G75*
G03X3088000Y3302000I-40000J0D01*
G01*
X3088000Y3048000D02*
G75*
G03X3088000Y3048000I-40000J0D01*
G01*
X3088000Y2794000D02*
G75*
G03X3088000Y2794000I-40000J0D01*
G01*
X3088000Y2540000D02*
G75*
G03X3088000Y2540000I-40000J0D01*
G01*
X3850000Y3302000D02*
G75*
G03X3850000Y3302000I-40000J0D01*
G01*
X3850000Y3048000D02*
G75*
G03X3850000Y3048000I-40000J0D01*
G01*
X3850000Y2794000D02*
G75*
G03X3850000Y2794000I-40000J0D01*
G01*
X3850000Y2540000D02*
G75*
G03X3850000Y2540000I-40000J0D01*
G01*
X2707000Y4318000D02*
G75*
G03X2707000Y4318000I-40000J0D01*
G01*
X3977000Y4318000D02*
G75*
G03X3977000Y4318000I-40000J0D01*
G01*
X3088000Y3810000D02*
G75*
G03X3088000Y3810000I-40000J0D01*
G01*
X3850000Y3810000D02*
G75*
G03X3850000Y3810000I-40000J0D01*
G01*
X5120000Y3048000D02*
G75*
G03X5120000Y3048000I-40000J0D01*
G01*
X6390000Y3048000D02*
G75*
G03X6390000Y3048000I-40000J0D01*
G01*
X5120000Y3556000D02*
G75*
G03X5120000Y3556000I-40000J0D01*
G01*
X6390000Y3556000D02*
G75*
G03X6390000Y3556000I-40000J0D01*
G01*
X5120000Y4064000D02*
G75*
G03X5120000Y4064000I-40000J0D01*
G01*
X6390000Y4064000D02*
G75*
G03X6390000Y4064000I-40000J0D01*
G01*
X2648500Y1317000D02*
X2648500Y1227000D01*
X2603500Y1272000D02*
X2693500Y1272000D01*
X2650000Y1817000D02*
X2650000Y1727000D01*
X2605000Y1772000D02*
X2695000Y1772000D01*
X2650000Y1067000D02*
X2650000Y977000D01*
X2605000Y1022000D02*
X2695000Y1022000D01*
X2651000Y1567000D02*
X2651000Y1477000D01*
X2606000Y1522000D02*
X2696000Y1522000D01*
X546891Y6184109D02*
X546891Y6261891D01*
X469109Y6261891D01*
X469109Y6184109D01*
X546891Y6184109D01*
X546891Y5930109D02*
X546891Y6007891D01*
X469109Y6007891D01*
X469109Y5930109D01*
X546891Y5930109D01*
X546891Y5676109D02*
X546891Y5753891D01*
X469109Y5753891D01*
X469109Y5676109D01*
X546891Y5676109D01*
X546891Y5422109D02*
X546891Y5499891D01*
X469109Y5499891D01*
X469109Y5422109D01*
X546891Y5422109D01*
X546891Y5168109D02*
X546891Y5245891D01*
X469109Y5245891D01*
X469109Y5168109D01*
X546891Y5168109D01*
X546891Y4914109D02*
X546891Y4991891D01*
X469109Y4991891D01*
X469109Y4914109D01*
X546891Y4914109D01*
X546891Y4660109D02*
X546891Y4737891D01*
X469109Y4737891D01*
X469109Y4660109D01*
X546891Y4660109D01*
X546891Y4406109D02*
X546891Y4483891D01*
X469109Y4483891D01*
X469109Y4406109D01*
X546891Y4406109D01*
X546891Y4152109D02*
X546891Y4229891D01*
X469109Y4229891D01*
X469109Y4152109D01*
X546891Y4152109D01*
X546891Y3898109D02*
X546891Y3975891D01*
X469109Y3975891D01*
X469109Y3898109D01*
X546891Y3898109D01*
X546891Y3644109D02*
X546891Y3721891D01*
X469109Y3721891D01*
X469109Y3644109D01*
X546891Y3644109D01*
X546891Y3390109D02*
X546891Y3467891D01*
X469109Y3467891D01*
X469109Y3390109D01*
X546891Y3390109D01*
X546891Y3136109D02*
X546891Y3213891D01*
X469109Y3213891D01*
X469109Y3136109D01*
X546891Y3136109D01*
X546891Y2882109D02*
X546891Y2959891D01*
X469109Y2959891D01*
X469109Y2882109D01*
X546891Y2882109D01*
X546891Y2628109D02*
X546891Y2705891D01*
X469109Y2705891D01*
X469109Y2628109D01*
X546891Y2628109D01*
X546891Y2374109D02*
X546891Y2451891D01*
X469109Y2451891D01*
X469109Y2374109D01*
X546891Y2374109D01*
X546891Y2120109D02*
X546891Y2197891D01*
X469109Y2197891D01*
X469109Y2120109D01*
X546891Y2120109D01*
X546891Y1866109D02*
X546891Y1943891D01*
X469109Y1943891D01*
X469109Y1866109D01*
X546891Y1866109D01*
X546891Y1612109D02*
X546891Y1689891D01*
X469109Y1689891D01*
X469109Y1612109D01*
X546891Y1612109D01*
X546891Y1358109D02*
X546891Y1435891D01*
X469109Y1435891D01*
X469109Y1358109D01*
X546891Y1358109D01*
X546891Y1104109D02*
X546891Y1181891D01*
X469109Y1181891D01*
X469109Y1104109D01*
X546891Y1104109D01*
X546891Y850109D02*
X546891Y927891D01*
X469109Y927891D01*
X469109Y850109D01*
X546891Y850109D01*
X546891Y596109D02*
X546891Y673891D01*
X469109Y673891D01*
X469109Y596109D01*
X546891Y596109D01*
X546891Y342109D02*
X546891Y419891D01*
X469109Y419891D01*
X469109Y342109D01*
X546891Y342109D01*
X800891Y4914109D02*
X800891Y4991891D01*
X723109Y4991891D01*
X723109Y4914109D01*
X800891Y4914109D01*
X800891Y1612109D02*
X800891Y1689891D01*
X723109Y1689891D01*
X723109Y1612109D01*
X800891Y1612109D01*
X800891Y1358109D02*
X800891Y1435891D01*
X723109Y1435891D01*
X723109Y1358109D01*
X800891Y1358109D01*
X800891Y1104109D02*
X800891Y1181891D01*
X723109Y1181891D01*
X723109Y1104109D01*
X800891Y1104109D01*
X800891Y596109D02*
X800891Y673891D01*
X723109Y673891D01*
X723109Y596109D01*
X800891Y596109D01*
X1054891Y6184109D02*
X1054891Y6261891D01*
X977109Y6261891D01*
X977109Y6184109D01*
X1054891Y6184109D01*
X1054891Y5930109D02*
X1054891Y6007891D01*
X977109Y6007891D01*
X977109Y5930109D01*
X1054891Y5930109D01*
X1054891Y5676109D02*
X1054891Y5753891D01*
X977109Y5753891D01*
X977109Y5676109D01*
X1054891Y5676109D01*
X1054891Y5422109D02*
X1054891Y5499891D01*
X977109Y5499891D01*
X977109Y5422109D01*
X1054891Y5422109D01*
X1054891Y5168109D02*
X1054891Y5245891D01*
X977109Y5245891D01*
X977109Y5168109D01*
X1054891Y5168109D01*
X1054891Y4914109D02*
X1054891Y4991891D01*
X977109Y4991891D01*
X977109Y4914109D01*
X1054891Y4914109D01*
X1054891Y4660109D02*
X1054891Y4737891D01*
X977109Y4737891D01*
X977109Y4660109D01*
X1054891Y4660109D01*
X1054891Y4406109D02*
X1054891Y4483891D01*
X977109Y4483891D01*
X977109Y4406109D01*
X1054891Y4406109D01*
X1054891Y4152109D02*
X1054891Y4229891D01*
X977109Y4229891D01*
X977109Y4152109D01*
X1054891Y4152109D01*
X1054891Y2628109D02*
X1054891Y2705891D01*
X977109Y2705891D01*
X977109Y2628109D01*
X1054891Y2628109D01*
X1054891Y2374109D02*
X1054891Y2451891D01*
X977109Y2451891D01*
X977109Y2374109D01*
X1054891Y2374109D01*
X1054891Y2120109D02*
X1054891Y2197891D01*
X977109Y2197891D01*
X977109Y2120109D01*
X1054891Y2120109D01*
X1054891Y1866109D02*
X1054891Y1943891D01*
X977109Y1943891D01*
X977109Y1866109D01*
X1054891Y1866109D01*
X1308891Y6184109D02*
X1308891Y6261891D01*
X1231109Y6261891D01*
X1231109Y6184109D01*
X1308891Y6184109D01*
X1308891Y5930109D02*
X1308891Y6007891D01*
X1231109Y6007891D01*
X1231109Y5930109D01*
X1308891Y5930109D01*
X1308891Y5676109D02*
X1308891Y5753891D01*
X1231109Y5753891D01*
X1231109Y5676109D01*
X1308891Y5676109D01*
X1308891Y5422109D02*
X1308891Y5499891D01*
X1231109Y5499891D01*
X1231109Y5422109D01*
X1308891Y5422109D01*
X1308891Y5168109D02*
X1308891Y5245891D01*
X1231109Y5245891D01*
X1231109Y5168109D01*
X1308891Y5168109D01*
X1308891Y4914109D02*
X1308891Y4991891D01*
X1231109Y4991891D01*
X1231109Y4914109D01*
X1308891Y4914109D01*
X1308891Y4660109D02*
X1308891Y4737891D01*
X1231109Y4737891D01*
X1231109Y4660109D01*
X1308891Y4660109D01*
X1308891Y4406109D02*
X1308891Y4483891D01*
X1231109Y4483891D01*
X1231109Y4406109D01*
X1308891Y4406109D01*
X1308891Y4152109D02*
X1308891Y4229891D01*
X1231109Y4229891D01*
X1231109Y4152109D01*
X1308891Y4152109D01*
X1308891Y2628109D02*
X1308891Y2705891D01*
X1231109Y2705891D01*
X1231109Y2628109D01*
X1308891Y2628109D01*
X1308891Y2374109D02*
X1308891Y2451891D01*
X1231109Y2451891D01*
X1231109Y2374109D01*
X1308891Y2374109D01*
X1308891Y2120109D02*
X1308891Y2197891D01*
X1231109Y2197891D01*
X1231109Y2120109D01*
X1308891Y2120109D01*
X1308891Y1866109D02*
X1308891Y1943891D01*
X1231109Y1943891D01*
X1231109Y1866109D01*
X1308891Y1866109D01*
X1562891Y4914109D02*
X1562891Y4991891D01*
X1485109Y4991891D01*
X1485109Y4914109D01*
X1562891Y4914109D01*
X1770891Y1993109D02*
X1770891Y2070891D01*
X1693109Y2070891D01*
X1693109Y1993109D01*
X1770891Y1993109D01*
X1770891Y1739109D02*
X1770891Y1816891D01*
X1693109Y1816891D01*
X1693109Y1739109D01*
X1770891Y1739109D01*
X1770891Y1485109D02*
X1770891Y1562891D01*
X1693109Y1562891D01*
X1693109Y1485109D01*
X1770891Y1485109D01*
X1770891Y1231109D02*
X1770891Y1308891D01*
X1693109Y1308891D01*
X1693109Y1231109D01*
X1770891Y1231109D01*
X1770891Y977109D02*
X1770891Y1054891D01*
X1693109Y1054891D01*
X1693109Y977109D01*
X1770891Y977109D01*
X1816891Y4914109D02*
X1816891Y4991891D01*
X1739109Y4991891D01*
X1739109Y4914109D01*
X1816891Y4914109D01*
X2070891Y6184109D02*
X2070891Y6261891D01*
X1993109Y6261891D01*
X1993109Y6184109D01*
X2070891Y6184109D01*
X2070891Y5930109D02*
X2070891Y6007891D01*
X1993109Y6007891D01*
X1993109Y5930109D01*
X2070891Y5930109D01*
X2070891Y5676109D02*
X2070891Y5753891D01*
X1993109Y5753891D01*
X1993109Y5676109D01*
X2070891Y5676109D01*
X2070891Y5422109D02*
X2070891Y5499891D01*
X1993109Y5499891D01*
X1993109Y5422109D01*
X2070891Y5422109D01*
X2070891Y5168109D02*
X2070891Y5245891D01*
X1993109Y5245891D01*
X1993109Y5168109D01*
X2070891Y5168109D01*
X2070891Y4914109D02*
X2070891Y4991891D01*
X1993109Y4991891D01*
X1993109Y4914109D01*
X2070891Y4914109D01*
X2070891Y4660109D02*
X2070891Y4737891D01*
X1993109Y4737891D01*
X1993109Y4660109D01*
X2070891Y4660109D01*
X2070891Y4406109D02*
X2070891Y4483891D01*
X1993109Y4483891D01*
X1993109Y4406109D01*
X2070891Y4406109D01*
X2070891Y4152109D02*
X2070891Y4229891D01*
X1993109Y4229891D01*
X1993109Y4152109D01*
X2070891Y4152109D01*
X2070891Y3898109D02*
X2070891Y3975891D01*
X1993109Y3975891D01*
X1993109Y3898109D01*
X2070891Y3898109D01*
X2070891Y3644109D02*
X2070891Y3721891D01*
X1993109Y3721891D01*
X1993109Y3644109D01*
X2070891Y3644109D01*
X2070891Y3390109D02*
X2070891Y3467891D01*
X1993109Y3467891D01*
X1993109Y3390109D01*
X2070891Y3390109D01*
X2070891Y3136109D02*
X2070891Y3213891D01*
X1993109Y3213891D01*
X1993109Y3136109D01*
X2070891Y3136109D01*
X2070891Y2882109D02*
X2070891Y2959891D01*
X1993109Y2959891D01*
X1993109Y2882109D01*
X2070891Y2882109D01*
X2070891Y2628109D02*
X2070891Y2705891D01*
X1993109Y2705891D01*
X1993109Y2628109D01*
X2070891Y2628109D01*
X2070891Y2374109D02*
X2070891Y2451891D01*
X1993109Y2451891D01*
X1993109Y2374109D01*
X2070891Y2374109D01*
X2070891Y2120109D02*
X2070891Y2197891D01*
X1993109Y2197891D01*
X1993109Y2120109D01*
X2070891Y2120109D01*
X2070891Y1866109D02*
X2070891Y1943891D01*
X1993109Y1943891D01*
X1993109Y1866109D01*
X2070891Y1866109D01*
X2070891Y1612109D02*
X2070891Y1689891D01*
X1993109Y1689891D01*
X1993109Y1612109D01*
X2070891Y1612109D01*
X2070891Y1358109D02*
X2070891Y1435891D01*
X1993109Y1435891D01*
X1993109Y1358109D01*
X2070891Y1358109D01*
X2070891Y1104109D02*
X2070891Y1181891D01*
X1993109Y1181891D01*
X1993109Y1104109D01*
X2070891Y1104109D01*
X2070891Y850109D02*
X2070891Y927891D01*
X1993109Y927891D01*
X1993109Y850109D01*
X2070891Y850109D01*
X2070891Y596109D02*
X2070891Y673891D01*
X1993109Y673891D01*
X1993109Y596109D01*
X2070891Y596109D01*
X2070891Y342109D02*
X2070891Y419891D01*
X1993109Y419891D01*
X1993109Y342109D01*
X2070891Y342109D01*
X5219192Y5391404D02*
X5289042Y5461254D01*
X5219192Y5531104D01*
X5149342Y5461254D01*
X5219192Y5391404D01*
X5469382Y5141214D02*
X5539232Y5211064D01*
X5469382Y5280914D01*
X5399532Y5211064D01*
X5469382Y5141214D01*
X5969000Y5391150D02*
X6038850Y5461000D01*
X5969000Y5530850D01*
X5899150Y5461000D01*
X5969000Y5391150D01*
X6468618Y5141214D02*
X6538468Y5211064D01*
X6468618Y5280914D01*
X6398768Y5211064D01*
X6468618Y5141214D01*
X6718808Y5391404D02*
X6788658Y5461254D01*
X6718808Y5531104D01*
X6648958Y5461254D01*
X6718808Y5391404D01*
X2806192Y5391404D02*
X2876042Y5461254D01*
X2806192Y5531104D01*
X2736342Y5461254D01*
X2806192Y5391404D01*
X3056382Y5141214D02*
X3126232Y5211064D01*
X3056382Y5280914D01*
X2986532Y5211064D01*
X3056382Y5141214D01*
X3556000Y5391150D02*
X3625850Y5461000D01*
X3556000Y5530850D01*
X3486150Y5461000D01*
X3556000Y5391150D01*
X4055618Y5141214D02*
X4125468Y5211064D01*
X4055618Y5280914D01*
X3985768Y5211064D01*
X4055618Y5141214D01*
X4305808Y5391404D02*
X4375658Y5461254D01*
X4305808Y5531104D01*
X4235958Y5461254D01*
X4305808Y5391404D01*
X2806000Y2169000D02*
X3036000Y1939000D01*
X3036000Y2169000D02*
X2806000Y1939000D01*
X3036000Y2054000D02*
G75*
G03X3036000Y2054000I-115000J0D01*
G01*
X2806000Y855000D02*
X3036000Y625000D01*
X3036000Y855000D02*
X2806000Y625000D01*
X3036000Y740000D02*
G75*
G03X3036000Y740000I-115000J0D01*
G01*
X5399024Y6530594D02*
X5538724Y6390894D01*
X5538724Y6530594D02*
X5399024Y6390894D01*
X5468874Y6530594D02*
X5468874Y6390894D01*
X5399024Y6460744D02*
X5538724Y6460744D01*
X6399276Y6530594D02*
X6538976Y6390894D01*
X6538976Y6530594D02*
X6399276Y6390894D01*
X6469126Y6530594D02*
X6469126Y6390894D01*
X6399276Y6460744D02*
X6538976Y6460744D01*
X2986024Y6530594D02*
X3125724Y6390894D01*
X3125724Y6530594D02*
X2986024Y6390894D01*
X3055874Y6530594D02*
X3055874Y6390894D01*
X2986024Y6460744D02*
X3125724Y6460744D01*
X3986276Y6530594D02*
X4125976Y6390894D01*
X4125976Y6530594D02*
X3986276Y6390894D01*
X4056126Y6530594D02*
X4056126Y6390894D01*
X3986276Y6460744D02*
X4125976Y6460744D01*
X1110000Y3589000D02*
X1430000Y3269000D01*
X1430000Y3589000D02*
X1110000Y3269000D01*
X1383138Y3315862D02*
X1383138Y3542138D01*
X1156862Y3542138D01*
X1156862Y3315862D01*
X1383138Y3315862D01*
X6317000Y795000D02*
X6637000Y475000D01*
X6637000Y795000D02*
X6317000Y475000D01*
X6590138Y521862D02*
X6590138Y748138D01*
X6363862Y748138D01*
X6363862Y521862D01*
X6590138Y521862D01*
D12*
X278928Y-473214D02*
X278928Y-173214D01*
X350357Y-173214D01*
X393214Y-187500D01*
X421786Y-216071D01*
X436071Y-244643D01*
X450357Y-301786D01*
X450357Y-344643D01*
X436071Y-401786D01*
X421786Y-430357D01*
X393214Y-458929D01*
X350357Y-473214D01*
X278928Y-473214D01*
X578928Y-473214D02*
X578928Y-273214D01*
X578928Y-330357D02*
X593214Y-301786D01*
X607500Y-287500D01*
X636071Y-273214D01*
X664643Y-273214D01*
X764643Y-473214D02*
X764643Y-273214D01*
X764643Y-173214D02*
X750357Y-187500D01*
X764643Y-201786D01*
X778928Y-187500D01*
X764643Y-173214D01*
X764643Y-201786D01*
X950357Y-473214D02*
X921786Y-458929D01*
X907500Y-430357D01*
X907500Y-173214D01*
X1107500Y-473214D02*
X1078928Y-458929D01*
X1064643Y-430357D01*
X1064643Y-173214D01*
X1450357Y-473214D02*
X1450357Y-173214D01*
X1550357Y-387500D01*
X1650357Y-173214D01*
X1650357Y-473214D01*
X1921786Y-473214D02*
X1921786Y-316072D01*
X1907500Y-287500D01*
X1878928Y-273214D01*
X1821786Y-273214D01*
X1793214Y-287500D01*
X1921786Y-458929D02*
X1893214Y-473214D01*
X1821786Y-473214D01*
X1793214Y-458929D01*
X1778928Y-430357D01*
X1778928Y-401786D01*
X1793214Y-373214D01*
X1821786Y-358929D01*
X1893214Y-358929D01*
X1921786Y-344643D01*
X2064643Y-273214D02*
X2064643Y-573214D01*
X2064643Y-287500D02*
X2093214Y-273214D01*
X2150357Y-273214D01*
X2178928Y-287500D01*
X2193214Y-301786D01*
X2207500Y-330357D01*
X2207500Y-416071D01*
X2193214Y-444643D01*
X2178928Y-458929D01*
X2150357Y-473214D01*
X2093214Y-473214D01*
X2064643Y-458929D01*
X2336071Y-444643D02*
X2350357Y-458929D01*
X2336071Y-473214D01*
X2321786Y-458929D01*
X2336071Y-444643D01*
X2336071Y-473214D01*
X2336071Y-287500D02*
X2350357Y-301786D01*
X2336071Y-316072D01*
X2321786Y-301786D01*
X2336071Y-287500D01*
X2336071Y-316072D01*
X-67500Y-937500D02*
X-7500Y-997500D01*
X-7500Y-937500D02*
X-67500Y-997500D01*
X336071Y-803214D02*
X364643Y-803214D01*
X393214Y-817500D01*
X407500Y-831786D01*
X421786Y-860357D01*
X436071Y-917500D01*
X436071Y-988929D01*
X421786Y-1046071D01*
X407500Y-1074643D01*
X393214Y-1088929D01*
X364643Y-1103214D01*
X336071Y-1103214D01*
X307500Y-1088929D01*
X293214Y-1074643D01*
X278928Y-1046071D01*
X264643Y-988929D01*
X264643Y-917500D01*
X278928Y-860357D01*
X293214Y-831786D01*
X307500Y-817500D01*
X336071Y-803214D01*
X564643Y-1074643D02*
X578928Y-1088929D01*
X564643Y-1103214D01*
X550357Y-1088929D01*
X564643Y-1074643D01*
X564643Y-1103214D01*
X836071Y-803214D02*
X778928Y-803214D01*
X750357Y-817500D01*
X736071Y-831786D01*
X707500Y-874643D01*
X693214Y-931786D01*
X693214Y-1046071D01*
X707500Y-1074643D01*
X721786Y-1088929D01*
X750357Y-1103214D01*
X807500Y-1103214D01*
X836071Y-1088929D01*
X850357Y-1074643D01*
X864643Y-1046071D01*
X864643Y-974643D01*
X850357Y-946071D01*
X836071Y-931786D01*
X807500Y-917500D01*
X750357Y-917500D01*
X721786Y-931786D01*
X707500Y-946071D01*
X693214Y-974643D01*
X1050357Y-803214D02*
X1078928Y-803214D01*
X1107500Y-817500D01*
X1121786Y-831786D01*
X1136071Y-860357D01*
X1150357Y-917500D01*
X1150357Y-988929D01*
X1136071Y-1046071D01*
X1121786Y-1074643D01*
X1107500Y-1088929D01*
X1078928Y-1103214D01*
X1050357Y-1103214D01*
X1021786Y-1088929D01*
X1007500Y-1074643D01*
X993214Y-1046071D01*
X978928Y-988929D01*
X978928Y-917500D01*
X993214Y-860357D01*
X1007500Y-831786D01*
X1021786Y-817500D01*
X1050357Y-803214D01*
X1278928Y-1103214D02*
X1278928Y-903214D01*
X1278928Y-931786D02*
X1293214Y-917500D01*
X1321786Y-903214D01*
X1364643Y-903214D01*
X1393214Y-917500D01*
X1407500Y-946071D01*
X1407500Y-1103214D01*
X1407500Y-946071D02*
X1421786Y-917500D01*
X1450357Y-903214D01*
X1493214Y-903214D01*
X1521786Y-917500D01*
X1536071Y-946071D01*
X1536071Y-1103214D01*
X1678928Y-1103214D02*
X1678928Y-903214D01*
X1678928Y-931786D02*
X1693214Y-917500D01*
X1721786Y-903214D01*
X1764643Y-903214D01*
X1793214Y-917500D01*
X1807500Y-946071D01*
X1807500Y-1103214D01*
X1807500Y-946071D02*
X1821786Y-917500D01*
X1850357Y-903214D01*
X1893214Y-903214D01*
X1921786Y-917500D01*
X1936071Y-946071D01*
X1936071Y-1103214D01*
X2521786Y-788929D02*
X2264643Y-1174643D01*
X2907500Y-803214D02*
X2936071Y-803214D01*
X2964643Y-817500D01*
X2978928Y-831786D01*
X2993214Y-860357D01*
X3007500Y-917500D01*
X3007500Y-988929D01*
X2993214Y-1046071D01*
X2978928Y-1074643D01*
X2964643Y-1088929D01*
X2936071Y-1103214D01*
X2907500Y-1103214D01*
X2878928Y-1088929D01*
X2864643Y-1074643D01*
X2850357Y-1046071D01*
X2836071Y-988929D01*
X2836071Y-917500D01*
X2850357Y-860357D01*
X2864643Y-831786D01*
X2878928Y-817500D01*
X2907500Y-803214D01*
X3136071Y-1074643D02*
X3150357Y-1088929D01*
X3136071Y-1103214D01*
X3121786Y-1088929D01*
X3136071Y-1074643D01*
X3136071Y-1103214D01*
X3336071Y-803214D02*
X3364643Y-803214D01*
X3393214Y-817500D01*
X3407500Y-831786D01*
X3421786Y-860357D01*
X3436071Y-917500D01*
X3436071Y-988929D01*
X3421786Y-1046071D01*
X3407500Y-1074643D01*
X3393214Y-1088929D01*
X3364643Y-1103214D01*
X3336071Y-1103214D01*
X3307500Y-1088929D01*
X3293214Y-1074643D01*
X3278928Y-1046071D01*
X3264643Y-988929D01*
X3264643Y-917500D01*
X3278928Y-860357D01*
X3293214Y-831786D01*
X3307500Y-817500D01*
X3336071Y-803214D01*
X3550357Y-831786D02*
X3564643Y-817500D01*
X3593214Y-803214D01*
X3664643Y-803214D01*
X3693214Y-817500D01*
X3707500Y-831786D01*
X3721786Y-860357D01*
X3721786Y-888929D01*
X3707500Y-931786D01*
X3536071Y-1103214D01*
X3721786Y-1103214D01*
X3978928Y-903214D02*
X3978928Y-1103214D01*
X3907500Y-788929D02*
X3836071Y-1003214D01*
X4021786Y-1003214D01*
X4121786Y-803214D02*
X4121786Y-860357D01*
X4236071Y-803214D02*
X4236071Y-860357D01*
X4678928Y-1217500D02*
X4664643Y-1203214D01*
X4636071Y-1160357D01*
X4621786Y-1131786D01*
X4607500Y-1088929D01*
X4593214Y-1017500D01*
X4593214Y-960357D01*
X4607500Y-888929D01*
X4621786Y-846071D01*
X4636071Y-817500D01*
X4664643Y-774643D01*
X4678928Y-760357D01*
X4778928Y-831786D02*
X4793214Y-817500D01*
X4821786Y-803214D01*
X4893214Y-803214D01*
X4921786Y-817500D01*
X4936071Y-831786D01*
X4950357Y-860357D01*
X4950357Y-888929D01*
X4936071Y-931786D01*
X4764643Y-1103214D01*
X4950357Y-1103214D01*
X5307500Y-1103214D02*
X5307500Y-803214D01*
X5436071Y-1103214D02*
X5436071Y-946071D01*
X5421786Y-917500D01*
X5393214Y-903214D01*
X5350357Y-903214D01*
X5321786Y-917500D01*
X5307500Y-931786D01*
X5621786Y-1103214D02*
X5593214Y-1088929D01*
X5578928Y-1074643D01*
X5564643Y-1046071D01*
X5564643Y-960357D01*
X5578928Y-931786D01*
X5593214Y-917500D01*
X5621786Y-903214D01*
X5664643Y-903214D01*
X5693214Y-917500D01*
X5707500Y-931786D01*
X5721786Y-960357D01*
X5721786Y-1046071D01*
X5707500Y-1074643D01*
X5693214Y-1088929D01*
X5664643Y-1103214D01*
X5621786Y-1103214D01*
X5893214Y-1103214D02*
X5864643Y-1088929D01*
X5850357Y-1060357D01*
X5850357Y-803214D01*
X6121786Y-1088929D02*
X6093214Y-1103214D01*
X6036071Y-1103214D01*
X6007500Y-1088929D01*
X5993214Y-1060357D01*
X5993214Y-946071D01*
X6007500Y-917500D01*
X6036071Y-903214D01*
X6093214Y-903214D01*
X6121786Y-917500D01*
X6136071Y-946071D01*
X6136071Y-974643D01*
X5993214Y-1003214D01*
X6250357Y-1088929D02*
X6278928Y-1103214D01*
X6336071Y-1103214D01*
X6364643Y-1088929D01*
X6378928Y-1060357D01*
X6378928Y-1046071D01*
X6364643Y-1017500D01*
X6336071Y-1003214D01*
X6293214Y-1003214D01*
X6264643Y-988929D01*
X6250357Y-960357D01*
X6250357Y-946071D01*
X6264643Y-917500D01*
X6293214Y-903214D01*
X6336071Y-903214D01*
X6364643Y-917500D01*
X6478928Y-1217500D02*
X6493214Y-1203214D01*
X6521786Y-1160357D01*
X6536071Y-1131786D01*
X6550357Y-1088929D01*
X6564643Y-1017500D01*
X6564643Y-960357D01*
X6550357Y-888929D01*
X6536071Y-846071D01*
X6521786Y-817500D01*
X6493214Y-774643D01*
X6478928Y-760357D01*
X-7500Y-1363500D02*
G75*
G03X-7500Y-1363500I-40000J0D01*
G01*
X336071Y-1199214D02*
X364643Y-1199214D01*
X393214Y-1213500D01*
X407500Y-1227786D01*
X421786Y-1256357D01*
X436071Y-1313500D01*
X436071Y-1384929D01*
X421786Y-1442071D01*
X407500Y-1470643D01*
X393214Y-1484929D01*
X364643Y-1499214D01*
X336071Y-1499214D01*
X307500Y-1484929D01*
X293214Y-1470643D01*
X278928Y-1442071D01*
X264643Y-1384929D01*
X264643Y-1313500D01*
X278928Y-1256357D01*
X293214Y-1227786D01*
X307500Y-1213500D01*
X336071Y-1199214D01*
X564643Y-1470643D02*
X578928Y-1484929D01*
X564643Y-1499214D01*
X550357Y-1484929D01*
X564643Y-1470643D01*
X564643Y-1499214D01*
X750357Y-1327786D02*
X721786Y-1313500D01*
X707500Y-1299214D01*
X693214Y-1270643D01*
X693214Y-1256357D01*
X707500Y-1227786D01*
X721786Y-1213500D01*
X750357Y-1199214D01*
X807500Y-1199214D01*
X836071Y-1213500D01*
X850357Y-1227786D01*
X864643Y-1256357D01*
X864643Y-1270643D01*
X850357Y-1299214D01*
X836071Y-1313500D01*
X807500Y-1327786D01*
X750357Y-1327786D01*
X721786Y-1342072D01*
X707500Y-1356357D01*
X693214Y-1384929D01*
X693214Y-1442071D01*
X707500Y-1470643D01*
X721786Y-1484929D01*
X750357Y-1499214D01*
X807500Y-1499214D01*
X836071Y-1484929D01*
X850357Y-1470643D01*
X864643Y-1442071D01*
X864643Y-1384929D01*
X850357Y-1356357D01*
X836071Y-1342072D01*
X807500Y-1327786D01*
X1050357Y-1199214D02*
X1078928Y-1199214D01*
X1107500Y-1213500D01*
X1121786Y-1227786D01*
X1136071Y-1256357D01*
X1150357Y-1313500D01*
X1150357Y-1384929D01*
X1136071Y-1442071D01*
X1121786Y-1470643D01*
X1107500Y-1484929D01*
X1078928Y-1499214D01*
X1050357Y-1499214D01*
X1021786Y-1484929D01*
X1007500Y-1470643D01*
X993214Y-1442071D01*
X978928Y-1384929D01*
X978928Y-1313500D01*
X993214Y-1256357D01*
X1007500Y-1227786D01*
X1021786Y-1213500D01*
X1050357Y-1199214D01*
X1278928Y-1499214D02*
X1278928Y-1299214D01*
X1278928Y-1327786D02*
X1293214Y-1313500D01*
X1321786Y-1299214D01*
X1364643Y-1299214D01*
X1393214Y-1313500D01*
X1407500Y-1342072D01*
X1407500Y-1499214D01*
X1407500Y-1342072D02*
X1421786Y-1313500D01*
X1450357Y-1299214D01*
X1493214Y-1299214D01*
X1521786Y-1313500D01*
X1536071Y-1342072D01*
X1536071Y-1499214D01*
X1678928Y-1499214D02*
X1678928Y-1299214D01*
X1678928Y-1327786D02*
X1693214Y-1313500D01*
X1721786Y-1299214D01*
X1764643Y-1299214D01*
X1793214Y-1313500D01*
X1807500Y-1342072D01*
X1807500Y-1499214D01*
X1807500Y-1342072D02*
X1821786Y-1313500D01*
X1850357Y-1299214D01*
X1893214Y-1299214D01*
X1921786Y-1313500D01*
X1936071Y-1342072D01*
X1936071Y-1499214D01*
X2521786Y-1184929D02*
X2264643Y-1570643D01*
X2907500Y-1199214D02*
X2936071Y-1199214D01*
X2964643Y-1213500D01*
X2978928Y-1227786D01*
X2993214Y-1256357D01*
X3007500Y-1313500D01*
X3007500Y-1384929D01*
X2993214Y-1442071D01*
X2978928Y-1470643D01*
X2964643Y-1484929D01*
X2936071Y-1499214D01*
X2907500Y-1499214D01*
X2878928Y-1484929D01*
X2864643Y-1470643D01*
X2850357Y-1442071D01*
X2836071Y-1384929D01*
X2836071Y-1313500D01*
X2850357Y-1256357D01*
X2864643Y-1227786D01*
X2878928Y-1213500D01*
X2907500Y-1199214D01*
X3136071Y-1470643D02*
X3150357Y-1484929D01*
X3136071Y-1499214D01*
X3121786Y-1484929D01*
X3136071Y-1470643D01*
X3136071Y-1499214D01*
X3336071Y-1199214D02*
X3364643Y-1199214D01*
X3393214Y-1213500D01*
X3407500Y-1227786D01*
X3421786Y-1256357D01*
X3436071Y-1313500D01*
X3436071Y-1384929D01*
X3421786Y-1442071D01*
X3407500Y-1470643D01*
X3393214Y-1484929D01*
X3364643Y-1499214D01*
X3336071Y-1499214D01*
X3307500Y-1484929D01*
X3293214Y-1470643D01*
X3278928Y-1442071D01*
X3264643Y-1384929D01*
X3264643Y-1313500D01*
X3278928Y-1256357D01*
X3293214Y-1227786D01*
X3307500Y-1213500D01*
X3336071Y-1199214D01*
X3536071Y-1199214D02*
X3721786Y-1199214D01*
X3621786Y-1313500D01*
X3664643Y-1313500D01*
X3693214Y-1327786D01*
X3707500Y-1342072D01*
X3721786Y-1370643D01*
X3721786Y-1442071D01*
X3707500Y-1470643D01*
X3693214Y-1484929D01*
X3664643Y-1499214D01*
X3578928Y-1499214D01*
X3550357Y-1484929D01*
X3536071Y-1470643D01*
X4007500Y-1499214D02*
X3836071Y-1499214D01*
X3921786Y-1499214D02*
X3921786Y-1199214D01*
X3893214Y-1242072D01*
X3864643Y-1270643D01*
X3836071Y-1284929D01*
X4121786Y-1199214D02*
X4121786Y-1256357D01*
X4236071Y-1199214D02*
X4236071Y-1256357D01*
X4678928Y-1613500D02*
X4664643Y-1599214D01*
X4636071Y-1556357D01*
X4621786Y-1527786D01*
X4607500Y-1484929D01*
X4593214Y-1413500D01*
X4593214Y-1356357D01*
X4607500Y-1284929D01*
X4621786Y-1242072D01*
X4636071Y-1213500D01*
X4664643Y-1170643D01*
X4678928Y-1156357D01*
X4950357Y-1499214D02*
X4778928Y-1499214D01*
X4864643Y-1499214D02*
X4864643Y-1199214D01*
X4836071Y-1242072D01*
X4807500Y-1270643D01*
X4778928Y-1284929D01*
X5121786Y-1327786D02*
X5093214Y-1313500D01*
X5078928Y-1299214D01*
X5064643Y-1270643D01*
X5064643Y-1256357D01*
X5078928Y-1227786D01*
X5093214Y-1213500D01*
X5121786Y-1199214D01*
X5178928Y-1199214D01*
X5207500Y-1213500D01*
X5221786Y-1227786D01*
X5236071Y-1256357D01*
X5236071Y-1270643D01*
X5221786Y-1299214D01*
X5207500Y-1313500D01*
X5178928Y-1327786D01*
X5121786Y-1327786D01*
X5093214Y-1342072D01*
X5078928Y-1356357D01*
X5064643Y-1384929D01*
X5064643Y-1442071D01*
X5078928Y-1470643D01*
X5093214Y-1484929D01*
X5121786Y-1499214D01*
X5178928Y-1499214D01*
X5207500Y-1484929D01*
X5221786Y-1470643D01*
X5236071Y-1442071D01*
X5236071Y-1384929D01*
X5221786Y-1356357D01*
X5207500Y-1342072D01*
X5178928Y-1327786D01*
X5593214Y-1499214D02*
X5593214Y-1199214D01*
X5721786Y-1499214D02*
X5721786Y-1342072D01*
X5707500Y-1313500D01*
X5678928Y-1299214D01*
X5636071Y-1299214D01*
X5607500Y-1313500D01*
X5593214Y-1327786D01*
X5907500Y-1499214D02*
X5878928Y-1484929D01*
X5864643Y-1470643D01*
X5850357Y-1442071D01*
X5850357Y-1356357D01*
X5864643Y-1327786D01*
X5878928Y-1313500D01*
X5907500Y-1299214D01*
X5950357Y-1299214D01*
X5978928Y-1313500D01*
X5993214Y-1327786D01*
X6007500Y-1356357D01*
X6007500Y-1442071D01*
X5993214Y-1470643D01*
X5978928Y-1484929D01*
X5950357Y-1499214D01*
X5907500Y-1499214D01*
X6178928Y-1499214D02*
X6150357Y-1484929D01*
X6136071Y-1456357D01*
X6136071Y-1199214D01*
X6407500Y-1484929D02*
X6378928Y-1499214D01*
X6321786Y-1499214D01*
X6293214Y-1484929D01*
X6278928Y-1456357D01*
X6278928Y-1342072D01*
X6293214Y-1313500D01*
X6321786Y-1299214D01*
X6378928Y-1299214D01*
X6407500Y-1313500D01*
X6421786Y-1342072D01*
X6421786Y-1370643D01*
X6278928Y-1399214D01*
X6536071Y-1484929D02*
X6564643Y-1499214D01*
X6621786Y-1499214D01*
X6650357Y-1484929D01*
X6664643Y-1456357D01*
X6664643Y-1442071D01*
X6650357Y-1413500D01*
X6621786Y-1399214D01*
X6578928Y-1399214D01*
X6550357Y-1384929D01*
X6536071Y-1356357D01*
X6536071Y-1342072D01*
X6550357Y-1313500D01*
X6578928Y-1299214D01*
X6621786Y-1299214D01*
X6650357Y-1313500D01*
X6764643Y-1613500D02*
X6778928Y-1599214D01*
X6807500Y-1556357D01*
X6821786Y-1527786D01*
X6836071Y-1484929D01*
X6850357Y-1413500D01*
X6850357Y-1356357D01*
X6836071Y-1284929D01*
X6821786Y-1242072D01*
X6807500Y-1213500D01*
X6778928Y-1170643D01*
X6764643Y-1156357D01*
X-52500Y-1714500D02*
X-52500Y-1804500D01*
X-97500Y-1759500D02*
X-7500Y-1759500D01*
X336071Y-1595214D02*
X364643Y-1595214D01*
X393214Y-1609500D01*
X407500Y-1623786D01*
X421786Y-1652357D01*
X436071Y-1709500D01*
X436071Y-1780929D01*
X421786Y-1838071D01*
X407500Y-1866643D01*
X393214Y-1880929D01*
X364643Y-1895214D01*
X336071Y-1895214D01*
X307500Y-1880929D01*
X293214Y-1866643D01*
X278928Y-1838071D01*
X264643Y-1780929D01*
X264643Y-1709500D01*
X278928Y-1652357D01*
X293214Y-1623786D01*
X307500Y-1609500D01*
X336071Y-1595214D01*
X564643Y-1866643D02*
X578928Y-1880929D01*
X564643Y-1895214D01*
X550357Y-1880929D01*
X564643Y-1866643D01*
X564643Y-1895214D01*
X721786Y-1895214D02*
X778928Y-1895214D01*
X807500Y-1880929D01*
X821786Y-1866643D01*
X850357Y-1823786D01*
X864643Y-1766643D01*
X864643Y-1652357D01*
X850357Y-1623786D01*
X836071Y-1609500D01*
X807500Y-1595214D01*
X750357Y-1595214D01*
X721786Y-1609500D01*
X707500Y-1623786D01*
X693214Y-1652357D01*
X693214Y-1723786D01*
X707500Y-1752357D01*
X721786Y-1766643D01*
X750357Y-1780929D01*
X807500Y-1780929D01*
X836071Y-1766643D01*
X850357Y-1752357D01*
X864643Y-1723786D01*
X1050357Y-1595214D02*
X1078928Y-1595214D01*
X1107500Y-1609500D01*
X1121786Y-1623786D01*
X1136071Y-1652357D01*
X1150357Y-1709500D01*
X1150357Y-1780929D01*
X1136071Y-1838071D01*
X1121786Y-1866643D01*
X1107500Y-1880929D01*
X1078928Y-1895214D01*
X1050357Y-1895214D01*
X1021786Y-1880929D01*
X1007500Y-1866643D01*
X993214Y-1838071D01*
X978928Y-1780929D01*
X978928Y-1709500D01*
X993214Y-1652357D01*
X1007500Y-1623786D01*
X1021786Y-1609500D01*
X1050357Y-1595214D01*
X1278928Y-1895214D02*
X1278928Y-1695214D01*
X1278928Y-1723786D02*
X1293214Y-1709500D01*
X1321786Y-1695214D01*
X1364643Y-1695214D01*
X1393214Y-1709500D01*
X1407500Y-1738071D01*
X1407500Y-1895214D01*
X1407500Y-1738071D02*
X1421786Y-1709500D01*
X1450357Y-1695214D01*
X1493214Y-1695214D01*
X1521786Y-1709500D01*
X1536071Y-1738071D01*
X1536071Y-1895214D01*
X1678928Y-1895214D02*
X1678928Y-1695214D01*
X1678928Y-1723786D02*
X1693214Y-1709500D01*
X1721786Y-1695214D01*
X1764643Y-1695214D01*
X1793214Y-1709500D01*
X1807500Y-1738071D01*
X1807500Y-1895214D01*
X1807500Y-1738071D02*
X1821786Y-1709500D01*
X1850357Y-1695214D01*
X1893214Y-1695214D01*
X1921786Y-1709500D01*
X1936071Y-1738071D01*
X1936071Y-1895214D01*
X2521786Y-1580929D02*
X2264643Y-1966643D01*
X2907500Y-1595214D02*
X2936071Y-1595214D01*
X2964643Y-1609500D01*
X2978928Y-1623786D01*
X2993214Y-1652357D01*
X3007500Y-1709500D01*
X3007500Y-1780929D01*
X2993214Y-1838071D01*
X2978928Y-1866643D01*
X2964643Y-1880929D01*
X2936071Y-1895214D01*
X2907500Y-1895214D01*
X2878928Y-1880929D01*
X2864643Y-1866643D01*
X2850357Y-1838071D01*
X2836071Y-1780929D01*
X2836071Y-1709500D01*
X2850357Y-1652357D01*
X2864643Y-1623786D01*
X2878928Y-1609500D01*
X2907500Y-1595214D01*
X3136071Y-1866643D02*
X3150357Y-1880929D01*
X3136071Y-1895214D01*
X3121786Y-1880929D01*
X3136071Y-1866643D01*
X3136071Y-1895214D01*
X3336071Y-1595214D02*
X3364643Y-1595214D01*
X3393214Y-1609500D01*
X3407500Y-1623786D01*
X3421786Y-1652357D01*
X3436071Y-1709500D01*
X3436071Y-1780929D01*
X3421786Y-1838071D01*
X3407500Y-1866643D01*
X3393214Y-1880929D01*
X3364643Y-1895214D01*
X3336071Y-1895214D01*
X3307500Y-1880929D01*
X3293214Y-1866643D01*
X3278928Y-1838071D01*
X3264643Y-1780929D01*
X3264643Y-1709500D01*
X3278928Y-1652357D01*
X3293214Y-1623786D01*
X3307500Y-1609500D01*
X3336071Y-1595214D01*
X3536071Y-1595214D02*
X3721786Y-1595214D01*
X3621786Y-1709500D01*
X3664643Y-1709500D01*
X3693214Y-1723786D01*
X3707500Y-1738071D01*
X3721786Y-1766643D01*
X3721786Y-1838071D01*
X3707500Y-1866643D01*
X3693214Y-1880929D01*
X3664643Y-1895214D01*
X3578928Y-1895214D01*
X3550357Y-1880929D01*
X3536071Y-1866643D01*
X3993214Y-1595214D02*
X3850357Y-1595214D01*
X3836071Y-1738071D01*
X3850357Y-1723786D01*
X3878928Y-1709500D01*
X3950357Y-1709500D01*
X3978928Y-1723786D01*
X3993214Y-1738071D01*
X4007500Y-1766643D01*
X4007500Y-1838071D01*
X3993214Y-1866643D01*
X3978928Y-1880929D01*
X3950357Y-1895214D01*
X3878928Y-1895214D01*
X3850357Y-1880929D01*
X3836071Y-1866643D01*
X4121786Y-1595214D02*
X4121786Y-1652357D01*
X4236071Y-1595214D02*
X4236071Y-1652357D01*
X4678928Y-2009500D02*
X4664643Y-1995214D01*
X4636071Y-1952357D01*
X4621786Y-1923786D01*
X4607500Y-1880929D01*
X4593214Y-1809500D01*
X4593214Y-1752357D01*
X4607500Y-1680929D01*
X4621786Y-1638071D01*
X4636071Y-1609500D01*
X4664643Y-1566643D01*
X4678928Y-1552357D01*
X4921786Y-1695214D02*
X4921786Y-1895214D01*
X4850357Y-1580929D02*
X4778928Y-1795214D01*
X4964643Y-1795214D01*
X5307500Y-1895214D02*
X5307500Y-1595214D01*
X5436071Y-1895214D02*
X5436071Y-1738071D01*
X5421786Y-1709500D01*
X5393214Y-1695214D01*
X5350357Y-1695214D01*
X5321786Y-1709500D01*
X5307500Y-1723786D01*
X5621786Y-1895214D02*
X5593214Y-1880929D01*
X5578928Y-1866643D01*
X5564643Y-1838071D01*
X5564643Y-1752357D01*
X5578928Y-1723786D01*
X5593214Y-1709500D01*
X5621786Y-1695214D01*
X5664643Y-1695214D01*
X5693214Y-1709500D01*
X5707500Y-1723786D01*
X5721786Y-1752357D01*
X5721786Y-1838071D01*
X5707500Y-1866643D01*
X5693214Y-1880929D01*
X5664643Y-1895214D01*
X5621786Y-1895214D01*
X5893214Y-1895214D02*
X5864643Y-1880929D01*
X5850357Y-1852357D01*
X5850357Y-1595214D01*
X6121786Y-1880929D02*
X6093214Y-1895214D01*
X6036071Y-1895214D01*
X6007500Y-1880929D01*
X5993214Y-1852357D01*
X5993214Y-1738071D01*
X6007500Y-1709500D01*
X6036071Y-1695214D01*
X6093214Y-1695214D01*
X6121786Y-1709500D01*
X6136071Y-1738071D01*
X6136071Y-1766643D01*
X5993214Y-1795214D01*
X6250357Y-1880929D02*
X6278928Y-1895214D01*
X6336071Y-1895214D01*
X6364643Y-1880929D01*
X6378928Y-1852357D01*
X6378928Y-1838071D01*
X6364643Y-1809500D01*
X6336071Y-1795214D01*
X6293214Y-1795214D01*
X6264643Y-1780929D01*
X6250357Y-1752357D01*
X6250357Y-1738071D01*
X6264643Y-1709500D01*
X6293214Y-1695214D01*
X6336071Y-1695214D01*
X6364643Y-1709500D01*
X6478928Y-2009500D02*
X6493214Y-1995214D01*
X6521786Y-1952357D01*
X6536071Y-1923786D01*
X6550357Y-1880929D01*
X6564643Y-1809500D01*
X6564643Y-1752357D01*
X6550357Y-1680929D01*
X6536071Y-1638071D01*
X6521786Y-1609500D01*
X6493214Y-1566643D01*
X6478928Y-1552357D01*
X-23609Y-2194391D02*
X-23609Y-2116609D01*
X-101391Y-2116609D01*
X-101391Y-2194391D01*
X-23609Y-2194391D01*
X436071Y-2291214D02*
X264643Y-2291214D01*
X350357Y-2291214D02*
X350357Y-1991214D01*
X321786Y-2034071D01*
X293214Y-2062643D01*
X264643Y-2076929D01*
X564643Y-2262643D02*
X578928Y-2276929D01*
X564643Y-2291214D01*
X550357Y-2276929D01*
X564643Y-2262643D01*
X564643Y-2291214D01*
X864643Y-2291214D02*
X693214Y-2291214D01*
X778928Y-2291214D02*
X778928Y-1991214D01*
X750357Y-2034071D01*
X721786Y-2062643D01*
X693214Y-2076929D01*
X1050357Y-1991214D02*
X1078928Y-1991214D01*
X1107500Y-2005500D01*
X1121786Y-2019786D01*
X1136071Y-2048357D01*
X1150357Y-2105500D01*
X1150357Y-2176929D01*
X1136071Y-2234072D01*
X1121786Y-2262643D01*
X1107500Y-2276929D01*
X1078928Y-2291214D01*
X1050357Y-2291214D01*
X1021786Y-2276929D01*
X1007500Y-2262643D01*
X993214Y-2234072D01*
X978928Y-2176929D01*
X978928Y-2105500D01*
X993214Y-2048357D01*
X1007500Y-2019786D01*
X1021786Y-2005500D01*
X1050357Y-1991214D01*
X1278928Y-2291214D02*
X1278928Y-2091214D01*
X1278928Y-2119786D02*
X1293214Y-2105500D01*
X1321786Y-2091214D01*
X1364643Y-2091214D01*
X1393214Y-2105500D01*
X1407500Y-2134072D01*
X1407500Y-2291214D01*
X1407500Y-2134072D02*
X1421786Y-2105500D01*
X1450357Y-2091214D01*
X1493214Y-2091214D01*
X1521786Y-2105500D01*
X1536071Y-2134072D01*
X1536071Y-2291214D01*
X1678928Y-2291214D02*
X1678928Y-2091214D01*
X1678928Y-2119786D02*
X1693214Y-2105500D01*
X1721786Y-2091214D01*
X1764643Y-2091214D01*
X1793214Y-2105500D01*
X1807500Y-2134072D01*
X1807500Y-2291214D01*
X1807500Y-2134072D02*
X1821786Y-2105500D01*
X1850357Y-2091214D01*
X1893214Y-2091214D01*
X1921786Y-2105500D01*
X1936071Y-2134072D01*
X1936071Y-2291214D01*
X2521786Y-1976929D02*
X2264643Y-2362643D01*
X2907500Y-1991214D02*
X2936071Y-1991214D01*
X2964643Y-2005500D01*
X2978928Y-2019786D01*
X2993214Y-2048357D01*
X3007500Y-2105500D01*
X3007500Y-2176929D01*
X2993214Y-2234072D01*
X2978928Y-2262643D01*
X2964643Y-2276929D01*
X2936071Y-2291214D01*
X2907500Y-2291214D01*
X2878928Y-2276929D01*
X2864643Y-2262643D01*
X2850357Y-2234072D01*
X2836071Y-2176929D01*
X2836071Y-2105500D01*
X2850357Y-2048357D01*
X2864643Y-2019786D01*
X2878928Y-2005500D01*
X2907500Y-1991214D01*
X3136071Y-2262643D02*
X3150357Y-2276929D01*
X3136071Y-2291214D01*
X3121786Y-2276929D01*
X3136071Y-2262643D01*
X3136071Y-2291214D01*
X3336071Y-1991214D02*
X3364643Y-1991214D01*
X3393214Y-2005500D01*
X3407500Y-2019786D01*
X3421786Y-2048357D01*
X3436071Y-2105500D01*
X3436071Y-2176929D01*
X3421786Y-2234072D01*
X3407500Y-2262643D01*
X3393214Y-2276929D01*
X3364643Y-2291214D01*
X3336071Y-2291214D01*
X3307500Y-2276929D01*
X3293214Y-2262643D01*
X3278928Y-2234072D01*
X3264643Y-2176929D01*
X3264643Y-2105500D01*
X3278928Y-2048357D01*
X3293214Y-2019786D01*
X3307500Y-2005500D01*
X3336071Y-1991214D01*
X3693214Y-2091214D02*
X3693214Y-2291214D01*
X3621786Y-1976929D02*
X3550357Y-2191214D01*
X3736071Y-2191214D01*
X3821786Y-1991214D02*
X4007500Y-1991214D01*
X3907500Y-2105500D01*
X3950357Y-2105500D01*
X3978928Y-2119786D01*
X3993214Y-2134072D01*
X4007500Y-2162643D01*
X4007500Y-2234072D01*
X3993214Y-2262643D01*
X3978928Y-2276929D01*
X3950357Y-2291214D01*
X3864643Y-2291214D01*
X3836071Y-2276929D01*
X3821786Y-2262643D01*
X4121786Y-1991214D02*
X4121786Y-2048357D01*
X4236071Y-1991214D02*
X4236071Y-2048357D01*
X4678928Y-2405500D02*
X4664643Y-2391214D01*
X4636071Y-2348357D01*
X4621786Y-2319786D01*
X4607500Y-2276929D01*
X4593214Y-2205500D01*
X4593214Y-2148357D01*
X4607500Y-2076929D01*
X4621786Y-2034071D01*
X4636071Y-2005500D01*
X4664643Y-1962643D01*
X4678928Y-1948357D01*
X4836071Y-2119786D02*
X4807500Y-2105500D01*
X4793214Y-2091214D01*
X4778928Y-2062643D01*
X4778928Y-2048357D01*
X4793214Y-2019786D01*
X4807500Y-2005500D01*
X4836071Y-1991214D01*
X4893214Y-1991214D01*
X4921786Y-2005500D01*
X4936071Y-2019786D01*
X4950357Y-2048357D01*
X4950357Y-2062643D01*
X4936071Y-2091214D01*
X4921786Y-2105500D01*
X4893214Y-2119786D01*
X4836071Y-2119786D01*
X4807500Y-2134072D01*
X4793214Y-2148357D01*
X4778928Y-2176929D01*
X4778928Y-2234072D01*
X4793214Y-2262643D01*
X4807500Y-2276929D01*
X4836071Y-2291214D01*
X4893214Y-2291214D01*
X4921786Y-2276929D01*
X4936071Y-2262643D01*
X4950357Y-2234072D01*
X4950357Y-2176929D01*
X4936071Y-2148357D01*
X4921786Y-2134072D01*
X4893214Y-2119786D01*
X5207500Y-1991214D02*
X5150357Y-1991214D01*
X5121786Y-2005500D01*
X5107500Y-2019786D01*
X5078928Y-2062643D01*
X5064643Y-2119786D01*
X5064643Y-2234072D01*
X5078928Y-2262643D01*
X5093214Y-2276929D01*
X5121786Y-2291214D01*
X5178928Y-2291214D01*
X5207500Y-2276929D01*
X5221786Y-2262643D01*
X5236071Y-2234072D01*
X5236071Y-2162643D01*
X5221786Y-2134072D01*
X5207500Y-2119786D01*
X5178928Y-2105500D01*
X5121786Y-2105500D01*
X5093214Y-2119786D01*
X5078928Y-2134072D01*
X5064643Y-2162643D01*
X5593214Y-2291214D02*
X5593214Y-1991214D01*
X5721786Y-2291214D02*
X5721786Y-2134072D01*
X5707500Y-2105500D01*
X5678928Y-2091214D01*
X5636071Y-2091214D01*
X5607500Y-2105500D01*
X5593214Y-2119786D01*
X5907500Y-2291214D02*
X5878928Y-2276929D01*
X5864643Y-2262643D01*
X5850357Y-2234072D01*
X5850357Y-2148357D01*
X5864643Y-2119786D01*
X5878928Y-2105500D01*
X5907500Y-2091214D01*
X5950357Y-2091214D01*
X5978928Y-2105500D01*
X5993214Y-2119786D01*
X6007500Y-2148357D01*
X6007500Y-2234072D01*
X5993214Y-2262643D01*
X5978928Y-2276929D01*
X5950357Y-2291214D01*
X5907500Y-2291214D01*
X6178928Y-2291214D02*
X6150357Y-2276929D01*
X6136071Y-2248357D01*
X6136071Y-1991214D01*
X6407500Y-2276929D02*
X6378928Y-2291214D01*
X6321786Y-2291214D01*
X6293214Y-2276929D01*
X6278928Y-2248357D01*
X6278928Y-2134072D01*
X6293214Y-2105500D01*
X6321786Y-2091214D01*
X6378928Y-2091214D01*
X6407500Y-2105500D01*
X6421786Y-2134072D01*
X6421786Y-2162643D01*
X6278928Y-2191214D01*
X6536071Y-2276929D02*
X6564643Y-2291214D01*
X6621786Y-2291214D01*
X6650357Y-2276929D01*
X6664643Y-2248357D01*
X6664643Y-2234072D01*
X6650357Y-2205500D01*
X6621786Y-2191214D01*
X6578928Y-2191214D01*
X6550357Y-2176929D01*
X6536071Y-2148357D01*
X6536071Y-2134072D01*
X6550357Y-2105500D01*
X6578928Y-2091214D01*
X6621786Y-2091214D01*
X6650357Y-2105500D01*
X6764643Y-2405500D02*
X6778928Y-2391214D01*
X6807500Y-2348357D01*
X6821786Y-2319786D01*
X6836071Y-2276929D01*
X6850357Y-2205500D01*
X6850357Y-2148357D01*
X6836071Y-2076929D01*
X6821786Y-2034071D01*
X6807500Y-2005500D01*
X6778928Y-1962643D01*
X6764643Y-1948357D01*
X-77350Y-2621350D02*
X-7500Y-2551500D01*
X-77350Y-2481650D01*
X-147200Y-2551500D01*
X-77350Y-2621350D01*
X436071Y-2687214D02*
X264643Y-2687214D01*
X350357Y-2687214D02*
X350357Y-2387214D01*
X321786Y-2430072D01*
X293214Y-2458643D01*
X264643Y-2472929D01*
X564643Y-2658643D02*
X578928Y-2672929D01*
X564643Y-2687214D01*
X550357Y-2672929D01*
X564643Y-2658643D01*
X564643Y-2687214D01*
X836071Y-2487214D02*
X836071Y-2687214D01*
X764643Y-2372929D02*
X693214Y-2587214D01*
X878928Y-2587214D01*
X1050357Y-2387214D02*
X1078928Y-2387214D01*
X1107500Y-2401500D01*
X1121786Y-2415786D01*
X1136071Y-2444357D01*
X1150357Y-2501500D01*
X1150357Y-2572929D01*
X1136071Y-2630072D01*
X1121786Y-2658643D01*
X1107500Y-2672929D01*
X1078928Y-2687214D01*
X1050357Y-2687214D01*
X1021786Y-2672929D01*
X1007500Y-2658643D01*
X993214Y-2630072D01*
X978928Y-2572929D01*
X978928Y-2501500D01*
X993214Y-2444357D01*
X1007500Y-2415786D01*
X1021786Y-2401500D01*
X1050357Y-2387214D01*
X1278928Y-2687214D02*
X1278928Y-2487214D01*
X1278928Y-2515786D02*
X1293214Y-2501500D01*
X1321786Y-2487214D01*
X1364643Y-2487214D01*
X1393214Y-2501500D01*
X1407500Y-2530072D01*
X1407500Y-2687214D01*
X1407500Y-2530072D02*
X1421786Y-2501500D01*
X1450357Y-2487214D01*
X1493214Y-2487214D01*
X1521786Y-2501500D01*
X1536071Y-2530072D01*
X1536071Y-2687214D01*
X1678928Y-2687214D02*
X1678928Y-2487214D01*
X1678928Y-2515786D02*
X1693214Y-2501500D01*
X1721786Y-2487214D01*
X1764643Y-2487214D01*
X1793214Y-2501500D01*
X1807500Y-2530072D01*
X1807500Y-2687214D01*
X1807500Y-2530072D02*
X1821786Y-2501500D01*
X1850357Y-2487214D01*
X1893214Y-2487214D01*
X1921786Y-2501500D01*
X1936071Y-2530072D01*
X1936071Y-2687214D01*
X2521786Y-2372929D02*
X2264643Y-2758643D01*
X2907500Y-2387214D02*
X2936071Y-2387214D01*
X2964643Y-2401500D01*
X2978928Y-2415786D01*
X2993214Y-2444357D01*
X3007500Y-2501500D01*
X3007500Y-2572929D01*
X2993214Y-2630072D01*
X2978928Y-2658643D01*
X2964643Y-2672929D01*
X2936071Y-2687214D01*
X2907500Y-2687214D01*
X2878928Y-2672929D01*
X2864643Y-2658643D01*
X2850357Y-2630072D01*
X2836071Y-2572929D01*
X2836071Y-2501500D01*
X2850357Y-2444357D01*
X2864643Y-2415786D01*
X2878928Y-2401500D01*
X2907500Y-2387214D01*
X3136071Y-2658643D02*
X3150357Y-2672929D01*
X3136071Y-2687214D01*
X3121786Y-2672929D01*
X3136071Y-2658643D01*
X3136071Y-2687214D01*
X3336071Y-2387214D02*
X3364643Y-2387214D01*
X3393214Y-2401500D01*
X3407500Y-2415786D01*
X3421786Y-2444357D01*
X3436071Y-2501500D01*
X3436071Y-2572929D01*
X3421786Y-2630072D01*
X3407500Y-2658643D01*
X3393214Y-2672929D01*
X3364643Y-2687214D01*
X3336071Y-2687214D01*
X3307500Y-2672929D01*
X3293214Y-2658643D01*
X3278928Y-2630072D01*
X3264643Y-2572929D01*
X3264643Y-2501500D01*
X3278928Y-2444357D01*
X3293214Y-2415786D01*
X3307500Y-2401500D01*
X3336071Y-2387214D01*
X3707500Y-2387214D02*
X3564643Y-2387214D01*
X3550357Y-2530072D01*
X3564643Y-2515786D01*
X3593214Y-2501500D01*
X3664643Y-2501500D01*
X3693214Y-2515786D01*
X3707500Y-2530072D01*
X3721786Y-2558643D01*
X3721786Y-2630072D01*
X3707500Y-2658643D01*
X3693214Y-2672929D01*
X3664643Y-2687214D01*
X3593214Y-2687214D01*
X3564643Y-2672929D01*
X3550357Y-2658643D01*
X3993214Y-2387214D02*
X3850357Y-2387214D01*
X3836071Y-2530072D01*
X3850357Y-2515786D01*
X3878928Y-2501500D01*
X3950357Y-2501500D01*
X3978928Y-2515786D01*
X3993214Y-2530072D01*
X4007500Y-2558643D01*
X4007500Y-2630072D01*
X3993214Y-2658643D01*
X3978928Y-2672929D01*
X3950357Y-2687214D01*
X3878928Y-2687214D01*
X3850357Y-2672929D01*
X3836071Y-2658643D01*
X4121786Y-2387214D02*
X4121786Y-2444357D01*
X4236071Y-2387214D02*
X4236071Y-2444357D01*
X4678928Y-2801500D02*
X4664643Y-2787214D01*
X4636071Y-2744357D01*
X4621786Y-2715786D01*
X4607500Y-2672929D01*
X4593214Y-2601500D01*
X4593214Y-2544357D01*
X4607500Y-2472929D01*
X4621786Y-2430072D01*
X4636071Y-2401500D01*
X4664643Y-2358643D01*
X4678928Y-2344357D01*
X4950357Y-2687214D02*
X4778928Y-2687214D01*
X4864643Y-2687214D02*
X4864643Y-2387214D01*
X4836071Y-2430072D01*
X4807500Y-2458643D01*
X4778928Y-2472929D01*
X5136071Y-2387214D02*
X5164643Y-2387214D01*
X5193214Y-2401500D01*
X5207500Y-2415786D01*
X5221786Y-2444357D01*
X5236071Y-2501500D01*
X5236071Y-2572929D01*
X5221786Y-2630072D01*
X5207500Y-2658643D01*
X5193214Y-2672929D01*
X5164643Y-2687214D01*
X5136071Y-2687214D01*
X5107500Y-2672929D01*
X5093214Y-2658643D01*
X5078928Y-2630072D01*
X5064643Y-2572929D01*
X5064643Y-2501500D01*
X5078928Y-2444357D01*
X5093214Y-2415786D01*
X5107500Y-2401500D01*
X5136071Y-2387214D01*
X5593214Y-2687214D02*
X5593214Y-2387214D01*
X5721786Y-2687214D02*
X5721786Y-2530072D01*
X5707500Y-2501500D01*
X5678928Y-2487214D01*
X5636071Y-2487214D01*
X5607500Y-2501500D01*
X5593214Y-2515786D01*
X5907500Y-2687214D02*
X5878928Y-2672929D01*
X5864643Y-2658643D01*
X5850357Y-2630072D01*
X5850357Y-2544357D01*
X5864643Y-2515786D01*
X5878928Y-2501500D01*
X5907500Y-2487214D01*
X5950357Y-2487214D01*
X5978928Y-2501500D01*
X5993214Y-2515786D01*
X6007500Y-2544357D01*
X6007500Y-2630072D01*
X5993214Y-2658643D01*
X5978928Y-2672929D01*
X5950357Y-2687214D01*
X5907500Y-2687214D01*
X6178928Y-2687214D02*
X6150357Y-2672929D01*
X6136071Y-2644357D01*
X6136071Y-2387214D01*
X6407500Y-2672929D02*
X6378928Y-2687214D01*
X6321786Y-2687214D01*
X6293214Y-2672929D01*
X6278928Y-2644357D01*
X6278928Y-2530072D01*
X6293214Y-2501500D01*
X6321786Y-2487214D01*
X6378928Y-2487214D01*
X6407500Y-2501500D01*
X6421786Y-2530072D01*
X6421786Y-2558643D01*
X6278928Y-2587214D01*
X6536071Y-2672929D02*
X6564643Y-2687214D01*
X6621786Y-2687214D01*
X6650357Y-2672929D01*
X6664643Y-2644357D01*
X6664643Y-2630072D01*
X6650357Y-2601500D01*
X6621786Y-2587214D01*
X6578928Y-2587214D01*
X6550357Y-2572929D01*
X6536071Y-2544357D01*
X6536071Y-2530072D01*
X6550357Y-2501500D01*
X6578928Y-2487214D01*
X6621786Y-2487214D01*
X6650357Y-2501500D01*
X6764643Y-2801500D02*
X6778928Y-2787214D01*
X6807500Y-2744357D01*
X6821786Y-2715786D01*
X6836071Y-2672929D01*
X6850357Y-2601500D01*
X6850357Y-2544357D01*
X6836071Y-2472929D01*
X6821786Y-2430072D01*
X6807500Y-2401500D01*
X6778928Y-2358643D01*
X6764643Y-2344357D01*
X-237500Y-2832500D02*
X-7500Y-3062500D01*
X-7500Y-2832500D02*
X-237500Y-3062500D01*
X-7500Y-2947500D02*
G75*
G03X-7500Y-2947500I-115000J0D01*
G01*
X264643Y-2811786D02*
X278928Y-2797500D01*
X307500Y-2783214D01*
X378928Y-2783214D01*
X407500Y-2797500D01*
X421786Y-2811786D01*
X436071Y-2840357D01*
X436071Y-2868929D01*
X421786Y-2911786D01*
X250357Y-3083214D01*
X436071Y-3083214D01*
X564643Y-3054643D02*
X578928Y-3068929D01*
X564643Y-3083214D01*
X550357Y-3068929D01*
X564643Y-3054643D01*
X564643Y-3083214D01*
X678928Y-2783214D02*
X864643Y-2783214D01*
X764643Y-2897500D01*
X807500Y-2897500D01*
X836071Y-2911786D01*
X850357Y-2926071D01*
X864643Y-2954643D01*
X864643Y-3026071D01*
X850357Y-3054643D01*
X836071Y-3068929D01*
X807500Y-3083214D01*
X721786Y-3083214D01*
X693214Y-3068929D01*
X678928Y-3054643D01*
X1050357Y-2783214D02*
X1078928Y-2783214D01*
X1107500Y-2797500D01*
X1121786Y-2811786D01*
X1136071Y-2840357D01*
X1150357Y-2897500D01*
X1150357Y-2968929D01*
X1136071Y-3026071D01*
X1121786Y-3054643D01*
X1107500Y-3068929D01*
X1078928Y-3083214D01*
X1050357Y-3083214D01*
X1021786Y-3068929D01*
X1007500Y-3054643D01*
X993214Y-3026071D01*
X978928Y-2968929D01*
X978928Y-2897500D01*
X993214Y-2840357D01*
X1007500Y-2811786D01*
X1021786Y-2797500D01*
X1050357Y-2783214D01*
X1278928Y-3083214D02*
X1278928Y-2883214D01*
X1278928Y-2911786D02*
X1293214Y-2897500D01*
X1321786Y-2883214D01*
X1364643Y-2883214D01*
X1393214Y-2897500D01*
X1407500Y-2926071D01*
X1407500Y-3083214D01*
X1407500Y-2926071D02*
X1421786Y-2897500D01*
X1450357Y-2883214D01*
X1493214Y-2883214D01*
X1521786Y-2897500D01*
X1536071Y-2926071D01*
X1536071Y-3083214D01*
X1678928Y-3083214D02*
X1678928Y-2883214D01*
X1678928Y-2911786D02*
X1693214Y-2897500D01*
X1721786Y-2883214D01*
X1764643Y-2883214D01*
X1793214Y-2897500D01*
X1807500Y-2926071D01*
X1807500Y-3083214D01*
X1807500Y-2926071D02*
X1821786Y-2897500D01*
X1850357Y-2883214D01*
X1893214Y-2883214D01*
X1921786Y-2897500D01*
X1936071Y-2926071D01*
X1936071Y-3083214D01*
X2521786Y-2768929D02*
X2264643Y-3154643D01*
X2907500Y-2783214D02*
X2936071Y-2783214D01*
X2964643Y-2797500D01*
X2978928Y-2811786D01*
X2993214Y-2840357D01*
X3007500Y-2897500D01*
X3007500Y-2968929D01*
X2993214Y-3026071D01*
X2978928Y-3054643D01*
X2964643Y-3068929D01*
X2936071Y-3083214D01*
X2907500Y-3083214D01*
X2878928Y-3068929D01*
X2864643Y-3054643D01*
X2850357Y-3026071D01*
X2836071Y-2968929D01*
X2836071Y-2897500D01*
X2850357Y-2840357D01*
X2864643Y-2811786D01*
X2878928Y-2797500D01*
X2907500Y-2783214D01*
X3136071Y-3054643D02*
X3150357Y-3068929D01*
X3136071Y-3083214D01*
X3121786Y-3068929D01*
X3136071Y-3054643D01*
X3136071Y-3083214D01*
X3336071Y-2783214D02*
X3364643Y-2783214D01*
X3393214Y-2797500D01*
X3407500Y-2811786D01*
X3421786Y-2840357D01*
X3436071Y-2897500D01*
X3436071Y-2968929D01*
X3421786Y-3026071D01*
X3407500Y-3054643D01*
X3393214Y-3068929D01*
X3364643Y-3083214D01*
X3336071Y-3083214D01*
X3307500Y-3068929D01*
X3293214Y-3054643D01*
X3278928Y-3026071D01*
X3264643Y-2968929D01*
X3264643Y-2897500D01*
X3278928Y-2840357D01*
X3293214Y-2811786D01*
X3307500Y-2797500D01*
X3336071Y-2783214D01*
X3578928Y-3083214D02*
X3636071Y-3083214D01*
X3664643Y-3068929D01*
X3678928Y-3054643D01*
X3707500Y-3011786D01*
X3721786Y-2954643D01*
X3721786Y-2840357D01*
X3707500Y-2811786D01*
X3693214Y-2797500D01*
X3664643Y-2783214D01*
X3607500Y-2783214D01*
X3578928Y-2797500D01*
X3564643Y-2811786D01*
X3550357Y-2840357D01*
X3550357Y-2911786D01*
X3564643Y-2940357D01*
X3578928Y-2954643D01*
X3607500Y-2968929D01*
X3664643Y-2968929D01*
X3693214Y-2954643D01*
X3707500Y-2940357D01*
X3721786Y-2911786D01*
X4007500Y-3083214D02*
X3836071Y-3083214D01*
X3921786Y-3083214D02*
X3921786Y-2783214D01*
X3893214Y-2826071D01*
X3864643Y-2854643D01*
X3836071Y-2868929D01*
X4121786Y-2783214D02*
X4121786Y-2840357D01*
X4236071Y-2783214D02*
X4236071Y-2840357D01*
X4678928Y-3197500D02*
X4664643Y-3183214D01*
X4636071Y-3140357D01*
X4621786Y-3111786D01*
X4607500Y-3068929D01*
X4593214Y-2997500D01*
X4593214Y-2940357D01*
X4607500Y-2868929D01*
X4621786Y-2826071D01*
X4636071Y-2797500D01*
X4664643Y-2754643D01*
X4678928Y-2740357D01*
X4778928Y-2811786D02*
X4793214Y-2797500D01*
X4821786Y-2783214D01*
X4893214Y-2783214D01*
X4921786Y-2797500D01*
X4936071Y-2811786D01*
X4950357Y-2840357D01*
X4950357Y-2868929D01*
X4936071Y-2911786D01*
X4764643Y-3083214D01*
X4950357Y-3083214D01*
X5307500Y-3083214D02*
X5307500Y-2783214D01*
X5436071Y-3083214D02*
X5436071Y-2926071D01*
X5421786Y-2897500D01*
X5393214Y-2883214D01*
X5350357Y-2883214D01*
X5321786Y-2897500D01*
X5307500Y-2911786D01*
X5621786Y-3083214D02*
X5593214Y-3068929D01*
X5578928Y-3054643D01*
X5564643Y-3026071D01*
X5564643Y-2940357D01*
X5578928Y-2911786D01*
X5593214Y-2897500D01*
X5621786Y-2883214D01*
X5664643Y-2883214D01*
X5693214Y-2897500D01*
X5707500Y-2911786D01*
X5721786Y-2940357D01*
X5721786Y-3026071D01*
X5707500Y-3054643D01*
X5693214Y-3068929D01*
X5664643Y-3083214D01*
X5621786Y-3083214D01*
X5893214Y-3083214D02*
X5864643Y-3068929D01*
X5850357Y-3040357D01*
X5850357Y-2783214D01*
X6121786Y-3068929D02*
X6093214Y-3083214D01*
X6036071Y-3083214D01*
X6007500Y-3068929D01*
X5993214Y-3040357D01*
X5993214Y-2926071D01*
X6007500Y-2897500D01*
X6036071Y-2883214D01*
X6093214Y-2883214D01*
X6121786Y-2897500D01*
X6136071Y-2926071D01*
X6136071Y-2954643D01*
X5993214Y-2983214D01*
X6250357Y-3068929D02*
X6278928Y-3083214D01*
X6336071Y-3083214D01*
X6364643Y-3068929D01*
X6378928Y-3040357D01*
X6378928Y-3026071D01*
X6364643Y-2997500D01*
X6336071Y-2983214D01*
X6293214Y-2983214D01*
X6264643Y-2968929D01*
X6250357Y-2940357D01*
X6250357Y-2926071D01*
X6264643Y-2897500D01*
X6293214Y-2883214D01*
X6336071Y-2883214D01*
X6364643Y-2897500D01*
X6478928Y-3197500D02*
X6493214Y-3183214D01*
X6521786Y-3140357D01*
X6536071Y-3111786D01*
X6550357Y-3068929D01*
X6564643Y-2997500D01*
X6564643Y-2940357D01*
X6550357Y-2868929D01*
X6536071Y-2826071D01*
X6521786Y-2797500D01*
X6493214Y-2754643D01*
X6478928Y-2740357D01*
X-147200Y-3273650D02*
X-7500Y-3413350D01*
X-7500Y-3273650D02*
X-147200Y-3413350D01*
X-77350Y-3273650D02*
X-77350Y-3413350D01*
X-147200Y-3343500D02*
X-7500Y-3343500D01*
X436071Y-3479214D02*
X264643Y-3479214D01*
X350357Y-3479214D02*
X350357Y-3179214D01*
X321786Y-3222071D01*
X293214Y-3250643D01*
X264643Y-3264929D01*
X564643Y-3450643D02*
X578928Y-3464929D01*
X564643Y-3479214D01*
X550357Y-3464929D01*
X564643Y-3450643D01*
X564643Y-3479214D01*
X836071Y-3279214D02*
X836071Y-3479214D01*
X764643Y-3164929D02*
X693214Y-3379214D01*
X878928Y-3379214D01*
X1050357Y-3179214D02*
X1078928Y-3179214D01*
X1107500Y-3193500D01*
X1121786Y-3207786D01*
X1136071Y-3236357D01*
X1150357Y-3293500D01*
X1150357Y-3364929D01*
X1136071Y-3422071D01*
X1121786Y-3450643D01*
X1107500Y-3464929D01*
X1078928Y-3479214D01*
X1050357Y-3479214D01*
X1021786Y-3464929D01*
X1007500Y-3450643D01*
X993214Y-3422071D01*
X978928Y-3364929D01*
X978928Y-3293500D01*
X993214Y-3236357D01*
X1007500Y-3207786D01*
X1021786Y-3193500D01*
X1050357Y-3179214D01*
X1278928Y-3479214D02*
X1278928Y-3279214D01*
X1278928Y-3307786D02*
X1293214Y-3293500D01*
X1321786Y-3279214D01*
X1364643Y-3279214D01*
X1393214Y-3293500D01*
X1407500Y-3322071D01*
X1407500Y-3479214D01*
X1407500Y-3322071D02*
X1421786Y-3293500D01*
X1450357Y-3279214D01*
X1493214Y-3279214D01*
X1521786Y-3293500D01*
X1536071Y-3322071D01*
X1536071Y-3479214D01*
X1678928Y-3479214D02*
X1678928Y-3279214D01*
X1678928Y-3307786D02*
X1693214Y-3293500D01*
X1721786Y-3279214D01*
X1764643Y-3279214D01*
X1793214Y-3293500D01*
X1807500Y-3322071D01*
X1807500Y-3479214D01*
X1807500Y-3322071D02*
X1821786Y-3293500D01*
X1850357Y-3279214D01*
X1893214Y-3279214D01*
X1921786Y-3293500D01*
X1936071Y-3322071D01*
X1936071Y-3479214D01*
X2521786Y-3164929D02*
X2264643Y-3550643D01*
X2907500Y-3179214D02*
X2936071Y-3179214D01*
X2964643Y-3193500D01*
X2978928Y-3207786D01*
X2993214Y-3236357D01*
X3007500Y-3293500D01*
X3007500Y-3364929D01*
X2993214Y-3422071D01*
X2978928Y-3450643D01*
X2964643Y-3464929D01*
X2936071Y-3479214D01*
X2907500Y-3479214D01*
X2878928Y-3464929D01*
X2864643Y-3450643D01*
X2850357Y-3422071D01*
X2836071Y-3364929D01*
X2836071Y-3293500D01*
X2850357Y-3236357D01*
X2864643Y-3207786D01*
X2878928Y-3193500D01*
X2907500Y-3179214D01*
X3136071Y-3450643D02*
X3150357Y-3464929D01*
X3136071Y-3479214D01*
X3121786Y-3464929D01*
X3136071Y-3450643D01*
X3136071Y-3479214D01*
X3336071Y-3179214D02*
X3364643Y-3179214D01*
X3393214Y-3193500D01*
X3407500Y-3207786D01*
X3421786Y-3236357D01*
X3436071Y-3293500D01*
X3436071Y-3364929D01*
X3421786Y-3422071D01*
X3407500Y-3450643D01*
X3393214Y-3464929D01*
X3364643Y-3479214D01*
X3336071Y-3479214D01*
X3307500Y-3464929D01*
X3293214Y-3450643D01*
X3278928Y-3422071D01*
X3264643Y-3364929D01*
X3264643Y-3293500D01*
X3278928Y-3236357D01*
X3293214Y-3207786D01*
X3307500Y-3193500D01*
X3336071Y-3179214D01*
X3707500Y-3179214D02*
X3564643Y-3179214D01*
X3550357Y-3322071D01*
X3564643Y-3307786D01*
X3593214Y-3293500D01*
X3664643Y-3293500D01*
X3693214Y-3307786D01*
X3707500Y-3322071D01*
X3721786Y-3350643D01*
X3721786Y-3422071D01*
X3707500Y-3450643D01*
X3693214Y-3464929D01*
X3664643Y-3479214D01*
X3593214Y-3479214D01*
X3564643Y-3464929D01*
X3550357Y-3450643D01*
X3993214Y-3179214D02*
X3850357Y-3179214D01*
X3836071Y-3322071D01*
X3850357Y-3307786D01*
X3878928Y-3293500D01*
X3950357Y-3293500D01*
X3978928Y-3307786D01*
X3993214Y-3322071D01*
X4007500Y-3350643D01*
X4007500Y-3422071D01*
X3993214Y-3450643D01*
X3978928Y-3464929D01*
X3950357Y-3479214D01*
X3878928Y-3479214D01*
X3850357Y-3464929D01*
X3836071Y-3450643D01*
X4121786Y-3179214D02*
X4121786Y-3236357D01*
X4236071Y-3179214D02*
X4236071Y-3236357D01*
X4678928Y-3593500D02*
X4664643Y-3579214D01*
X4636071Y-3536357D01*
X4621786Y-3507786D01*
X4607500Y-3464929D01*
X4593214Y-3393500D01*
X4593214Y-3336357D01*
X4607500Y-3264929D01*
X4621786Y-3222071D01*
X4636071Y-3193500D01*
X4664643Y-3150643D01*
X4678928Y-3136357D01*
X4921786Y-3279214D02*
X4921786Y-3479214D01*
X4850357Y-3164929D02*
X4778928Y-3379214D01*
X4964643Y-3379214D01*
X5307500Y-3479214D02*
X5307500Y-3179214D01*
X5436071Y-3479214D02*
X5436071Y-3322071D01*
X5421786Y-3293500D01*
X5393214Y-3279214D01*
X5350357Y-3279214D01*
X5321786Y-3293500D01*
X5307500Y-3307786D01*
X5621786Y-3479214D02*
X5593214Y-3464929D01*
X5578928Y-3450643D01*
X5564643Y-3422071D01*
X5564643Y-3336357D01*
X5578928Y-3307786D01*
X5593214Y-3293500D01*
X5621786Y-3279214D01*
X5664643Y-3279214D01*
X5693214Y-3293500D01*
X5707500Y-3307786D01*
X5721786Y-3336357D01*
X5721786Y-3422071D01*
X5707500Y-3450643D01*
X5693214Y-3464929D01*
X5664643Y-3479214D01*
X5621786Y-3479214D01*
X5893214Y-3479214D02*
X5864643Y-3464929D01*
X5850357Y-3436357D01*
X5850357Y-3179214D01*
X6121786Y-3464929D02*
X6093214Y-3479214D01*
X6036071Y-3479214D01*
X6007500Y-3464929D01*
X5993214Y-3436357D01*
X5993214Y-3322071D01*
X6007500Y-3293500D01*
X6036071Y-3279214D01*
X6093214Y-3279214D01*
X6121786Y-3293500D01*
X6136071Y-3322071D01*
X6136071Y-3350643D01*
X5993214Y-3379214D01*
X6250357Y-3464929D02*
X6278928Y-3479214D01*
X6336071Y-3479214D01*
X6364643Y-3464929D01*
X6378928Y-3436357D01*
X6378928Y-3422071D01*
X6364643Y-3393500D01*
X6336071Y-3379214D01*
X6293214Y-3379214D01*
X6264643Y-3364929D01*
X6250357Y-3336357D01*
X6250357Y-3322071D01*
X6264643Y-3293500D01*
X6293214Y-3279214D01*
X6336071Y-3279214D01*
X6364643Y-3293500D01*
X6478928Y-3593500D02*
X6493214Y-3579214D01*
X6521786Y-3536357D01*
X6536071Y-3507786D01*
X6550357Y-3464929D01*
X6564643Y-3393500D01*
X6564643Y-3336357D01*
X6550357Y-3264929D01*
X6536071Y-3222071D01*
X6521786Y-3193500D01*
X6493214Y-3150643D01*
X6478928Y-3136357D01*
X7021786Y-3593500D02*
X7007500Y-3579214D01*
X6978928Y-3536357D01*
X6964643Y-3507786D01*
X6950357Y-3464929D01*
X6936071Y-3393500D01*
X6936071Y-3336357D01*
X6950357Y-3264929D01*
X6964643Y-3222071D01*
X6978928Y-3193500D01*
X7007500Y-3150643D01*
X7021786Y-3136357D01*
X7136071Y-3279214D02*
X7136071Y-3479214D01*
X7136071Y-3307786D02*
X7150357Y-3293500D01*
X7178928Y-3279214D01*
X7221786Y-3279214D01*
X7250357Y-3293500D01*
X7264643Y-3322071D01*
X7264643Y-3479214D01*
X7450357Y-3479214D02*
X7421786Y-3464929D01*
X7407500Y-3450643D01*
X7393214Y-3422071D01*
X7393214Y-3336357D01*
X7407500Y-3307786D01*
X7421786Y-3293500D01*
X7450357Y-3279214D01*
X7493214Y-3279214D01*
X7521786Y-3293500D01*
X7536071Y-3307786D01*
X7550357Y-3336357D01*
X7550357Y-3422071D01*
X7536071Y-3450643D01*
X7521786Y-3464929D01*
X7493214Y-3479214D01*
X7450357Y-3479214D01*
X7636071Y-3279214D02*
X7750357Y-3279214D01*
X7678928Y-3179214D02*
X7678928Y-3436357D01*
X7693214Y-3464929D01*
X7721786Y-3479214D01*
X7750357Y-3479214D01*
X8078928Y-3279214D02*
X8078928Y-3579214D01*
X8078928Y-3293500D02*
X8107500Y-3279214D01*
X8164643Y-3279214D01*
X8193214Y-3293500D01*
X8207500Y-3307786D01*
X8221786Y-3336357D01*
X8221786Y-3422071D01*
X8207500Y-3450643D01*
X8193214Y-3464929D01*
X8164643Y-3479214D01*
X8107500Y-3479214D01*
X8078928Y-3464929D01*
X8393214Y-3479214D02*
X8364643Y-3464929D01*
X8350357Y-3436357D01*
X8350357Y-3179214D01*
X8636071Y-3479214D02*
X8636071Y-3322071D01*
X8621786Y-3293500D01*
X8593214Y-3279214D01*
X8536071Y-3279214D01*
X8507500Y-3293500D01*
X8636071Y-3464929D02*
X8607500Y-3479214D01*
X8536071Y-3479214D01*
X8507500Y-3464929D01*
X8493214Y-3436357D01*
X8493214Y-3407786D01*
X8507500Y-3379214D01*
X8536071Y-3364929D01*
X8607500Y-3364929D01*
X8636071Y-3350643D01*
X8736071Y-3279214D02*
X8850357Y-3279214D01*
X8778928Y-3179214D02*
X8778928Y-3436357D01*
X8793214Y-3464929D01*
X8821786Y-3479214D01*
X8850357Y-3479214D01*
X9064643Y-3464929D02*
X9036071Y-3479214D01*
X8978928Y-3479214D01*
X8950357Y-3464929D01*
X8936071Y-3436357D01*
X8936071Y-3322071D01*
X8950357Y-3293500D01*
X8978928Y-3279214D01*
X9036071Y-3279214D01*
X9064643Y-3293500D01*
X9078928Y-3322071D01*
X9078928Y-3350643D01*
X8936071Y-3379214D01*
X9336071Y-3479214D02*
X9336071Y-3179214D01*
X9336071Y-3464929D02*
X9307500Y-3479214D01*
X9250357Y-3479214D01*
X9221786Y-3464929D01*
X9207500Y-3450643D01*
X9193214Y-3422071D01*
X9193214Y-3336357D01*
X9207500Y-3307786D01*
X9221786Y-3293500D01*
X9250357Y-3279214D01*
X9307500Y-3279214D01*
X9336071Y-3293500D01*
X9450357Y-3593500D02*
X9464643Y-3579214D01*
X9493214Y-3536357D01*
X9507500Y-3507786D01*
X9521786Y-3464929D01*
X9536071Y-3393500D01*
X9536071Y-3336357D01*
X9521786Y-3264929D01*
X9507500Y-3222071D01*
X9493214Y-3193500D01*
X9464643Y-3150643D01*
X9450357Y-3136357D01*
X-327500Y-3579500D02*
X-7500Y-3899500D01*
X-7500Y-3579500D02*
X-327500Y-3899500D01*
X-54362Y-3852638D02*
X-54362Y-3626362D01*
X-280638Y-3626362D01*
X-280638Y-3852638D01*
X-54362Y-3852638D01*
X250357Y-3575214D02*
X436071Y-3575214D01*
X336071Y-3689500D01*
X378928Y-3689500D01*
X407500Y-3703786D01*
X421786Y-3718071D01*
X436071Y-3746643D01*
X436071Y-3818071D01*
X421786Y-3846643D01*
X407500Y-3860929D01*
X378928Y-3875214D01*
X293214Y-3875214D01*
X264643Y-3860929D01*
X250357Y-3846643D01*
X564643Y-3846643D02*
X578928Y-3860929D01*
X564643Y-3875214D01*
X550357Y-3860929D01*
X564643Y-3846643D01*
X564643Y-3875214D01*
X693214Y-3603786D02*
X707500Y-3589500D01*
X736071Y-3575214D01*
X807500Y-3575214D01*
X836071Y-3589500D01*
X850357Y-3603786D01*
X864643Y-3632357D01*
X864643Y-3660929D01*
X850357Y-3703786D01*
X678928Y-3875214D01*
X864643Y-3875214D01*
X1050357Y-3575214D02*
X1078928Y-3575214D01*
X1107500Y-3589500D01*
X1121786Y-3603786D01*
X1136071Y-3632357D01*
X1150357Y-3689500D01*
X1150357Y-3760929D01*
X1136071Y-3818071D01*
X1121786Y-3846643D01*
X1107500Y-3860929D01*
X1078928Y-3875214D01*
X1050357Y-3875214D01*
X1021786Y-3860929D01*
X1007500Y-3846643D01*
X993214Y-3818071D01*
X978928Y-3760929D01*
X978928Y-3689500D01*
X993214Y-3632357D01*
X1007500Y-3603786D01*
X1021786Y-3589500D01*
X1050357Y-3575214D01*
X1278928Y-3875214D02*
X1278928Y-3675214D01*
X1278928Y-3703786D02*
X1293214Y-3689500D01*
X1321786Y-3675214D01*
X1364643Y-3675214D01*
X1393214Y-3689500D01*
X1407500Y-3718071D01*
X1407500Y-3875214D01*
X1407500Y-3718071D02*
X1421786Y-3689500D01*
X1450357Y-3675214D01*
X1493214Y-3675214D01*
X1521786Y-3689500D01*
X1536071Y-3718071D01*
X1536071Y-3875214D01*
X1678928Y-3875214D02*
X1678928Y-3675214D01*
X1678928Y-3703786D02*
X1693214Y-3689500D01*
X1721786Y-3675214D01*
X1764643Y-3675214D01*
X1793214Y-3689500D01*
X1807500Y-3718071D01*
X1807500Y-3875214D01*
X1807500Y-3718071D02*
X1821786Y-3689500D01*
X1850357Y-3675214D01*
X1893214Y-3675214D01*
X1921786Y-3689500D01*
X1936071Y-3718071D01*
X1936071Y-3875214D01*
X2521786Y-3560929D02*
X2264643Y-3946643D01*
X2907500Y-3575214D02*
X2936071Y-3575214D01*
X2964643Y-3589500D01*
X2978928Y-3603786D01*
X2993214Y-3632357D01*
X3007500Y-3689500D01*
X3007500Y-3760929D01*
X2993214Y-3818071D01*
X2978928Y-3846643D01*
X2964643Y-3860929D01*
X2936071Y-3875214D01*
X2907500Y-3875214D01*
X2878928Y-3860929D01*
X2864643Y-3846643D01*
X2850357Y-3818071D01*
X2836071Y-3760929D01*
X2836071Y-3689500D01*
X2850357Y-3632357D01*
X2864643Y-3603786D01*
X2878928Y-3589500D01*
X2907500Y-3575214D01*
X3136071Y-3846643D02*
X3150357Y-3860929D01*
X3136071Y-3875214D01*
X3121786Y-3860929D01*
X3136071Y-3846643D01*
X3136071Y-3875214D01*
X3436071Y-3875214D02*
X3264643Y-3875214D01*
X3350357Y-3875214D02*
X3350357Y-3575214D01*
X3321786Y-3618071D01*
X3293214Y-3646643D01*
X3264643Y-3660929D01*
X3550357Y-3603786D02*
X3564643Y-3589500D01*
X3593214Y-3575214D01*
X3664643Y-3575214D01*
X3693214Y-3589500D01*
X3707500Y-3603786D01*
X3721786Y-3632357D01*
X3721786Y-3660929D01*
X3707500Y-3703786D01*
X3536071Y-3875214D01*
X3721786Y-3875214D01*
X3978928Y-3575214D02*
X3921786Y-3575214D01*
X3893214Y-3589500D01*
X3878928Y-3603786D01*
X3850357Y-3646643D01*
X3836071Y-3703786D01*
X3836071Y-3818071D01*
X3850357Y-3846643D01*
X3864643Y-3860929D01*
X3893214Y-3875214D01*
X3950357Y-3875214D01*
X3978928Y-3860929D01*
X3993214Y-3846643D01*
X4007500Y-3818071D01*
X4007500Y-3746643D01*
X3993214Y-3718071D01*
X3978928Y-3703786D01*
X3950357Y-3689500D01*
X3893214Y-3689500D01*
X3864643Y-3703786D01*
X3850357Y-3718071D01*
X3836071Y-3746643D01*
X4121786Y-3575214D02*
X4121786Y-3632357D01*
X4236071Y-3575214D02*
X4236071Y-3632357D01*
X4678928Y-3989500D02*
X4664643Y-3975214D01*
X4636071Y-3932357D01*
X4621786Y-3903786D01*
X4607500Y-3860929D01*
X4593214Y-3789500D01*
X4593214Y-3732357D01*
X4607500Y-3660929D01*
X4621786Y-3618071D01*
X4636071Y-3589500D01*
X4664643Y-3546643D01*
X4678928Y-3532357D01*
X4778928Y-3603786D02*
X4793214Y-3589500D01*
X4821786Y-3575214D01*
X4893214Y-3575214D01*
X4921786Y-3589500D01*
X4936071Y-3603786D01*
X4950357Y-3632357D01*
X4950357Y-3660929D01*
X4936071Y-3703786D01*
X4764643Y-3875214D01*
X4950357Y-3875214D01*
X5307500Y-3875214D02*
X5307500Y-3575214D01*
X5436071Y-3875214D02*
X5436071Y-3718071D01*
X5421786Y-3689500D01*
X5393214Y-3675214D01*
X5350357Y-3675214D01*
X5321786Y-3689500D01*
X5307500Y-3703786D01*
X5621786Y-3875214D02*
X5593214Y-3860929D01*
X5578928Y-3846643D01*
X5564643Y-3818071D01*
X5564643Y-3732357D01*
X5578928Y-3703786D01*
X5593214Y-3689500D01*
X5621786Y-3675214D01*
X5664643Y-3675214D01*
X5693214Y-3689500D01*
X5707500Y-3703786D01*
X5721786Y-3732357D01*
X5721786Y-3818071D01*
X5707500Y-3846643D01*
X5693214Y-3860929D01*
X5664643Y-3875214D01*
X5621786Y-3875214D01*
X5893214Y-3875214D02*
X5864643Y-3860929D01*
X5850357Y-3832357D01*
X5850357Y-3575214D01*
X6121786Y-3860929D02*
X6093214Y-3875214D01*
X6036071Y-3875214D01*
X6007500Y-3860929D01*
X5993214Y-3832357D01*
X5993214Y-3718071D01*
X6007500Y-3689500D01*
X6036071Y-3675214D01*
X6093214Y-3675214D01*
X6121786Y-3689500D01*
X6136071Y-3718071D01*
X6136071Y-3746643D01*
X5993214Y-3775214D01*
X6250357Y-3860929D02*
X6278928Y-3875214D01*
X6336071Y-3875214D01*
X6364643Y-3860929D01*
X6378928Y-3832357D01*
X6378928Y-3818071D01*
X6364643Y-3789500D01*
X6336071Y-3775214D01*
X6293214Y-3775214D01*
X6264643Y-3760929D01*
X6250357Y-3732357D01*
X6250357Y-3718071D01*
X6264643Y-3689500D01*
X6293214Y-3675214D01*
X6336071Y-3675214D01*
X6364643Y-3689500D01*
X6478928Y-3989500D02*
X6493214Y-3975214D01*
X6521786Y-3932357D01*
X6536071Y-3903786D01*
X6550357Y-3860929D01*
X6564643Y-3789500D01*
X6564643Y-3732357D01*
X6550357Y-3660929D01*
X6536071Y-3618071D01*
X6521786Y-3589500D01*
X6493214Y-3546643D01*
X6478928Y-3532357D01*
X7021786Y-3989500D02*
X7007500Y-3975214D01*
X6978928Y-3932357D01*
X6964643Y-3903786D01*
X6950357Y-3860929D01*
X6936071Y-3789500D01*
X6936071Y-3732357D01*
X6950357Y-3660929D01*
X6964643Y-3618071D01*
X6978928Y-3589500D01*
X7007500Y-3546643D01*
X7021786Y-3532357D01*
X7136071Y-3675214D02*
X7136071Y-3875214D01*
X7136071Y-3703786D02*
X7150357Y-3689500D01*
X7178928Y-3675214D01*
X7221786Y-3675214D01*
X7250357Y-3689500D01*
X7264643Y-3718071D01*
X7264643Y-3875214D01*
X7450357Y-3875214D02*
X7421786Y-3860929D01*
X7407500Y-3846643D01*
X7393214Y-3818071D01*
X7393214Y-3732357D01*
X7407500Y-3703786D01*
X7421786Y-3689500D01*
X7450357Y-3675214D01*
X7493214Y-3675214D01*
X7521786Y-3689500D01*
X7536071Y-3703786D01*
X7550357Y-3732357D01*
X7550357Y-3818071D01*
X7536071Y-3846643D01*
X7521786Y-3860929D01*
X7493214Y-3875214D01*
X7450357Y-3875214D01*
X7636071Y-3675214D02*
X7750357Y-3675214D01*
X7678928Y-3575214D02*
X7678928Y-3832357D01*
X7693214Y-3860929D01*
X7721786Y-3875214D01*
X7750357Y-3875214D01*
X8078928Y-3675214D02*
X8078928Y-3975214D01*
X8078928Y-3689500D02*
X8107500Y-3675214D01*
X8164643Y-3675214D01*
X8193214Y-3689500D01*
X8207500Y-3703786D01*
X8221786Y-3732357D01*
X8221786Y-3818071D01*
X8207500Y-3846643D01*
X8193214Y-3860929D01*
X8164643Y-3875214D01*
X8107500Y-3875214D01*
X8078928Y-3860929D01*
X8393214Y-3875214D02*
X8364643Y-3860929D01*
X8350357Y-3832357D01*
X8350357Y-3575214D01*
X8636071Y-3875214D02*
X8636071Y-3718071D01*
X8621786Y-3689500D01*
X8593214Y-3675214D01*
X8536071Y-3675214D01*
X8507500Y-3689500D01*
X8636071Y-3860929D02*
X8607500Y-3875214D01*
X8536071Y-3875214D01*
X8507500Y-3860929D01*
X8493214Y-3832357D01*
X8493214Y-3803786D01*
X8507500Y-3775214D01*
X8536071Y-3760929D01*
X8607500Y-3760929D01*
X8636071Y-3746643D01*
X8736071Y-3675214D02*
X8850357Y-3675214D01*
X8778928Y-3575214D02*
X8778928Y-3832357D01*
X8793214Y-3860929D01*
X8821786Y-3875214D01*
X8850357Y-3875214D01*
X9064643Y-3860929D02*
X9036071Y-3875214D01*
X8978928Y-3875214D01*
X8950357Y-3860929D01*
X8936071Y-3832357D01*
X8936071Y-3718071D01*
X8950357Y-3689500D01*
X8978928Y-3675214D01*
X9036071Y-3675214D01*
X9064643Y-3689500D01*
X9078928Y-3718071D01*
X9078928Y-3746643D01*
X8936071Y-3775214D01*
X9336071Y-3875214D02*
X9336071Y-3575214D01*
X9336071Y-3860929D02*
X9307500Y-3875214D01*
X9250357Y-3875214D01*
X9221786Y-3860929D01*
X9207500Y-3846643D01*
X9193214Y-3818071D01*
X9193214Y-3732357D01*
X9207500Y-3703786D01*
X9221786Y-3689500D01*
X9250357Y-3675214D01*
X9307500Y-3675214D01*
X9336071Y-3689500D01*
X9450357Y-3989500D02*
X9464643Y-3975214D01*
X9493214Y-3932357D01*
X9507500Y-3903786D01*
X9521786Y-3860929D01*
X9536071Y-3789500D01*
X9536071Y-3732357D01*
X9521786Y-3660929D01*
X9507500Y-3618071D01*
X9493214Y-3589500D01*
X9464643Y-3546643D01*
X9450357Y-3532357D01*
M02*
