G04 #@! TF.GenerationSoftware,KiCad,Pcbnew,(5.0.2)-1*
G04 #@! TF.CreationDate,2019-01-25T11:54:36-05:00*
G04 #@! TF.ProjectId,midimerger,6d696469-6d65-4726-9765-722e6b696361,rev?*
G04 #@! TF.SameCoordinates,PX60e4b00PY695f190*
G04 #@! TF.FileFunction,Other,Fab,Top*
%FSLAX46Y46*%
G04 Gerber Fmt 4.6, Leading zero omitted, Abs format (unit mm)*
G04 Created by KiCad (PCBNEW (5.0.2)-1) date 2019-01-25 11:54:36 AM*
%MOMM*%
%LPD*%
G01*
G04 APERTURE LIST*
%ADD10C,0.100000*%
%ADD11C,0.150000*%
%ADD12C,0.120000*%
G04 APERTURE END LIST*
D10*
G04 #@! TO.C,C1*
X27130000Y33020000D02*
G75*
G03X27130000Y33020000I-2000000J0D01*
G01*
X23427446Y33887500D02*
X23827446Y33887500D01*
X23627446Y34087500D02*
X23627446Y33687500D01*
G04 #@! TO.C,D1*
X36290000Y37100000D02*
X36290000Y39100000D01*
X36290000Y39100000D02*
X32290000Y39100000D01*
X32290000Y39100000D02*
X32290000Y37100000D01*
X32290000Y37100000D02*
X36290000Y37100000D01*
X38100000Y38100000D02*
X36290000Y38100000D01*
X30480000Y38100000D02*
X32290000Y38100000D01*
X35690000Y37100000D02*
X35690000Y39100000D01*
X35590000Y37100000D02*
X35590000Y39100000D01*
X35790000Y37100000D02*
X35790000Y39100000D01*
G04 #@! TO.C,J1*
X45870000Y7420000D02*
X45870000Y20520000D01*
X26400000Y7420000D02*
X45870000Y7420000D01*
X26400000Y20520000D02*
X45870000Y20520000D01*
X26400000Y7420000D02*
X26400000Y20520000D01*
G04 #@! TO.C,U2*
X32115000Y34290000D02*
X37465000Y34290000D01*
X37465000Y34290000D02*
X37465000Y24130000D01*
X37465000Y24130000D02*
X31115000Y24130000D01*
X31115000Y24130000D02*
X31115000Y33290000D01*
X31115000Y33290000D02*
X32115000Y34290000D01*
X29210000Y34350000D02*
X29210000Y24070000D01*
X29210000Y24070000D02*
X39370000Y24070000D01*
X39370000Y24070000D02*
X39370000Y34350000D01*
X39370000Y34350000D02*
X29210000Y34350000D01*
G04 #@! TO.C,R1*
X39370000Y43180000D02*
X37520000Y43180000D01*
X26670000Y43180000D02*
X28520000Y43180000D01*
X37520000Y44780000D02*
X28520000Y44780000D01*
X37520000Y41580000D02*
X37520000Y44780000D01*
X28520000Y41580000D02*
X37520000Y41580000D01*
X28520000Y44780000D02*
X28520000Y41580000D01*
G04 #@! TO.C,R2*
X61650000Y39040000D02*
X61650000Y42240000D01*
X61650000Y42240000D02*
X52650000Y42240000D01*
X52650000Y42240000D02*
X52650000Y39040000D01*
X52650000Y39040000D02*
X61650000Y39040000D01*
X63500000Y40640000D02*
X61650000Y40640000D01*
X50800000Y40640000D02*
X52650000Y40640000D01*
G04 #@! TO.C,R3*
X52650000Y37160000D02*
X52650000Y33960000D01*
X52650000Y33960000D02*
X61650000Y33960000D01*
X61650000Y33960000D02*
X61650000Y37160000D01*
X61650000Y37160000D02*
X52650000Y37160000D01*
X50800000Y35560000D02*
X52650000Y35560000D01*
X63500000Y35560000D02*
X61650000Y35560000D01*
G04 #@! TO.C,R4*
X63500000Y30480000D02*
X61650000Y30480000D01*
X50800000Y30480000D02*
X52650000Y30480000D01*
X61650000Y32080000D02*
X52650000Y32080000D01*
X61650000Y28880000D02*
X61650000Y32080000D01*
X52650000Y28880000D02*
X61650000Y28880000D01*
X52650000Y32080000D02*
X52650000Y28880000D01*
G04 #@! TD*
G04 #@! TO.C,C1*
D11*
X23630000Y30317620D02*
X23725238Y30317620D01*
X23820476Y30270000D01*
X23868095Y30222381D01*
X23915714Y30127143D01*
X23963333Y29936667D01*
X23963333Y29698572D01*
X23915714Y29508096D01*
X23868095Y29412858D01*
X23820476Y29365239D01*
X23725238Y29317620D01*
X23630000Y29317620D01*
X23534761Y29365239D01*
X23487142Y29412858D01*
X23439523Y29508096D01*
X23391904Y29698572D01*
X23391904Y29936667D01*
X23439523Y30127143D01*
X23487142Y30222381D01*
X23534761Y30270000D01*
X23630000Y30317620D01*
X24391904Y29412858D02*
X24439523Y29365239D01*
X24391904Y29317620D01*
X24344285Y29365239D01*
X24391904Y29412858D01*
X24391904Y29317620D01*
X25391904Y29317620D02*
X24820476Y29317620D01*
X25106190Y29317620D02*
X25106190Y30317620D01*
X25010952Y30174762D01*
X24915714Y30079524D01*
X24820476Y30031905D01*
X26249047Y29984286D02*
X26249047Y29317620D01*
X25820476Y29984286D02*
X25820476Y29460477D01*
X25868095Y29365239D01*
X25963333Y29317620D01*
X26106190Y29317620D01*
X26201428Y29365239D01*
X26249047Y29412858D01*
X26582380Y29984286D02*
X26963333Y29984286D01*
X26725238Y29317620D02*
X26725238Y30174762D01*
X26772857Y30270000D01*
X26868095Y30317620D01*
X26963333Y30317620D01*
D12*
X24996666Y32734286D02*
X24958571Y32696191D01*
X24844285Y32658096D01*
X24768095Y32658096D01*
X24653809Y32696191D01*
X24577619Y32772381D01*
X24539523Y32848572D01*
X24501428Y33000953D01*
X24501428Y33115239D01*
X24539523Y33267620D01*
X24577619Y33343810D01*
X24653809Y33420000D01*
X24768095Y33458096D01*
X24844285Y33458096D01*
X24958571Y33420000D01*
X24996666Y33381905D01*
X25758571Y32658096D02*
X25301428Y32658096D01*
X25530000Y32658096D02*
X25530000Y33458096D01*
X25453809Y33343810D01*
X25377619Y33267620D01*
X25301428Y33229524D01*
G04 #@! TO.C,D1*
D11*
X32147142Y39767620D02*
X31575714Y39767620D01*
X31861428Y39767620D02*
X31861428Y40767620D01*
X31766190Y40624762D01*
X31670952Y40529524D01*
X31575714Y40481905D01*
X32575714Y39767620D02*
X32575714Y40767620D01*
X33147142Y39767620D01*
X33147142Y40767620D01*
X34051904Y40434286D02*
X34051904Y39767620D01*
X33813809Y40815239D02*
X33575714Y40100953D01*
X34194761Y40100953D01*
X35099523Y39767620D02*
X34528095Y39767620D01*
X34813809Y39767620D02*
X34813809Y40767620D01*
X34718571Y40624762D01*
X34623333Y40529524D01*
X34528095Y40481905D01*
X35956666Y40434286D02*
X35956666Y39767620D01*
X35718571Y40815239D02*
X35480476Y40100953D01*
X36099523Y40100953D01*
X36623333Y40339048D02*
X36528095Y40386667D01*
X36480476Y40434286D01*
X36432857Y40529524D01*
X36432857Y40577143D01*
X36480476Y40672381D01*
X36528095Y40720000D01*
X36623333Y40767620D01*
X36813809Y40767620D01*
X36909047Y40720000D01*
X36956666Y40672381D01*
X37004285Y40577143D01*
X37004285Y40529524D01*
X36956666Y40434286D01*
X36909047Y40386667D01*
X36813809Y40339048D01*
X36623333Y40339048D01*
X36528095Y40291429D01*
X36480476Y40243810D01*
X36432857Y40148572D01*
X36432857Y39958096D01*
X36480476Y39862858D01*
X36528095Y39815239D01*
X36623333Y39767620D01*
X36813809Y39767620D01*
X36909047Y39815239D01*
X36956666Y39862858D01*
X37004285Y39958096D01*
X37004285Y40148572D01*
X36956666Y40243810D01*
X36909047Y40291429D01*
X36813809Y40339048D01*
D12*
X33399523Y37738096D02*
X33399523Y38538096D01*
X33590000Y38538096D01*
X33704285Y38500000D01*
X33780476Y38423810D01*
X33818571Y38347620D01*
X33856666Y38195239D01*
X33856666Y38080953D01*
X33818571Y37928572D01*
X33780476Y37852381D01*
X33704285Y37776191D01*
X33590000Y37738096D01*
X33399523Y37738096D01*
X34618571Y37738096D02*
X34161428Y37738096D01*
X34390000Y37738096D02*
X34390000Y38538096D01*
X34313809Y38423810D01*
X34237619Y38347620D01*
X34161428Y38309524D01*
D11*
X37838095Y35847620D02*
X37838095Y36847620D01*
X38409523Y35847620D02*
X37980952Y36419048D01*
X38409523Y36847620D02*
X37838095Y36276191D01*
G04 #@! TO.C,J1*
X46587380Y11523572D02*
X47396904Y11523572D01*
X47492142Y11571191D01*
X47539761Y11618810D01*
X47587380Y11714048D01*
X47587380Y11904524D01*
X47539761Y11999762D01*
X47492142Y12047381D01*
X47396904Y12095000D01*
X46587380Y12095000D01*
X47539761Y12523572D02*
X47587380Y12666429D01*
X47587380Y12904524D01*
X47539761Y12999762D01*
X47492142Y13047381D01*
X47396904Y13095000D01*
X47301666Y13095000D01*
X47206428Y13047381D01*
X47158809Y12999762D01*
X47111190Y12904524D01*
X47063571Y12714048D01*
X47015952Y12618810D01*
X46968333Y12571191D01*
X46873095Y12523572D01*
X46777857Y12523572D01*
X46682619Y12571191D01*
X46635000Y12618810D01*
X46587380Y12714048D01*
X46587380Y12952143D01*
X46635000Y13095000D01*
X47063571Y13856905D02*
X47111190Y13999762D01*
X47158809Y14047381D01*
X47254047Y14095000D01*
X47396904Y14095000D01*
X47492142Y14047381D01*
X47539761Y13999762D01*
X47587380Y13904524D01*
X47587380Y13523572D01*
X46587380Y13523572D01*
X46587380Y13856905D01*
X46635000Y13952143D01*
X46682619Y13999762D01*
X46777857Y14047381D01*
X46873095Y14047381D01*
X46968333Y13999762D01*
X47015952Y13952143D01*
X47063571Y13856905D01*
X47063571Y13523572D01*
X47682619Y14285477D02*
X47682619Y15047381D01*
X47301666Y15237858D02*
X47301666Y15714048D01*
X47587380Y15142620D02*
X46587380Y15475953D01*
X47587380Y15809286D01*
X29637380Y13611667D02*
X30351666Y13611667D01*
X30494523Y13564048D01*
X30589761Y13468810D01*
X30637380Y13325953D01*
X30637380Y13230715D01*
X30637380Y14611667D02*
X30637380Y14040239D01*
X30637380Y14325953D02*
X29637380Y14325953D01*
X29780238Y14230715D01*
X29875476Y14135477D01*
X29923095Y14040239D01*
G04 #@! TO.C,U1*
X22312380Y29448572D02*
X22312380Y30020000D01*
X23312380Y29734286D02*
X22312380Y29734286D01*
X23264761Y30734286D02*
X23312380Y30639048D01*
X23312380Y30448572D01*
X23264761Y30353334D01*
X23169523Y30305715D01*
X22788571Y30305715D01*
X22693333Y30353334D01*
X22645714Y30448572D01*
X22645714Y30639048D01*
X22693333Y30734286D01*
X22788571Y30781905D01*
X22883809Y30781905D01*
X22979047Y30305715D01*
X23264761Y31591429D02*
X23312380Y31496191D01*
X23312380Y31305715D01*
X23264761Y31210477D01*
X23169523Y31162858D01*
X22788571Y31162858D01*
X22693333Y31210477D01*
X22645714Y31305715D01*
X22645714Y31496191D01*
X22693333Y31591429D01*
X22788571Y31639048D01*
X22883809Y31639048D01*
X22979047Y31162858D01*
X22645714Y32067620D02*
X23312380Y32067620D01*
X22740952Y32067620D02*
X22693333Y32115239D01*
X22645714Y32210477D01*
X22645714Y32353334D01*
X22693333Y32448572D01*
X22788571Y32496191D01*
X23312380Y32496191D01*
X23264761Y32924762D02*
X23312380Y33020000D01*
X23312380Y33210477D01*
X23264761Y33305715D01*
X23169523Y33353334D01*
X23121904Y33353334D01*
X23026666Y33305715D01*
X22979047Y33210477D01*
X22979047Y33067620D01*
X22931428Y32972381D01*
X22836190Y32924762D01*
X22788571Y32924762D01*
X22693333Y32972381D01*
X22645714Y33067620D01*
X22645714Y33210477D01*
X22693333Y33305715D01*
X22645714Y33686667D02*
X23312380Y33924762D01*
X22645714Y34162858D02*
X23312380Y33924762D01*
X23550476Y33829524D01*
X23598095Y33781905D01*
X23645714Y33686667D01*
X22312380Y34448572D02*
X22312380Y35067620D01*
X22693333Y34734286D01*
X22693333Y34877143D01*
X22740952Y34972381D01*
X22788571Y35020000D01*
X22883809Y35067620D01*
X23121904Y35067620D01*
X23217142Y35020000D01*
X23264761Y34972381D01*
X23312380Y34877143D01*
X23312380Y34591429D01*
X23264761Y34496191D01*
X23217142Y34448572D01*
X23217142Y35496191D02*
X23264761Y35543810D01*
X23312380Y35496191D01*
X23264761Y35448572D01*
X23217142Y35496191D01*
X23312380Y35496191D01*
X22312380Y36400953D02*
X22312380Y36210477D01*
X22360000Y36115239D01*
X22407619Y36067620D01*
X22550476Y35972381D01*
X22740952Y35924762D01*
X23121904Y35924762D01*
X23217142Y35972381D01*
X23264761Y36020000D01*
X23312380Y36115239D01*
X23312380Y36305715D01*
X23264761Y36400953D01*
X23217142Y36448572D01*
X23121904Y36496191D01*
X22883809Y36496191D01*
X22788571Y36448572D01*
X22740952Y36400953D01*
X22693333Y36305715D01*
X22693333Y36115239D01*
X22740952Y36020000D01*
X22788571Y35972381D01*
X22883809Y35924762D01*
G04 #@! TO.C,U2*
X32528095Y23617620D02*
X32337619Y23617620D01*
X32242380Y23570000D01*
X32194761Y23522381D01*
X32099523Y23379524D01*
X32051904Y23189048D01*
X32051904Y22808096D01*
X32099523Y22712858D01*
X32147142Y22665239D01*
X32242380Y22617620D01*
X32432857Y22617620D01*
X32528095Y22665239D01*
X32575714Y22712858D01*
X32623333Y22808096D01*
X32623333Y23046191D01*
X32575714Y23141429D01*
X32528095Y23189048D01*
X32432857Y23236667D01*
X32242380Y23236667D01*
X32147142Y23189048D01*
X32099523Y23141429D01*
X32051904Y23046191D01*
X33051904Y22617620D02*
X33051904Y23617620D01*
X33623333Y22617620D01*
X33623333Y23617620D01*
X34623333Y22617620D02*
X34051904Y22617620D01*
X34337619Y22617620D02*
X34337619Y23617620D01*
X34242380Y23474762D01*
X34147142Y23379524D01*
X34051904Y23331905D01*
X34956666Y23617620D02*
X35575714Y23617620D01*
X35242380Y23236667D01*
X35385238Y23236667D01*
X35480476Y23189048D01*
X35528095Y23141429D01*
X35575714Y23046191D01*
X35575714Y22808096D01*
X35528095Y22712858D01*
X35480476Y22665239D01*
X35385238Y22617620D01*
X35099523Y22617620D01*
X35004285Y22665239D01*
X34956666Y22712858D01*
X36147142Y23189048D02*
X36051904Y23236667D01*
X36004285Y23284286D01*
X35956666Y23379524D01*
X35956666Y23427143D01*
X36004285Y23522381D01*
X36051904Y23570000D01*
X36147142Y23617620D01*
X36337619Y23617620D01*
X36432857Y23570000D01*
X36480476Y23522381D01*
X36528095Y23427143D01*
X36528095Y23379524D01*
X36480476Y23284286D01*
X36432857Y23236667D01*
X36337619Y23189048D01*
X36147142Y23189048D01*
X36051904Y23141429D01*
X36004285Y23093810D01*
X35956666Y22998572D01*
X35956666Y22808096D01*
X36004285Y22712858D01*
X36051904Y22665239D01*
X36147142Y22617620D01*
X36337619Y22617620D01*
X36432857Y22665239D01*
X36480476Y22712858D01*
X36528095Y22808096D01*
X36528095Y22998572D01*
X36480476Y23093810D01*
X36432857Y23141429D01*
X36337619Y23189048D01*
X33528095Y29757620D02*
X33528095Y28948096D01*
X33575714Y28852858D01*
X33623333Y28805239D01*
X33718571Y28757620D01*
X33909047Y28757620D01*
X34004285Y28805239D01*
X34051904Y28852858D01*
X34099523Y28948096D01*
X34099523Y29757620D01*
X34528095Y29662381D02*
X34575714Y29710000D01*
X34670952Y29757620D01*
X34909047Y29757620D01*
X35004285Y29710000D01*
X35051904Y29662381D01*
X35099523Y29567143D01*
X35099523Y29471905D01*
X35051904Y29329048D01*
X34480476Y28757620D01*
X35099523Y28757620D01*
G04 #@! TO.C,REF\002A\002A*
X55650952Y1697620D02*
X55650952Y2697620D01*
X55984285Y1983334D01*
X56317619Y2697620D01*
X56317619Y1697620D01*
X56936666Y1697620D02*
X56841428Y1745239D01*
X56793809Y1792858D01*
X56746190Y1888096D01*
X56746190Y2173810D01*
X56793809Y2269048D01*
X56841428Y2316667D01*
X56936666Y2364286D01*
X57079523Y2364286D01*
X57174761Y2316667D01*
X57222380Y2269048D01*
X57270000Y2173810D01*
X57270000Y1888096D01*
X57222380Y1792858D01*
X57174761Y1745239D01*
X57079523Y1697620D01*
X56936666Y1697620D01*
X58127142Y2364286D02*
X58127142Y1697620D01*
X57698571Y2364286D02*
X57698571Y1840477D01*
X57746190Y1745239D01*
X57841428Y1697620D01*
X57984285Y1697620D01*
X58079523Y1745239D01*
X58127142Y1792858D01*
X58603333Y2364286D02*
X58603333Y1697620D01*
X58603333Y2269048D02*
X58650952Y2316667D01*
X58746190Y2364286D01*
X58889047Y2364286D01*
X58984285Y2316667D01*
X59031904Y2221429D01*
X59031904Y1697620D01*
X59365238Y2364286D02*
X59746190Y2364286D01*
X59508095Y2697620D02*
X59508095Y1840477D01*
X59555714Y1745239D01*
X59650952Y1697620D01*
X59746190Y1697620D01*
X60079523Y1697620D02*
X60079523Y2364286D01*
X60079523Y2697620D02*
X60031904Y2650000D01*
X60079523Y2602381D01*
X60127142Y2650000D01*
X60079523Y2697620D01*
X60079523Y2602381D01*
X60555714Y2364286D02*
X60555714Y1697620D01*
X60555714Y2269048D02*
X60603333Y2316667D01*
X60698571Y2364286D01*
X60841428Y2364286D01*
X60936666Y2316667D01*
X60984285Y2221429D01*
X60984285Y1697620D01*
X61889047Y2364286D02*
X61889047Y1554762D01*
X61841428Y1459524D01*
X61793809Y1411905D01*
X61698571Y1364286D01*
X61555714Y1364286D01*
X61460476Y1411905D01*
X61889047Y1745239D02*
X61793809Y1697620D01*
X61603333Y1697620D01*
X61508095Y1745239D01*
X61460476Y1792858D01*
X61412857Y1888096D01*
X61412857Y2173810D01*
X61460476Y2269048D01*
X61508095Y2316667D01*
X61603333Y2364286D01*
X61793809Y2364286D01*
X61889047Y2316667D01*
X62365238Y1697620D02*
X62365238Y2697620D01*
X62365238Y2221429D02*
X62936666Y2221429D01*
X62936666Y1697620D02*
X62936666Y2697620D01*
X63555714Y1697620D02*
X63460476Y1745239D01*
X63412857Y1792858D01*
X63365238Y1888096D01*
X63365238Y2173810D01*
X63412857Y2269048D01*
X63460476Y2316667D01*
X63555714Y2364286D01*
X63698571Y2364286D01*
X63793809Y2316667D01*
X63841428Y2269048D01*
X63889047Y2173810D01*
X63889047Y1888096D01*
X63841428Y1792858D01*
X63793809Y1745239D01*
X63698571Y1697620D01*
X63555714Y1697620D01*
X64460476Y1697620D02*
X64365238Y1745239D01*
X64317619Y1840477D01*
X64317619Y2697620D01*
X65222380Y1745239D02*
X65127142Y1697620D01*
X64936666Y1697620D01*
X64841428Y1745239D01*
X64793809Y1840477D01*
X64793809Y2221429D01*
X64841428Y2316667D01*
X64936666Y2364286D01*
X65127142Y2364286D01*
X65222380Y2316667D01*
X65270000Y2221429D01*
X65270000Y2126191D01*
X64793809Y2030953D01*
X65460476Y1602381D02*
X66222380Y1602381D01*
X66365238Y2697620D02*
X66984285Y2697620D01*
X66650952Y2316667D01*
X66793809Y2316667D01*
X66889047Y2269048D01*
X66936666Y2221429D01*
X66984285Y2126191D01*
X66984285Y1888096D01*
X66936666Y1792858D01*
X66889047Y1745239D01*
X66793809Y1697620D01*
X66508095Y1697620D01*
X66412857Y1745239D01*
X66365238Y1792858D01*
X67412857Y1792858D02*
X67460476Y1745239D01*
X67412857Y1697620D01*
X67365238Y1745239D01*
X67412857Y1792858D01*
X67412857Y1697620D01*
X67841428Y2602381D02*
X67889047Y2650000D01*
X67984285Y2697620D01*
X68222380Y2697620D01*
X68317619Y2650000D01*
X68365238Y2602381D01*
X68412857Y2507143D01*
X68412857Y2411905D01*
X68365238Y2269048D01*
X67793809Y1697620D01*
X68412857Y1697620D01*
X68841428Y1697620D02*
X68841428Y2364286D01*
X68841428Y2269048D02*
X68889047Y2316667D01*
X68984285Y2364286D01*
X69127142Y2364286D01*
X69222380Y2316667D01*
X69270000Y2221429D01*
X69270000Y1697620D01*
X69270000Y2221429D02*
X69317619Y2316667D01*
X69412857Y2364286D01*
X69555714Y2364286D01*
X69650952Y2316667D01*
X69698571Y2221429D01*
X69698571Y1697620D01*
X70174761Y1697620D02*
X70174761Y2364286D01*
X70174761Y2269048D02*
X70222380Y2316667D01*
X70317619Y2364286D01*
X70460476Y2364286D01*
X70555714Y2316667D01*
X70603333Y2221429D01*
X70603333Y1697620D01*
X70603333Y2221429D02*
X70650952Y2316667D01*
X70746190Y2364286D01*
X70889047Y2364286D01*
X70984285Y2316667D01*
X71031904Y2221429D01*
X71031904Y1697620D01*
X71270000Y1602381D02*
X72031904Y1602381D01*
X72270000Y1697620D02*
X72270000Y2697620D01*
X72603333Y1983334D01*
X72936666Y2697620D01*
X72936666Y1697620D01*
X73317619Y2697620D02*
X73936666Y2697620D01*
X73603333Y2316667D01*
X73746190Y2316667D01*
X73841428Y2269048D01*
X73889047Y2221429D01*
X73936666Y2126191D01*
X73936666Y1888096D01*
X73889047Y1792858D01*
X73841428Y1745239D01*
X73746190Y1697620D01*
X73460476Y1697620D01*
X73365238Y1745239D01*
X73317619Y1792858D01*
X63736666Y5897620D02*
X63403333Y6373810D01*
X63165238Y5897620D02*
X63165238Y6897620D01*
X63546190Y6897620D01*
X63641428Y6850000D01*
X63689047Y6802381D01*
X63736666Y6707143D01*
X63736666Y6564286D01*
X63689047Y6469048D01*
X63641428Y6421429D01*
X63546190Y6373810D01*
X63165238Y6373810D01*
X64165238Y6421429D02*
X64498571Y6421429D01*
X64641428Y5897620D02*
X64165238Y5897620D01*
X64165238Y6897620D01*
X64641428Y6897620D01*
X65403333Y6421429D02*
X65070000Y6421429D01*
X65070000Y5897620D02*
X65070000Y6897620D01*
X65546190Y6897620D01*
X66070000Y6897620D02*
X66070000Y6659524D01*
X65831904Y6754762D02*
X66070000Y6659524D01*
X66308095Y6754762D01*
X65927142Y6469048D02*
X66070000Y6659524D01*
X66212857Y6469048D01*
X66831904Y6897620D02*
X66831904Y6659524D01*
X66593809Y6754762D02*
X66831904Y6659524D01*
X67070000Y6754762D01*
X66689047Y6469048D02*
X66831904Y6659524D01*
X66974761Y6469048D01*
G04 #@! TO.C,R1*
X31781904Y40912381D02*
X31829523Y40960000D01*
X31924761Y41007620D01*
X32162857Y41007620D01*
X32258095Y40960000D01*
X32305714Y40912381D01*
X32353333Y40817143D01*
X32353333Y40721905D01*
X32305714Y40579048D01*
X31734285Y40007620D01*
X32353333Y40007620D01*
X32734285Y40912381D02*
X32781904Y40960000D01*
X32877142Y41007620D01*
X33115238Y41007620D01*
X33210476Y40960000D01*
X33258095Y40912381D01*
X33305714Y40817143D01*
X33305714Y40721905D01*
X33258095Y40579048D01*
X32686666Y40007620D01*
X33305714Y40007620D01*
X33924761Y41007620D02*
X34020000Y41007620D01*
X34115238Y40960000D01*
X34162857Y40912381D01*
X34210476Y40817143D01*
X34258095Y40626667D01*
X34258095Y40388572D01*
X34210476Y40198096D01*
X34162857Y40102858D01*
X34115238Y40055239D01*
X34020000Y40007620D01*
X33924761Y40007620D01*
X33829523Y40055239D01*
X33781904Y40102858D01*
X33734285Y40198096D01*
X33686666Y40388572D01*
X33686666Y40626667D01*
X33734285Y40817143D01*
X33781904Y40912381D01*
X33829523Y40960000D01*
X33924761Y41007620D01*
X32853333Y42727620D02*
X32520000Y43203810D01*
X32281904Y42727620D02*
X32281904Y43727620D01*
X32662857Y43727620D01*
X32758095Y43680000D01*
X32805714Y43632381D01*
X32853333Y43537143D01*
X32853333Y43394286D01*
X32805714Y43299048D01*
X32758095Y43251429D01*
X32662857Y43203810D01*
X32281904Y43203810D01*
X33805714Y42727620D02*
X33234285Y42727620D01*
X33520000Y42727620D02*
X33520000Y43727620D01*
X33424761Y43584762D01*
X33329523Y43489524D01*
X33234285Y43441905D01*
G04 #@! TO.C,R2*
X55911904Y43812381D02*
X55959523Y43860000D01*
X56054761Y43907620D01*
X56292857Y43907620D01*
X56388095Y43860000D01*
X56435714Y43812381D01*
X56483333Y43717143D01*
X56483333Y43621905D01*
X56435714Y43479048D01*
X55864285Y42907620D01*
X56483333Y42907620D01*
X56864285Y43812381D02*
X56911904Y43860000D01*
X57007142Y43907620D01*
X57245238Y43907620D01*
X57340476Y43860000D01*
X57388095Y43812381D01*
X57435714Y43717143D01*
X57435714Y43621905D01*
X57388095Y43479048D01*
X56816666Y42907620D01*
X57435714Y42907620D01*
X58054761Y43907620D02*
X58150000Y43907620D01*
X58245238Y43860000D01*
X58292857Y43812381D01*
X58340476Y43717143D01*
X58388095Y43526667D01*
X58388095Y43288572D01*
X58340476Y43098096D01*
X58292857Y43002858D01*
X58245238Y42955239D01*
X58150000Y42907620D01*
X58054761Y42907620D01*
X57959523Y42955239D01*
X57911904Y43002858D01*
X57864285Y43098096D01*
X57816666Y43288572D01*
X57816666Y43526667D01*
X57864285Y43717143D01*
X57911904Y43812381D01*
X57959523Y43860000D01*
X58054761Y43907620D01*
X56983333Y40187620D02*
X56650000Y40663810D01*
X56411904Y40187620D02*
X56411904Y41187620D01*
X56792857Y41187620D01*
X56888095Y41140000D01*
X56935714Y41092381D01*
X56983333Y40997143D01*
X56983333Y40854286D01*
X56935714Y40759048D01*
X56888095Y40711429D01*
X56792857Y40663810D01*
X56411904Y40663810D01*
X57364285Y41092381D02*
X57411904Y41140000D01*
X57507142Y41187620D01*
X57745238Y41187620D01*
X57840476Y41140000D01*
X57888095Y41092381D01*
X57935714Y40997143D01*
X57935714Y40901905D01*
X57888095Y40759048D01*
X57316666Y40187620D01*
X57935714Y40187620D01*
G04 #@! TO.C,R3*
X55911904Y33292381D02*
X55959523Y33340000D01*
X56054761Y33387620D01*
X56292857Y33387620D01*
X56388095Y33340000D01*
X56435714Y33292381D01*
X56483333Y33197143D01*
X56483333Y33101905D01*
X56435714Y32959048D01*
X55864285Y32387620D01*
X56483333Y32387620D01*
X56864285Y33292381D02*
X56911904Y33340000D01*
X57007142Y33387620D01*
X57245238Y33387620D01*
X57340476Y33340000D01*
X57388095Y33292381D01*
X57435714Y33197143D01*
X57435714Y33101905D01*
X57388095Y32959048D01*
X56816666Y32387620D01*
X57435714Y32387620D01*
X58054761Y33387620D02*
X58150000Y33387620D01*
X58245238Y33340000D01*
X58292857Y33292381D01*
X58340476Y33197143D01*
X58388095Y33006667D01*
X58388095Y32768572D01*
X58340476Y32578096D01*
X58292857Y32482858D01*
X58245238Y32435239D01*
X58150000Y32387620D01*
X58054761Y32387620D01*
X57959523Y32435239D01*
X57911904Y32482858D01*
X57864285Y32578096D01*
X57816666Y32768572D01*
X57816666Y33006667D01*
X57864285Y33197143D01*
X57911904Y33292381D01*
X57959523Y33340000D01*
X58054761Y33387620D01*
X56983333Y35107620D02*
X56650000Y35583810D01*
X56411904Y35107620D02*
X56411904Y36107620D01*
X56792857Y36107620D01*
X56888095Y36060000D01*
X56935714Y36012381D01*
X56983333Y35917143D01*
X56983333Y35774286D01*
X56935714Y35679048D01*
X56888095Y35631429D01*
X56792857Y35583810D01*
X56411904Y35583810D01*
X57316666Y36107620D02*
X57935714Y36107620D01*
X57602380Y35726667D01*
X57745238Y35726667D01*
X57840476Y35679048D01*
X57888095Y35631429D01*
X57935714Y35536191D01*
X57935714Y35298096D01*
X57888095Y35202858D01*
X57840476Y35155239D01*
X57745238Y35107620D01*
X57459523Y35107620D01*
X57364285Y35155239D01*
X57316666Y35202858D01*
G04 #@! TO.C,R4*
X56388095Y27974286D02*
X56388095Y27307620D01*
X56150000Y28355239D02*
X55911904Y27640953D01*
X56530952Y27640953D01*
X56816666Y28307620D02*
X57483333Y28307620D01*
X57054761Y27307620D01*
X58054761Y28307620D02*
X58150000Y28307620D01*
X58245238Y28260000D01*
X58292857Y28212381D01*
X58340476Y28117143D01*
X58388095Y27926667D01*
X58388095Y27688572D01*
X58340476Y27498096D01*
X58292857Y27402858D01*
X58245238Y27355239D01*
X58150000Y27307620D01*
X58054761Y27307620D01*
X57959523Y27355239D01*
X57911904Y27402858D01*
X57864285Y27498096D01*
X57816666Y27688572D01*
X57816666Y27926667D01*
X57864285Y28117143D01*
X57911904Y28212381D01*
X57959523Y28260000D01*
X58054761Y28307620D01*
X56983333Y30027620D02*
X56650000Y30503810D01*
X56411904Y30027620D02*
X56411904Y31027620D01*
X56792857Y31027620D01*
X56888095Y30980000D01*
X56935714Y30932381D01*
X56983333Y30837143D01*
X56983333Y30694286D01*
X56935714Y30599048D01*
X56888095Y30551429D01*
X56792857Y30503810D01*
X56411904Y30503810D01*
X57840476Y30694286D02*
X57840476Y30027620D01*
X57602380Y31075239D02*
X57364285Y30360953D01*
X57983333Y30360953D01*
G04 #@! TD*
M02*
